<svg width="40" height="40" viewBox="0 0 40 40" fill="none" xmlns="http://www.w3.org/2000/svg">
<path fill-rule="evenodd" clip-rule="evenodd" d="M36.6654 20C36.6654 20.9206 35.9192 21.6668 34.9986 21.6668H4.99869C4.07821 21.6668 3.33203 20.9206 3.33203 20C3.33203 19.0796 4.07821 18.3334 4.99869 18.3334H34.9986C35.9192 18.3334 36.6654 19.0796 36.6654 20Z" fill="#039BE4"/>
<path fill-rule="evenodd" clip-rule="evenodd" d="M36.1787 18.8215C36.8295 19.4724 36.8295 20.5276 36.1787 21.1786L27.8453 29.5118C27.1945 30.1628 26.1391 30.1628 25.4883 29.5118C24.8372 28.861 24.8372 27.8056 25.4883 27.1548L32.6431 20L25.4883 12.8452C24.8372 12.1943 24.8372 11.139 25.4883 10.4882C26.1391 9.83728 27.1945 9.83728 27.8453 10.4882L36.1787 18.8215Z" fill="black"/>
</svg>
