<svg width="86" height="83" viewBox="0 0 86 83" fill="none" xmlns="http://www.w3.org/2000/svg">
<path d="M44.0625 49.9991H41.125C39.5027 49.9991 38.1875 51.3143 38.1875 52.9366V79.3741C38.1875 80.9965 39.5027 82.3116 41.125 82.3116H44.0625C45.6848 82.3116 47 80.9965 47 79.3741V52.9366C47 51.3143 45.6848 49.9991 44.0625 49.9991Z" fill="#039BE4"/>
<path d="M61.6875 41.1866H58.75C57.1277 41.1866 55.8125 42.5018 55.8125 44.1241V79.3741C55.8125 80.9965 57.1277 82.3116 58.75 82.3116H61.6875C63.3098 82.3116 64.625 80.9965 64.625 79.3741V44.1241C64.625 42.5018 63.3098 41.1866 61.6875 41.1866Z" fill="#039BE4"/>
<path d="M79.3125 32.3741H76.375C74.7527 32.3741 73.4375 33.6893 73.4375 35.3116V79.3741C73.4375 80.9965 74.7527 82.3116 76.375 82.3116H79.3125C80.9348 82.3116 82.25 80.9965 82.25 79.3741V35.3116C82.25 33.6893 80.9348 32.3741 79.3125 32.3741Z" fill="#039BE4"/>
<path d="M26.4375 58.8116H23.5C21.8777 58.8116 20.5625 60.1268 20.5625 61.7491V79.3741C20.5625 80.9965 21.8777 82.3116 23.5 82.3116H26.4375C28.0598 82.3116 29.375 80.9965 29.375 79.3741V61.7491C29.375 60.1268 28.0598 58.8116 26.4375 58.8116Z" fill="#039BE4"/>
<path d="M8.8125 67.6241H5.875C4.25266 67.6241 2.9375 68.9393 2.9375 70.5616V79.3741C2.9375 80.9965 4.25266 82.3116 5.875 82.3116H8.8125C10.4348 82.3116 11.75 80.9965 11.75 79.3741V70.5616C11.75 68.9393 10.4348 67.6241 8.8125 67.6241Z" fill="#039BE4"/>
<path d="M10.0903 18.9498C11.1629 21.2086 12.8542 23.1169 14.9678 24.453C17.0814 25.7892 19.5307 26.4985 22.0312 26.4985C24.5318 26.4985 26.9811 25.7892 29.0947 24.453C31.2083 23.1169 32.8996 21.2086 33.9722 18.9498C34.6035 17.6269 35.0058 16.2066 35.1619 14.7491C35.2214 14.2618 35.2508 13.7713 35.25 13.2804C35.2533 12.6458 35.2042 12.0121 35.1031 11.3857C34.988 10.5288 34.7812 9.68681 34.4862 8.87413C33.5841 6.2819 31.8975 4.03476 29.6604 2.44457C27.4232 0.85438 24.7466 0 22.0019 0C19.2572 0 16.5805 0.85438 14.3434 2.44457C12.1063 4.03476 10.4196 6.2819 9.5175 8.87413C9.22254 9.68681 9.01573 10.5288 8.90063 11.3857C8.89342 11.5129 8.89342 11.6404 8.90063 11.7676C8.83408 12.269 8.80462 12.7746 8.8125 13.2804C8.81169 13.7713 8.84112 14.2618 8.90063 14.7491C9.05669 16.2066 9.45896 17.6269 10.0903 18.9498ZM22.7656 14.7491H21.2969C20.3863 14.75 19.5078 14.4126 18.8321 13.8022C18.1563 13.1919 17.7314 12.3523 17.6399 11.4463C17.5484 10.5403 17.7968 9.63263 18.3368 8.89948C18.8769 8.16634 19.6701 7.66002 20.5625 7.47882V5.93663C20.5625 5.54709 20.7172 5.17351 20.9927 4.89807C21.2681 4.62262 21.6417 4.46788 22.0312 4.46788C22.4208 4.46788 22.7944 4.62262 23.0698 4.89807C23.3453 5.17351 23.5 5.54709 23.5 5.93663V7.40538H24.9688C25.3583 7.40538 25.7319 7.56012 26.0073 7.83557C26.2828 8.11101 26.4375 8.48459 26.4375 8.87413C26.4375 9.26367 26.2828 9.63725 26.0073 9.91269C25.7319 10.1881 25.3583 10.3429 24.9688 10.3429H21.2969C21.1021 10.3429 20.9153 10.4202 20.7776 10.558C20.6399 10.6957 20.5625 10.8825 20.5625 11.0773C20.5625 11.272 20.6399 11.4588 20.7776 11.5965C20.9153 11.7343 21.1021 11.8116 21.2969 11.8116H22.7656C23.7395 11.7142 24.7121 12.0077 25.4696 12.6275C26.2271 13.2472 26.7073 14.1425 26.8047 15.1163C26.9021 16.0902 26.6086 17.0628 25.9889 17.8203C25.3691 18.5777 24.4738 19.058 23.5 19.1554V20.6241C23.5 21.0137 23.3453 21.3872 23.0698 21.6627C22.7944 21.9381 22.4208 22.0929 22.0312 22.0929C21.6417 22.0929 21.2681 21.9381 20.9927 21.6627C20.7172 21.3872 20.5625 21.0137 20.5625 20.6241V19.1554H19.0938C18.7042 19.1554 18.3306 19.0006 18.0552 18.7252C17.7797 18.4497 17.625 18.0762 17.625 17.6866C17.625 17.2971 17.7797 16.9235 18.0552 16.6481C18.3306 16.3726 18.7042 16.2179 19.0938 16.2179H22.7656C22.9604 16.2179 23.1472 16.1405 23.2849 16.0028C23.4226 15.8651 23.5 15.6783 23.5 15.4835C23.5 15.2887 23.4226 15.1019 23.2849 14.9642C23.1472 14.8265 22.9604 14.7491 22.7656 14.7491ZM84.835 4.98194L84.6147 4.77632C84.3865 4.59749 84.1106 4.49017 83.8216 4.46788H77.8438C77.4542 4.46788 77.0806 4.62262 76.8052 4.89807C76.5297 5.17351 76.375 5.54709 76.375 5.93663C76.375 6.32617 76.5297 6.69975 76.8052 6.97519C77.0806 7.25064 77.4542 7.40538 77.8438 7.40538H80.1203L72.3506 15.0429C54.2245 32.8386 29.8076 42.7616 4.40625 42.6554H1.46875C1.07921 42.6554 0.705631 42.8101 0.430187 43.0856C0.154743 43.361 0 43.7346 0 44.1241C0 44.5137 0.154743 44.8872 0.430187 45.1627C0.705631 45.4381 1.07921 45.5929 1.46875 45.5929H6.08062C31.6761 45.2784 56.1585 35.0791 74.4069 17.1285L82.25 9.43225V11.8116C82.25 12.2012 82.4047 12.5747 82.6802 12.8502C82.9556 13.1256 83.3292 13.2804 83.7188 13.2804C84.1083 13.2804 84.4819 13.1256 84.7573 12.8502C85.0328 12.5747 85.1875 12.2012 85.1875 11.8116V5.93663C85.1875 5.58656 85.0625 5.24799 84.835 4.98194Z" fill="#039BE4"/>
</svg>
