<svg width="149" height="97" viewBox="0 0 149 97" fill="none" xmlns="http://www.w3.org/2000/svg">
<path fill-rule="evenodd" clip-rule="evenodd" d="M141.552 2.33108e-05C140.573 -0.00242932 139.604 0.18868 138.699 0.562356C137.794 0.936033 136.972 1.4849 136.28 2.17737C136.186 2.27171 136.121 2.38344 136.032 2.48275H100.577C100.247 2.48275 99.9316 2.61353 99.6987 2.84633C99.4659 3.07913 99.335 3.39488 99.335 3.72411V17.5529H25.5564C24.0467 17.5588 22.6008 18.162 21.5347 19.2306C20.4685 20.2992 19.869 21.7464 19.867 23.2557V47.1718H1.24169C0.912372 47.1718 0.596544 47.3025 0.363682 47.5353C0.130821 47.7681 0 48.0839 0 48.4131V88.1367C0 88.4659 0.130821 88.7816 0.363682 89.0144C0.596544 89.2472 0.912372 89.378 1.24169 89.378H13.8225C14.9336 91.6637 16.6657 93.5906 18.8206 94.9385C20.9756 96.2863 23.4664 97.0007 26.0084 97H122.994C124.779 97.001 126.546 96.6504 128.195 95.9684C129.844 95.2863 131.342 94.2861 132.604 93.025C133.867 91.7638 134.868 90.2664 135.551 88.6182C136.234 86.9701 136.586 85.2035 136.586 83.4195C136.586 83.0903 136.455 82.7745 136.222 82.5417C135.989 82.3089 135.673 82.1781 135.344 82.1781H129.136V54.6199H145.277C145.607 54.6199 145.923 54.4891 146.156 54.2563C146.388 54.0235 146.519 53.7078 146.519 53.3786V12.9698C146.619 12.8829 146.73 12.8183 146.825 12.7215C148.218 11.3224 149 9.42859 149 7.4544C149 5.48021 148.218 3.58639 146.825 2.1873V2.17737C146.132 1.48534 145.31 0.936764 144.406 0.563119C143.501 0.189474 142.531 -0.00188523 141.552 2.33108e-05ZM141.552 2.46288C142.206 2.46367 142.853 2.59347 143.457 2.84484C144.06 3.0962 144.608 3.46419 145.069 3.92769V3.93265C145.533 4.39306 145.901 4.94074 146.153 5.5441C146.404 6.14747 146.533 6.7946 146.533 7.44819C146.533 8.10178 146.404 8.74891 146.153 9.35228C145.901 9.95564 145.533 10.5033 145.069 10.9637C144.609 11.4282 144.061 11.797 143.457 12.0486C142.854 12.3002 142.206 12.4298 141.552 12.4298C140.898 12.4298 140.251 12.3002 139.647 12.0486C139.044 11.797 138.496 11.4282 138.036 10.9637C137.207 10.1392 136.697 9.04799 136.595 7.88335C136.494 6.7187 136.808 5.55577 137.482 4.60051C137.541 4.54136 137.593 4.47648 137.639 4.40686C137.765 4.243 137.887 4.07665 138.036 3.92769C139.012 2.9495 140.281 2.46288 141.552 2.46288ZM101.818 4.96547H134.549C134.077 6.2903 133.989 7.72164 134.295 9.09438C134.601 10.4671 135.29 11.7254 136.28 12.724C137.278 13.714 138.536 14.4017 139.908 14.7079C141.281 15.0141 142.711 14.9262 144.036 14.4544V52.1372H101.818V4.96547ZM140.311 4.96547C140.063 4.96497 139.821 5.03856 139.615 5.1768C139.41 5.31504 139.25 5.51159 139.157 5.74119C139.064 5.97078 139.042 6.22292 139.094 6.46517C139.145 6.70743 139.268 6.92873 139.447 7.10061L139.797 7.44819L139.449 7.80074C139.326 7.91398 139.227 8.05096 139.158 8.20346C139.089 8.35595 139.051 8.52081 139.048 8.68812C139.044 8.85542 139.075 9.02173 139.137 9.17703C139.199 9.33234 139.292 9.47344 139.411 9.59186C139.529 9.71027 139.67 9.80356 139.825 9.8661C139.98 9.92865 140.147 9.95916 140.314 9.95582C140.481 9.95247 140.646 9.91533 140.799 9.84662C140.952 9.77792 141.089 9.67907 141.202 9.55602L141.552 9.20844L141.9 9.55602C142.133 9.78911 142.449 9.9202 142.778 9.92043C143.108 9.92066 143.424 9.79003 143.657 9.55726C143.89 9.3245 144.021 9.00867 144.022 8.67926C144.022 8.34984 143.891 8.03383 143.658 7.80074L143.308 7.44819L143.656 7.10061C143.837 6.92657 143.961 6.70179 144.011 6.45593C144.062 6.21007 144.036 5.95468 143.939 5.72344C143.841 5.4922 143.676 5.29598 143.464 5.16067C143.253 5.02535 143.005 4.95729 142.754 4.96547C142.432 4.97596 142.127 5.11129 141.903 5.34284L141.552 5.69042L141.205 5.34284C141.089 5.22315 140.95 5.12806 140.796 5.06322C140.643 4.99839 140.477 4.96514 140.311 4.96547ZM25.5564 20.0356H99.335V25.0408H28.5588C28.2295 25.0408 27.9137 25.1715 27.6808 25.4044C27.448 25.6371 27.3171 25.9529 27.3171 26.2821V47.1718H22.3504V23.2557C22.3447 22.8325 22.4237 22.4125 22.5826 22.0202C22.7416 21.628 22.9773 21.2714 23.2759 20.9715C23.5746 20.6715 23.9301 20.4342 24.3217 20.2735C24.7133 20.1128 25.1331 20.0319 25.5564 20.0356ZM120.397 22.4836C120.233 22.4858 120.072 22.5203 119.922 22.5849C119.772 22.6495 119.636 22.7431 119.523 22.8603C119.409 22.9774 119.32 23.1159 119.259 23.2676C119.199 23.4194 119.17 23.5816 119.172 23.7448V33.6757C119.172 33.6806 119.172 33.6856 119.172 33.6906C119.172 33.7071 119.172 33.7237 119.172 33.7402C119.173 33.7593 119.175 33.7783 119.177 33.7973C119.179 33.8089 119.18 33.8205 119.182 33.8321C119.216 34.1225 119.352 34.3916 119.565 34.5919C119.778 34.7921 120.055 34.9108 120.347 34.927C120.376 34.9296 120.405 34.9313 120.434 34.9319H122.917C123.042 34.9333 123.167 34.9157 123.287 34.8798C126.533 34.6067 129.145 31.9849 129.145 28.7251C129.145 25.4728 126.55 22.856 123.315 22.5705C123.192 22.5338 123.065 22.5162 122.937 22.5183H120.704C120.603 22.4937 120.501 22.482 120.397 22.4836ZM110.5 22.5034C110.268 22.5018 110.04 22.5654 109.842 22.687C109.644 22.8085 109.484 22.9832 109.38 23.1911L104.414 33.122C104.339 33.2679 104.294 33.4271 104.281 33.5905C104.269 33.7538 104.288 33.918 104.339 34.0737C104.391 34.2294 104.472 34.3734 104.579 34.4974C104.686 34.6215 104.817 34.7232 104.963 34.7966C105.11 34.87 105.269 34.9136 105.433 34.9251C105.596 34.9365 105.76 34.9155 105.915 34.8632C106.071 34.811 106.214 34.7285 106.337 34.6205C106.461 34.5126 106.561 34.3813 106.634 34.2343L107.53 32.4492H113.458L114.35 34.2343C114.422 34.3813 114.522 34.5126 114.646 34.6205C114.769 34.7285 114.912 34.811 115.068 34.8632C115.223 34.9155 115.387 34.9365 115.551 34.9251C115.714 34.9136 115.874 34.87 116.02 34.7966C116.167 34.7232 116.297 34.6215 116.404 34.4974C116.511 34.3734 116.593 34.2294 116.644 34.0737C116.695 33.918 116.715 33.7538 116.702 33.5905C116.689 33.4271 116.644 33.2679 116.57 33.122L111.603 23.1911C111.501 22.9862 111.344 22.8136 111.15 22.6922C110.956 22.5708 110.732 22.5055 110.503 22.5034H110.5ZM135.227 22.5183C135.175 22.525 135.124 22.5349 135.073 22.5481C133.161 22.6971 131.629 24.2959 131.629 26.2424C131.629 28.2038 133.186 29.8175 135.12 29.9417C135.197 29.9573 135.276 29.9656 135.354 29.9665H137.837C138.548 29.9665 139.079 30.4978 139.079 31.2078C139.079 31.9179 138.548 32.4492 137.837 32.4492H132.871C132.541 32.4492 132.225 32.58 131.993 32.8128C131.76 33.0456 131.629 33.3613 131.629 33.6906C131.629 34.0198 131.76 34.3355 131.993 34.5683C132.225 34.8011 132.541 34.9319 132.871 34.9319H137.837C137.923 34.9309 138.009 34.9209 138.093 34.9021C139.03 34.8359 139.908 34.4188 140.551 33.734C141.194 33.0492 141.555 32.1471 141.562 31.2078C141.562 29.2564 140.023 27.6501 138.103 27.5086C138.016 27.4908 137.927 27.4825 137.837 27.4838H135.441C135.412 27.4827 135.383 27.4827 135.354 27.4838C135.19 27.4879 135.026 27.4585 134.874 27.3976C134.721 27.3367 134.583 27.2454 134.467 27.1293C134.351 27.0132 134.259 26.8747 134.198 26.7222C134.137 26.5698 134.108 26.4065 134.112 26.2424C134.112 25.5323 134.644 25.001 135.354 25.001H140.321C140.65 25.001 140.966 24.8703 141.199 24.6375C141.432 24.4047 141.562 24.0889 141.562 23.7597C141.562 23.4304 141.432 23.1147 141.199 22.8819C140.966 22.6491 140.65 22.5183 140.321 22.5183H135.441C135.412 22.5173 135.383 22.5173 135.354 22.5183C135.313 22.5162 135.269 22.5162 135.227 22.5183ZM121.656 25.001H122.743C124.959 25.001 126.662 26.6645 126.662 28.7251C126.662 30.7858 124.959 32.4492 122.743 32.4492H121.656V25.001ZM110.49 26.5229L112.214 29.9665H108.769L110.49 26.5229ZM29.8005 27.5235H99.335V29.7927H35.9344C33.9552 29.7927 32.2839 31.3891 32.2839 33.3703V47.1718H29.8005V27.5235ZM35.9344 32.2754H99.335V39.7236H34.7673V33.3678C34.7673 32.7595 35.2466 32.2754 35.9344 32.2754ZM38.4923 34.7581C38.163 34.7581 37.8472 34.8889 37.6143 35.1217C37.3815 35.3545 37.2506 35.6703 37.2506 35.9995C37.2506 36.3287 37.3815 36.6445 37.6143 36.8773C37.8472 37.1101 38.163 37.2409 38.4923 37.2409C38.8216 37.2409 39.1375 37.1101 39.3703 36.8773C39.6032 36.6445 39.734 36.3287 39.734 35.9995C39.734 35.6703 39.6032 35.3545 39.3703 35.1217C39.1375 34.8889 38.8216 34.7581 38.4923 34.7581ZM43.4591 34.7581C43.1298 34.7581 42.8139 34.8889 42.5811 35.1217C42.3482 35.3545 42.2174 35.6703 42.2174 35.9995C42.2174 36.3287 42.3482 36.6445 42.5811 36.8773C42.8139 37.1101 43.1298 37.2409 43.4591 37.2409C43.7884 37.2409 44.1042 37.1101 44.3371 36.8773C44.57 36.6445 44.7008 36.3287 44.7008 35.9995C44.7008 35.6703 44.57 35.3545 44.3371 35.1217C44.1042 34.8889 43.7884 34.7581 43.4591 34.7581ZM48.4258 34.7581C48.0965 34.7581 47.7807 34.8889 47.5478 35.1217C47.315 35.3545 47.1841 35.6703 47.1841 35.9995C47.1841 36.3287 47.315 36.6445 47.5478 36.8773C47.7807 37.1101 48.0965 37.2409 48.4258 37.2409C48.7551 37.2409 49.071 37.1101 49.3038 36.8773C49.5367 36.6445 49.6675 36.3287 49.6675 35.9995C49.6675 35.6703 49.5367 35.3545 49.3038 35.1217C49.071 34.8889 48.7551 34.7581 48.4258 34.7581ZM34.7673 42.2063H99.335V53.3786C99.335 53.7078 99.4659 54.0235 99.6987 54.2563C99.9316 54.4891 100.247 54.6199 100.577 54.6199H114.235V68.4239C114.235 69.0321 113.756 69.5163 113.068 69.5163H96.8517V60.8267C96.8517 60.4975 96.7208 60.1818 96.488 59.9489C96.2551 59.7161 95.9393 59.5854 95.61 59.5854H85.6765C85.3472 59.5854 85.0313 59.7161 84.7985 59.9489C84.5656 60.1818 84.4348 60.4975 84.4348 60.8267V69.5163H47.1841V57.6935C47.1844 57.6803 47.1844 57.667 47.1841 57.6538C47.2835 57.5669 47.3952 57.4974 47.4896 57.403C48.8833 56.0027 49.6656 54.1076 49.6656 52.1322C49.6656 50.1568 48.8833 48.2618 47.4896 46.8614C46.0889 45.4681 44.1933 44.686 42.2174 44.686C40.2415 44.686 38.3459 45.4681 36.9452 46.8614C36.8483 46.9558 36.7838 47.07 36.6919 47.1718H34.7673V42.2063ZM53.3926 44.689C53.0633 44.689 52.7474 44.8198 52.5146 45.0526C52.2817 45.2854 52.1509 45.6012 52.1509 45.9304V55.8613C52.1509 56.1905 52.2817 56.5063 52.5146 56.7391C52.7474 56.9719 53.0633 57.1026 53.3926 57.1026H63.3261C63.6554 57.1026 63.9712 56.9719 64.2041 56.7391C64.437 56.5063 64.5678 56.1905 64.5678 55.8613V45.9304C64.5678 45.6012 64.437 45.2854 64.2041 45.0526C63.9712 44.8198 63.6554 44.689 63.3261 44.689H53.3926ZM67.0512 44.8628V47.3455H96.8517V44.8628H67.0512ZM42.2174 47.1569C43.4889 47.1569 44.7579 47.6435 45.7339 48.6217C46.1976 49.0822 46.5656 49.63 46.8167 50.2333C47.0679 50.8367 47.1972 51.4837 47.1972 52.1372C47.1972 52.7907 47.0679 53.4377 46.8167 54.0411C46.5656 54.6444 46.1976 55.1922 45.7339 55.6527C45.2729 56.1168 44.7247 56.4851 44.1207 56.7364C43.5168 56.9877 42.8691 57.1171 42.2149 57.1171C41.5607 57.1171 40.913 56.9877 40.3091 56.7364C39.7052 56.4851 39.1569 56.1168 38.696 55.6527C38.2323 55.192 37.8644 54.6441 37.6135 54.0405C37.3626 53.437 37.2336 52.7898 37.2341 52.1362C37.2346 51.4826 37.3644 50.8355 37.6162 50.2323C37.8679 49.6292 38.2366 49.0817 38.7009 48.6217C39.6769 47.6435 40.9459 47.1569 42.2174 47.1569ZM54.6343 47.1718H62.0844V54.6199H54.6343V47.1718ZM2.48338 49.6545H33.3368C33.4619 49.6737 33.5892 49.6737 33.7143 49.6545H35.2143C34.7424 50.977 34.654 52.4059 34.9594 53.7765C35.2648 55.147 35.9514 56.4034 36.9402 57.4006C37.939 58.3912 39.1974 59.0794 40.5705 59.3861C41.9435 59.6927 43.3753 59.6051 44.7008 59.1335V86.8953H2.48338V49.6545ZM40.9757 49.6545C40.728 49.654 40.4857 49.7276 40.2802 49.8658C40.0746 50.004 39.9151 50.2006 39.8222 50.4302C39.7292 50.6598 39.7071 50.9119 39.7587 51.1542C39.8102 51.3964 39.9331 51.6177 40.1115 51.7896L40.4616 52.1372L40.114 52.4897C39.9907 52.603 39.8917 52.74 39.8227 52.8925C39.7538 53.045 39.7164 53.2098 39.7128 53.3771C39.7092 53.5444 39.7395 53.7107 39.8019 53.866C39.8642 54.0213 39.9573 54.1624 40.0756 54.2809C40.1939 54.3993 40.3349 54.4926 40.4901 54.5551C40.6454 54.6177 40.8117 54.6482 40.9791 54.6448C41.1464 54.6415 41.3114 54.6043 41.464 54.5356C41.6166 54.4669 41.7538 54.3681 41.8672 54.245L42.2174 53.8974L42.5651 54.245C42.6803 54.3604 42.8172 54.452 42.9679 54.5146C43.1186 54.5771 43.2802 54.6093 43.4433 54.6094C43.6065 54.6096 43.768 54.5775 43.9188 54.5152C44.0696 54.4529 44.2066 54.3615 44.3221 54.2463C44.4375 54.131 44.5291 53.9942 44.5917 53.8435C44.6542 53.6929 44.6864 53.5314 44.6866 53.3683C44.6867 53.2052 44.6547 53.0436 44.5923 52.8929C44.53 52.7421 44.4386 52.6052 44.3233 52.4897L43.9731 52.1372L44.3208 51.7896C44.5017 51.6156 44.6256 51.3908 44.6761 51.1449C44.7266 50.8991 44.7014 50.6437 44.6038 50.4124C44.5061 50.1812 44.3407 49.985 44.1292 49.8497C43.9178 49.7144 43.6703 49.6463 43.4193 49.6545C43.0972 49.665 42.7917 49.8003 42.5676 50.0318L42.2174 50.3794L41.8697 50.0318C41.7537 49.9122 41.6147 49.8171 41.4611 49.7522C41.3075 49.6874 41.1424 49.6541 40.9757 49.6545ZM67.0512 49.8283V52.311H96.8517V49.8283H67.0512ZM116.719 54.6199H119.202V74.6952H47.1841V71.999H113.068C115.047 71.999 116.719 70.4051 116.719 68.4239V54.6199ZM121.685 54.6199H126.652V82.1781H47.1841V77.1779H120.444C120.773 77.1779 121.089 77.0471 121.322 76.8143C121.555 76.5815 121.685 76.2658 121.685 75.9366V54.6199ZM67.0512 54.7937V57.2764H96.8517V54.7937H67.0512ZM21.0888 59.7443C20.7604 59.7495 20.4474 59.8846 20.2184 60.1201C19.9894 60.3555 19.863 60.6721 19.867 61.0005V70.8445C19.8474 71.0862 19.8991 71.3283 20.0156 71.541C20.1321 71.7536 20.3084 71.9275 20.5226 72.0412C20.5276 72.0445 20.5325 72.0478 20.5375 72.0511C20.6311 72.0991 20.7304 72.1349 20.833 72.1579C20.8887 72.17 20.9451 72.1783 21.0019 72.1827C21.0423 72.188 21.0829 72.1913 21.1236 72.1926H23.607C23.7315 72.193 23.8554 72.1745 23.9745 72.138C27.2253 71.8699 29.8353 69.2481 29.8353 65.9858C29.8353 62.7335 27.2377 60.1117 23.9993 59.8312C23.8785 59.795 23.7529 59.7774 23.6268 59.779H21.3918C21.2926 59.755 21.1909 59.7434 21.0888 59.7443ZM49.6675 59.7592V62.2419H81.9514V59.7592H49.6675ZM11.1901 59.7641C10.9587 59.7625 10.7314 59.8256 10.534 59.9462C10.3365 60.0669 10.1767 60.2403 10.0726 60.4469L5.10582 70.3778C4.95829 70.6724 4.93388 71.0136 5.03797 71.3263C5.14206 71.6389 5.36612 71.8974 5.66086 72.0449C5.95559 72.1924 6.29687 72.2168 6.6096 72.1127C6.92233 72.0087 7.18091 71.7847 7.32844 71.49L8.21749 69.7099H14.1528L15.0418 71.49C15.1141 71.637 15.2148 71.7683 15.338 71.8763C15.4613 71.9842 15.6047 72.0667 15.76 72.119C15.9153 72.1712 16.0794 72.1923 16.2429 72.1808C16.4064 72.1694 16.566 72.1257 16.7125 72.0523C16.859 71.9789 16.9895 71.8772 17.0965 71.7532C17.2035 71.6291 17.2849 71.4851 17.336 71.3294C17.3871 71.1738 17.4068 71.0095 17.3941 70.8462C17.3814 70.6829 17.3365 70.5237 17.2619 70.3778L12.2952 60.4469C12.192 60.2421 12.0341 60.07 11.8391 59.9495C11.644 59.829 11.4194 59.7648 11.1901 59.7641ZM35.9171 59.779C35.8643 59.7856 35.8121 59.7955 35.7606 59.8088C33.8484 59.9578 32.3187 61.5566 32.3187 63.5031C32.3187 65.4644 33.8757 67.0782 35.8103 67.2024C35.8871 67.218 35.9653 67.2263 36.0437 67.2272H38.5271C39.2349 67.2272 39.7688 67.7585 39.7688 68.4685C39.7688 69.1786 39.2349 69.7099 38.5271 69.7099H33.5603C33.231 69.7099 32.9152 69.8407 32.6823 70.0735C32.4495 70.3063 32.3187 70.622 32.3187 70.9513C32.3187 71.2805 32.4495 71.5962 32.6823 71.829C32.9152 72.0618 33.231 72.1926 33.5603 72.1926H38.5271C38.6132 72.1916 38.6989 72.1816 38.7829 72.1628C39.7201 72.0966 40.5979 71.6795 41.2409 70.9947C41.884 70.3099 42.2451 69.4078 42.2522 68.4685C42.2522 66.5171 40.7125 64.9083 38.7928 64.7693C38.7054 64.7515 38.6163 64.7432 38.5271 64.7445H36.1306C36.1017 64.7434 36.0727 64.7434 36.0437 64.7445C35.8795 64.7486 35.7162 64.7192 35.5637 64.6583C35.4113 64.5974 35.2727 64.5061 35.1566 64.39C35.0405 64.2739 34.9492 64.1354 34.8882 63.9829C34.8273 63.8305 34.7979 63.6672 34.802 63.5031C34.802 62.793 35.3335 62.2617 36.0437 62.2617H41.0105C41.3398 62.2617 41.6556 62.131 41.8885 61.8982C42.1213 61.6654 42.2522 61.3496 42.2522 61.0204C42.2522 60.6911 42.1213 60.3754 41.8885 60.1426C41.6556 59.9098 41.3398 59.779 41.0105 59.779H36.1306C36.1017 59.778 36.0727 59.778 36.0437 59.779C36.0015 59.7769 35.9593 59.7769 35.9171 59.779ZM86.9182 62.0681H94.3683V69.5163H86.9182V62.0681ZM22.3504 62.2617H23.4381C25.6533 62.2617 27.3519 63.9252 27.3519 65.9858C27.3519 68.0465 25.6533 69.7099 23.4381 69.7099H22.3504V62.2617ZM11.1851 63.7787L12.9111 67.2272H9.46166L11.1851 63.7787ZM49.6675 64.7246V67.2073H81.9514V64.7246H49.6675ZM47.1841 84.6609H62.0844V86.7141C62.0844 89.1869 64.0612 91.25 66.5172 91.25H82.4853C84.9439 91.25 86.9182 89.1869 86.9182 86.7141V84.6584H133.854C133.218 90.2073 128.728 94.5173 122.994 94.5173H26.0084C24.1406 94.5214 22.3022 94.0522 20.665 93.1535C19.0277 92.2548 17.645 90.9558 16.6461 89.378H45.9425C46.2718 89.378 46.5876 89.2472 46.8205 89.0144C47.0533 88.7816 47.1841 88.4659 47.1841 88.1367V84.6609ZM64.5678 84.6609H84.4348V86.7141C84.4348 87.8958 83.5656 88.7673 82.4853 88.7673H66.5172C65.437 88.7673 64.5678 87.8958 64.5678 86.7141V84.6609Z" fill="#0097FF"/>
</svg>
