<svg width="150" height="150" viewBox="0 0 150 150" fill="none" xmlns="http://www.w3.org/2000/svg">
<path d="M78.4665 112.5H29.2478C28.937 112.5 28.6389 112.377 28.4191 112.157C28.1993 111.937 28.0759 111.639 28.0759 111.328C28.0759 111.017 28.1993 110.719 28.4191 110.499C28.6389 110.28 28.937 110.156 29.2478 110.156H78.4665C78.7773 110.156 79.0754 110.28 79.2951 110.499C79.5149 110.719 79.6384 111.017 79.6384 111.328C79.6384 111.639 79.5149 111.937 79.2951 112.157C79.0754 112.377 78.7773 112.5 78.4665 112.5ZM97.2165 86.7188H10.7251C10.4143 86.7188 10.1162 86.5953 9.89646 86.3755C9.67669 86.1557 9.55322 85.8577 9.55322 85.5469C9.55322 85.2361 9.67669 84.938 9.89646 84.7182C10.1162 84.4985 10.4143 84.375 10.7251 84.375H97.2165C97.5273 84.375 97.8254 84.4985 98.0451 84.7182C98.2649 84.938 98.3884 85.2361 98.3884 85.5469C98.3884 85.8577 98.2649 86.1557 98.0451 86.3755C97.8254 86.5953 97.5273 86.7188 97.2165 86.7188Z" fill="#039BE4"/>
<path d="M64.4038 112.5H43.3101C42.9993 112.5 42.7012 112.377 42.4814 112.157C42.2616 111.937 42.1382 111.639 42.1382 111.328V97.2656C42.1382 96.9548 42.2616 96.6568 42.4814 96.437C42.7012 96.2172 42.9993 96.0938 43.3101 96.0938H64.4038C64.7146 96.0938 65.0127 96.2172 65.2325 96.437C65.4522 96.6568 65.5757 96.9548 65.5757 97.2656V111.328C65.5757 111.639 65.4522 111.937 65.2325 112.157C65.0127 112.377 64.7146 112.5 64.4038 112.5ZM44.4819 110.156H63.2319V98.4375H44.4819V110.156Z" fill="#039BE4"/>
<path d="M53.8569 93.75C55.1514 93.75 56.2007 92.7007 56.2007 91.4062C56.2007 90.1118 55.1514 89.0625 53.8569 89.0625C52.5625 89.0625 51.5132 90.1118 51.5132 91.4062C51.5132 92.7007 52.5625 93.75 53.8569 93.75Z" fill="#039BE4"/>
<path d="M32.7632 70.3125C33.4104 70.3125 33.9351 69.7878 33.9351 69.1406C33.9351 68.4934 33.4104 67.9688 32.7632 67.9688C32.116 67.9688 31.5913 68.4934 31.5913 69.1406C31.5913 69.7878 32.116 70.3125 32.7632 70.3125Z" fill="#039BE4"/>
<path d="M90.2345 79.6875H17.5783C17.2675 79.6875 16.9694 79.564 16.7496 79.3443C16.5299 79.1245 16.4064 78.8264 16.4064 78.5156V54.8695C16.4064 54.5587 16.5299 54.2607 16.7496 54.0409C16.9694 53.8211 17.2675 53.6977 17.5783 53.6977C17.8891 53.6977 18.1871 53.8211 18.4069 54.0409C18.6267 54.2607 18.7501 54.5587 18.7501 54.8695V77.3438H89.0626V55.0781C89.0626 54.7673 89.1861 54.4693 89.4059 54.2495C89.6256 54.0297 89.9237 53.9062 90.2345 53.9062C90.5453 53.9062 90.8434 54.0297 91.0631 54.2495C91.2829 54.4693 91.4064 54.7673 91.4064 55.0781V78.5156C91.4064 78.8264 91.2829 79.1245 91.0631 79.3443C90.8434 79.564 90.5453 79.6875 90.2345 79.6875ZM92.5783 52.7344C92.3515 52.7344 92.1296 52.6687 91.9395 52.5451C91.7494 52.4215 91.5992 52.2455 91.5072 52.0383L87.129 42.1875H20.6837L16.3056 52.0406C16.1794 52.3247 15.9456 52.547 15.6555 52.6586C15.3654 52.7703 15.0428 52.7621 14.7587 52.6359C14.4747 52.5098 14.2523 52.2759 14.1407 51.9858C14.0291 51.6957 14.0372 51.3731 14.1634 51.0891L18.8509 40.5422C18.9426 40.3345 19.0927 40.158 19.2828 40.034C19.473 39.91 19.695 39.8439 19.922 39.8438H87.8908C88.1175 39.8437 88.3394 39.9095 88.5295 40.033C88.7196 40.1566 88.8698 40.3326 88.9619 40.5398L93.6494 51.0867C93.7286 51.2652 93.7621 51.4606 93.7466 51.6552C93.7312 51.8498 93.6673 52.0375 93.5609 52.2012C93.4545 52.3649 93.3089 52.4994 93.1373 52.5925C92.9657 52.6856 92.7735 52.7344 92.5783 52.7344Z" fill="#039BE4"/>
<path d="M22.268 52.7344C22.1035 52.7346 21.9407 52.7003 21.7904 52.6335C21.64 52.5667 21.5054 52.469 21.3953 52.3467C21.2852 52.2244 21.2021 52.0804 21.1513 51.9238C21.1006 51.7673 21.0834 51.6019 21.1008 51.4383L22.2235 40.8914C22.2634 40.5855 22.4196 40.3067 22.6596 40.113C22.8997 39.9192 23.2051 39.8253 23.5126 39.8508C23.8214 39.8838 24.1046 40.0382 24.2997 40.2799C24.4948 40.5216 24.586 40.8309 24.5532 41.1398L23.4305 51.6867C23.3999 51.9739 23.2643 52.2397 23.0498 52.433C22.8352 52.6264 22.5568 52.7337 22.268 52.7344ZM29.2993 52.7344C29.1347 52.7346 28.972 52.7003 28.8216 52.6335C28.6713 52.5667 28.5367 52.469 28.4266 52.3467C28.3164 52.2244 28.2333 52.0804 28.1826 51.9238C28.1319 51.7673 28.1147 51.6019 28.1321 51.4383L29.2547 40.8914C29.2936 40.585 29.4495 40.3055 29.6898 40.1116C29.9301 39.9176 30.2361 39.8241 30.5438 39.8508C30.8527 39.8838 31.1358 40.0382 31.331 40.2799C31.5261 40.5216 31.6173 40.8309 31.5844 41.1398L30.4618 51.6867C30.4312 51.9739 30.2956 52.2397 30.081 52.433C29.8665 52.6264 29.5881 52.7337 29.2993 52.7344ZM36.3305 52.7344C36.166 52.7346 36.0032 52.7003 35.8529 52.6335C35.7025 52.5667 35.5679 52.469 35.4578 52.3467C35.3477 52.2244 35.2646 52.0804 35.2138 51.9238C35.1631 51.7673 35.1459 51.6019 35.1633 51.4383L36.286 40.8914C36.3265 40.5858 36.4828 40.3073 36.7227 40.1137C36.9626 39.92 37.2677 39.8259 37.5751 39.8508C37.8839 39.8838 38.1671 40.0382 38.3622 40.2799C38.5573 40.5216 38.6485 40.8309 38.6157 41.1398L37.493 51.6867C37.4624 51.9739 37.3268 52.2397 37.1123 52.433C36.8977 52.6264 36.6193 52.7337 36.3305 52.7344ZM43.3618 52.7344C43.1972 52.7346 43.0345 52.7003 42.8841 52.6335C42.7338 52.5667 42.5992 52.469 42.489 52.3467C42.3789 52.2244 42.2958 52.0804 42.2451 51.9238C42.1944 51.7673 42.1772 51.6019 42.1946 51.4383L43.3172 40.8914C43.3566 40.5853 43.5127 40.3061 43.7528 40.1123C43.993 39.9184 44.2987 39.8247 44.6063 39.8508C44.9152 39.8838 45.1983 40.0382 45.3935 40.2799C45.5886 40.5216 45.6798 40.8309 45.6469 41.1398L44.5243 51.6867C44.4937 51.9739 44.3581 52.2397 44.1435 52.433C43.929 52.6264 43.6506 52.7337 43.3618 52.7344ZM50.3907 52.7344C50.0807 52.7344 49.7833 52.6116 49.5637 52.3928C49.3441 52.174 49.22 51.8772 49.2188 51.5672L49.1696 41.0203C49.169 40.8664 49.1987 40.7139 49.257 40.5715C49.3153 40.4291 49.4011 40.2996 49.5095 40.1903C49.6179 40.081 49.7467 39.9942 49.8887 39.9347C50.0306 39.8753 50.1829 39.8444 50.3368 39.8438H50.3415C50.6515 39.8437 50.9488 39.9666 51.1685 40.1853C51.3881 40.4041 51.5121 40.7009 51.5133 41.0109L51.5626 51.5578C51.5632 51.7117 51.5335 51.8642 51.4752 52.0066C51.4168 52.149 51.331 52.2786 51.2226 52.3878C51.1143 52.4971 50.9854 52.5839 50.8435 52.6434C50.7015 52.7028 50.5493 52.7338 50.3954 52.7344H50.3907ZM85.5446 52.7344C85.2576 52.734 84.9807 52.6283 84.7664 52.4374C84.5521 52.2464 84.4154 51.9835 84.3821 51.6984L83.161 41.1516C83.1253 40.8426 83.2137 40.5321 83.4069 40.2884C83.6001 40.0447 83.8821 39.8877 84.1911 39.852C84.5 39.8162 84.8105 39.9047 85.0542 40.0978C85.2979 40.291 85.4549 40.5731 85.4907 40.882L86.7118 51.4289C86.7474 51.7375 86.659 52.0476 86.4661 52.2911C86.2732 52.5346 85.9914 52.6915 85.6829 52.7273C85.636 52.7344 85.5915 52.7344 85.5446 52.7344ZM78.5133 52.7344C78.2263 52.734 77.9494 52.6283 77.7352 52.4374C77.5209 52.2464 77.3841 51.9835 77.3508 51.6984L76.1297 41.1516C76.112 40.9986 76.1247 40.8436 76.1668 40.6955C76.209 40.5474 76.28 40.4091 76.3756 40.2884C76.5688 40.0447 76.8509 39.8877 77.1598 39.852C77.4688 39.8162 77.7792 39.9047 78.023 40.0978C78.2667 40.291 78.4237 40.5731 78.4594 40.882L79.6805 51.4289C79.7162 51.7375 79.6278 52.0476 79.4348 52.2911C79.2419 52.5346 78.9602 52.6915 78.6516 52.7273C78.6047 52.7344 78.5602 52.7344 78.5133 52.7344ZM71.4821 52.7344C71.1951 52.734 70.9182 52.6283 70.7039 52.4374C70.4896 52.2464 70.3529 51.9835 70.3196 51.6984L69.0985 41.1516C69.0808 40.9986 69.0934 40.8436 69.1356 40.6955C69.1778 40.5474 69.2487 40.4091 69.3444 40.2884C69.5376 40.0447 69.8196 39.8877 70.1286 39.852C70.4375 39.8162 70.748 39.9047 70.9917 40.0978C71.2354 40.291 71.3924 40.5731 71.4282 40.882L72.6493 51.4289C72.6849 51.7375 72.5965 52.0476 72.4036 52.2911C72.2107 52.5346 71.929 52.6915 71.6204 52.7273C71.5735 52.7344 71.529 52.7344 71.4821 52.7344ZM64.4508 52.7344C64.1638 52.734 63.8869 52.6283 63.6727 52.4374C63.4584 52.2464 63.3216 51.9835 63.2883 51.6984L62.0672 41.1516C62.0315 40.8426 62.12 40.5321 62.3131 40.2884C62.5063 40.0447 62.7884 39.8877 63.0973 39.852C63.4063 39.8162 63.7167 39.9047 63.9605 40.0978C64.2042 40.291 64.3612 40.5731 64.3969 40.882L65.618 51.4289C65.6537 51.7375 65.5653 52.0476 65.3723 52.2911C65.1794 52.5346 64.8977 52.6915 64.5891 52.7273C64.5422 52.7344 64.4977 52.7344 64.4508 52.7344ZM57.4219 52.7344C57.1119 52.7344 56.8146 52.6116 56.5949 52.3928C56.3753 52.174 56.2513 51.8772 56.2501 51.5672L56.2008 41.0203C56.2002 40.8664 56.2299 40.7139 56.2882 40.5715C56.3466 40.4291 56.4324 40.2996 56.5408 40.1903C56.6491 40.081 56.778 39.9942 56.9199 39.9347C57.0619 39.8753 57.2141 39.8444 57.368 39.8438H57.3727C57.6827 39.8437 57.9801 39.9666 58.1997 40.1853C58.4193 40.4041 58.5434 40.7009 58.5446 41.0109L58.5938 51.5578C58.5944 51.7117 58.5647 51.8642 58.5064 52.0066C58.4481 52.149 58.3623 52.2786 58.2539 52.3878C58.1455 52.4971 58.0167 52.5839 57.8747 52.6434C57.7328 52.7028 57.5805 52.7338 57.4266 52.7344H57.4219Z" fill="#039BE4"/>
<path d="M25.7812 56.25C23.1961 56.25 21.0938 54.1477 21.0938 51.5625C21.0938 51.2517 21.2172 50.9536 21.437 50.7339C21.6568 50.5141 21.9548 50.3906 22.2656 50.3906C22.5764 50.3906 22.8745 50.5141 23.0943 50.7339C23.314 50.9536 23.4375 51.2517 23.4375 51.5625C23.4645 52.166 23.7232 52.7358 24.1598 53.1533C24.5964 53.5707 25.1772 53.8038 25.7812 53.8038C26.3853 53.8038 26.9661 53.5707 27.4027 53.1533C27.8393 52.7358 28.098 52.166 28.125 51.5625C28.125 51.2517 28.2485 50.9536 28.4682 50.7339C28.688 50.5141 28.9861 50.3906 29.2969 50.3906C29.6077 50.3906 29.9057 50.5141 30.1255 50.7339C30.3453 50.9536 30.4688 51.2517 30.4688 51.5625C30.4688 54.1477 28.3664 56.25 25.7812 56.25Z" fill="#039BE4"/>
<path d="M18.75 56.25C16.1648 56.25 14.0625 54.1477 14.0625 51.5625C14.0625 51.2517 14.186 50.9536 14.4057 50.7339C14.6255 50.5141 14.9236 50.3906 15.2344 50.3906C15.5452 50.3906 15.8432 50.5141 16.063 50.7339C16.2828 50.9536 16.4062 51.2517 16.4062 51.5625C16.4332 52.166 16.692 52.7358 17.1286 53.1533C17.5651 53.5707 18.1459 53.8038 18.75 53.8038C19.3541 53.8038 19.9349 53.5707 20.3714 53.1533C20.808 52.7358 21.0668 52.166 21.0938 51.5625C21.0938 51.2517 21.2172 50.9536 21.437 50.7339C21.6568 50.5141 21.9548 50.3906 22.2656 50.3906C22.5764 50.3906 22.8745 50.5141 23.0943 50.7339C23.314 50.9536 23.4375 51.2517 23.4375 51.5625C23.4375 54.1477 21.3352 56.25 18.75 56.25ZM32.8125 56.25C30.2273 56.25 28.125 54.1477 28.125 51.5625C28.125 51.2517 28.2485 50.9536 28.4682 50.7339C28.688 50.5141 28.9861 50.3906 29.2969 50.3906C29.6077 50.3906 29.9057 50.5141 30.1255 50.7339C30.3453 50.9536 30.4688 51.2517 30.4688 51.5625C30.4957 52.166 30.7545 52.7358 31.1911 53.1533C31.6276 53.5707 32.2084 53.8038 32.8125 53.8038C33.4166 53.8038 33.9974 53.5707 34.4339 53.1533C34.8705 52.7358 35.1293 52.166 35.1562 51.5625C35.1562 51.2517 35.2797 50.9536 35.4995 50.7339C35.7193 50.5141 36.0173 50.3906 36.3281 50.3906C36.6389 50.3906 36.937 50.5141 37.1568 50.7339C37.3765 50.9536 37.5 51.2517 37.5 51.5625C37.5 54.1477 35.3977 56.25 32.8125 56.25Z" fill="#039BE4"/>
<path d="M39.8438 56.25C37.2586 56.25 35.1562 54.1477 35.1562 51.5625C35.1562 51.2517 35.2797 50.9536 35.4995 50.7339C35.7193 50.5141 36.0173 50.3906 36.3281 50.3906C36.6389 50.3906 36.937 50.5141 37.1568 50.7339C37.3765 50.9536 37.5 51.2517 37.5 51.5625C37.527 52.166 37.7857 52.7358 38.2223 53.1533C38.6589 53.5707 39.2397 53.8038 39.8438 53.8038C40.4478 53.8038 41.0286 53.5707 41.4652 53.1533C41.9018 52.7358 42.1605 52.166 42.1875 51.5625C42.1875 51.2517 42.311 50.9536 42.5307 50.7339C42.7505 50.5141 43.0486 50.3906 43.3594 50.3906C43.6702 50.3906 43.9682 50.5141 44.188 50.7339C44.4078 50.9536 44.5312 51.2517 44.5312 51.5625C44.5312 54.1477 42.4289 56.25 39.8438 56.25Z" fill="#039BE4"/>
<path d="M46.875 56.25C44.2898 56.25 42.1875 54.1477 42.1875 51.5625C42.1875 51.2517 42.311 50.9536 42.5307 50.7339C42.7505 50.5141 43.0486 50.3906 43.3594 50.3906C43.6702 50.3906 43.9682 50.5141 44.188 50.7339C44.4078 50.9536 44.5312 51.2517 44.5312 51.5625C44.5582 52.166 44.817 52.7358 45.2536 53.1533C45.6901 53.5707 46.2709 53.8038 46.875 53.8038C47.4791 53.8038 48.0599 53.5707 48.4964 53.1533C48.933 52.7358 49.1918 52.166 49.2188 51.5625C49.2188 51.2517 49.3422 50.9536 49.562 50.7339C49.7818 50.5141 50.0798 50.3906 50.3906 50.3906C50.7014 50.3906 50.9995 50.5141 51.2193 50.7339C51.439 50.9536 51.5625 51.2517 51.5625 51.5625C51.5625 54.1477 49.4602 56.25 46.875 56.25Z" fill="#039BE4"/>
<path d="M53.9062 56.25C51.3211 56.25 49.2188 54.1477 49.2188 51.5625C49.2188 51.2517 49.3422 50.9536 49.562 50.7339C49.7818 50.5141 50.0798 50.3906 50.3906 50.3906C50.7014 50.3906 50.9995 50.5141 51.2193 50.7339C51.439 50.9536 51.5625 51.2517 51.5625 51.5625C51.5895 52.166 51.8482 52.7358 52.2848 53.1533C52.7214 53.5707 53.3022 53.8038 53.9062 53.8038C54.5103 53.8038 55.0911 53.5707 55.5277 53.1533C55.9643 52.7358 56.223 52.166 56.25 51.5625C56.25 51.2517 56.3735 50.9536 56.5932 50.7339C56.813 50.5141 57.1111 50.3906 57.4219 50.3906C57.7327 50.3906 58.0307 50.5141 58.2505 50.7339C58.4703 50.9536 58.5938 51.2517 58.5938 51.5625C58.5938 54.1477 56.4914 56.25 53.9062 56.25Z" fill="#039BE4"/>
<path d="M60.9375 56.25C58.3523 56.25 56.25 54.1477 56.25 51.5625C56.25 51.2517 56.3735 50.9536 56.5932 50.7339C56.813 50.5141 57.1111 50.3906 57.4219 50.3906C57.7327 50.3906 58.0307 50.5141 58.2505 50.7339C58.4703 50.9536 58.5938 51.2517 58.5938 51.5625C58.6207 52.166 58.8795 52.7358 59.3161 53.1533C59.7526 53.5707 60.3334 53.8038 60.9375 53.8038C61.5416 53.8038 62.1224 53.5707 62.5589 53.1533C62.9955 52.7358 63.2543 52.166 63.2812 51.5625C63.2812 51.2517 63.4047 50.9536 63.6245 50.7339C63.8443 50.5141 64.1423 50.3906 64.4531 50.3906C64.7639 50.3906 65.062 50.5141 65.2818 50.7339C65.5015 50.9536 65.625 51.2517 65.625 51.5625C65.625 54.1477 63.5227 56.25 60.9375 56.25Z" fill="#039BE4"/>
<path d="M67.9688 56.25C65.3836 56.25 63.2812 54.1477 63.2812 51.5625C63.2812 51.2517 63.4047 50.9536 63.6245 50.7339C63.8443 50.5141 64.1423 50.3906 64.4531 50.3906C64.7639 50.3906 65.062 50.5141 65.2818 50.7339C65.5015 50.9536 65.625 51.2517 65.625 51.5625C65.652 52.166 65.9107 52.7358 66.3473 53.1533C66.7839 53.5707 67.3647 53.8038 67.9688 53.8038C68.5728 53.8038 69.1536 53.5707 69.5902 53.1533C70.0268 52.7358 70.2855 52.166 70.3125 51.5625C70.3125 51.2517 70.436 50.9536 70.6557 50.7339C70.8755 50.5141 71.1736 50.3906 71.4844 50.3906C71.7952 50.3906 72.0932 50.5141 72.313 50.7339C72.5328 50.9536 72.6562 51.2517 72.6562 51.5625C72.6562 54.1477 70.5539 56.25 67.9688 56.25Z" fill="#039BE4"/>
<path d="M75 56.25C72.4148 56.25 70.3125 54.1477 70.3125 51.5625C70.3125 51.2517 70.436 50.9536 70.6557 50.7339C70.8755 50.5141 71.1736 50.3906 71.4844 50.3906C71.7952 50.3906 72.0932 50.5141 72.313 50.7339C72.5328 50.9536 72.6562 51.2517 72.6562 51.5625C72.6832 52.166 72.942 52.7358 73.3786 53.1533C73.8151 53.5707 74.3959 53.8038 75 53.8038C75.6041 53.8038 76.1849 53.5707 76.6214 53.1533C77.058 52.7358 77.3168 52.166 77.3438 51.5625C77.3438 51.2517 77.4672 50.9536 77.687 50.7339C77.9068 50.5141 78.2048 50.3906 78.5156 50.3906C78.8264 50.3906 79.1245 50.5141 79.3443 50.7339C79.564 50.9536 79.6875 51.2517 79.6875 51.5625C79.6875 54.1477 77.5852 56.25 75 56.25Z" fill="#039BE4"/>
<path d="M82.0312 56.25C79.4461 56.25 77.3438 54.1477 77.3438 51.5625C77.3438 51.2517 77.4672 50.9536 77.687 50.7339C77.9068 50.5141 78.2048 50.3906 78.5156 50.3906C78.8264 50.3906 79.1245 50.5141 79.3443 50.7339C79.564 50.9536 79.6875 51.2517 79.6875 51.5625C79.7145 52.166 79.9732 52.7358 80.4098 53.1533C80.8464 53.5707 81.4272 53.8038 82.0312 53.8038C82.6353 53.8038 83.2161 53.5707 83.6527 53.1533C84.0893 52.7358 84.348 52.166 84.375 51.5625C84.375 51.2517 84.4985 50.9536 84.7182 50.7339C84.938 50.5141 85.2361 50.3906 85.5469 50.3906C85.8577 50.3906 86.1557 50.5141 86.3755 50.7339C86.5953 50.9536 86.7188 51.2517 86.7188 51.5625C86.7188 54.1477 84.6164 56.25 82.0312 56.25Z" fill="#039BE4"/>
<path d="M89.0625 56.25C86.4773 56.25 84.375 54.1477 84.375 51.5625C84.375 51.2517 84.4985 50.9536 84.7182 50.7339C84.938 50.5141 85.2361 50.3906 85.5469 50.3906C85.8577 50.3906 86.1557 50.5141 86.3755 50.7339C86.5953 50.9536 86.7188 51.2517 86.7188 51.5625C86.7457 52.166 87.0045 52.7358 87.4411 53.1533C87.8776 53.5707 88.4584 53.8038 89.0625 53.8038C89.6666 53.8038 90.2474 53.5707 90.6839 53.1533C91.1205 52.7358 91.3793 52.166 91.4062 51.5625C91.4062 51.2517 91.5297 50.9536 91.7495 50.7339C91.9693 50.5141 92.2673 50.3906 92.5781 50.3906C92.8889 50.3906 93.187 50.5141 93.4068 50.7339C93.6265 50.9536 93.75 51.2517 93.75 51.5625C93.75 54.1477 91.6477 56.25 89.0625 56.25ZM41.0156 79.6875H29.2969C28.9861 79.6875 28.688 79.564 28.4682 79.3443C28.2485 79.1245 28.125 78.8264 28.125 78.5156V59.7656C28.125 59.4548 28.2485 59.1568 28.4682 58.937C28.688 58.7172 28.9861 58.5938 29.2969 58.5938H41.0156C41.3264 58.5938 41.6245 58.7172 41.8443 58.937C42.064 59.1568 42.1875 59.4548 42.1875 59.7656V78.5156C42.1875 78.8264 42.064 79.1245 41.8443 79.3443C41.6245 79.564 41.3264 79.6875 41.0156 79.6875ZM30.4688 77.3438H39.8438V60.9375H30.4688V77.3438ZM78.5156 72.6562H52.7344C52.4236 72.6562 52.1255 72.5328 51.9057 72.313C51.686 72.0932 51.5625 71.7952 51.5625 71.4844V59.7656C51.5625 59.4548 51.686 59.1568 51.9057 58.937C52.1255 58.7172 52.4236 58.5938 52.7344 58.5938H78.5156C78.8264 58.5938 79.1245 58.7172 79.3443 58.937C79.564 59.1568 79.6875 59.4548 79.6875 59.7656V71.4844C79.6875 71.7952 79.564 72.0932 79.3443 72.313C79.1245 72.5328 78.8264 72.6562 78.5156 72.6562ZM53.9062 70.3125H77.3438V60.9375H53.9062V70.3125Z" fill="#039BE4"/>
<path d="M80.8594 60.9375H50.3906C50.0798 60.9375 49.7818 60.814 49.562 60.5943C49.3422 60.3745 49.2188 60.0764 49.2188 59.7656C49.2188 59.4548 49.3422 59.1568 49.562 58.937C49.7818 58.7172 50.0798 58.5938 50.3906 58.5938H80.8594C81.1702 58.5938 81.4682 58.7172 81.688 58.937C81.9078 59.1568 82.0312 59.4548 82.0312 59.7656C82.0312 60.0764 81.9078 60.3745 81.688 60.5943C81.4682 60.814 81.1702 60.9375 80.8594 60.9375ZM52.7344 72.6562H50.3906C50.0798 72.6562 49.7818 72.5328 49.562 72.313C49.3422 72.0932 49.2188 71.7952 49.2188 71.4844C49.2188 71.1736 49.3422 70.8755 49.562 70.6557C49.7818 70.436 50.0798 70.3125 50.3906 70.3125H52.7344C53.0452 70.3125 53.3432 70.436 53.563 70.6557C53.7828 70.8755 53.9062 71.1736 53.9062 71.4844C53.9062 71.7952 53.7828 72.0932 53.563 72.313C53.3432 72.5328 53.0452 72.6562 52.7344 72.6562ZM80.8594 72.6562H78.5156C78.2048 72.6562 77.9068 72.5328 77.687 72.313C77.4672 72.0932 77.3438 71.7952 77.3438 71.4844C77.3438 71.1736 77.4672 70.8755 77.687 70.6557C77.9068 70.436 78.2048 70.3125 78.5156 70.3125H80.8594C81.1702 70.3125 81.4682 70.436 81.688 70.6557C81.9078 70.8755 82.0312 71.1736 82.0312 71.4844C82.0312 71.7952 81.9078 72.0932 81.688 72.313C81.4682 72.5328 81.1702 72.6562 80.8594 72.6562ZM97.2656 107.812H94.9219C94.6111 107.812 94.313 107.689 94.0932 107.469C93.8735 107.249 93.75 106.951 93.75 106.641C93.75 106.33 93.8735 106.032 94.0932 105.812C94.313 105.592 94.6111 105.469 94.9219 105.469H97.2656C97.5764 105.469 97.8745 105.592 98.0943 105.812C98.314 106.032 98.4375 106.33 98.4375 106.641C98.4375 106.951 98.314 107.249 98.0943 107.469C97.8745 107.689 97.5764 107.812 97.2656 107.812ZM125.391 107.812H123.047C122.736 107.812 122.438 107.689 122.218 107.469C121.998 107.249 121.875 106.951 121.875 106.641C121.875 106.33 121.998 106.032 122.218 105.812C122.438 105.592 122.736 105.469 123.047 105.469H125.391C125.701 105.469 125.999 105.592 126.219 105.812C126.439 106.032 126.562 106.33 126.562 106.641C126.562 106.951 126.439 107.249 126.219 107.469C125.999 107.689 125.701 107.812 125.391 107.812ZM111.328 86.7188H108.984C108.674 86.7188 108.376 86.5953 108.156 86.3755C107.936 86.1557 107.812 85.8577 107.812 85.5469C107.812 85.2361 107.936 84.938 108.156 84.7182C108.376 84.4985 108.674 84.375 108.984 84.375H111.328C111.639 84.375 111.937 84.4985 112.157 84.7182C112.377 84.938 112.5 85.2361 112.5 85.5469C112.5 85.8577 112.377 86.1557 112.157 86.3755C111.937 86.5953 111.639 86.7188 111.328 86.7188Z" fill="#039BE4"/>
<path d="M111.328 112.5H90.2344C89.9236 112.5 89.6255 112.377 89.4057 112.157C89.186 111.937 89.0625 111.639 89.0625 111.328V90.2344C89.0625 89.9236 89.186 89.6255 89.4057 89.4057C89.6255 89.186 89.9236 89.0625 90.2344 89.0625H111.328C111.639 89.0625 111.937 89.186 112.157 89.4057C112.377 89.6255 112.5 89.9236 112.5 90.2344V111.328C112.5 111.639 112.377 111.937 112.157 112.157C111.937 112.377 111.639 112.5 111.328 112.5ZM91.4062 110.156H110.156V91.4062H91.4062V110.156ZM139.453 112.5H118.359C118.049 112.5 117.751 112.377 117.531 112.157C117.311 111.937 117.188 111.639 117.188 111.328V90.2344C117.188 89.9236 117.311 89.6255 117.531 89.4057C117.751 89.186 118.049 89.0625 118.359 89.0625H139.453C139.764 89.0625 140.062 89.186 140.282 89.4057C140.502 89.6255 140.625 89.9236 140.625 90.2344V111.328C140.625 111.639 140.502 111.937 140.282 112.157C140.062 112.377 139.764 112.5 139.453 112.5ZM119.531 110.156H138.281V91.4062H119.531V110.156Z" fill="#039BE4"/>
<path d="M104.297 98.4375C104.066 98.4376 103.84 98.3691 103.648 98.2406L100.781 96.3305L97.9148 98.2406C97.7384 98.3581 97.5334 98.4254 97.3216 98.4356C97.1099 98.4457 96.8994 98.3982 96.7125 98.2981C96.5256 98.1981 96.3694 98.0492 96.2604 97.8674C96.1515 97.6856 96.0939 97.4776 96.0938 97.2656V90.2344C96.0938 89.9236 96.2172 89.6255 96.437 89.4057C96.6568 89.186 96.9548 89.0625 97.2656 89.0625H104.297C104.608 89.0625 104.906 89.186 105.126 89.4057C105.345 89.6255 105.469 89.9236 105.469 90.2344V97.2656C105.469 97.4197 105.439 97.5724 105.381 97.7148C105.322 97.8573 105.236 97.9867 105.127 98.0957C105.018 98.2046 104.889 98.2909 104.746 98.3496C104.604 98.4082 104.451 98.4381 104.297 98.4375ZM100.781 93.75C101.009 93.75 101.234 93.8156 101.43 93.9469L103.125 95.0742V91.4062H98.4375V95.0742L100.132 93.9469C100.324 93.8184 100.55 93.7499 100.781 93.75ZM132.422 98.4375C132.191 98.4376 131.965 98.3691 131.773 98.2406L128.906 96.3305L126.04 98.2406C125.863 98.3581 125.658 98.4254 125.447 98.4356C125.235 98.4457 125.024 98.3982 124.837 98.2981C124.651 98.1981 124.494 98.0492 124.385 97.8674C124.276 97.6856 124.219 97.4776 124.219 97.2656V90.2344C124.219 89.9236 124.342 89.6255 124.562 89.4057C124.782 89.186 125.08 89.0625 125.391 89.0625H132.422C132.733 89.0625 133.031 89.186 133.251 89.4057C133.47 89.6255 133.594 89.9236 133.594 90.2344V97.2656C133.594 97.4197 133.564 97.5724 133.506 97.7148C133.447 97.8573 133.361 97.9867 133.252 98.0957C133.143 98.2046 133.014 98.2909 132.871 98.3496C132.729 98.4082 132.576 98.4381 132.422 98.4375ZM128.906 93.75C129.134 93.75 129.359 93.8156 129.555 93.9469L131.25 95.0742V91.4062H126.562V95.0742L128.257 93.9469C128.449 93.8184 128.675 93.7499 128.906 93.75Z" fill="#039BE4"/>
<path d="M125.391 91.4062H104.297C103.986 91.4062 103.688 91.2828 103.468 91.063C103.248 90.8432 103.125 90.5452 103.125 90.2344V69.1406C103.125 68.8298 103.248 68.5318 103.468 68.312C103.688 68.0922 103.986 67.9688 104.297 67.9688H125.391C125.701 67.9688 125.999 68.0922 126.219 68.312C126.439 68.5318 126.562 68.8298 126.562 69.1406V90.2344C126.562 90.5452 126.439 90.8432 126.219 91.063C125.999 91.2828 125.701 91.4062 125.391 91.4062ZM105.469 89.0625H124.219V70.3125H105.469V89.0625Z" fill="#039BE4"/>
<path d="M118.359 77.3438C118.128 77.3439 117.902 77.2753 117.71 77.1469L114.844 75.2367L111.977 77.1469C111.801 77.2644 111.595 77.332 111.383 77.3423C111.171 77.3526 110.96 77.3053 110.773 77.2055C110.586 77.1046 110.431 76.9554 110.322 76.7734C110.214 76.5915 110.156 76.3837 110.156 76.1719V69.1406C110.156 68.8298 110.28 68.5318 110.499 68.312C110.719 68.0922 111.017 67.9688 111.328 67.9688H118.359C118.67 67.9688 118.968 68.0922 119.188 68.312C119.408 68.5318 119.531 68.8298 119.531 69.1406V76.1719C119.531 76.4827 119.408 76.7807 119.188 77.0005C118.968 77.2203 118.67 77.3438 118.359 77.3438ZM114.844 72.6562C115.071 72.6562 115.296 72.7219 115.493 72.8531L117.188 73.9828V70.3125H112.5V73.9828L114.195 72.8531C114.387 72.7247 114.613 72.6561 114.844 72.6562ZM90.2344 98.4375H15.2344C13.6808 98.4363 12.1911 97.8185 11.0925 96.72C9.99397 95.6214 9.37624 94.1317 9.375 92.5781V38.6719C9.375 35.4422 12.0023 32.8125 15.2344 32.8125H92.5781C95.8102 32.8125 98.4375 35.4422 98.4375 38.6719V90.2344C98.4375 90.5452 98.314 90.8432 98.0943 91.063C97.8745 91.2828 97.5764 91.4062 97.2656 91.4062H91.4062V97.2656C91.4062 97.5764 91.2828 97.8745 91.063 98.0943C90.8432 98.314 90.5452 98.4375 90.2344 98.4375ZM15.2344 35.1562C13.2961 35.1562 11.7188 36.7336 11.7188 38.6719V92.5781C11.7188 94.5164 13.2961 96.0938 15.2344 96.0938H89.0625V90.2344C89.0625 89.9236 89.186 89.6255 89.4057 89.4057C89.6255 89.186 89.9236 89.0625 90.2344 89.0625H96.0938V38.6719C96.0938 36.7336 94.5164 35.1562 92.5781 35.1562H15.2344Z" fill="#039BE4"/>
</svg>
