<svg width="126" height="126" viewBox="0 0 126 126" fill="none" xmlns="http://www.w3.org/2000/svg">
<path opacity="0.3" d="M41.0908 91.7534H59.4641V96.131H41.0908V91.7534Z" fill="#2D98D5"/>
<path d="M80.2657 91.8654H13.7228C7.92766 91.8654 3.18604 87.1238 3.18604 81.3287V29.8612C3.18604 24.066 7.92766 19.3244 13.7228 19.3244H87.0224C92.8175 19.3244 97.5592 24.066 97.5592 29.8612V49.5802" stroke="#039BE4" stroke-miterlimit="10" stroke-linecap="round" stroke-linejoin="round"/>
<path d="M80.2655 76.7725H13.7917C10.6785 76.7725 8.13135 74.2254 8.13135 71.1121V30.1586C8.13135 27.0454 10.6785 24.4974 13.7926 24.4974H86.954C90.0672 24.4974 92.6143 27.0445 92.6143 30.1578V49.1234" stroke="#039BE4" stroke-miterlimit="10" stroke-linecap="round" stroke-linejoin="round"/>
<path opacity="0.3" d="M8.13037 31.9541V30.1586C8.13037 27.0454 10.6775 24.4974 13.7916 24.4974H86.953C90.0662 24.4974 92.6134 27.0445 92.6134 30.1578V31.9541H8.13037Z" fill="#2D98D5"/>
<path d="M8.13037 31.9541V30.1586C8.13037 27.0454 10.6775 24.4974 13.7916 24.4974H86.953C90.0662 24.4974 92.6134 27.0445 92.6134 30.1578V31.9541H8.13037Z" stroke="#039BE4" stroke-miterlimit="10" stroke-linecap="round" stroke-linejoin="round"/>
<path opacity="0.3" d="M50.3726 87.6908C52.1147 87.6908 53.527 86.2785 53.527 84.5364C53.527 82.7943 52.1147 81.382 50.3726 81.382C48.6305 81.382 47.2183 82.7943 47.2183 84.5364C47.2183 86.2785 48.6305 87.6908 50.3726 87.6908Z" fill="#2D98D5"/>
<path d="M50.3726 87.6908C52.1147 87.6908 53.527 86.2785 53.527 84.5364C53.527 82.7943 52.1147 81.382 50.3726 81.382C48.6305 81.382 47.2183 82.7943 47.2183 84.5364C47.2183 86.2785 48.6305 87.6908 50.3726 87.6908Z" stroke="#039BE4" stroke-miterlimit="10" stroke-linecap="round" stroke-linejoin="round"/>
<path d="M59.5971 92.0911C59.5971 92.0911 57.9311 102.861 66.1316 102.861H49.7314H50.7561H34.6123C42.812 102.861 41.0182 92.2031 41.0182 92.2031M51.0649 38.9856H77.3149M51.0649 44.2356H81.6899M51.0649 47.7356H77.3149M14.4707 37.5611H45.9313V49.3158H14.4707V37.5611Z" stroke="#039BE4" stroke-miterlimit="10" stroke-linecap="round" stroke-linejoin="round"/>
<path opacity="0.3" d="M14.4707 55.7988H30.2015V71.5295H14.4707V55.7988Z" fill="#2D98D5"/>
<path d="M14.4707 55.7987H30.2015V71.5295H14.4707V55.7987ZM35.9056 55.7987H51.6363V71.5295H35.9056V55.7987ZM57.3404 55.7987H73.0712V71.5295H57.3404V55.7987ZM117.886 109.27H84.5215C83.4034 109.267 82.3321 108.821 81.5416 108.031C80.751 107.24 80.3054 106.169 80.3022 105.051V53.795C80.3054 52.677 80.751 51.6057 81.5416 50.8151C82.3321 50.0245 83.4034 49.579 84.5215 49.5757H117.886C119.004 49.579 120.075 50.0245 120.866 50.8151C121.657 51.6057 122.102 52.677 122.105 53.795V105.051C122.102 106.169 121.657 107.24 120.866 108.031C120.075 108.821 119.004 109.267 117.886 109.27Z" stroke="#039BE4" stroke-miterlimit="10" stroke-linecap="round" stroke-linejoin="round"/>
<path d="M116.464 99.666H85.9444C85.2227 99.666 84.5305 99.3793 84.0202 98.869C83.5098 98.3586 83.2231 97.6665 83.2231 96.9448V55.7025C83.2231 54.9808 83.5098 54.2886 84.0202 53.7783C84.5305 53.268 85.2227 52.9813 85.9444 52.9813H116.464C117.186 52.9813 117.878 53.268 118.389 53.7783C118.899 54.2886 119.186 54.9808 119.186 55.7025V96.9448C119.186 97.6665 118.899 98.3586 118.389 98.869C117.878 99.3793 117.186 99.666 116.464 99.666Z" stroke="#039BE4" stroke-miterlimit="10" stroke-linecap="round" stroke-linejoin="round"/>
<path opacity="0.3" d="M102.774 106.271C103.84 106.271 104.704 105.406 104.704 104.34C104.704 103.274 103.84 102.41 102.774 102.41C101.708 102.41 100.844 103.274 100.844 104.34C100.844 105.406 101.708 106.271 102.774 106.271Z" fill="#2D98D5"/>
<path d="M102.774 106.271C103.84 106.271 104.704 105.406 104.704 104.34C104.704 103.274 103.84 102.41 102.774 102.41C101.708 102.41 100.844 103.274 100.844 104.34C100.844 105.406 101.708 106.271 102.774 106.271Z" stroke="#039BE4" stroke-miterlimit="10" stroke-linecap="round" stroke-linejoin="round"/>
<path opacity="0.3" d="M88.3398 57.4402H115.111V79.8831H88.3398V57.4402Z" fill="#2D98D5"/>
<path d="M88.6901 86.2356H109.69M88.6901 89.7356H106.19M87.7783 57.4402H115.112V79.8831H87.7783V57.4402Z" stroke="#039BE4" stroke-miterlimit="10" stroke-linecap="round" stroke-linejoin="round"/>
<path d="M109.846 35.4462V40.8984M112.572 38.1719H107.12" stroke="#039BE4" stroke-miterlimit="10" stroke-linecap="round" stroke-linejoin="round"/>
<path d="M118.705 16.0729V25.1799M123.258 20.6264H114.152" stroke="#039BE4" stroke-miterlimit="10" stroke-linecap="round" stroke-linejoin="round"/>
</svg>
