<svg width="98" height="98" viewBox="0 0 98 98" fill="none" xmlns="http://www.w3.org/2000/svg">
<path d="M38.2814 12.25V30.625C38.2814 31.0311 38.4428 31.4206 38.7299 31.7078C39.0171 31.9949 39.4066 32.1562 39.8127 32.1562H58.1877C58.5938 32.1562 58.9833 31.9949 59.2705 31.7078C59.5576 31.4206 59.7189 31.0311 59.7189 30.625V12.25C59.7189 11.8439 59.5576 11.4544 59.2705 11.1672C58.9833 10.8801 58.5938 10.7188 58.1877 10.7188H39.8127C39.4066 10.7188 39.0171 10.8801 38.7299 11.1672C38.4428 11.4544 38.2814 11.8439 38.2814 12.25ZM47.4689 13.7812H50.5314V18.375H47.4689V13.7812ZM41.3439 13.7812H44.4064V19.9062C44.4064 20.3124 44.5678 20.7018 44.8549 20.989C45.1421 21.2762 45.5316 21.4375 45.9377 21.4375H52.0627C52.4688 21.4375 52.8583 21.2762 53.1455 20.989C53.4326 20.7018 53.5939 20.3124 53.5939 19.9062V13.7812H56.6564V29.0938H41.3439V13.7812ZM38.4147 70.2599C37.9415 73.2994 38.727 76.2792 40.6243 78.6496C42.0958 80.4886 42.8752 82.5283 42.8752 84.551V85.75C42.8752 86.1561 43.0365 86.5456 43.3237 86.8328C43.6109 87.1199 44.0003 87.2812 44.4064 87.2812H53.5939C54.0001 87.2812 54.3895 87.1199 54.6767 86.8328C54.9639 86.5456 55.1252 86.1561 55.1252 85.75V84.8159C55.1252 82.6247 55.9077 80.4565 57.3271 78.7093C58.8715 76.802 59.7157 74.423 59.7189 71.9688C59.7183 70.4555 59.3974 68.9594 58.7775 67.5789C58.1576 66.1984 57.2526 64.9647 56.122 63.9588C54.984 62.9527 53.6464 62.1982 52.1967 61.7446C50.747 61.291 49.2179 61.1486 47.7094 61.3266C43.0436 61.8732 39.1344 65.6309 38.4147 70.2599ZM48.0677 64.3676C49.147 64.2314 50.243 64.3287 51.2815 64.6528C52.32 64.977 53.2768 65.5205 54.087 66.2465C54.8944 66.9654 55.5406 67.8468 55.9834 68.8329C56.4263 69.8191 56.6556 70.8877 56.6564 71.9688C56.663 73.7213 56.06 75.4216 54.9506 76.7784C53.2261 78.89 52.2193 81.4962 52.0765 84.2188H45.9316C45.8535 81.6064 44.849 79.0247 43.0145 76.734C41.6594 75.0435 41.1005 72.9105 41.4404 70.73C41.9534 67.4347 44.7403 64.7581 48.0677 64.3676ZM53.5939 90.3438C53.5939 89.9376 53.4326 89.5482 53.1455 89.261C52.8583 88.9738 52.4688 88.8125 52.0627 88.8125H45.9377C45.5316 88.8125 45.1421 88.9738 44.8549 89.261C44.5678 89.5482 44.4064 89.9376 44.4064 90.3438C44.4064 90.7499 44.5678 91.1393 44.8549 91.4265C45.1421 91.7137 45.5316 91.875 45.9377 91.875H52.0627C52.4688 91.875 52.8583 91.7137 53.1455 91.4265C53.4326 91.1393 53.5939 90.7499 53.5939 90.3438ZM52.0627 94.9375C52.0627 94.5314 51.9014 94.1419 51.6142 93.8547C51.327 93.5676 50.9376 93.4062 50.5314 93.4062H47.4689C47.0628 93.4062 46.6734 93.5676 46.3862 93.8547C46.099 94.1419 45.9377 94.5314 45.9377 94.9375C45.9377 95.3436 46.099 95.7331 46.3862 96.0203C46.6734 96.3074 47.0628 96.4688 47.4689 96.4688H50.5314C50.9376 96.4688 51.327 96.3074 51.6142 96.0203C51.9014 95.7331 52.0627 95.3436 52.0627 94.9375Z" fill="#039BE4"/>
<path d="M49.0001 70.4375V67.375C46.4674 67.375 44.4063 69.4361 44.4063 71.9688H47.4688C47.4688 71.1235 48.1564 70.4375 49.0001 70.4375ZM80.3095 26.1921C80.0553 26.0645 79.7705 26.0106 79.4872 26.0363C79.2039 26.062 78.9335 26.1663 78.7063 26.3375L72.5813 30.9313C72.3912 31.0739 72.2368 31.2589 72.1305 31.4715C72.0242 31.6841 71.9688 31.9186 71.9688 32.1563C71.9688 32.394 72.0242 32.6284 72.1305 32.8411C72.2368 33.0537 72.3912 33.2386 72.5813 33.3813L78.7063 37.975C78.9335 38.1462 79.2039 38.2505 79.4872 38.2762C79.7705 38.3019 80.0553 38.248 80.3095 38.1205C80.8286 37.8602 81.1563 37.3304 81.1563 36.75V33.6875H84.2188V50.5313H87.2813V32.1563C87.2813 31.7502 87.12 31.3607 86.8328 31.0735C86.5457 30.7864 86.1562 30.625 85.7501 30.625H81.1563V27.5625C81.1563 26.9822 80.8286 26.4524 80.3095 26.1921ZM78.0938 33.6875L76.0527 32.1563L78.0938 30.625V33.6875ZM17.6906 38.1205C17.9453 38.2461 18.2298 38.299 18.5127 38.2733C18.7955 38.2477 19.0658 38.1444 19.2938 37.975L25.4188 33.3813C25.6096 33.239 25.7644 33.0542 25.8711 32.8415C25.9778 32.6289 26.0334 32.3942 26.0334 32.1563C26.0334 31.9183 25.9778 31.6837 25.8711 31.471C25.7644 31.2583 25.6096 31.0735 25.4188 30.9313L19.2938 26.3375C19.0662 26.1675 18.7957 26.0641 18.5127 26.0389C18.2297 26.0136 17.9453 26.0676 17.6911 26.1946C17.437 26.3217 17.2232 26.5169 17.0735 26.7584C16.9239 27 16.8444 27.2784 16.8438 27.5625V30.625H12.2501C11.844 30.625 11.4545 30.7864 11.1673 31.0735C10.8802 31.3607 10.7188 31.7502 10.7188 32.1563V50.5313H13.7813V33.6875H16.8438V36.75C16.8438 37.3304 17.1715 37.8602 17.6906 38.1205ZM19.9063 30.625L21.9475 32.1563L19.9063 33.6875V30.625ZM65.8438 90.3438H85.7501C86.1562 90.3438 86.5457 90.1824 86.8328 89.8953C87.12 89.6081 87.2813 89.2186 87.2813 88.8125V81.1563H90.3438C90.628 81.1557 90.9063 81.0762 91.1479 80.9266C91.3894 80.7769 91.5847 80.5631 91.7117 80.309C91.8388 80.0548 91.8927 79.7704 91.8675 79.4874C91.8423 79.2044 91.7388 78.9339 91.5688 78.7063L86.9751 72.5813C86.3978 71.8095 85.1024 71.8095 84.5251 72.5813L79.9313 78.7063C79.7601 78.9336 79.6557 79.2042 79.6299 79.4877C79.604 79.7711 79.6577 80.0561 79.785 80.3107C79.9123 80.5652 80.1081 80.7792 80.3503 80.9286C80.5926 81.078 80.8717 81.1568 81.1563 81.1563H84.2188V87.2813H65.8438V90.3438ZM85.7501 76.0526L87.2813 78.0938H84.2188L85.7501 76.0526ZM12.2501 90.3438H29.0938V87.2813H13.7813V81.1563H16.8438C17.128 81.1557 17.4063 81.0762 17.6479 80.9266C17.8894 80.7769 18.0847 80.5631 18.2117 80.309C18.3388 80.0548 18.3927 79.7704 18.3675 79.4874C18.3423 79.2044 18.2389 78.9339 18.0688 78.7063L13.4751 72.5813C12.8978 71.8095 11.6024 71.8095 11.0251 72.5813L6.43132 78.7063C6.2601 78.9336 6.1557 79.2042 6.12986 79.4877C6.10401 79.7711 6.15775 80.0561 6.28503 80.3107C6.41231 80.5652 6.60809 80.7792 6.85034 80.9286C7.09259 81.078 7.37172 81.1568 7.65632 81.1563H10.7188V88.8125C10.7188 89.2186 10.8802 89.6081 11.1673 89.8953C11.4545 90.1824 11.844 90.3438 12.2501 90.3438ZM12.2501 76.0526L13.7813 78.0938H10.7188L12.2501 76.0526ZM43.0359 52.747C43.2962 53.2661 43.826 53.5938 44.4063 53.5938H47.4688V58.1875H50.5313V53.5938H53.5938C53.878 53.5932 54.1563 53.5137 54.3979 53.3641C54.6395 53.2144 54.8347 53.0006 54.9617 52.7465C55.0888 52.4923 55.1427 52.2079 55.1175 51.9249C55.0923 51.6418 54.9888 51.3714 54.8188 51.1438L50.2251 45.0188C49.6478 44.247 48.3524 44.247 47.7751 45.0188L43.1813 51.1438C43.0108 51.3712 42.9069 51.6416 42.8812 51.9247C42.8555 52.2079 42.909 52.4926 43.0359 52.747ZM49.0001 48.4901L50.5313 50.5313H47.4688L49.0001 48.4901ZM30.1795 27.9361C30.5363 28.9697 30.9819 29.9804 31.5055 30.942L34.1959 29.4797C33.7529 28.6647 33.378 27.8145 33.0751 26.9378L30.1795 27.9361ZM59.8995 38.0975L58.2213 35.5342C57.448 36.0411 56.6257 36.4882 55.7774 36.8618L57.0146 39.664C58.0172 39.221 58.982 38.6971 59.8995 38.0975ZM37.6106 33.8468C36.9262 33.2184 36.2947 32.5347 35.7226 31.8026L33.3109 33.6891C33.9816 34.5496 34.7319 35.3596 35.5389 36.1008L37.6106 33.8468ZM29.3679 24.7527L32.3891 24.2443C32.236 23.3363 32.1579 22.4037 32.1563 21.4712L29.0938 21.4773C29.0954 22.5768 29.1888 23.6793 29.3679 24.7527ZM53.822 2.11928L53.0839 5.09143C53.9844 5.31605 54.8648 5.61463 55.7161 5.98415L56.9381 3.17584C55.93 2.73896 54.8878 2.38558 53.822 2.11928ZM29.3557 18.2066L32.3784 18.6997C32.5284 17.7855 32.755 16.8805 33.0521 16.0047L30.1519 15.017C29.7987 16.0563 29.5323 17.1232 29.3557 18.2066ZM44.0557 2.1499C42.996 2.42093 41.9502 2.78231 40.9488 3.22637L42.1906 6.02549C43.039 5.65075 43.9168 5.34654 44.8152 5.11593L44.0557 2.1499ZM50.3353 4.64737L50.5819 1.59406C49.4886 1.50728 48.39 1.51087 47.2973 1.60478L47.553 4.65503C48.4787 4.57745 49.4092 4.57489 50.3353 4.64737ZM31.4673 12.002L34.1638 13.4551C34.6017 12.6436 35.1132 11.858 35.6828 11.123L33.2619 9.24724C32.5896 10.115 31.9894 11.0363 31.4673 12.002ZM68.9063 21.3962L68.179 21.3778L65.8438 21.4375C65.8438 22.367 65.7673 23.3011 65.6172 24.2106L68.6384 24.7098C68.816 23.6364 68.9063 22.5354 68.9063 21.3962ZM60.414 33.8284L62.4904 36.0778C63.2958 35.334 64.0393 34.5259 64.7138 33.6615L62.2974 31.7796C61.7294 32.5069 61.0954 33.1975 60.414 33.8284ZM67.8329 27.8994L64.9358 26.9041C64.6339 27.7822 64.26 28.6339 63.818 29.4506L66.5114 30.9098C67.0336 29.9452 67.4777 28.933 67.8329 27.8994ZM64.9144 15.9036C65.2191 16.781 65.4518 17.686 65.6049 18.594L68.6246 18.0856C68.4419 17.0024 68.1683 15.9365 67.8069 14.8991L64.9144 15.9036ZM62.2561 11.0434C62.8288 11.7723 63.3433 12.5517 63.7874 13.3648L66.4732 11.8932C65.9465 10.9321 65.3417 10.0158 64.6648 9.15384L62.2561 11.0434ZM35.4807 6.82634L37.5601 9.07574C38.2415 8.44487 38.978 7.86759 39.7498 7.35921L38.0654 4.80203C37.1559 5.39921 36.2846 6.08215 35.4807 6.82634ZM38.1328 38.1174C39.05 38.7177 40.0224 39.2414 41.0253 39.6808L42.2534 36.8756C41.4032 36.5034 40.5852 36.0614 39.808 35.5541L38.1328 38.1174ZM58.1631 7.30256C58.9364 7.80634 59.6775 8.37903 60.365 9.00684L62.4307 6.74518C61.621 6.00545 60.7519 5.33352 59.8321 4.73618L58.1631 7.30256ZM44.8841 37.776L44.1384 40.7451C45.1964 41.0115 46.2867 41.1907 47.3815 41.2795L47.6265 38.2262C46.7015 38.152 45.7843 38.0014 44.8841 37.776ZM53.1528 37.7668C52.2555 37.9934 51.3337 38.1481 50.4088 38.2262L50.663 41.2764C51.7561 41.1854 52.8398 41.0046 53.9031 40.7359L53.1528 37.7668ZM12.2501 67.375C15.628 67.375 18.3751 64.628 18.3751 61.25C18.3751 57.8721 15.628 55.125 12.2501 55.125C8.87214 55.125 6.12507 57.8721 6.12507 61.25C6.12507 64.628 8.87214 67.375 12.2501 67.375ZM12.2501 58.1875C13.939 58.1875 15.3126 59.5611 15.3126 61.25C15.3126 62.939 13.939 64.3125 12.2501 64.3125C10.5611 64.3125 9.18757 62.939 9.18757 61.25C9.18757 59.5611 10.5611 58.1875 12.2501 58.1875ZM85.7501 67.375C89.128 67.375 91.8751 64.628 91.8751 61.25C91.8751 57.8721 89.128 55.125 85.7501 55.125C82.3721 55.125 79.6251 57.8721 79.6251 61.25C79.6251 64.628 82.3721 67.375 85.7501 67.375ZM85.7501 58.1875C87.439 58.1875 88.8126 59.5611 88.8126 61.25C88.8126 62.939 87.439 64.3125 85.7501 64.3125C84.0611 64.3125 82.6876 62.939 82.6876 61.25C82.6876 59.5611 84.0611 58.1875 85.7501 58.1875Z" fill="#039BE4"/>
</svg>
