<svg width="98" height="98" viewBox="0 0 98 98" fill="none" xmlns="http://www.w3.org/2000/svg">
<path d="M86.8066 9.01904H11.1934C9.44433 9.02309 7.76803 9.71971 6.53122 10.9565C5.29441 12.1933 4.59779 13.8696 4.59375 15.6187V70.5906C4.59779 72.3397 5.29441 74.016 6.53122 75.2528C7.76803 76.4896 9.44433 77.1862 11.1934 77.1903H40.1034V85.9184H35.2188C34.8126 85.9184 34.4232 86.0798 34.136 86.3669C33.8488 86.6541 33.6875 87.0436 33.6875 87.4497C33.6875 87.8558 33.8488 88.2453 34.136 88.5324C34.4232 88.8196 34.8126 88.9809 35.2188 88.9809H62.7812C63.1874 88.9809 63.5768 88.8196 63.864 88.5324C64.1512 88.2453 64.3125 87.8558 64.3125 87.4497C64.3125 87.0436 64.1512 86.6541 63.864 86.3669C63.5768 86.0798 63.1874 85.9184 62.7812 85.9184H57.8966V77.1903H86.8066C88.5557 77.1862 90.232 76.4896 91.4688 75.2528C92.7056 74.016 93.4022 72.3397 93.4062 70.5906V15.6187C93.4022 13.8696 92.7056 12.1933 91.4688 10.9565C90.232 9.71971 88.5557 9.02309 86.8066 9.01904ZM11.2088 12.0815H86.8066C87.7434 12.0856 88.6408 12.4595 89.3033 13.122C89.9658 13.7845 90.3397 14.6819 90.3438 15.6187V58.6469H7.65625V15.6187C7.66028 14.6819 8.03424 13.7845 8.69672 13.122C9.3592 12.4595 10.2566 12.0856 11.1934 12.0815H11.2088ZM54.8494 85.9184H43.1659V77.1903H54.8494V85.9184ZM86.8066 74.1278H11.1934C10.2566 74.1238 9.3592 73.7498 8.69672 73.0873C8.03424 72.4248 7.66028 71.5275 7.65625 70.5906V61.7094H90.3438V70.5906C90.3397 71.5275 89.9658 72.4248 89.3033 73.0873C88.6408 73.7498 87.7434 74.1238 86.8066 74.1278Z" fill="#039BE4"/>
<path d="M17.9618 52.2615C18.1317 52.3691 18.3211 52.4422 18.5193 52.4766C18.7174 52.511 18.9204 52.506 19.1167 52.4619C19.3129 52.4178 19.4985 52.3355 19.6629 52.2197C19.8273 52.1039 19.9673 51.9568 20.0749 51.7868L32.6158 32.049L40.2721 43.9315C40.3965 44.1237 40.5624 44.2855 40.7577 44.405C40.9529 44.5246 41.1724 44.5988 41.4001 44.6224C41.6278 44.6459 41.8579 44.618 42.0734 44.5409C42.289 44.4637 42.4845 44.3392 42.6455 44.1765L55.1252 31.6203L61.633 40.9762C61.7753 41.1693 61.961 41.3263 62.1751 41.4345C62.3892 41.5427 62.6258 41.599 62.8657 41.599C63.1056 41.599 63.3421 41.5427 63.5562 41.4345C63.7703 41.3263 63.956 41.1693 64.0983 40.9762L80.6052 19.9062C80.7471 19.7505 80.8554 19.5672 80.9232 19.3677C80.9911 19.1682 81.017 18.9569 80.9994 18.7469C80.9818 18.5369 80.9211 18.3329 80.8211 18.1474C80.721 17.962 80.5837 17.7993 80.4179 17.6693C80.252 17.5394 80.0611 17.4451 79.8571 17.3923C79.6532 17.3395 79.4405 17.3294 79.2324 17.3625C79.0243 17.3957 78.8254 17.4715 78.6479 17.5851C78.4705 17.6987 78.3184 17.8477 78.2011 18.0228L62.8886 37.5768L56.5186 28.3893C56.39 28.2056 56.2226 28.0523 56.0282 27.9404C55.8339 27.8285 55.6173 27.7607 55.3938 27.7417C55.1703 27.7227 54.9454 27.753 54.7349 27.8305C54.5245 27.9081 54.3336 28.0309 54.1758 28.1903L41.9258 40.7159L33.9327 28.4659C33.7926 28.2531 33.6015 28.0786 33.3769 27.9583C33.1523 27.838 32.9012 27.7756 32.6464 27.7768C32.3902 27.7773 32.1382 27.842 31.9135 27.965C31.6888 28.0881 31.4986 28.2656 31.3602 28.4812L17.5789 50.225C17.3759 50.5506 17.3026 50.9407 17.3735 51.3178C17.4444 51.695 17.6544 52.0318 17.9618 52.2615Z" fill="#039BE4"/>
</svg>
