<svg width="120" height="92" viewBox="0 0 120 92" fill="none" xmlns="http://www.w3.org/2000/svg">
<path fill-rule="evenodd" clip-rule="evenodd" d="M28.0571 0.00559809C27.9352 -0.0075496 27.834 0.00559755 27.7609 0.0131105C27.6709 0.02438 27.6577 0.0318928 27.6165 0.0394058C27.5581 0.037716 27.4998 0.0414899 27.4421 0.0506762L25.5633 0.351195C25.5311 0.355791 25.4992 0.36206 25.4677 0.369977C25.1092 0.470752 24.8041 0.707755 24.6174 1.03051C24.4307 1.35327 24.3772 1.73627 24.4683 2.09796L24.9614 3.94991C24.6687 4.14297 24.3899 4.35636 24.127 4.58851L22.4714 3.63436C22.1469 3.45509 21.7656 3.40895 21.4078 3.50564C21.05 3.60233 20.7436 3.83432 20.5532 4.15276C20.5519 4.15275 20.5507 4.15275 20.5494 4.15276L19.6044 5.78683C19.4219 6.11244 19.3737 6.4966 19.47 6.85734C19.5664 7.21807 19.7996 7.52681 20.1201 7.71766L21.7701 8.67181C21.697 9.01928 21.6557 9.36675 21.6332 9.71986L19.7957 10.212C19.7944 10.212 19.7932 10.212 19.7919 10.212C19.4332 10.3123 19.128 10.5493 18.9415 10.8723C18.7551 11.1952 18.7023 11.5785 18.7944 11.9399C18.7944 11.9412 18.7944 11.9425 18.7944 11.9437L18.92 12.3982L19.1619 13.3092L19.2819 13.7637C19.2819 13.7662 19.2819 13.7687 19.2819 13.7712C19.382 14.1312 19.6194 14.4374 19.9428 14.6236C20.2662 14.8099 20.6498 14.8612 21.0107 14.7667L22.852 14.2727C23.0489 14.5676 23.2589 14.8475 23.4933 15.1123L22.5407 16.7651C22.3582 17.0903 22.3097 17.474 22.4057 17.8344C22.5017 18.1948 22.7345 18.5033 23.0545 18.6941L24.6914 19.6407C25.0161 19.8231 25.399 19.8714 25.7586 19.7753C26.1183 19.6792 26.4263 19.4462 26.6171 19.1261C26.6171 19.1248 26.6171 19.1236 26.6171 19.1223L27.5734 17.4695C27.9184 17.539 28.2653 17.5859 28.6178 17.6085L29.1072 19.4529C29.2081 19.8124 29.4456 20.1179 29.7688 20.304C30.092 20.4901 30.4751 20.5419 30.8359 20.4484L32.6566 19.96C33.0151 19.8593 33.3202 19.6223 33.5069 19.2995C33.6936 18.9767 33.7471 18.5937 33.656 18.2321L33.1647 16.3914C33.4591 16.1942 33.7329 15.9782 33.9973 15.7434L35.6529 16.6975C35.9776 16.8807 36.361 16.9293 36.7209 16.8327C37.0809 16.7362 37.3888 16.5022 37.5786 16.181C37.5786 16.1798 37.5786 16.1785 37.5786 16.1773L38.5199 14.5432H38.5161C38.6989 14.2183 38.7476 13.8348 38.652 13.4744C38.5563 13.114 38.3239 12.8053 38.0042 12.6142L36.3542 11.662C36.4255 11.3145 36.4667 10.967 36.4855 10.6158L38.3286 10.1162C38.6875 10.0158 38.993 9.77896 39.1801 9.45616C39.3671 9.13335 39.4209 8.75013 39.3299 8.38819C39.3299 8.38694 39.3299 8.38569 39.3299 8.38444L39.2043 7.9299L39.088 7.47912C39.0868 7.47661 39.0855 7.47411 39.0843 7.47161L38.9624 7.01707L38.8424 6.5663C38.8424 6.56504 38.8424 6.56379 38.8424 6.56254C38.7423 6.20239 38.5051 5.89596 38.1818 5.70911C37.8585 5.52227 37.475 5.46992 37.1136 5.56331L35.2704 6.05917C35.0773 5.76461 34.8636 5.48405 34.631 5.2196L35.5836 3.56487C35.7653 3.23921 35.8129 2.85532 35.7163 2.49501C35.6196 2.13469 35.3863 1.82643 35.066 1.63591L33.4329 0.693035C33.1082 0.509833 32.7248 0.461307 32.3649 0.557856C32.0049 0.654405 31.697 0.888347 31.5072 1.20955L30.5547 2.86053C30.2089 2.79095 29.8586 2.74576 29.5065 2.72529L29.0171 0.878981L29.0378 0.991674C29.0087 0.820245 28.9442 0.656807 28.8483 0.511882C28.7524 0.366958 28.6272 0.24376 28.4809 0.150222C28.3508 0.073876 28.2067 0.0246815 28.0571 0.00559809ZM71.5451 1.71292C68.8019 1.71292 66.3024 3.03896 64.5436 5.11629C63.6999 4.69369 62.828 4.2955 61.8773 4.2955C58.7197 4.2955 56.1959 6.756 55.8997 9.84571C55.519 9.73301 55.1909 9.46067 54.7878 9.46067C53.089 9.46067 51.7465 10.6083 51.1108 12.1353C47.9739 12.3795 45.4707 14.9433 45.4707 18.1457C45.4727 19.764 46.1153 21.3155 47.2577 22.4598C48.4001 23.6042 49.949 24.248 51.5646 24.2499H63.7486V31.8963H27.5002C26.3604 31.9007 25.2686 32.3571 24.4636 33.1655C23.6587 33.974 23.206 35.0688 23.2045 36.2106V55.3743H20.6226V43.9734C20.6226 43.7243 20.5238 43.4854 20.348 43.3093C20.1722 43.1332 19.9337 43.0342 19.685 43.0342H6.55972C6.31108 43.0342 6.07262 43.1332 5.8968 43.3093C5.72098 43.4854 5.6222 43.7243 5.6222 43.9734V66.5123C5.6222 66.7613 5.72098 67.0002 5.8968 67.1763C6.07262 67.3524 6.31108 67.4514 6.55972 67.4514H19.685C19.9337 67.4514 20.1722 67.3524 20.348 67.1763C20.5238 67.0002 20.6226 66.7613 20.6226 66.5123V57.2525H23.2045V80.7869H18.5169C18.2682 80.7869 18.0298 80.8858 17.854 81.062C17.6781 81.2381 17.5794 81.4769 17.5794 81.726C17.5794 83.0757 17.8448 84.4121 18.3606 85.659C18.8764 86.9059 19.6324 88.0387 20.5854 88.9928C21.5384 89.9469 22.6698 90.7036 23.9148 91.2196C25.1598 91.7355 26.4941 92.0007 27.8415 92H101.07C102.417 92.0007 103.751 91.7355 104.996 91.2196C106.241 90.7036 107.373 89.9469 108.326 88.9928C109.279 88.0387 110.035 86.9059 110.55 85.659C111.066 84.4121 111.332 83.0757 111.332 81.726C111.332 81.4769 111.233 81.2381 111.057 81.062C110.881 80.8858 110.643 80.7869 110.394 80.7869H105.707V56.1819H109.687C109.936 56.1819 110.174 56.083 110.35 55.9069C110.526 55.7308 110.625 55.4919 110.625 55.2428C110.625 54.9937 110.526 54.7549 110.35 54.5788C110.174 54.4026 109.936 54.3037 109.687 54.3037H108.476C107.465 54.3037 106.657 53.4942 106.657 52.4254V50.5472H117.986C119.117 50.5472 120 49.5705 120 48.4624V26.3367C120 25.2248 119.117 24.2518 117.986 24.2518H86.3879C85.2573 24.2518 84.3741 25.2248 84.3741 26.3367V31.8963H65.6237V24.2518H77.3465C78.962 24.2498 80.5109 23.6061 81.6533 22.4617C82.7957 21.3174 83.4384 19.7659 83.4404 18.1475C83.4404 16.0007 82.2216 14.2445 80.5472 13.1608C80.7103 12.4659 80.8622 11.7615 80.8622 11.044C80.8577 8.57031 79.8746 6.19922 78.1282 4.45021C76.3818 2.7012 74.0146 1.71689 71.5451 1.71292ZM27.1234 1.79368C27.2546 1.86881 27.234 1.79932 27.324 1.82186L27.3277 1.82937L27.1215 1.79181L27.1234 1.79368ZM27.3652 1.9646L27.8546 3.79965C27.9095 4.00618 28.033 4.18778 28.2048 4.31448C28.3767 4.44117 28.5865 4.50537 28.7996 4.49647C29.469 4.46642 30.1365 4.55282 30.7741 4.75755C30.9783 4.82307 31.1987 4.81648 31.3987 4.73889C31.5986 4.66131 31.766 4.51741 31.8728 4.33119L32.8985 2.55249L33.7254 3.02957L32.7035 4.80826C32.5973 4.99282 32.5569 5.20805 32.5889 5.41863C32.621 5.62921 32.7235 5.82263 32.8797 5.96714C33.3729 6.42167 33.7835 6.95885 34.0891 7.55613C34.1872 7.74681 34.3474 7.89813 34.5432 7.98492C34.739 8.07171 34.9586 8.08875 35.1654 8.0332L37.1492 7.50166C37.1492 7.50417 37.1492 7.50667 37.1492 7.50917L37.2748 7.95995L37.3911 8.41449C37.3923 8.417 37.3936 8.4195 37.3949 8.422L35.4111 8.9573C35.2039 9.01288 35.0221 9.13791 34.8958 9.31154C34.7696 9.48517 34.7066 9.69691 34.7173 9.91145C34.751 10.5801 34.6648 11.2506 34.466 11.8892C34.4024 12.0926 34.4096 12.3115 34.4867 12.5102C34.5637 12.7088 34.7058 12.8754 34.8898 12.9824L36.6636 14.006L36.1836 14.8381L34.4023 13.8107C34.2168 13.7042 34.0007 13.6645 33.7896 13.698C33.5785 13.7314 33.3852 13.8361 33.2416 13.9947C32.7935 14.4887 32.2591 14.9001 31.6666 15.2081C31.4776 15.3071 31.3281 15.4677 31.2425 15.6634C31.1569 15.859 31.1405 16.0781 31.1959 16.2843L31.7266 18.264L30.8003 18.5138L30.2697 16.5285C30.2143 16.3217 30.0901 16.14 29.9175 16.0136C29.745 15.8872 29.5345 15.8237 29.3209 15.8335C28.6528 15.8651 27.9843 15.7779 27.3465 15.5762C27.143 15.5115 26.9235 15.5183 26.7244 15.5955C26.5253 15.6727 26.3584 15.8156 26.2515 16.0007L25.2296 17.7794L24.3989 17.3004L25.4246 15.5199C25.5317 15.3343 25.5723 15.1177 25.5396 14.9058C25.5068 14.694 25.4027 14.4997 25.2446 14.3554C24.7488 13.9037 24.3368 13.3676 24.0277 12.772C23.929 12.582 23.7685 12.4315 23.5728 12.3454C23.377 12.2593 23.1578 12.2428 22.9514 12.2987L20.9732 12.8359V12.8321C20.9732 12.8309 20.9732 12.8296 20.9732 12.8284L20.7294 11.9099C20.7295 11.9086 20.7295 11.9074 20.7294 11.9061L22.7057 11.3802C22.9129 11.3251 23.0949 11.2005 23.2215 11.0272C23.3481 10.8539 23.4116 10.6424 23.4014 10.428C23.3714 9.75931 23.4595 9.08877 23.6639 8.45205C23.7283 8.248 23.7213 8.02802 23.6439 7.82854C23.5665 7.62906 23.4234 7.46204 23.2383 7.35516L21.4607 6.32776L21.9407 5.49758L23.7164 6.51746C23.9006 6.62453 24.1158 6.66557 24.3264 6.63382C24.537 6.60207 24.7306 6.49943 24.8752 6.34279C25.3252 5.84881 25.8614 5.43747 26.4558 5.13132C26.6462 5.03311 26.7973 4.87259 26.8839 4.67645C26.9705 4.48031 26.9876 4.26037 26.9321 4.05321L26.4127 2.11674L27.3652 1.9646ZM71.5451 3.59116C72.7089 3.58876 73.8569 3.86029 74.8968 4.38385C75.9366 4.90742 76.8391 5.66837 77.5315 6.60539C78.2239 7.54241 78.6868 8.62926 78.883 9.77837C79.0792 10.9275 79.0031 12.1067 78.6609 13.2209C78.5956 13.4362 78.6096 13.6678 78.7005 13.8736C78.7913 14.0794 78.9529 14.2457 79.1559 14.3422C79.8778 14.6805 80.4881 15.2185 80.915 15.8926C81.3419 16.5668 81.5675 17.3492 81.5653 18.1475C81.5653 20.5047 79.6996 22.3736 77.3465 22.3736H67.5212V19.5562H69.7075C69.8957 19.556 70.0795 19.499 70.2349 19.3927C70.3903 19.2864 70.5102 19.1358 70.579 18.9603C70.6477 18.7848 70.6622 18.5927 70.6205 18.4089C70.5788 18.2251 70.4828 18.0581 70.345 17.9297L65.3274 13.2341C65.2354 13.148 65.1271 13.0813 65.0089 13.0381C64.8907 12.9949 64.765 12.9759 64.6393 12.9824C64.4147 12.9939 64.2018 13.0859 64.0393 13.2416L59.1229 17.9372C58.9873 18.0665 58.8936 18.2336 58.8536 18.4168C58.8137 18.6 58.8294 18.791 58.8988 18.9652C58.9682 19.1394 59.0881 19.2887 59.243 19.3941C59.3979 19.4994 59.5807 19.5559 59.7679 19.5562H61.958V22.3736H51.5646C51.0094 22.3776 50.459 22.271 49.9454 22.06C49.4317 21.8491 48.965 21.5379 48.5725 21.1447C48.1799 20.7515 47.8693 20.284 47.6587 19.7695C47.4481 19.255 47.3417 18.7036 47.3457 18.1475C47.3457 15.7903 49.2114 13.9215 51.5646 13.9215H51.6302C51.8461 13.9216 52.0554 13.8471 52.2228 13.7106C52.3901 13.5741 52.5054 13.3838 52.549 13.1721C52.6255 12.7894 52.7988 12.4328 53.0522 12.1363C53.3056 11.8399 53.6307 11.6135 53.9963 11.4788C54.362 11.344 54.756 11.3055 55.1408 11.3668C55.5256 11.4282 55.8882 11.5874 56.1941 11.8291C56.3413 11.9451 56.5198 12.0142 56.7066 12.0276C56.8934 12.041 57.08 11.9981 57.2422 11.9043C57.4044 11.8105 57.5349 11.6702 57.6167 11.5015C57.6986 11.3328 57.7282 11.1433 57.7016 10.9576C57.6195 10.3609 57.6662 9.75338 57.8386 9.17625C58.011 8.59912 58.305 8.06578 58.7009 7.61227C59.0968 7.15877 59.5852 6.79566 60.1332 6.54749C60.6812 6.29932 61.2759 6.17186 61.8773 6.17374C62.7211 6.17374 63.5424 6.42918 64.2399 6.9025C64.4416 7.0404 64.6891 7.094 64.9297 7.05191C65.1702 7.00982 65.3849 6.87535 65.528 6.67711C66.2158 5.72222 67.1201 4.94453 68.1665 4.40804C69.2129 3.87155 70.3696 3.59158 71.5451 3.59116ZM29.1503 5.44686V5.45062C29.0876 5.45438 29.0254 5.46445 28.9646 5.48067C28.9621 5.48191 28.9596 5.48317 28.9571 5.48443C28.5821 5.49006 28.2071 5.50697 27.8452 5.60464C26.6789 5.92228 25.6783 6.67523 25.0489 7.70882C24.4195 8.74241 24.209 9.9782 24.4608 11.1624C24.4739 11.2281 24.4852 11.292 24.4983 11.3464C24.5022 11.3634 24.5066 11.3804 24.5114 11.3971C24.5264 11.4535 24.547 11.5098 24.5677 11.5737H24.5639C24.6033 11.6977 24.652 11.8216 24.7027 11.9437L24.7064 11.9475C25.1414 13.0093 25.9468 13.8767 26.9726 14.388C27.9985 14.8994 29.1749 15.02 30.2828 14.7273C30.2841 14.7273 30.2853 14.7273 30.2866 14.7273C31.3925 14.4252 32.351 13.7307 32.9837 12.7732C33.6163 11.8156 33.8799 10.6604 33.7254 9.52265L33.7048 9.36112C33.7048 9.35486 33.7048 9.3486 33.7048 9.34234C33.6811 9.20778 33.6517 9.0743 33.6166 8.94227C33.6154 8.93851 33.6142 8.93475 33.6129 8.931C33.5733 8.78864 33.527 8.64824 33.4741 8.51028C33.4729 8.50526 33.4717 8.50025 33.4704 8.49525L33.4591 8.47271C33.4591 8.47146 33.4591 8.47021 33.4591 8.46896L33.4216 8.38068C32.7935 6.83864 31.3591 5.86383 29.7372 5.61215C29.665 5.56189 29.5861 5.52206 29.5028 5.49382L29.4953 5.53139C29.4053 5.52199 29.3359 5.45062 29.244 5.44686C29.2128 5.4453 29.1815 5.4453 29.1503 5.44686ZM29.169 7.32886H29.1747C30.2847 7.37582 31.2653 8.06138 31.6872 9.09441C31.6901 9.10511 31.6933 9.11575 31.6966 9.12634C31.7049 9.14287 31.7124 9.15979 31.7191 9.17705L31.7303 9.19959C31.7844 9.35117 31.8257 9.50697 31.8541 9.66539L31.8653 9.75931C31.8665 9.76558 31.8678 9.77184 31.8691 9.77809C31.9682 10.4649 31.8125 11.1643 31.4315 11.7438C31.0504 12.3233 30.4705 12.7428 29.8015 12.9229C29.1324 13.1029 28.4207 13.031 27.8011 12.7208C27.1814 12.4105 26.6968 11.8835 26.439 11.2394C26.4378 11.2343 26.4365 11.2293 26.4352 11.2243C26.4025 11.1486 26.3731 11.0716 26.3471 10.9933C26.3471 10.9921 26.3471 10.9908 26.3471 10.9896C26.3363 10.9585 26.3262 10.9272 26.3171 10.8956V10.89L26.2983 10.7999C26.2973 10.7873 26.2961 10.7748 26.2946 10.7623C26.2796 10.6928 26.2646 10.6233 26.2552 10.55C26.198 10.1393 26.2316 9.72096 26.3536 9.32462C26.4755 8.92829 26.6829 8.56361 26.961 8.25637C27.2391 7.94913 27.5811 7.70681 27.963 7.54654C28.3449 7.38627 28.7572 7.31196 29.1709 7.32886H29.169ZM10.2686 14.8794C10.2134 14.8852 10.1588 14.8959 10.1054 14.9113L7.91913 15.4992C7.53634 15.6054 7.21029 15.8575 7.01085 16.2015C6.81142 16.5456 6.75448 16.9543 6.85223 17.3399L7.4785 19.6764C7.05165 19.9481 6.64891 20.256 6.27472 20.5968L4.18592 19.3984C3.84043 19.2055 3.43368 19.1545 3.05137 19.2561C2.66906 19.3577 2.34106 19.604 2.13649 19.9431L1.00396 21.9115C0.808453 22.2577 0.756083 22.6669 0.858072 23.0513C0.960062 23.4358 1.2083 23.7649 1.5496 23.9682L3.63653 25.1759C3.52647 25.6719 3.45935 26.1766 3.4359 26.6841L1.11459 27.3077C0.731987 27.4143 0.406097 27.6664 0.206433 28.0103C0.00676784 28.3542 -0.0508687 28.7626 0.0458161 29.1484C0.0464383 29.1497 0.0470633 29.1509 0.0476911 29.1522L0.193945 29.6987L0.488327 30.7919L0.63083 31.3384C0.632077 31.3397 0.633327 31.3409 0.63458 31.3422C0.740057 31.7266 0.992341 32.0541 1.33689 32.2537C1.68145 32.4534 2.09059 32.5091 2.47588 32.409C2.47713 32.409 2.47838 32.409 2.47963 32.409L4.80468 31.7817C5.08031 32.2118 5.38595 32.6138 5.72908 32.9894L4.52343 35.0761C4.32814 35.4231 4.27629 35.8329 4.37898 36.2176C4.48168 36.6024 4.73074 36.9316 5.07281 37.1347L7.03599 38.2729C7.38246 38.468 7.79137 38.5197 8.17537 38.4169C8.55936 38.314 8.88799 38.0649 9.09104 37.7226L10.2948 35.6302C10.7917 35.7391 11.2923 35.8068 11.8005 35.8293L12.4192 38.1583C12.4205 38.1596 12.4217 38.1608 12.423 38.1621C12.5301 38.5452 12.783 38.8708 13.1274 39.0689C13.4718 39.267 13.88 39.3218 14.2643 39.2214L16.4506 38.6354C16.8334 38.5293 17.1594 38.2771 17.3589 37.9331C17.5583 37.589 17.6152 37.1803 17.5175 36.7947L16.895 34.4657C17.3225 34.1896 17.72 33.8797 18.095 33.536L20.1876 34.7437C20.5337 34.9377 20.942 34.9884 21.3249 34.8848C21.7079 34.7813 22.0353 34.5318 22.237 34.1896C22.2382 34.1896 22.2395 34.1896 22.2407 34.1896L23.3695 32.2268H23.3658C23.5619 31.8804 23.6146 31.4708 23.5125 31.086C23.4105 30.7011 23.1619 30.3716 22.8201 30.1683L20.7369 28.9624C20.8438 28.4628 20.9095 27.9632 20.9301 27.4542L23.2551 26.8269C23.6379 26.7208 23.964 26.4686 24.1634 26.1246C24.3628 25.7805 24.4198 25.3718 24.322 24.9862C24.322 24.9843 24.322 24.9825 24.322 24.9806L24.1758 24.4378L24.0314 23.8931C24.0302 23.8899 24.0289 23.8868 24.0277 23.8837L23.8814 23.3409L23.7389 22.7962C23.7377 22.7943 23.7364 22.7924 23.7351 22.7905C23.628 22.4073 23.3753 22.0814 23.031 21.8827C22.6868 21.6839 22.2786 21.6282 21.8939 21.7275C21.8926 21.7275 21.8913 21.7275 21.8901 21.7275L19.5669 22.3548C19.295 21.9238 18.9864 21.5172 18.6444 21.1396L19.8444 19.0566C20.0399 18.7099 20.092 18.3003 19.9897 17.9155C19.8873 17.5307 19.6387 17.2014 19.2969 16.9981L17.3337 15.8617C16.987 15.6659 16.5775 15.6143 16.1931 15.7179C15.8088 15.8215 15.4804 16.0721 15.2787 16.4158L14.0749 18.5063C13.5796 18.3972 13.0759 18.3312 12.5692 18.3091L11.9505 15.9744L11.973 16.089C11.9244 15.7798 11.7723 15.4963 11.5417 15.2851C11.374 15.1409 11.175 15.038 10.9605 14.9846C10.8105 14.9433 10.7017 14.9339 10.6398 14.9264C10.6373 14.9251 10.6348 14.9238 10.6323 14.9226H10.6286C10.5437 14.8951 10.4553 14.88 10.3661 14.8775C10.3342 14.8759 10.3023 14.8759 10.2704 14.8775L10.2686 14.8794ZM64.6936 15.2118L67.33 17.678H66.5837C66.335 17.678 66.0966 17.7769 65.9208 17.953C65.7449 18.1292 65.6462 18.368 65.6462 18.6171V22.3736H63.833V18.6171C63.833 18.368 63.7342 18.1292 63.5584 17.953C63.3826 17.7769 63.1441 17.678 62.8955 17.678H62.1117L64.6936 15.2118ZM10.2329 16.8196L10.9173 19.3834C10.9723 19.5906 11.0964 19.7727 11.269 19.8995C11.4416 20.0262 11.6523 20.09 11.8661 20.0802C12.6911 20.0427 13.5124 20.1535 14.298 20.4033C14.5017 20.4679 14.7214 20.4608 14.9205 20.3832C15.1196 20.3057 15.2864 20.1624 15.3931 19.9769L16.7187 17.6742L18.0369 18.4368L16.715 20.7339C16.6092 20.9188 16.5695 21.1343 16.6022 21.3449C16.6349 21.5555 16.7381 21.7487 16.895 21.8927C17.5025 22.4525 18.005 23.1155 18.3819 23.8518C18.4799 24.0424 18.6402 24.1938 18.836 24.2805C19.0318 24.3673 19.2514 24.3844 19.4582 24.3288L22.0214 23.6395L22.0682 23.8217C22.0682 23.8242 22.0682 23.8267 22.0682 23.8292L22.2182 24.3758L22.3626 24.9205C22.3626 24.9223 22.3626 24.9242 22.3626 24.9261L22.4132 25.1102L19.85 25.7995C19.6429 25.8551 19.4611 25.9801 19.3348 26.1537C19.2086 26.3274 19.1455 26.5391 19.1563 26.7536C19.1975 27.5782 19.0925 28.4009 18.8469 29.1897C18.7832 29.3931 18.7905 29.612 18.8675 29.8107C18.9445 30.0093 19.0867 30.1758 19.2707 30.2829L21.5601 31.6108L20.7988 32.9312L18.4981 31.6033C18.3129 31.4966 18.0969 31.4565 17.8858 31.4897C17.6747 31.5228 17.4813 31.6271 17.3375 31.7854C16.784 32.3969 16.127 32.9056 15.3968 33.288C15.2079 33.3867 15.0582 33.5469 14.9723 33.7421C14.8864 33.9374 14.8695 34.1562 14.9243 34.3624L15.6087 36.9168L14.1368 37.315L13.4524 34.7512C13.3978 34.5437 13.2738 34.3611 13.1012 34.234C12.9286 34.1069 12.7177 34.0428 12.5036 34.0525C11.6786 34.0919 10.8573 33.9867 10.0717 33.7369C9.86798 33.6724 9.64837 33.6795 9.44923 33.757C9.25009 33.8345 9.08336 33.9779 8.97666 34.1633L7.65475 36.4604L6.33284 35.6959L7.6585 33.397C7.76568 33.2114 7.80627 32.9948 7.77352 32.7829C7.74078 32.5711 7.63667 32.3769 7.4785 32.2325C6.86841 31.676 6.36124 31.016 5.98034 30.2829C5.8817 30.0929 5.7212 29.9423 5.52544 29.8563C5.32969 29.7702 5.11045 29.7537 4.90406 29.8095L2.34837 30.4989L2.3015 30.311C2.3015 30.3098 2.3015 30.3085 2.3015 30.3073L2.00711 29.2104C2.00712 29.2091 2.00712 29.2079 2.00711 29.2066L1.95649 29.0244L4.51218 28.3408C4.71833 28.2854 4.89945 28.1612 5.02559 27.9887C5.15174 27.8163 5.21536 27.6058 5.20594 27.3922C5.16844 26.5658 5.27719 25.7394 5.52657 24.9505C5.59071 24.7469 5.58368 24.5275 5.50665 24.3285C5.42962 24.1294 5.28718 23.9626 5.10281 23.8555L2.80963 22.5313L3.5709 21.2109L5.86408 22.5313C6.04873 22.6373 6.26384 22.6771 6.47409 22.6443C6.68433 22.6116 6.87719 22.5081 7.02099 22.351C7.57787 21.7425 8.23977 21.2391 8.97291 20.8616C9.16326 20.7634 9.31432 20.6029 9.40097 20.4067C9.48761 20.2106 9.50462 19.9907 9.44917 19.7835L8.76103 17.2159L10.2329 16.8196ZM12.303 21.596V21.5997C12.241 21.603 12.1794 21.6125 12.1192 21.6279C12.1167 21.6292 12.1142 21.6304 12.1117 21.6317C11.6617 21.6373 11.2117 21.6617 10.7748 21.7782C10.7736 21.7782 10.7723 21.7782 10.7711 21.7782C9.41782 22.1455 8.25674 23.0187 7.52699 24.218C6.79724 25.4172 6.55439 26.8511 6.84848 28.2243C6.86161 28.2994 6.87661 28.3764 6.89723 28.4591C6.90072 28.4717 6.90447 28.4842 6.90848 28.4966C6.92723 28.5718 6.94598 28.6319 6.96286 28.6845C6.96408 28.6889 6.96533 28.6932 6.96661 28.6976C7.01536 28.8479 7.06974 28.9981 7.13161 29.1409L7.13536 29.1446C7.6405 30.3753 8.57491 31.3802 9.76463 31.972C10.9543 32.5639 12.3183 32.7026 13.6024 32.3621C13.6036 32.3621 13.6049 32.3621 13.6061 32.3621C14.8891 32.0123 16.0014 31.2074 16.7358 30.0971C17.4702 28.9869 17.7767 27.6471 17.5981 26.3273C17.5908 26.2613 17.5821 26.1956 17.5719 26.1301C17.5707 26.125 17.5694 26.12 17.5681 26.115C17.5416 25.9597 17.5085 25.8055 17.4687 25.653C17.4675 25.648 17.4663 25.643 17.465 25.638C17.4189 25.4728 17.365 25.3098 17.3037 25.1496C17.3031 25.1459 17.3025 25.1421 17.3019 25.1383L17.2906 25.1102C17.2894 25.1089 17.2881 25.1077 17.2869 25.1064C17.2681 25.0632 17.2569 25.0275 17.2419 24.9956L17.2381 24.9918C16.8406 24.0208 16.173 23.1845 15.3148 22.5825C14.4565 21.9805 13.4437 21.6381 12.3967 21.596C12.3655 21.5944 12.3342 21.5944 12.303 21.596ZM12.3217 23.4705V23.4742C13.728 23.5306 14.9749 24.404 15.5056 25.7112C15.508 25.7162 15.5105 25.7213 15.5131 25.7262C15.5281 25.76 15.5374 25.792 15.5468 25.8145V25.807L15.5581 25.8352C15.5956 25.9385 15.6274 26.0418 15.6574 26.1451V26.1338C15.6906 26.2687 15.7156 26.4054 15.7325 26.5433C15.7341 26.5558 15.7359 26.5684 15.7381 26.5808C15.8655 27.451 15.6694 28.3377 15.1871 29.0726C14.7047 29.8074 13.9696 30.3392 13.1216 30.5668C12.2735 30.7944 11.3715 30.7021 10.587 30.3073C9.80241 29.9124 9.18998 29.2427 8.86603 28.4253C8.86419 28.4209 8.86232 28.4165 8.86041 28.4121C8.82103 28.3182 8.7854 28.2243 8.75353 28.1304L8.74978 28.1135C8.72521 28.0287 8.70456 27.9428 8.6879 27.8562C8.68563 27.8442 8.68313 27.8323 8.6804 27.8205C8.5637 27.2851 8.57098 26.7301 8.70169 26.198C8.8324 25.6659 9.08307 25.1708 9.43445 24.7508C9.78584 24.3308 10.2286 23.9971 10.7288 23.7751C11.229 23.5532 11.7751 23.449 12.3217 23.4705ZM86.3879 26.1301H117.986C118.048 26.1301 118.125 26.1751 118.125 26.3367V48.4624C118.125 48.622 118.05 48.669 117.986 48.669H105.89C105.83 48.6579 105.768 48.6529 105.707 48.6539C105.651 48.6541 105.596 48.6591 105.542 48.669H98.8139C98.7539 48.658 98.6929 48.653 98.632 48.6539C98.5766 48.6541 98.5214 48.6591 98.467 48.669H86.3879C86.326 48.669 86.2492 48.622 86.2492 48.4624V26.3367C86.2492 26.1751 86.3242 26.1301 86.3879 26.1301ZM89.0617 28.0083C88.8131 28.0083 88.5746 28.1072 88.3988 28.2834C88.223 28.4595 88.1242 28.6984 88.1242 28.9474V43.9734C88.1242 44.2224 88.223 44.4613 88.3988 44.6374C88.5746 44.8135 88.8131 44.9125 89.0617 44.9125H115.312C115.561 44.9125 115.799 44.8135 115.975 44.6374C116.151 44.4613 116.25 44.2224 116.25 43.9734V28.9474C116.25 28.6984 116.151 28.4595 115.975 28.2834C115.799 28.1072 115.561 28.0083 115.312 28.0083H89.0617ZM89.9993 29.8865H114.375V43.0342H89.9993V29.8865ZM27.5002 33.7745H63.7486V37.561H29.7672C29.5185 37.561 29.2801 37.66 29.1042 37.8361C28.9284 38.0122 28.8296 38.2511 28.8296 38.5002V55.3743H25.0796V36.2106C25.0753 35.8904 25.1349 35.5727 25.2549 35.2759C25.3749 34.9792 25.5529 34.7094 25.7784 34.4825C26.0039 34.2556 26.2723 34.0761 26.568 33.9545C26.8637 33.8329 27.1806 33.7717 27.5002 33.7745ZM65.6237 33.7745H84.3741V37.561H65.6237V33.7745ZM30.7047 39.4393H63.7486V41.3269C63.0821 41.3587 62.4183 41.4328 61.7611 41.5485C59.7533 41.915 57.8354 42.6676 56.1134 43.7649C49.6595 47.867 47.147 55.9284 49.8208 62.8872H36.3298V56.3134C36.3298 56.0643 36.231 55.8255 36.0552 55.6493C35.8794 55.4732 35.6409 55.3743 35.3923 55.3743H30.7047V39.4393ZM65.6237 39.4393H84.3741V48.4624C84.3741 49.5705 85.2573 50.5472 86.3879 50.5472H97.7076V52.0986C97.7075 52.1036 97.7075 52.1087 97.7076 52.1137L97.7151 52.4254C97.7151 53.4942 96.9088 54.3037 95.8982 54.3037H94.6869C94.4382 54.3037 94.1998 54.4026 94.0239 54.5788C93.8481 54.7549 93.7494 54.9937 93.7494 55.2428C93.7494 55.4919 93.8481 55.7308 94.0239 55.9069C94.1998 56.083 94.4382 56.1819 94.6869 56.1819H98.2063V58.0602H88.8311V54.4352C88.8311 54.1861 88.7323 53.9472 88.5565 53.7711C88.3807 53.595 88.1422 53.496 87.8936 53.496H80.0521C79.5765 51.4884 78.7134 49.5934 77.5115 47.9177C74.6389 43.9076 70.2175 41.6462 65.6237 41.3495V39.4393ZM36.5455 41.156C36.3018 41.1595 36.0692 41.2578 35.8967 41.4302L34.0329 43.3009C33.9434 43.3876 33.8719 43.4912 33.8228 43.6058C33.7737 43.7204 33.7478 43.8436 33.7467 43.9683C33.7456 44.093 33.7694 44.2166 33.8165 44.3321C33.8636 44.4475 33.9333 44.5523 34.0213 44.6405C34.1093 44.7287 34.214 44.7984 34.3292 44.8456C34.4444 44.8929 34.5679 44.9166 34.6923 44.9155C34.8168 44.9144 34.9399 44.8885 35.0542 44.8393C35.1686 44.7901 35.2721 44.7186 35.3586 44.6289L35.6229 44.3659V48.4116C35.6229 48.6607 35.7217 48.8996 35.8975 49.0757C36.0733 49.2518 36.3118 49.3508 36.5605 49.3508C36.8091 49.3508 37.0476 49.2518 37.2234 49.0757C37.3992 48.8996 37.498 48.6607 37.498 48.4116V44.3659L37.7605 44.6289C37.8475 44.7162 37.9509 44.7855 38.0647 44.8328C38.1784 44.8801 38.3004 44.9045 38.4236 44.9045C38.5468 44.9046 38.6688 44.8804 38.7826 44.8333C38.8965 44.7861 38.9999 44.717 39.0871 44.6298C39.1742 44.5426 39.2434 44.4391 39.2906 44.3251C39.3379 44.2111 39.3622 44.089 39.3623 43.9656C39.3624 43.8422 39.3382 43.72 39.2911 43.6059C39.2441 43.4919 39.1751 43.3883 39.088 43.3009L37.2242 41.4302C37.1352 41.3413 37.0293 41.2711 36.9127 41.224C36.796 41.1769 36.6712 41.1538 36.5455 41.156ZM64.7011 43.162C66.9101 43.1734 69.0848 43.7093 71.047 44.7257C73.0091 45.7421 74.7028 47.2099 75.9889 49.0089C78.0758 51.9166 78.9721 55.5143 78.4936 59.0632C78.0152 62.6121 76.1984 65.8428 73.4164 68.0919L74.5976 69.5531C76.6747 67.8684 78.2932 65.6854 79.3028 63.2066C80.3125 60.7278 80.6805 58.0336 80.3728 55.3743H86.9561V58.9993C86.9561 59.2484 87.0548 59.4872 87.2307 59.6634C87.4065 59.8395 87.6449 59.9384 87.8936 59.9384H98.2063V75.1259H30.7047V57.2525H34.4548V63.8264C34.4548 64.0754 34.5536 64.3143 34.7294 64.4904C34.9052 64.6665 35.1437 64.7655 35.3923 64.7655H50.6739C50.7039 64.82 50.7246 64.8782 50.7546 64.9308C52.7306 68.4745 55.9839 71.1279 59.8488 72.3478C63.7136 73.5677 67.8978 73.2621 71.5451 71.4934L70.7257 69.8029C67.5102 71.3687 63.8181 71.6412 60.4082 70.5646C56.9982 69.488 54.1295 67.1439 52.3915 64.0142C50.6478 60.8881 50.1659 57.2117 51.0447 53.7407C51.9235 50.2697 54.0964 47.2678 57.1166 45.352C59.3817 43.9061 62.0152 43.1457 64.7011 43.162ZM7.49725 44.9125H18.7475V48.669H7.49725V44.9125ZM64.6861 44.9125C61.455 44.9165 58.3573 46.204 56.0725 48.4927C53.7877 50.7814 52.5023 53.8844 52.4983 57.1211C52.4983 63.8527 57.966 69.3296 64.6861 69.3296C71.4063 69.3296 76.8739 63.8527 76.8739 57.1211C76.8739 50.3894 71.4063 44.9125 64.6861 44.9125ZM102.225 45.7483C102.088 45.7485 101.953 45.7757 101.827 45.8282C101.701 45.8807 101.587 45.9576 101.491 46.0544C101.394 46.1512 101.318 46.266 101.266 46.3924C101.214 46.5187 101.187 46.6541 101.188 46.7907C101.189 47.0657 101.298 47.3291 101.493 47.5234C101.687 47.7177 101.95 47.827 102.225 47.8275C102.499 47.8275 102.763 47.7184 102.958 47.5241C103.152 47.3297 103.262 47.066 103.263 46.7907C103.264 46.6539 103.237 46.5184 103.185 46.3919C103.133 46.2655 103.056 46.1506 102.96 46.0537C102.863 45.9569 102.749 45.8801 102.623 45.8277C102.496 45.7753 102.361 45.7483 102.225 45.7483ZM11.2586 45.8516V47.7298H14.9862V45.8516H11.2586ZM40.2955 46.7907C40.1724 46.7927 40.0509 46.8189 39.9379 46.8679C39.8249 46.9169 39.7226 46.9878 39.637 47.0764C39.5513 47.165 39.4839 47.2696 39.4386 47.3843C39.3933 47.499 39.371 47.6215 39.373 47.7449V51.9033L39.0843 51.6328C38.9937 51.5458 38.8867 51.4778 38.7694 51.433C38.6522 51.3881 38.5272 51.3673 38.4018 51.3717C38.215 51.3781 38.0344 51.4401 37.8832 51.55C37.7319 51.6598 37.6168 51.8125 37.5527 51.9883C37.4887 52.1641 37.4785 52.355 37.5235 52.5367C37.5686 52.7183 37.6667 52.8824 37.8055 53.0077L39.673 54.747C39.8464 54.908 40.0741 54.9975 40.3105 54.9975C40.547 54.9975 40.7747 54.908 40.9481 54.747L42.8156 53.0077C42.9976 52.8378 43.1048 52.6025 43.1136 52.3535C43.1224 52.1044 43.0321 51.8621 42.8625 51.6798C42.6929 51.4975 42.458 51.3901 42.2094 51.3813C41.9608 51.3725 41.7188 51.463 41.5368 51.6328L41.2481 51.9033V47.743C41.2498 47.6173 41.2264 47.4925 41.1791 47.376C41.1319 47.2596 41.0617 47.1538 40.9729 47.065C40.8841 46.9762 40.7784 46.9062 40.662 46.859C40.5457 46.8119 40.421 46.7887 40.2955 46.7907ZM64.6861 46.7907C67.075 46.7907 69.2613 47.6078 71.0069 48.9657C70.9357 48.9995 70.8625 49.0258 70.8063 49.1197C70.7275 49.2475 70.5063 49.3508 70.3188 49.3508C70.1313 49.3508 69.7544 49.5611 69.4844 49.8128C69.1319 50.1396 68.9088 50.2035 68.7044 50.0326C68.3819 49.7659 68.0219 50.1246 68.245 50.4871C68.3162 50.6035 68.17 50.6449 67.9168 50.581C67.628 50.5162 67.3267 50.5358 67.0487 50.6374C66.8237 50.7369 66.5612 50.7989 66.4674 50.7782C66.3699 50.7576 66.2931 50.8477 66.2931 50.9754C66.2931 51.1032 66.0868 50.9942 65.8318 50.7407C65.1999 50.1077 64.8305 50.1584 63.998 50.9905C63.2255 51.7643 63.098 52.2451 63.6136 52.4423C63.8274 52.525 64.0261 52.3334 64.1799 51.8901C64.4518 51.1088 64.928 50.951 64.7293 51.7061C64.6355 52.0629 64.6843 52.155 64.8868 52.0291C65.0968 51.8977 65.0893 51.9822 64.8661 52.3409C64.6974 52.6095 64.4593 52.833 64.3318 52.848C63.3099 52.9232 62.5917 53.3571 62.5917 53.8999C62.5917 54.0745 62.4792 54.2192 62.3423 54.2192C62.2055 54.2192 62.1267 54.4633 62.1661 54.7639C62.2055 55.0663 62.1023 55.4738 61.9411 55.6711C61.4929 56.2101 61.3279 57.6319 61.6598 58.0339C61.8173 58.2217 62.288 58.4433 62.7098 58.5222C63.5124 58.6725 63.7393 59.0669 63.7449 60.3253C63.7449 60.6897 63.9136 61.3377 64.1199 61.7678C64.4386 62.4402 64.5549 62.5191 64.943 62.3125C65.1905 62.1773 65.4493 61.8918 65.513 61.6758C65.5805 61.4617 65.7287 61.1048 65.8468 60.885C65.9649 60.6634 66.0624 60.2258 66.0624 59.9121C66.0624 59.5984 66.2912 58.9505 66.5724 58.4734C67.06 57.647 67.0637 57.6131 66.6306 57.7653C66.3287 57.8723 66.3887 57.7653 66.8143 57.4441C67.4443 56.9652 67.6937 56.2495 67.1893 56.3604C67.0487 56.3923 66.88 56.289 66.8218 56.1256C66.7356 55.8908 66.8443 55.887 67.3712 56.1124C68.365 56.5369 68.5637 56.7398 68.725 57.476C68.8694 58.1372 69.3944 58.7532 69.2706 58.1222C69.1788 57.6488 69.5294 56.7698 69.8088 56.7698C69.9456 56.7698 70.3019 57.0328 70.6038 57.3596C71.1944 57.9982 71.7176 57.9231 71.4982 57.23C71.4044 56.937 71.5057 56.7604 71.8244 56.659C72.3532 56.49 72.5801 55.9528 72.4357 55.2015C72.3457 54.7376 72.3888 54.7056 72.8126 54.9348C73.1201 55.1001 73.2382 55.1076 73.1426 54.9536C73.0601 54.8202 73.2176 54.5028 73.4895 54.2473C73.8457 53.9149 73.947 53.6238 73.8457 53.2181C73.7764 52.9382 73.7857 52.7222 73.8964 52.5532C73.7429 52.2207 73.5734 51.896 73.3882 51.5802C74.2454 52.9274 74.7776 54.4561 74.9426 56.0451C75.1077 57.6341 74.9009 59.2397 74.3389 60.7348C74.1007 60.7724 73.7445 60.994 73.3695 61.3865C72.8388 61.9406 72.7545 62.1885 72.882 62.7727C72.9288 62.9849 72.9663 63.1164 73.0095 63.2103C72.0547 64.5251 70.8028 65.5947 69.3561 66.3319C67.9095 67.069 66.3092 67.4526 64.6861 67.4514C62.1659 67.4529 59.7332 66.5257 57.8516 64.8463C57.9168 64.6847 58.0145 64.5383 58.1385 64.4161C58.7985 63.8677 59.9835 61.9838 60.1523 61.2175C60.2779 60.6427 60.2235 60.4925 59.8298 60.3666C59.5673 60.284 59.3535 60.0793 59.3535 59.9121C59.3535 59.745 59.0123 59.482 58.5997 59.3299C58.2202 59.1907 57.8473 59.034 57.4822 58.8603C57.4246 58.8264 57.3596 58.8071 57.2928 58.804C57.1222 58.8058 57.0003 58.9861 56.8447 59.4163C56.4641 60.4718 56.5072 60.9564 57.0322 61.5161C57.4485 61.9594 57.4728 62.1679 57.2853 63.8489C57.2647 64.0311 57.2703 64.1213 57.2553 64.2809C55.4032 62.3595 54.3697 59.7919 54.3734 57.1211C54.3734 56.9313 54.3921 56.7454 54.4034 56.5576C54.9547 57.2957 55.6147 57.985 56.1378 58.2574C56.4434 58.417 56.7453 58.4959 56.8091 58.4377C56.8728 58.3776 56.7978 58.2818 56.6478 58.2292C56.4941 58.1729 56.4247 57.9907 56.4903 57.8216C56.5653 57.6263 56.4509 57.5249 56.1866 57.5455C55.9072 57.5699 55.7647 57.4235 55.7647 57.1173C55.7647 56.7623 55.9166 56.6477 56.4022 56.6628C56.7584 56.6684 57.0397 56.5482 57.0397 56.3867C57.0397 55.9941 58.0579 54.9197 58.4535 54.8972C58.6879 54.8822 58.6972 54.8465 58.4854 54.762C57.9154 54.531 58.1947 54.1703 58.8304 54.3187C59.3029 54.4277 59.3779 54.4051 59.1191 54.2304C58.9279 54.099 58.8754 53.9919 58.9954 53.9919C59.1154 53.99 58.8548 53.6332 58.416 53.1993C57.5741 52.3672 57.2703 52.3334 57.2703 53.0734C57.2703 53.6144 57.0472 53.6426 56.4453 53.1767C56.0384 52.8612 56.0328 52.8011 56.3703 52.5381C56.5728 52.3785 56.8128 52.0141 56.9047 51.7286C57.0828 51.1651 57.381 51.0543 57.6322 51.4638C57.7203 51.6047 57.666 51.8019 57.5122 51.8958C57.3097 52.0216 57.3435 52.1137 57.636 52.2264C58.0504 52.386 58.4797 51.9841 58.3504 51.5558C58.2679 51.2778 57.2028 50.6918 56.7003 50.5791C56.7997 50.4552 56.9103 50.3387 57.0191 50.2204H57.021C57.3397 49.8654 57.6772 49.5292 58.0391 49.223C58.3991 49.4541 58.8866 50.2054 59.0179 50.8195C59.1041 51.2215 59.2729 51.7436 59.3929 51.9728C59.6741 52.5081 60.141 52.3635 60.2367 51.7098C60.2779 51.4319 60.3904 51.2027 60.4898 51.2027C60.5873 51.2027 60.8554 50.8534 61.0861 50.4251L61.5079 49.6475L60.8329 48.8042C60.3529 48.1994 60.1129 47.959 59.8073 48.0153C59.7942 48.0172 59.7773 48.0304 59.7641 48.0341C61.2755 47.2146 62.9676 46.7871 64.6861 46.7907ZM63.9924 48.4192C63.9455 48.4135 63.8911 48.4379 63.8405 48.4887C63.7655 48.5638 63.7842 48.7591 63.8836 48.9206C64.0299 49.1573 64.0843 49.1573 64.163 48.9206C64.2474 48.669 64.1368 48.4323 63.9924 48.4192ZM59.1191 48.4267C59.046 48.483 58.9654 48.5206 58.8848 48.5732C58.9598 48.5206 59.0423 48.4755 59.1191 48.4267ZM67.8175 49.1197C67.6243 49.1197 67.3506 49.3395 67.21 49.6043C66.9756 50.042 66.9962 50.0589 67.4218 49.8297C68.0462 49.4973 68.2562 49.1197 67.8175 49.1197ZM7.49725 50.5472H18.7475V59.9534H7.49725V50.5472ZM99.5826 50.5472H104.784V52.4254C104.784 53.1091 104.979 53.7458 105.3 54.3037H99.0745C99.3932 53.7458 99.5901 53.1091 99.5901 52.4254C99.5902 52.4204 99.5902 52.4154 99.5901 52.4104L99.5826 52.0911V50.5472ZM56.4641 50.8909C56.4922 50.9529 56.5109 51.013 56.5597 51.0712C56.7922 51.353 56.7641 51.4074 56.3797 51.3793C56.2841 51.3718 56.2184 51.3379 56.1566 51.306C56.2541 51.1633 56.3609 51.0262 56.4641 50.8909ZM61.3204 51.0525C60.9586 51.0525 60.8667 51.2591 61.1198 51.5107C61.2923 51.6854 61.6636 51.492 61.6636 51.2328C61.6636 51.1351 61.5117 51.0525 61.3204 51.0525ZM62.5148 52.5062C62.4473 52.4968 62.3611 52.5626 62.2223 52.7034C61.8473 53.0791 61.7873 53.389 62.1286 53.1767C62.258 53.0979 62.3611 53.1674 62.3611 53.327C62.3611 53.528 62.4361 53.543 62.5992 53.3796C62.7305 53.2481 62.7736 52.9664 62.693 52.7598C62.6311 52.5945 62.5805 52.5137 62.5148 52.5062ZM66.7618 53.8698C66.9156 53.7759 67.2081 54.4896 67.2175 54.9742C67.2175 55.0681 67.1275 55.147 67.015 55.147C66.7543 55.147 66.5312 54.0144 66.7618 53.8698ZM65.7418 53.9111C65.9012 53.9224 65.9856 54.0351 66.0006 54.2549C66.0193 54.4915 66.0137 54.6681 65.9893 54.6549C65.843 54.6032 65.694 54.5593 65.543 54.5234C65.018 54.3863 65.0237 54.0727 65.5543 53.9318C65.6153 53.9147 65.6786 53.9077 65.7418 53.9111ZM63.7186 54.1271C63.9099 54.1196 64.0711 54.191 64.133 54.3544C64.2024 54.5366 64.4555 54.685 64.6955 54.685C64.9393 54.685 65.1362 54.7883 65.1362 54.916C65.1362 55.0437 65.3012 55.147 65.4999 55.147C65.6968 55.147 65.7943 55.2503 65.7155 55.378C65.6368 55.5058 65.1624 55.6091 64.6599 55.6091C64.1593 55.6091 63.7486 55.5058 63.7486 55.378C63.7486 55.2503 63.4861 55.147 63.1617 55.147C62.6611 55.147 62.6086 55.085 62.8074 54.715C62.8999 54.55 63.0313 54.4102 63.1901 54.3078C63.349 54.2053 63.5304 54.1433 63.7186 54.1271ZM74.2114 54.221C74.1176 54.2229 73.9226 54.484 73.7764 54.8033C73.6282 55.1188 73.5851 55.378 73.6807 55.378C73.7745 55.378 73.9714 55.117 74.1158 54.7977C74.262 54.4784 74.3033 54.221 74.2114 54.221ZM65.6199 56.1049C65.6574 56.0955 65.8055 56.304 65.9762 56.6177C66.1712 56.9802 66.2874 57.3183 66.2349 57.369C66.1337 57.4723 65.5937 56.3942 65.6087 56.1181C65.6087 56.1087 65.6162 56.1068 65.6199 56.1049ZM100.081 56.1801H101.25V58.0583H100.081V56.1801ZM103.125 56.1801H103.831V80.785H25.0796V57.2525H28.8296V76.065C28.8296 76.3141 28.9284 76.5529 29.1042 76.729C29.2801 76.9052 29.5185 77.0041 29.7672 77.0041H99.1439C99.3925 77.0041 99.631 76.9052 99.8068 76.729C99.9826 76.5529 100.081 76.3141 100.081 76.065V59.9384H102.187C102.436 59.9384 102.674 59.8395 102.85 59.6634C103.026 59.4872 103.125 59.2484 103.125 58.9993V56.1801ZM56.9666 57.2375C56.8016 57.2394 56.8316 57.3314 57.0397 57.4648C57.4841 57.7521 57.5647 57.7521 57.3866 57.4648C57.3381 57.3979 57.2751 57.3429 57.2023 57.3039C57.1296 57.2649 57.049 57.2409 56.9666 57.2375ZM70.8307 58.2386C70.7482 58.2236 70.6882 58.2762 70.6882 58.3795C70.6882 58.5128 70.795 58.6236 70.9225 58.6236C71.05 58.6236 71.1532 58.5786 71.1532 58.5222C71.1532 58.4659 71.05 58.3532 70.9225 58.2762C70.8946 58.2579 70.8634 58.2451 70.8307 58.2386ZM72.1526 58.2499C72.1257 58.2544 72.1001 58.2646 72.0776 58.2799C71.9501 58.3569 71.8451 58.5185 71.8451 58.6387C71.8451 58.973 72.0101 58.8979 72.1638 58.4959C72.2238 58.3419 72.2163 58.2518 72.1526 58.2518V58.2499ZM72.8557 59.1852C72.8557 59.1965 72.867 59.2228 72.8857 59.2622C72.9664 59.4219 72.9232 59.5534 72.7863 59.5534C72.7204 59.5553 72.6578 59.5832 72.6122 59.631C72.5666 59.6788 72.5416 59.7427 72.5426 59.8088C72.5426 59.9497 72.6982 60.0042 72.8895 59.9309C73.0807 59.8576 73.2345 59.899 73.2345 60.0229C73.2345 60.1469 73.287 60.2464 73.3507 60.2464C73.5757 60.2464 73.4614 59.867 73.1013 59.4238C72.9513 59.2378 72.8595 59.1496 72.8576 59.1852H72.8557ZM71.6744 59.3618C71.5919 59.3712 71.7401 59.6661 72.1432 60.1882C72.2651 60.346 72.4563 60.4775 72.567 60.4775C72.6795 60.4775 72.5426 60.2201 72.267 59.9008C71.9407 59.5252 71.7363 59.3562 71.6744 59.3618ZM66.7412 60.3854C66.6944 60.3795 66.6468 60.3873 66.6043 60.408C66.4356 60.4737 66.2931 60.7273 66.2931 60.9696C66.2931 61.5988 66.6849 61.5086 66.8106 60.8475C66.8668 60.547 66.8481 60.4023 66.7412 60.3854ZM7.49725 61.8317H18.7475V65.5731H7.49725V61.8317ZM13.0568 62.5867C12.8197 62.6037 12.5977 62.7121 12.4359 62.8899C12.274 63.0678 12.1843 63.3018 12.1849 63.5446C12.1863 63.7977 12.2857 64.0399 12.4614 64.2183C12.6371 64.3968 12.8747 64.4969 13.1224 64.4969C13.3701 64.4969 13.6077 64.3968 13.7834 64.2183C13.959 64.0399 14.0585 63.7977 14.0599 63.5446C14.0599 63.2906 13.9611 63.0469 13.7853 62.8673C13.6095 62.6877 13.371 62.5867 13.1224 62.5867C13.1005 62.5859 13.0786 62.5859 13.0568 62.5867ZM85.681 63.8339V64.8463C86.4857 64.8425 87.2831 64.9982 88.0275 65.3045C88.7718 65.6107 89.4483 66.0614 90.018 66.6306C91.1055 67.7237 91.7393 69.1906 91.7899 70.7308L92.8025 70.7345C92.7487 68.9216 92.0071 67.1974 90.7287 65.9131C90.0659 65.25 89.2787 64.7249 88.4124 64.368C87.546 64.0112 86.6177 63.8296 85.681 63.8339ZM43.2619 65.5731C42.7078 65.5541 42.1564 65.658 41.6471 65.8775C41.1378 66.097 40.6833 66.4266 40.3162 66.8427C39.949 67.2588 39.6782 67.751 39.5233 68.2843C39.3683 68.8175 39.333 69.3784 39.4199 69.9269C39.7143 71.7432 41.2856 73.0823 43.1231 73.0823C43.2474 73.0823 43.3667 73.0329 43.4546 72.9448C43.5425 72.8568 43.5919 72.7373 43.5919 72.6128C43.5919 72.4883 43.5425 72.3688 43.4546 72.2808C43.3667 72.1927 43.2474 72.1432 43.1231 72.1432C42.455 72.1444 41.8084 71.9067 41.2996 71.4729C40.7909 71.039 40.4534 70.4375 40.348 69.7766C40.2372 69.1145 40.3663 68.4344 40.7121 67.8593C41.058 67.2842 41.5977 66.8519 42.2339 66.6406C42.8701 66.4292 43.5608 66.4527 44.1812 66.7068C44.8016 66.9609 45.3108 67.4288 45.6169 68.0261C45.9051 68.5843 45.9965 69.2236 45.8764 69.8404C45.7563 70.4572 45.4316 71.0152 44.955 71.4239C44.9225 71.3907 44.9038 71.3464 44.9025 71.2999V71.1008C44.9028 71.092 44.9028 71.0833 44.9025 71.0745C44.9027 71.0676 44.9027 71.0607 44.9025 71.0538C44.9026 71.0501 44.9026 71.0463 44.9025 71.0426V70.4885C44.9034 70.4722 44.9034 70.4559 44.9025 70.4397V68.2778C44.9033 68.2622 44.9033 68.2465 44.9025 68.2309V67.6843C44.9035 67.6213 44.8919 67.5589 44.8683 67.5005C44.8448 67.4422 44.8097 67.3892 44.7653 67.3447C44.7209 67.3002 44.668 67.2651 44.6097 67.2414C44.5515 67.2178 44.4891 67.2062 44.4263 67.2072C44.3206 67.209 44.2187 67.2466 44.137 67.3137C44.0553 67.3809 43.9986 67.4738 43.9763 67.5772C43.55 67.5028 43.1111 67.5613 42.7191 67.7448C42.327 67.9283 42.0007 68.228 41.7841 68.6032C41.5675 68.9785 41.4712 69.4113 41.5081 69.8432C41.5451 70.2751 41.7135 70.6852 41.9906 71.0182C42.5044 71.6286 43.3031 71.8728 44.0531 71.7131C44.1238 71.8837 44.2353 72.0341 44.3779 72.1511C44.5206 72.268 44.6898 72.3479 44.8707 72.3836C44.933 72.4157 45.0018 72.4334 45.0719 72.4354C45.142 72.4373 45.2116 72.4235 45.2757 72.3949C45.2871 72.3903 45.2984 72.3853 45.3094 72.3799C45.3132 72.3774 45.317 72.3749 45.3207 72.3724C45.3219 72.3711 45.3232 72.3699 45.3244 72.3686C45.3333 72.3639 45.3421 72.3589 45.3507 72.3536C45.3933 72.3267 45.4313 72.2931 45.4632 72.254C46.8507 71.1384 47.2763 69.185 46.4476 67.5922C46.1409 67.0048 45.6849 66.5088 45.1255 66.1546C44.5661 65.8004 43.9232 65.5986 43.2619 65.5731ZM85.6848 65.8586L85.6885 66.8672C86.7344 66.8582 87.7432 67.2543 88.5043 67.9729C89.2653 68.6915 89.7197 69.677 89.7724 70.7233L90.783 70.727C90.7301 69.4522 90.2015 68.2437 89.3017 67.3406C88.8266 66.8663 88.2623 66.4912 87.6414 66.2368C87.0206 65.9824 86.3555 65.8539 85.6848 65.8586ZM85.6923 67.7556V68.768C86.2021 68.7885 86.6854 69.0007 87.0459 69.3625C87.4063 69.7242 87.6173 70.2088 87.6367 70.7195L88.6492 70.7233C88.6307 69.943 88.3134 69.1998 87.763 68.6473C87.2126 68.0949 86.4712 67.7757 85.6923 67.7556ZM43.4044 68.4957C43.5919 68.4637 43.7794 68.4957 43.9669 68.5558V70.4547C43.9665 70.466 43.9665 70.4772 43.9669 70.4885V70.7552C43.7472 70.8309 43.5099 70.8385 43.2859 70.7772C43.0618 70.7159 42.8614 70.5885 42.7106 70.4115C42.5321 70.2002 42.4341 69.9323 42.4341 69.6555C42.4341 69.3787 42.5321 69.1108 42.7106 68.8995C42.8871 68.6872 43.1328 68.5442 43.4044 68.4957ZM85.846 69.8142C85.7452 69.8127 85.6451 69.8313 85.5518 69.869C85.4584 69.9068 85.3736 69.9628 85.3023 70.034C85.2319 70.1042 85.1761 70.1878 85.138 70.2798C85.1 70.3719 85.0806 70.4706 85.0807 70.5704C85.0809 70.6702 85.1007 70.7691 85.1391 70.8614C85.1774 70.9537 85.2335 71.0376 85.3041 71.1083C85.3746 71.1792 85.4583 71.2355 85.5504 71.2741C85.6424 71.3127 85.7411 71.3327 85.8407 71.3331C85.9404 71.3334 86.039 71.3141 86.1309 71.2761C86.2229 71.2382 86.3064 71.1825 86.3767 71.1121C86.447 71.0417 86.5026 70.958 86.5405 70.8659C86.5783 70.7738 86.5976 70.675 86.5973 70.5752C86.5969 70.4754 86.5769 70.3766 86.5384 70.2843C86.4999 70.1921 86.4437 70.1083 86.3729 70.0377C86.2336 69.8971 86.0452 69.8162 85.8479 69.8123L85.846 69.8142ZM19.6419 82.6633H55.0803V84.2184C55.0803 86.0892 56.5766 87.65 58.431 87.65H70.4838C72.3401 87.65 73.8307 86.0892 73.8307 84.2184V82.6633H109.269C108.789 86.8611 105.399 90.1217 101.07 90.1217H27.8415C23.5101 90.1217 20.1219 86.8592 19.6419 82.6633ZM56.9553 82.6633H71.9557V84.2184C71.9557 85.1125 71.2994 85.7717 70.4838 85.7717H58.431C57.6153 85.7717 56.9553 85.1125 56.9553 84.2184V82.6633Z" fill="white"/>
</svg>
