<svg width="72" height="64" viewBox="0 0 72 64" fill="none" xmlns="http://www.w3.org/2000/svg">
  <path
    d="M70.2514 30.8905C69.2175 29.9045 65.3324 27.1958 58.7366 33.7427L46.9236 45.4685C46.2203 46.1664 45.4376 46.7114 44.5628 47.109C44.8191 46.502 44.9607 45.8367 44.9607 45.1394C44.9607 42.4042 42.6931 40.1459 39.7983 39.9983C39.7477 39.9958 39.6969 39.9967 39.6466 40.0008C35.4146 40.3494 31.0511 39.9823 27.545 39.6876C26.3316 39.5857 25.1856 39.4892 24.2212 39.4401C20.3835 39.2436 17.568 41.4922 15.3162 43.717L10.9141 48.0661H1.12501C0.503723 48.0661 0 48.5623 0 49.1743V62.8918C0 63.1857 0.118548 63.4675 0.329487 63.6754C0.540567 63.8832 0.826601 64 1.12501 64L41.4383 63.9997C44.6415 63.9997 47.3585 62.8606 49.5141 60.614L70.7251 38.5009C72.6015 36.5447 72.3758 32.9173 70.2514 30.8905ZM69.0898 36.9786L47.8787 59.0915C46.165 60.8777 43.9983 61.7833 41.4383 61.7833L2.25002 61.7836V50.2824H11.3812C11.6801 50.2824 11.9667 50.1652 12.1778 49.9566L16.9095 45.2818C18.9071 43.3086 21.1616 41.5058 24.1047 41.6535C25.0316 41.7008 26.1077 41.7913 27.3538 41.896C30.9222 42.1959 35.3585 42.5689 39.7525 42.216C41.4439 42.3343 42.7107 43.5801 42.7107 45.1394C42.7107 45.9232 42.3607 46.6988 41.8003 47.2501C41.1967 47.844 40.4996 47.9825 39.6842 48.0658L24.5138 48.0661C23.8925 48.0661 23.3888 48.5623 23.3888 49.1743C23.3888 49.7863 23.8925 50.2825 24.5138 50.2825C24.5138 50.2825 39.7374 50.2823 39.7403 50.2824C40.4548 50.2824 41.1784 50.1418 41.8893 50.0693C44.5658 49.7962 46.7349 48.8021 48.5205 47.0299L60.3336 35.304C63.8044 31.859 66.9267 30.8045 68.6861 32.4829C69.9289 33.6684 70.1287 35.8953 69.0898 36.9786ZM45.5747 33.2391H52.0391C52.6604 33.2391 53.1642 32.7429 53.1642 32.1309V1.10823C53.1642 0.496208 52.6604 0 52.0391 0H45.5747C44.9534 0 44.4497 0.496208 44.4497 1.10823V32.1309C44.4497 32.7429 44.9534 33.2391 45.5747 33.2391ZM46.6997 2.21645H50.9141V31.0227H46.6997V2.21645ZM9.56497 33.2391H16.0294C16.6507 33.2391 17.1544 32.7429 17.1544 32.1309V19.3939C17.1544 18.7819 16.6507 18.2857 16.0294 18.2857H9.56497C8.94368 18.2857 8.43996 18.7819 8.43996 19.3939V32.1309C8.43996 32.7429 8.94368 33.2391 9.56497 33.2391ZM10.69 20.5022H14.9044V31.0227H10.69V20.5022ZM21.5683 33.2391H28.0326C28.6539 33.2391 29.1576 32.7431 29.1576 32.1309V7.76644C29.1576 7.15442 28.6539 6.65822 28.0326 6.65822H21.5683C20.947 6.65822 20.4433 7.15442 20.4433 7.76644V32.1309C20.4433 32.7431 20.947 33.2391 21.5683 33.2391ZM22.6933 8.87467H26.9076V31.0227H22.6933V8.87467ZM33.5716 33.2393H40.0361C40.6574 33.2393 41.1611 32.7431 41.1611 32.1311V12.1094C41.1611 11.4974 40.6574 11.0012 40.0361 11.0012H33.5716C32.9503 11.0012 32.4465 11.4974 32.4465 12.1094V32.1312C32.4465 32.7431 32.9503 33.2393 33.5716 33.2393ZM34.6966 13.2177H38.9111V31.023H34.6966V13.2177Z"
    fill="white" />
</svg>