<svg width="100" height="64" viewBox="0 0 100 64" fill="none" xmlns="http://www.w3.org/2000/svg">
  <path
    d="M70.6377 49.5083C67.6161 48.4637 64.3484 48.397 61.3268 47.3523C60.4091 47.0412 58.5962 46.6633 58.2157 45.6187C57.8576 44.5962 57.8575 43.396 57.7904 42.3291C57.7456 41.4845 57.7233 40.6399 57.7233 39.7953C57.7233 39.2397 59.1557 38.0617 59.4691 37.5504C60.6777 35.5501 60.7896 32.8606 61.0134 30.5935C62.9607 31.127 63.2069 27.5485 63.5426 26.4594C63.7888 25.7037 65.2884 20.5027 62.9607 21.214C63.5202 20.236 63.744 19.0358 63.9007 17.9467C64.3484 15.1017 64.5274 11.99 63.6545 9.21164C61.8416 3.43274 56.2684 0.187673 50.3819 0.00986065C44.4059 -0.190178 38.4075 2.65482 36.1693 8.41148C35.095 11.212 35.1845 14.2571 35.5426 17.191C35.6993 18.5245 35.9231 20.0137 36.5946 21.214C34.4235 20.5694 35.5874 25.1481 35.8336 25.9482C36.1917 27.0818 36.505 31.1492 38.5418 30.5935C38.7209 32.3939 38.9223 34.2387 39.4147 35.9946C39.7504 37.1726 40.4443 38.1728 41.25 39.0841C41.6529 39.5286 41.8544 39.5731 41.832 40.151C41.8096 41.8846 41.8544 43.7516 41.4067 45.4409C40.9591 47.1301 37.2213 47.8413 35.7217 48.1525C31.6929 48.9749 27.9775 49.3527 24.6201 51.8421C20.7033 54.7093 18.6665 59.1768 18.6665 64H80.8887C80.8887 57.4432 76.9047 51.6643 70.6377 49.5083Z"
    fill="white" />
  <path
    d="M24.7223 46.0141C23.9671 46.3834 23.0564 46.8396 24.9 45.9272L25.0777 45.8403C26.5881 45.1451 28.2096 44.9713 29.8311 44.8192C30.4531 44.754 30.7418 44.3412 30.2754 43.7546C29.3869 42.6467 26.3216 42.4294 25.0333 41.9297C24.2336 41.6256 24.0115 41.3431 23.9449 40.4741C23.9227 40.0831 23.7005 38.345 24.0115 38.0626C24.2336 37.8454 25.633 37.9323 25.944 37.8888C27.2101 37.7367 28.4984 37.476 29.6979 37.0198C30.2087 36.8243 30.6974 36.5853 31.1417 36.2811C31.6747 35.8901 30.7418 34.9342 30.4975 34.4128C29.7423 32.7834 29.4091 31.0019 29.298 29.2204C29.0759 25.7226 29.6312 22.2031 28.9648 18.7271C27.9653 13.4044 23.7672 10.7322 18.414 10.7322C15.1044 10.7322 11.8392 11.8401 9.99554 14.6644C7.95201 17.7712 8.06307 21.6383 8.17413 25.1795C8.24077 27.1999 8.32961 29.2421 8.04085 31.2626C7.90758 32.1316 7.70767 32.9789 7.3967 33.8044C7.15236 34.4345 5.90847 35.9987 6.39714 36.3246C8.24077 37.6064 11.3505 38.0409 13.5717 37.8671C13.6384 38.9316 13.8383 40.3003 13.4384 41.2997C12.8165 42.8639 8.17413 43.2767 6.77475 43.7329C2.8876 44.993 0 48.078 0 52.423H17.6588C17.9475 52.423 19.0582 50.4026 19.3691 50.0767C20.8796 48.4473 22.7232 47.0352 24.7223 46.0141ZM92.6919 43.7112C90.8928 43.1463 87.4276 42.9725 86.1393 41.4518C85.4952 40.6914 85.8506 38.7578 85.9172 37.8454C86.8945 37.9323 87.9607 37.7802 88.9603 37.6498C89.871 37.5195 90.7595 37.3457 91.6258 37.0415C92.0256 36.8894 92.4254 36.7374 92.803 36.5201C93.6693 36.0204 93.2695 35.9335 92.8252 35.1949C90.4041 31.2191 91.4925 26.1789 91.3814 21.8121C91.2926 18.1839 90.3152 14.2082 86.939 12.166C83.8959 10.3194 79.3868 10.2542 76.1216 11.5577C66.7036 15.251 72.2566 27.4606 69.0358 34.4562C68.4805 35.6294 67.6809 36.0421 69.0803 36.7374C69.8577 37.1284 70.7018 37.3891 71.5458 37.5847C72.8342 37.8888 74.1669 38.0626 75.4996 38.1061C75.7217 38.1061 75.5663 40.8434 75.4996 41.1259C75.2553 42.1904 72.8786 42.4946 71.9901 42.7336C71.0794 42.9725 69.5689 43.0377 69.1247 43.9719C68.4583 45.3623 71.3237 45.0147 72.0345 45.1451C74.3224 45.5578 76.3437 46.7962 78.1207 48.2083C79.4534 49.2729 81.2526 50.7067 81.7413 52.4448H99.5556C99.5111 48.078 96.6013 44.9713 92.6919 43.7112Z"
    fill="white" />
</svg>