<svg width="111" height="111" viewBox="0 0 111 111" fill="none" xmlns="http://www.w3.org/2000/svg">
<path d="M76.9932 15.5532C76.9932 20.9582 81.3704 25.3355 86.7662 25.3355C92.1712 25.3355 96.5484 20.9582 96.5484 15.5532C96.5484 10.1483 92.1712 5.77112 86.7662 5.77112C81.3704 5.77112 76.9932 10.1483 76.9932 15.5532Z" fill="white"/>
<path d="M68.9248 50.9753V44.8734C68.9248 36.7399 75.5254 30.1635 83.6347 30.1635H83.7762L88.9387 37.0721L94.1013 30.1635H94.1956C102.329 30.1635 108.929 36.7399 108.929 44.8734V50.9753H68.9248Z" fill="#BDD7F0"/>
<path d="M13.123 15.5532C13.123 20.9582 17.5003 25.3355 22.8961 25.3355C28.3011 25.3355 32.6783 20.9582 32.6783 15.5532C32.6783 10.1483 28.3011 5.77112 22.8961 5.77112C17.5003 5.77112 13.123 10.1483 13.123 15.5532Z" fill="white"/>
<path d="M5.05469 50.9753V44.8734C5.05469 36.7399 11.6553 30.1635 19.7646 30.1635H19.906L25.0686 37.0721L30.2312 30.1635H30.3255C38.4584 30.1635 45.059 36.7399 45.059 44.8734V50.9753H5.05469Z" fill="#48A0D9"/>
<path d="M42.5197 14.9689C42.5197 21.6378 47.9205 27.0386 54.5781 27.0386C61.247 27.0386 66.6477 21.6378 66.6477 14.9689C66.6477 8.30009 61.247 2.89929 54.5781 2.89929C47.9205 2.89929 42.5197 8.30009 42.5197 14.9689ZM29.9043 48.7225V58.7861H79.2631V48.7225C79.2631 38.6872 71.119 30.5729 61.0844 30.5729H60.9681L54.5982 39.0968L48.2284 30.5729H48.0539C38.0483 30.5729 29.9043 38.6872 29.9043 48.7225Z" fill="white"/>
<path d="M81.9209 51.1442V58.6657H32.5674V51.1442C32.5674 41.1045 40.7184 32.9866 50.7249 32.9866H50.8907L57.269 41.5187L63.6308 32.9866H63.7467C73.7864 32.9866 81.9209 41.1045 81.9209 51.1442Z" fill="#F6968A"/>
<path d="M63.2988 75.9461V75.9826C63.2988 80.0643 60.0006 83.3625 55.9188 83.3625C53.8779 83.3625 52.0192 82.5425 50.689 81.1941C49.3587 79.8639 48.5205 78.0234 48.5205 75.9825V75.9461C48.5205 71.8643 51.837 68.5662 55.9188 68.5662C57.9597 68.5662 59.8001 69.3861 61.1303 70.7345C62.4788 72.0647 63.2988 73.9052 63.2988 75.9461Z" fill="white"/>
<path d="M64.6338 77.8531V77.8895C64.6338 81.9713 61.3355 85.2694 57.2537 85.2694C55.2128 85.2694 53.3541 84.4495 52.0239 83.1011C50.6936 81.7709 49.8555 79.9304 49.8555 77.8895V77.8531C49.8555 73.7713 53.172 70.4731 57.2537 70.4731C59.2946 70.4731 61.1351 71.2931 62.4653 72.6415C63.8137 73.9717 64.6338 75.8122 64.6338 77.8531Z" fill="#BDD7F0"/>
<path d="M108.929 95.4816H95.498V108.934H108.929V95.4816Z" fill="#3EBDA7"/>
<path d="M64.3382 95.4816H50.9072V108.934H64.3382V95.4816Z" fill="#F6968A"/>
<path d="M18.0404 95.2711H4.60938V108.724H18.0404V95.2711Z" fill="#BDD7F0"/>
<path d="M86.7663 26.1705C92.6146 26.1705 97.3859 21.3993 97.3859 15.5511C97.3859 9.70283 92.6146 4.94786 86.7663 4.94786C80.9181 4.94786 76.1634 9.70283 76.1634 15.5511C76.1634 21.3993 80.9181 26.1705 86.7663 26.1705ZM86.7663 6.60457C91.7034 6.60457 95.7292 10.6141 95.7292 15.5511C95.7292 20.4881 91.7034 24.5138 86.7663 24.5138C81.8293 24.5138 77.8201 20.4881 77.8201 15.5511C77.8201 10.6141 81.8293 6.60457 86.7663 6.60457ZM22.8999 26.1705C28.7482 26.1705 33.5029 21.3993 33.5029 15.5511C33.5029 9.70283 28.7482 4.94786 22.8999 4.94786C17.0516 4.94786 12.2969 9.70283 12.2969 15.5511C12.2969 21.3993 17.0516 26.1705 22.8999 26.1705ZM22.8999 6.60457C27.8369 6.60457 31.8462 10.6141 31.8462 15.5511C31.8462 20.4881 27.8369 24.5138 22.8999 24.5138C17.9629 24.5138 13.9536 20.4881 13.9536 15.5511C13.9536 10.6141 17.9629 6.60457 22.8999 6.60457ZM54.5763 27.8604C61.6836 27.8604 67.4821 22.0785 67.4821 14.9711C67.4821 7.86369 61.6836 2.06519 54.5763 2.06519C47.469 2.06519 41.6871 7.86369 41.6871 14.9711C41.6871 22.0785 47.469 27.8604 54.5763 27.8604ZM54.5763 3.7219C60.7724 3.7219 65.8254 8.77497 65.8254 14.9711C65.8254 21.1672 60.7724 26.2037 54.5763 26.2037C48.3802 26.2037 43.3438 21.1672 43.3438 14.9711C43.3438 8.77497 48.3802 3.7219 54.5763 3.7219Z" fill="#223059"/>
<path d="M101.395 92.3562V75.1431L64.0693 75.0602C63.654 71.1492 60.5247 68.168 56.7467 67.7708V59.6195H79.2615C79.7253 59.6195 80.0898 59.2385 80.0898 58.7911V51.8945H106.773C107.231 51.8945 107.601 51.524 107.601 51.0661V42.9095C107.601 34.342 100.62 27.3713 91.9449 27.3713C91.6844 27.3713 91.4385 27.4943 91.2816 27.7038L86.7822 33.724L82.2845 27.7038C82.1292 27.4943 81.7393 27.3713 81.4788 27.3713C77.0858 27.3713 73.1381 29.2275 70.3104 32.169C70.3005 32.1635 70.2919 32.1568 70.282 32.1514C67.5319 30.6269 64.351 29.749 60.9713 29.749C60.7062 29.749 60.4577 29.8649 60.3086 30.0805L54.593 37.7177L48.8939 30.0805C48.7282 29.8649 48.4963 29.749 48.2311 29.749H48.0489C44.8515 29.749 41.8362 30.5442 39.1855 31.969C39.1774 31.973 39.1701 31.9787 39.1622 31.9827C36.3312 29.1502 32.4289 27.3713 28.0756 27.3713C27.8151 27.3713 27.5692 27.4943 27.4123 27.7038L22.9129 33.724L18.4136 27.7038C18.2566 27.4943 17.87 27.3713 17.6095 27.3713C9.04115 27.3713 2.07129 34.342 2.07129 42.9095V51.0661C2.07129 51.524 2.44178 51.8945 2.89965 51.8945H29.0795V58.7911C29.0795 59.2385 29.444 59.6195 29.9079 59.6195H55.09V67.7874C51.2629 68.1518 48.1981 71.167 47.7507 75.0104L8.71848 74.9277V92.141H2.07503V107.25H17.1512V92.141H10.3752V76.5844L47.7176 76.6671C48.0069 80.3949 50.9936 83.7281 55.09 84.1556V92.3562H48.3637V107.466H63.4563V92.3562H56.7467V84.139C60.64 83.7579 63.7215 80.6269 64.0693 76.7003L99.7385 76.7832V92.3562H92.9624V107.466H108.055V92.3562H101.395ZM81.2102 29.0337L86.1189 35.604C86.2742 35.8135 86.5201 35.9364 86.7822 35.9364C87.0427 35.9364 87.2886 35.8135 87.4456 35.604L92.3575 29.0313C99.879 29.2004 105.944 35.3605 105.944 42.9095V50.2377H80.0898V48.7185C80.0898 42.2262 76.795 36.4792 71.7615 33.0663C74.1974 30.6706 77.5043 29.1381 81.2102 29.0337ZM3.72801 50.2378V42.9095C3.72801 35.3904 9.73846 29.2481 17.3393 29.0337L22.2496 35.604C22.5634 36.023 23.2624 36.023 23.5762 35.604L28.4881 29.0313C32.0564 29.112 35.2791 30.5582 37.6986 32.8447C37.6986 32.8447 37.6957 32.8463 37.6944 32.8471C32.5089 36.2268 29.0795 42.0751 29.0795 48.7185V50.2377L3.72801 50.2378ZM30.7362 48.7186C30.7362 39.2586 38.3738 31.5382 47.817 31.4058L53.9302 39.59C54.245 40.0042 54.9409 40.0042 55.2557 39.59L61.3855 31.4058C70.8122 31.5714 78.4331 39.2752 78.4331 48.7186V57.9628H71.0444L71.8103 50.7239L70.1633 50.5492L69.3788 57.9628H40.2937L39.5092 50.5492L37.8622 50.7239L38.6282 57.9628H30.7362V48.7186ZM15.4945 105.593H3.73175V93.7978H15.4945L15.4945 105.593ZM61.7996 105.809H50.0204V94.0129H61.7996V105.809ZM55.9183 82.532C52.2486 82.532 49.3412 79.5512 49.3412 75.9383C49.3412 72.4094 52.2126 69.3943 55.9183 69.3943C59.3321 69.3943 62.4624 72.1057 62.4624 75.988C62.4624 79.6095 59.5119 82.532 55.9183 82.532ZM106.399 105.809H94.6192V94.0129H106.399V105.809Z" fill="#223059"/>
</svg>
