<svg width="108" height="108" viewBox="0 0 108 108" fill="none" xmlns="http://www.w3.org/2000/svg">
<path d="M83.6447 94.9955H101.25V36.7039H83.6447V94.9955ZM89.0446 42.1039H95.85V89.5955H89.0446V42.1039ZM58.0135 94.9955H75.6176V50.4455H58.0135V94.9955ZM63.4136 55.8455H70.2176V89.5955H63.4136V55.8455ZM32.3811 36.7039V94.9955H49.9865V36.7039H32.3811ZM44.5865 89.5955H37.7824V42.1039H44.5865V89.5955ZM24.3554 50.4455H6.75V94.9955H24.3554V50.4455ZM18.9554 89.5955H12.15V55.8455H18.9554V89.5955Z" fill="white"/>
<path d="M93.8476 30.9771L94.6171 13.7781L77.4195 13.0072L77.1778 18.4018L84.4435 18.7272L66.6937 32.7483L41.0046 15.3184L13.1055 38.934L16.5939 43.0555L41.3637 22.0887L66.9367 39.4375L88.8378 22.1373L88.453 30.7354L93.8476 30.9771Z" fill="white"/>
</svg>
