<svg width="65" height="66" viewBox="0 0 65 66" fill="none" xmlns="http://www.w3.org/2000/svg">
  <path fill-rule="evenodd" clip-rule="evenodd"
    d="M14.6523 3.6175C15.4837 3.83026 16.2805 4.16067 17.0185 4.59873L19.9805 2.45418L22.3505 4.82423L20.206 7.78622C20.6439 8.52427 20.9743 9.32104 21.1871 10.1524L24.7969 10.7303V14.0821L21.1872 14.6599C20.9744 15.4913 20.644 16.2881 20.206 17.0262L22.3505 19.9882L19.9805 22.3582L17.0185 20.2137C16.2805 20.6516 15.4837 20.982 14.6523 21.1948L14.0746 24.8046H10.7226L10.1449 21.1949C9.31341 20.9821 8.51659 20.6517 7.77854 20.2137L4.81655 22.3582L2.44636 19.9882L4.59092 17.0262C4.153 16.2881 3.82264 15.4914 3.60982 14.66L0 14.0821V10.7303L3.60982 10.1524C3.82256 9.32101 4.15292 8.52424 4.59092 7.78622L2.4465 4.82423L4.81668 2.45418L7.77854 4.59859C8.51663 4.16054 9.3135 3.83013 10.145 3.61737L10.7226 0.0078125H14.0744L14.6523 3.6175ZM1.35723 61.2645C0.626191 61.2645 0.0299955 61.8607 0.0299955 62.5917V64.5116C0.0299955 65.2426 0.626191 65.8388 1.35723 65.8388H63.6728C64.4038 65.8388 65 65.2426 65 64.5116V62.5917C65 61.8607 64.4038 61.2645 63.6728 61.2645H60.7827V20.2807C60.7827 19.5498 60.1865 18.9535 59.4555 18.9535H53.5055C52.7744 18.9535 52.1782 19.5497 52.1782 20.2807V61.2645H44.8059V28.4049C44.8059 27.6738 44.2096 27.0776 43.4787 27.0776H37.5287C36.7978 27.0776 36.2015 27.6739 36.2015 28.4049V61.2645H28.8289V37.4359C28.8289 36.7049 28.2327 36.1087 27.5017 36.1087H21.5516C20.8205 36.1087 20.2243 36.7049 20.2243 37.4359V61.2645H12.8516V46.0846C12.8516 45.3537 12.2554 44.7574 11.5244 44.7574H5.5744C4.84336 44.7574 4.24716 45.3535 4.24716 46.0846V61.2646H1.35723V61.2645ZM2.36275 38.9353C11.8574 35.6287 21.6394 31.3796 31.3207 25.8616C40.4042 20.6843 49.3973 14.3928 57.9797 6.71859L57.4132 10.6091C57.3765 10.8861 57.4506 11.1663 57.6194 11.3889C57.7882 11.6115 58.0381 11.7585 58.3147 11.7978C58.5912 11.8372 58.8722 11.7658 59.0964 11.5991C59.3206 11.4324 59.4699 11.184 59.5119 10.9078L60.5048 4.08827L60.504 4.08814C60.526 3.93346 60.5135 3.77583 60.4674 3.62655C60.4213 3.47726 60.3427 3.34003 60.2374 3.22468C60.132 3.10933 60.0024 3.01872 59.8579 2.95935C59.7133 2.89999 59.5575 2.87332 59.4015 2.88128L52.5201 3.25477C52.2422 3.27253 51.9824 3.39907 51.797 3.60699C51.6117 3.81491 51.5157 4.08746 51.5299 4.36564C51.5441 4.64381 51.6672 4.9052 51.8727 5.09321C52.0783 5.28122 52.3496 5.3807 52.6279 5.37012L56.5459 5.15749C48.084 12.7213 39.2224 18.9207 30.2752 24.0202C20.7111 29.4714 11.0469 33.6693 1.66568 36.9363C1.53262 36.9807 1.4097 37.051 1.30405 37.1433C1.1984 37.2355 1.11214 37.3478 1.05028 37.4737C0.98841 37.5996 0.952175 37.7365 0.943675 37.8765C0.935175 38.0165 0.954579 38.1568 1.00076 38.2892C1.04694 38.4217 1.11898 38.5436 1.21269 38.6479C1.3064 38.7523 1.41991 38.837 1.54663 38.8971C1.67335 38.9572 1.81076 38.9916 1.95086 38.9981C2.09096 39.0047 2.23097 38.9833 2.36275 38.9353ZM12.3985 7.45375C9.66335 7.45375 7.44607 9.67103 7.44607 12.4062C7.44607 15.1414 9.66335 17.3587 12.3985 17.3587C15.1337 17.3587 17.351 15.1414 17.351 12.4062C17.351 9.67103 15.1337 7.45375 12.3985 7.45375Z"
    fill="white" />
</svg>