<svg width="86" height="50" viewBox="0 0 86 50" fill="none" xmlns="http://www.w3.org/2000/svg">
  <path
    d="M12.0972 33.1359C11.8738 33.136 11.6536 33.0831 11.4546 32.9816L0.760996 27.4734C0.431295 27.3037 0.182171 27.0104 0.0680732 26.6576C-0.0460244 26.3048 -0.0158159 25.9212 0.152096 25.5906L12.7145 0.77721C12.7979 0.612449 12.913 0.465772 13.0532 0.345591C13.1934 0.22541 13.356 0.13409 13.5316 0.0768683C13.7071 0.0196466 13.8923 -0.00235077 14.0764 0.0121372C14.2605 0.0266251 14.4399 0.0773128 14.6044 0.161295L24.7775 5.35238C25.1041 5.51858 25.3527 5.80598 25.4702 6.15311C25.5876 6.50025 25.5646 6.87957 25.406 7.20995L13.3627 32.3348C13.2813 32.5038 13.167 32.6548 13.0266 32.7791C12.8862 32.9034 12.7224 32.9985 12.5448 33.0587C12.4006 33.1079 12.2495 33.134 12.0972 33.1359ZM3.28499 25.6158L11.456 29.8248L22.2844 7.2366L14.5819 3.30821L3.28499 25.6158Z"
    fill="white" />
  <path
    d="M26.6322 13.6124C26.3909 13.6123 26.1536 13.55 25.9434 13.4314L21.8663 11.1347C21.7057 11.0443 21.5645 10.9232 21.4507 10.7783C21.337 10.6333 21.2529 10.4674 21.2032 10.29C21.1536 10.1125 21.1394 9.92704 21.1614 9.74411C21.1835 9.56118 21.2414 9.38438 21.3317 9.22381C21.4221 9.06324 21.5432 8.92205 21.6881 8.80829C21.8331 8.69452 21.999 8.61042 22.1765 8.56079C22.3539 8.51115 22.5394 8.49695 22.7223 8.51899C22.9052 8.54104 23.082 8.5989 23.2426 8.68927L26.6098 10.5847C27.9244 9.78782 30.7697 8.07195 32.5908 7.04356C35.5637 5.35996 37.657 5.59146 40.0603 7.86852C40.3234 8.12598 40.4748 8.47653 40.4818 8.84459C40.4888 9.21264 40.3509 9.56871 40.0978 9.836C39.8447 10.1033 39.4967 10.2604 39.1288 10.2734C38.7609 10.2865 38.4026 10.1544 38.1312 9.90567C36.6384 8.49145 35.8611 8.41849 33.9713 9.48477C31.6311 10.8078 27.4095 13.3809 27.366 13.4132C27.1444 13.5458 26.8905 13.6148 26.6322 13.6124Z"
    fill="white" />
  <path
    d="M63.5411 38.022C62.5188 38.0483 61.5102 37.782 60.6341 37.2546C59.3433 36.3931 53.664 30.8232 52.5388 29.7163C52.2907 29.4522 52.1544 29.1025 52.1584 28.7402C52.1624 28.3779 52.3064 28.0313 52.5602 27.7727C52.814 27.5142 53.1579 27.3639 53.5201 27.3532C53.8822 27.3426 54.2344 27.4724 54.503 27.7156C57.0284 30.2087 61.3608 34.3686 62.1872 34.92C62.7198 35.1661 63.3089 35.2642 63.8925 35.2039C64.4761 35.1437 65.0328 34.9274 65.5039 34.5777C65.7245 34.3863 65.9004 34.1489 66.0192 33.8822C66.138 33.6154 66.1968 33.3258 66.1915 33.0339C66.1861 32.7419 66.1168 32.4547 65.9882 32.1925C65.8597 31.9302 65.6752 31.6994 65.4478 31.5163C64.0139 29.9029 58.0568 24.1716 56.7492 22.9146C52.1865 21.2421 47.762 19.2147 43.5161 16.8508L42.0402 17.8161C41.7088 19.3543 40.8247 20.7176 39.5555 21.6476C39.11 21.9986 38.5928 22.2474 38.0405 22.3763C37.4882 22.5053 36.9143 22.5114 36.3594 22.394C35.6861 22.3101 35.0377 22.0866 34.4557 21.7378C33.8738 21.3889 33.371 20.9224 32.9796 20.3681C32.2335 18.774 32.1498 16.9492 32.7467 15.2935C33.9435 10.5037 35.8852 9.27042 38.572 7.56438L39.1626 7.18697C42.123 5.28591 44.6638 4.27295 47.4529 5.52863C49.187 6.3101 55.342 8.69379 57.0901 9.37003L62.949 7.44933C63.3 7.3426 63.6788 7.37757 64.0043 7.54677C64.3298 7.71596 64.5761 8.00591 64.6904 8.3545C64.8047 8.70308 64.7779 9.08256 64.6158 9.41164C64.4537 9.74072 64.1691 9.99321 63.8231 10.115L57.4886 12.1915C57.1819 12.2915 56.8501 12.2836 56.5486 12.169C56.216 12.0399 48.3901 9.02911 46.3067 8.0891C45.0566 7.5279 43.7364 7.58542 40.6835 9.54681L40.0802 9.93263C37.6292 11.4886 36.3987 12.2714 35.4727 15.9739C34.9985 17.8708 35.2174 18.6396 35.39 18.9202C35.6116 19.2906 36.1251 19.4407 36.9431 19.6456C37.1187 19.6752 37.2986 19.6653 37.4699 19.6168C37.6413 19.5683 37.7996 19.4822 37.9336 19.365C38.3293 19.0668 38.6598 18.6908 38.9047 18.2601C39.1497 17.8294 39.3038 17.3532 39.3576 16.8606C39.376 16.6491 39.4421 16.4445 39.5509 16.2622C39.6598 16.08 39.8086 15.9248 39.9862 15.8084L42.687 14.042C42.8998 13.9036 43.1463 13.8255 43.4 13.8161C43.6538 13.8067 43.9053 13.8664 44.1278 13.9887C44.2232 14.0406 53.6822 19.2135 57.8253 20.3022C58.0556 20.3637 58.2668 20.4818 58.4398 20.6459C58.7428 20.9363 65.8757 27.7661 67.5508 29.656C68.015 30.1053 68.3831 30.6442 68.6327 31.24C68.8824 31.8358 69.0084 32.4762 69.0032 33.1221C68.9979 33.7681 68.8615 34.4063 68.6022 34.998C68.3429 35.5897 67.9661 36.1226 67.4947 36.5643C66.4152 37.5436 64.998 38.0662 63.5411 38.022Z"
    fill="white" />
  <path
    d="M66.5011 31.9872C66.1796 31.987 65.868 31.8764 65.6183 31.6738C65.3686 31.4713 65.1961 31.1892 65.1295 30.8747C65.063 30.5602 65.1064 30.2323 65.2527 29.946C65.3989 29.6597 65.6391 29.4323 65.9329 29.3019L70.8546 27.1216C71.0238 27.0418 71.2072 26.9965 71.3941 26.9886C71.5811 26.9806 71.7677 27.0102 71.943 27.0754C72.1184 27.1407 72.2789 27.2403 72.4151 27.3685C72.5514 27.4967 72.6606 27.6509 72.7364 27.8219C72.8122 27.993 72.853 28.1774 72.8564 28.3645C72.8599 28.5516 72.8259 28.7374 72.7564 28.9111C72.687 29.0848 72.5835 29.2429 72.452 29.376C72.3206 29.5092 72.1639 29.6147 71.991 29.6863L67.0679 31.8722C66.889 31.9495 66.696 31.9887 66.5011 31.9872Z"
    fill="white" />
  <path
    d="M72.9369 33.1359C72.6573 33.1358 72.3841 33.0521 72.1524 32.8957C71.9206 32.7392 71.7409 32.517 71.6364 32.2577L61.0465 5.98517C60.9758 5.80996 60.9411 5.62226 60.9447 5.43332C60.9482 5.24439 60.9899 5.05812 61.0672 4.88569C61.1445 4.71326 61.2558 4.55823 61.3945 4.42989C61.5332 4.30154 61.6964 4.20255 61.8743 4.13883L73.1909 0.0897811C73.5332 -0.0326752 73.9097 -0.0174468 74.2411 0.132257C74.5724 0.281961 74.8327 0.554448 74.9671 0.892294L85.3492 26.9515C85.4172 27.1238 85.4503 27.3078 85.4468 27.493C85.4432 27.6782 85.403 27.8608 85.3286 28.0303C85.2541 28.1999 85.1468 28.353 85.0128 28.4809C84.8789 28.6088 84.721 28.7089 84.5481 28.7754L73.4392 33.0377C73.2792 33.101 73.109 33.1343 72.9369 33.1359ZM64.1907 6.28822L73.7184 29.9245L82.2121 26.6695L72.8612 3.18759L64.1907 6.28822ZM57.2206 42.2779C56.064 42.3125 54.9346 41.9239 54.0442 41.1849C52.1656 39.5154 47.3365 34.6891 47.1316 34.4842C46.8761 34.2196 46.7346 33.8652 46.7378 33.4973C46.741 33.1295 46.8886 32.7776 47.1487 32.5175C47.4089 32.2573 47.7607 32.1098 48.1286 32.1066C48.4965 32.1034 48.8509 32.2448 49.1155 32.5004C49.1646 32.5495 54.0919 37.474 55.9074 39.0945C56.2837 39.3237 56.7098 39.4587 57.1494 39.4881C57.5891 39.5174 58.0294 39.4401 58.4328 39.2628C59.0916 39.0381 59.676 38.6368 60.1223 38.1026C60.5687 37.5685 60.8597 36.922 60.9638 36.2338C60.9951 36.0522 61.0619 35.8786 61.1603 35.7228C61.2587 35.567 61.3869 35.4322 61.5374 35.3259C61.6879 35.2197 61.8579 35.1441 62.0377 35.1036C62.2174 35.063 62.4034 35.0583 62.5849 35.0896C62.7665 35.1209 62.9401 35.1877 63.0959 35.2861C63.2517 35.3846 63.3865 35.5127 63.4928 35.6632C63.599 35.8138 63.6746 35.9838 63.7151 36.1635C63.7556 36.3432 63.7604 36.5292 63.7291 36.7108C63.5383 37.8894 63.032 38.9944 62.2637 39.9084C61.4955 40.8224 60.494 41.5113 59.3658 41.9019C58.6768 42.1464 57.9516 42.2735 57.2206 42.2779Z"
    fill="white" />
  <path
    d="M50.6905 45.678C49.5364 45.7272 48.4085 45.3246 47.5464 44.5556L42.563 39.5722L44.5482 37.5869L49.5317 42.5704C49.84 42.7435 50.1813 42.85 50.5335 42.8829C50.8856 42.9157 51.2407 42.8743 51.5758 42.7612C52.2194 42.6031 52.8087 42.2751 53.2821 41.8113C53.7555 41.3476 54.0956 40.7651 54.2668 40.1249C54.3187 39.9463 54.4055 39.7798 54.5223 39.6351C54.6392 39.4904 54.7836 39.3704 54.9472 39.282C55.1108 39.1936 55.2904 39.1386 55.4754 39.1202C55.6605 39.1018 55.8474 39.1204 56.0252 39.1749C56.203 39.2294 56.3682 39.3187 56.5112 39.4377C56.6542 39.5566 56.7721 39.7027 56.8581 39.8676C56.9441 40.0325 56.9964 40.2129 57.0121 40.3982C57.0277 40.5835 57.0064 40.7701 56.9493 40.9471C56.559 42.3067 55.738 43.503 54.6096 44.3561C53.4812 45.2092 52.1051 45.6731 50.6905 45.678Z"
    fill="white" />
  <path
    d="M45.3427 49.4255C44.1957 49.45 43.0741 49.0866 42.1593 48.3943C40.8954 47.3824 39.6256 46.3779 38.3501 45.3807C38.2019 45.2684 38.0775 45.1277 37.9841 44.9669C37.8907 44.806 37.8302 44.6282 37.8062 44.4438C37.7822 44.2594 37.795 44.0721 37.844 43.8927C37.8931 43.7133 37.9773 43.5454 38.0917 43.3988C38.2062 43.2523 38.3487 43.1299 38.5109 43.0389C38.6731 42.9479 38.8518 42.8901 39.0365 42.8687C39.2213 42.8474 39.4084 42.863 39.5871 42.9147C39.7657 42.9663 39.9323 43.053 40.0772 43.1696C40.0772 43.1696 41.8296 44.5375 43.913 46.2043C44.3569 46.4685 44.8617 46.6129 45.3782 46.6235C45.8946 46.6341 46.405 46.5104 46.8593 46.2646C47.2655 46.0899 47.6092 45.7963 47.8452 45.4223C48.0811 45.0484 48.1982 44.6117 48.1809 44.1699C48.1696 43.798 48.3064 43.4368 48.5614 43.1658C48.8163 42.8948 49.1685 42.7362 49.5404 42.7248C49.9112 42.7183 50.2699 42.8569 50.5399 43.1112C50.8099 43.3655 50.9698 43.7152 50.9855 44.0857C51.0186 45.063 50.7639 46.0285 50.2531 46.8623C49.7423 47.6961 48.9978 48.3615 48.1122 48.776C47.2511 49.2022 46.3035 49.4245 45.3427 49.4255Z"
    fill="white" />
  <path
    d="M34.8283 48.7769C34.3723 48.7753 33.921 48.6847 33.4997 48.5104C32.3557 47.949 31.4126 47.0485 30.7989 45.9316C29.8033 46.1248 28.7714 45.9698 27.8765 45.4925C27.1258 45.0005 26.4805 44.364 25.978 43.6202C25.4756 42.8765 25.1261 42.0402 24.9499 41.1601C24.8759 40.8017 24.9449 40.4287 25.1421 40.1204C26.2827 38.3414 28.0028 35.5761 28.2595 34.9995C28.4905 34.5395 28.8183 34.1348 29.2202 33.8132C29.6222 33.4916 30.089 33.2607 30.5885 33.1363C31.268 32.9583 31.9787 32.9344 32.6686 33.0664C33.3585 33.1985 34.0101 33.4831 34.5758 33.8996C35.2027 34.3145 35.7061 34.8909 36.033 35.5679C36.3599 36.2449 36.4982 36.9976 36.4334 37.7466C37.1007 37.7753 37.7541 37.9469 38.3495 38.2496C38.9449 38.5524 39.4684 38.9794 39.8847 39.5017C40.2891 40.1337 40.5472 40.848 40.6402 41.5924C40.7332 42.3369 40.6587 43.0927 40.4221 43.8047C39.6862 45.8586 38.1754 47.5427 36.2131 48.4963C35.7749 48.6816 35.3041 48.777 34.8283 48.7769ZM33.1616 44.3982C33.6021 45.1432 34.3892 46.2123 35.1258 45.905C36.3487 45.2681 37.2902 44.198 37.7662 42.904C37.8599 42.6176 37.8957 42.3155 37.8716 42.0151C37.8476 41.7148 37.764 41.4222 37.6259 41.1544C37.4125 40.9454 37.1591 40.7815 36.8809 40.6726C36.6028 40.5636 36.3055 40.5118 36.0069 40.5203L33.1616 44.3982ZM27.8428 41.1011C28.0661 41.8807 28.5499 42.5601 29.2136 43.026C29.4208 43.1324 29.6476 43.1951 29.8799 43.2103C30.1123 43.2255 30.3454 43.1929 30.5646 43.1144L33.56 37.9795C33.6791 37.6621 33.6867 37.3138 33.5817 36.9915C33.4767 36.6693 33.2652 36.3923 32.982 36.2061C32.7666 36.0362 32.5179 35.9134 32.2521 35.8455C31.9863 35.7776 31.7092 35.7661 31.4387 35.8118C31.1999 35.8512 30.9819 35.9716 30.8214 36.1528C30.451 36.9735 28.6692 39.802 27.8428 41.1011Z"
    fill="white" />
  <path
    d="M24.1055 43.2924C23.773 43.2933 23.4422 43.246 23.1234 43.1521C20.72 42.4295 19.7786 39.3177 19.679 38.9655C19.6287 38.7869 19.6143 38.6 19.6367 38.4158C19.6591 38.2316 19.7178 38.0536 19.8095 37.8922C21.002 35.8208 22.321 33.8247 23.7589 31.9155C24.4808 30.9764 25.5268 30.34 26.6926 30.1306C27.8585 29.9213 29.0605 30.154 30.064 30.7833C31.3884 31.7022 32.3593 33.7015 30.7346 36.3139C30.6374 36.4705 30.5104 36.6064 30.3606 36.7139C30.2109 36.8214 30.0415 36.8983 29.862 36.9404C29.6826 36.9824 29.4966 36.9886 29.3147 36.9588C29.1328 36.9289 28.9586 36.8635 28.802 36.7663C28.6454 36.6691 28.5095 36.542 28.402 36.3923C28.2945 36.2426 28.2175 36.0732 28.1755 35.8937C28.1335 35.7143 28.1272 35.5283 28.1571 35.3464C28.187 35.1645 28.2523 34.9903 28.3495 34.8337C28.7101 34.2515 29.023 33.4784 28.4632 33.0898C28.054 32.8663 27.5782 32.7975 27.1225 32.8959C26.6668 32.9943 26.2617 33.2533 25.9813 33.6257C24.7488 35.2634 23.6083 36.9683 22.565 38.7326C22.8722 39.4664 23.3956 40.3068 23.9301 40.4653C24.4029 40.6056 25.0525 40.1202 25.4046 39.8199C25.6863 39.5766 26.0531 39.4551 26.4244 39.4822C26.7956 39.5093 27.1409 39.6828 27.3843 39.9645C27.6276 40.2461 27.7491 40.6129 27.722 40.9842C27.6949 41.3554 27.5214 41.7007 27.2398 41.9441C26.3962 42.7634 25.2804 43.2434 24.1055 43.2924Z"
    fill="white" />
  <path
    d="M21.0258 39.983C20.8716 39.9829 20.7185 39.9573 20.5726 39.9073C20.3355 39.8273 14.7432 37.8729 14.7432 33.4928C14.743 33.3457 14.7657 33.1994 14.8105 33.0593C15.3181 31.6622 16.0134 30.3406 16.8771 29.1309C17.5199 28.3628 18.4077 27.8397 19.391 27.6495C20.3743 27.4594 21.3931 27.6139 22.2758 28.087C23.1068 28.4553 23.7695 29.1217 24.1332 29.9547C24.4968 30.7877 24.5349 31.7267 24.24 32.5864C23.3225 35.5412 22.3811 38.9182 22.3713 38.9532C22.2889 39.2482 22.1122 39.5082 21.8683 39.6933C21.6243 39.8785 21.3264 39.9788 21.0202 39.9788L21.0258 39.983ZM17.5604 33.7102C17.7007 35.0234 19.0448 36.0224 20.1223 36.6215C20.4884 35.3419 21.0314 33.4802 21.5645 31.7587C21.6135 31.6493 21.6385 31.5308 21.638 31.411C21.6374 31.2912 21.6113 31.1729 21.5613 31.064C21.5114 30.9551 21.4388 30.8581 21.3484 30.7795C21.258 30.7009 21.1518 30.6425 21.037 30.6082C20.7471 30.4447 20.4153 30.3707 20.0834 30.3957C19.7516 30.4207 19.4346 30.5435 19.1724 30.7485C18.5219 31.6698 17.981 32.6638 17.5604 33.7102Z"
    fill="white" />
  <path
    d="M17.298 32.4751C17.0155 32.4748 16.7397 32.3892 16.5067 32.2296L12.8266 29.7042C12.5194 29.494 12.3084 29.1703 12.2398 28.8045C12.1713 28.4386 12.2509 28.0605 12.4611 27.7534C12.6714 27.4462 12.995 27.2351 13.3609 27.1666C13.7267 27.098 14.1048 27.1776 14.412 27.3879L18.092 29.9133C18.3399 30.0824 18.527 30.3266 18.6259 30.61C18.7248 30.8933 18.7302 31.2009 18.6413 31.4875C18.5525 31.7742 18.374 32.0248 18.1323 32.2025C17.8905 32.3803 17.5981 32.4758 17.298 32.4751Z"
    fill="white" />
</svg>