<svg width="78" height="78" viewBox="0 0 78 78" fill="none" xmlns="http://www.w3.org/2000/svg">
<path d="M30.231 0.498047H47.721V12.741H30.231V0.498047ZM47.721 12.741H65.211V30.231H47.721V12.741ZM12.741 12.741H30.231V30.231H12.741V12.741ZM47.721 47.721H65.211V65.211H47.721V47.721ZM12.741 47.721H30.231V65.211H12.741V47.721ZM0.498047 0.498047H12.741V12.741H0.498047V0.498047ZM65.211 0.498047H77.454V12.741H65.211V0.498047ZM30.231 65.211H47.721V77.454H30.231V65.211ZM0.498047 65.211H12.741V77.454H0.498047V65.211ZM65.211 65.211H77.454V77.454H65.211V65.211ZM30.231 30.231H47.721V47.721H30.231V30.231ZM0.498047 30.231H12.741V47.721H0.498047V30.231ZM65.211 30.231H77.454V47.721H65.211V30.231Z" fill="#7C6F66"/>
</svg>
