<?xml version="1.0" encoding="utf-8"?>
<!-- Generator: Adobe Illustrator 24.2.1, SVG Export Plug-In . SVG Version: 6.00 Build 0)  -->
<svg version="1.1" id="Layer_1" xmlns="http://www.w3.org/2000/svg" xmlns:xlink="http://www.w3.org/1999/xlink" x="0px" y="0px"
	 viewBox="0 0 1000 200" style="enable-background:new 0 0 1000 200;" xml:space="preserve">
<style type="text/css">
	.st0{fill:url(#SVGID_1_);}
	.st1{fill:url(#SVGID_2_);}
	.st2{fill:url(#SVGID_3_);}
	.st3{fill:url(#SVGID_4_);}
	.st4{fill:url(#SVGID_5_);}
	.st5{fill:url(#SVGID_6_);}
	.st6{fill:url(#SVGID_7_);}
	.st7{fill:#FFFFFF;}
	.st8{fill:#002CAE;}
	.st9{fill:url(#SVGID_8_);}
	.st10{fill:url(#SVGID_9_);}
	.st11{fill:url(#SVGID_10_);}
	.st12{fill:url(#SVGID_11_);}
	.st13{fill:url(#SVGID_12_);}
	.st14{fill:url(#SVGID_13_);}
	.st15{fill:url(#SVGID_14_);}
</style>
<g>
	<g>
		<g>
			<linearGradient id="SVGID_1_" gradientUnits="userSpaceOnUse" x1="22.7373" y1="100.6633" x2="212.1917" y2="100.6633">
				<stop  offset="0" style="stop-color:#002CAE"/>
				<stop  offset="1" style="stop-color:#039BE4"/>
			</linearGradient>
			<path class="st0" d="M42.8,154.3c0.2,0.4,0.4,0.7,0.6,1.1c-0.3,0.2-0.4-0.1-0.5-0.2c-1.3-1.8-2.8-3.6-3.6-5.8
				c-0.5-1.2-0.8-2.5-1.3-3.6c-0.4-0.8-1.2-1-1.6-1.8c-4.3-7.9-6.4-16.4-8.2-25.1c-0.4-2.2-0.8-4.4-1.3-6.6c0,1.8,0.3,3.6,0.7,5.4
				c0.7,3.8,1.7,7.6,2.5,11.4c0.1,0.5,0.2,1.1,0.3,1.7c0,0.2,0,0.3-0.2,0.4c-0.2,0.1-0.3,0-0.4-0.2c-0.3-0.3-0.4-0.6-0.5-0.9
				c-1.7-4.7-2.9-9.6-3.2-14.7c0-0.1,0-0.2-0.1-0.3c-0.6,0.2-0.5,0.7-0.5,1.1c-0.1,2.9,0.3,5.8,1,8.5c1.5,5.7,3.5,11.2,5.8,16.5
				c0.2,0.5,0.4,0.9,0.5,1.4c0.1,0.3,0.3,0.6,0,0.8c-0.3,0.2-0.5-0.2-0.7-0.4c-0.8-1.3-1.6-2.7-2.2-4.2c-3.1-8.9-5.4-18-6.6-27.3
				c-0.3-2.3-0.4-4.6-0.5-6.9c-0.3-4.1,0-8,0.6-12c0.1-0.4,0.1-0.8,0.4-1.2c0,0.4,0,0.7,0,1.1c-0.5,4.5-0.1,8.9,0.8,13.3
				c0.5,2.5,0.7,5.2,1.2,7.7c-0.1-1.5-0.2-3.1-0.3-4.6c-0.2-4.3-0.5-8.6-0.2-12.9c0.2-2.9,0.3-5.8,0.7-8.7c1-7.7,3.1-15.1,6.8-21.9
				c0.1-0.3,0.2-0.6,0.6-0.6c1.3-0.3,2-1.3,2.5-2.3c1.2-2.5,2.6-5,4-7.4c0-0.1,0.1-0.2,0.1-0.3c0.2-0.3,0.2-0.5-0.1-0.8
				c-0.4-0.3-0.5,0.1-0.6,0.3c-0.7,0.9-1.4,1.8-2.1,2.8c-0.2,0.2-0.2,0.5-0.8,0.5c2.3-5.9,6.1-10.9,9.8-15.9
				c-0.6-0.1-0.7,0.2-0.9,0.4c-3.7,3.4-6.5,7.6-8.9,12c-1.9,3.5-3.5,7.2-5.4,10.7c-0.3,0.6-0.6,1.8-1.3,1.5
				c-0.7-0.3-0.1-1.3,0.1-1.9c1.9-5.3,4.5-10.3,7.5-15.1c3.1-4.9,6.6-9.6,11-13.5c4.1-3.6,7.6-7.8,12.2-10.9
				c4.2-2.9,8.5-5.4,13.2-7.4c7.4-3.2,15-5.6,22.7-8.1c1.9-0.6,3.9-0.7,5.9-0.8c2.8-0.2,5.5-0.3,8.3-0.4c0.6,0,1.1-0.1,1.6-0.5
				c0.4-0.3,0.8-0.4,1.3-0.5c3.4-0.2,6.7-0.3,10.1-0.1c2.4,0.2,4.9,0.2,7.3,0.4c4.6,0.5,9.2,1.3,13.7,2.6c6.9,1.9,13.4,4.6,19.7,7.9
				c2.4,1.3,4.6,2.7,6.8,4.2c2.6,1.8,5.1,3.8,7.8,5.2c2.8,1.4,4.5,3.8,6.5,5.9c2,2.1,4,4.2,5.9,6.4c0.1,0.1,0.2,0.2,0.4,0.2
				c-2.3-3.1-4.9-6-7.4-8.9c1.3,0.6,2.3,1.6,3.3,2.5c5.2,4.8,9.6,10.3,13.3,16.2c2.4,3.7,4.4,7.7,6.3,11.7c1.1,2.4,1.7,5,2.3,7.6
				c1,4.2,1.8,8.4,2.1,12.7c0.4,4.8,0.4,9.7-0.5,14.5c-0.2,1-0.3,2.1-0.2,3.2c0.2,7.1-0.3,14.1-1.8,21.1c-1.4,7-3.7,13.8-6.7,20.3
				c-3.1,6.7-6.9,12.9-11.5,18.7c-4.4,5.6-9.5,10.6-15,15c-4.5,3.6-9.2,7-14.3,9.8c-0.2,0.1-0.5,0.3-0.7,0.4
				c-4,1.1-7.6,3.2-11.5,4.5c-5.8,2-11.8,3.4-17.9,4.3c-6.1,0.9-12.3,0.9-18.5,0.7c-6.7-0.3-13.4-1.6-19.9-3.4
				c-7.4-2.1-14.4-5.3-21.1-8.9c-3.1-1.7-5.9-4-8.9-6.1c-2.5-1.8-4.7-3.9-7.1-5.9c-0.4-0.3-0.8-0.6-1.3-0.7c2.1,1.9,4.1,3.9,6.2,5.8
				c-0.1,0.1-0.2,0.2-0.3,0.3c-4.5-2.9-7.7-7.2-11.3-11.1c0.3-0.1,0.4,0,0.6,0.1c0.1,0.1,0.3,0.2,0.4,0.2
				C48.1,161.1,45.5,157.7,42.8,154.3z"/>
			<linearGradient id="SVGID_2_" gradientUnits="userSpaceOnUse" x1="97.1185" y1="6.5553" x2="138.0341" y2="6.5553">
				<stop  offset="0" style="stop-color:#002CAE"/>
				<stop  offset="1" style="stop-color:#039BE4"/>
			</linearGradient>
			<path class="st1" d="M138,7.3c-6.8-0.4-13.5-1.4-20.4-0.9c-6.8,0.5-13.6,1-20.5,1.9c0.4-0.7,0.9-0.9,1.3-1
				c3.8-1.2,7.8-1.7,11.8-2c3.2-0.2,6.4-0.5,9.6-0.4c5.7,0.1,11.4,0.6,17,1.8c0.4,0.1,0.8,0.2,1.2,0.3C138,7.1,138,7.2,138,7.3z"/>
			<linearGradient id="SVGID_3_" gradientUnits="userSpaceOnUse" x1="34.2473" y1="151.8136" x2="42.782" y2="151.8136">
				<stop  offset="0" style="stop-color:#002CAE"/>
				<stop  offset="1" style="stop-color:#039BE4"/>
			</linearGradient>
			<path class="st2" d="M42.8,160c-3.5-5.1-7-10.2-8.5-16.3C37,149.1,40.7,154.1,42.8,160z"/>
			<linearGradient id="SVGID_4_" gradientUnits="userSpaceOnUse" x1="77.4351" y1="12.1593" x2="90.9303" y2="12.1593">
				<stop  offset="0" style="stop-color:#002CAE"/>
				<stop  offset="1" style="stop-color:#039BE4"/>
			</linearGradient>
			<path class="st3" d="M77.4,14.5c4.4-2.1,8.8-3.5,13.5-4.8C90.2,11.2,79,15.2,77.4,14.5z"/>
			<linearGradient id="SVGID_5_" gradientUnits="userSpaceOnUse" x1="63.9859" y1="181.3243" x2="70.3627" y2="181.3243">
				<stop  offset="0" style="stop-color:#002CAE"/>
				<stop  offset="1" style="stop-color:#039BE4"/>
			</linearGradient>
			<path class="st4" d="M70.2,183.6c-2.2-1.3-5.4-1.1-6.2-4.5c2.1,1.4,4.3,2.8,6.4,4.2C70.3,183.4,70.3,183.5,70.2,183.6z"/>
			<linearGradient id="SVGID_6_" gradientUnits="userSpaceOnUse" x1="79.7341" y1="190.4462" x2="86.1024" y2="190.4462">
				<stop  offset="0" style="stop-color:#002CAE"/>
				<stop  offset="1" style="stop-color:#039BE4"/>
			</linearGradient>
			<path class="st5" d="M79.7,189.2c2.2,0.6,4.2,1.5,6.4,2.4C84.6,192.1,81.7,190.6,79.7,189.2z"/>
			<linearGradient id="SVGID_7_" gradientUnits="userSpaceOnUse" x1="69.9428" y1="183.2768" x2="75.0962" y2="183.2768">
				<stop  offset="0" style="stop-color:#002CAE"/>
				<stop  offset="1" style="stop-color:#039BE4"/>
			</linearGradient>
			<path class="st6" d="M75.1,185c-1.9-0.8-3.5-1.9-5.2-3.4C71.2,181.8,73,182.9,75.1,185z"/>
		</g>
		<g>
			<path class="st7" d="M50.3,102.7c0-2.2,1.2-3.9,3.3-4.6c1.8-0.6,3.5-1.4,5.3-2c2.1-0.7,4.1-1.6,6.3-2.3c1.5-0.5,3-1.1,4.4-1.7
				c1.4-0.6,2.8-1,4.2-1.5c1.1-0.4,2.1-0.8,3.2-1.2c1.5-0.6,3-1.1,4.5-1.7c2.1-0.8,4.2-1.6,6.4-2.3c1.9-0.7,3.7-1.4,5.6-2
				c1.6-0.5,3.2-1.2,4.9-1.8c1.8-0.7,3.7-1.3,5.6-2c2.8-1.1,5.6-2,8.4-3.1c1.8-0.7,3.7-1.2,5.5-1.9c1.4-0.5,2.7-1,4.1-1.5
				c1.2-0.4,2.4-0.9,3.5-1.3c1.7-0.6,3.4-1.3,5.1-1.9c1.8-0.7,3.7-1.3,5.5-2c1.5-0.5,2.9-1.1,4.4-1.7c1.7-0.6,3.5-1.2,5.2-1.9
				c1.9-0.7,3.7-1.4,5.6-2.1c1.7-0.6,3.5-1.3,5.2-1.9c1.7-0.6,3.5-1.3,5.2-1.8c1.7-0.5,3.4-1.1,5.2-1.6c1.4-0.4,2.8-1,4.3-1.2
				c2.9-0.6,5.4,1.3,6.2,3.4c0.8,2,0.4,3.7-0.5,5.5c-1.6,3.4-3.2,6.9-4.8,10.3c-1.4,3.1-2.9,6.1-4.3,9.2c-2.5,5.5-5.2,11-7.6,16.6
				c-1.2,2.8-2.7,5.5-3.9,8.3c-1.5,3.3-3,6.7-4.6,10c-1.9,4-3.6,8-5.5,12c-1.5,3.2-2.9,6.4-4.4,9.6c-1.7,3.6-3.4,7.2-5.1,10.8
				c-0.6,1.2-1.1,2.4-1.6,3.6c-0.4,0.9-1.1,1.7-2,2.2c-1.5,0.9-3.9,0.6-5.3-0.4c-1.7-1.2-3.5-2.3-5.3-3.5c-1.9-1.3-3.8-2.5-5.7-3.8
				c-2-1.4-4.1-2.7-6.1-4.1c-4.5-3-9.1-6-13.6-8.9c-0.7-0.5-1.1-1.1-1.4-1.8c-0.4-1.1,0.7-3.1,2.2-3.3c1-0.2,1.8,0.3,2.6,0.8
				c1.7,1.1,3.3,2.3,5,3.4c2.5,1.6,5,3.2,7.5,4.9c3.5,2.3,6.9,4.7,10.5,6.9c1.7,1.1,3.3,2.3,5.1,3.3c0.5,0.3,0.9,0.6,1.3,0.9
				c0.4,0.3,0.6,0.2,0.8-0.2c0.7-1.6,1.5-3.3,2.2-4.9c1.1-2.3,2.1-4.6,3.2-6.8c1.5-3.2,3-6.5,4.5-9.7c1.7-3.8,3.5-7.6,5.3-11.3
				c2-4.3,4-8.6,6-13c1.5-3.3,3.1-6.4,4.5-9.7c2.5-5.5,5.2-11,7.6-16.5c1.2-2.8,2.6-5.5,3.9-8.3c1.4-3,2.7-6.1,4.2-9.1
				c0.1-0.2,0.3-0.4,0.1-0.6c-0.2-0.2-0.4-0.1-0.6,0c-1.2,0.4-2.4,0.8-3.6,1.2c-1.1,0.3-2.1,0.7-3.2,1c-1.4,0.4-2.8,0.9-4.2,1.3
				c-1.6,0.5-3.2,1-4.7,1.6c-2.1,0.8-4.2,1.5-6.2,2.3c-1.8,0.7-3.6,1.3-5.4,2c-1.5,0.6-2.9,1.2-4.4,1.7c-1.7,0.6-3.4,1.2-5.2,1.9
				c-1.9,0.7-3.8,1.4-5.7,2.1c-1.7,0.6-3.5,1.3-5.2,1.9c-1.4,0.5-2.7,1.1-4.1,1.6c-1.5,0.6-3.1,1.1-4.6,1.6c-1,0.4-2.1,0.8-3.1,1.2
				c-1.9,0.7-3.8,1.3-5.6,2c-2.4,1-4.9,1.8-7.3,2.7c-2.1,0.8-4.2,1.5-6.3,2.3c-2.7,1.1-5.4,2-8.1,3c-2,0.8-4.1,1.5-6.2,2.3
				c-2.7,1-5.5,2-8.2,3c-1.5,0.6-3.1,1.1-4.6,1.6c-1.4,0.5-2.7,1-4.1,1.5c-1.2,0.4-2.4,0.9-3.6,1.3c-0.2,0.1-0.5,0.1-0.5,0.3
				c-0.1,0.3,0.2,0.4,0.4,0.5c3.8,2.5,7.7,5.1,11.5,7.6c0.9,0.6,1.9,1.1,2.5,2c0.7,1,0.5,2.3-0.4,3.3c-0.8,0.9-2.1,1.2-3.1,0.7
				c-1-0.5-1.9-1.2-2.8-1.7c-2-1.3-3.9-2.6-5.9-3.9c-2.4-1.6-4.9-3.2-7.3-4.9C50.9,105.4,50.2,104.2,50.3,102.7z"/>
			<path class="st7" d="M85.3,142.9c0-1.4,0-2.8,0-4.1c0.1-1.5,0.2-3,0.3-4.6c0.1-0.8,0-1.6,0-2.3c0.1-2,0.4-3.9,0.3-5.9
				c0-0.4,0.2-0.6,0.5-0.8c2.9-2.1,5.6-4.3,8.4-6.4c1.8-1.3,3.5-2.7,5.2-4.1c2.9-2.2,5.7-4.4,8.6-6.6c2-1.5,3.9-3.1,5.9-4.6
				c4.1-3.1,8.2-6.3,12.2-9.5c3.1-2.4,6.2-4.8,9.3-7.2c1-0.8,2-1.6,3.1-2.4c0.6-0.5,1.2-0.4,1.7,0.1c0.5,0.6,0.4,1.2-0.3,1.8
				c-1.6,1.3-3.3,2.6-4.9,3.8c-3,2.3-6,4.6-9,6.9c-2.3,1.8-4.6,3.7-7,5.5c-3.7,2.9-7.5,5.7-11.2,8.6c-3.5,2.8-7.1,5.4-10.6,8.2
				c-2.8,2.2-5.7,4.4-8.6,6.6c-0.8,0.6-1.1,1.2-0.9,2.2c0.1,0.5-0.1,1.1-0.1,1.6c-0.1,1.2-0.2,2.3-0.2,3.5c0,1.3-0.1,2.5-0.2,3.8
				c-0.1,1.3-0.1,2.5-0.2,3.8c-0.1,1.4-0.1,2.8-0.2,4.2c0,0.6-0.1,1.2-0.1,1.8c-0.1,0.6-0.7,1.3-1.3,1.4c-0.8,0.1-1.6-0.2-2-0.9
				c-0.4-0.7-0.5-1.6-0.8-2.3c-0.3-1.1-0.7-2.1-1-3.2c-0.3-1-0.5-2.1-0.9-3.1c-0.6-1.6-1-3.3-1.5-5c-0.6-1.9-1.2-3.8-1.7-5.7
				c-0.3-1.1-0.7-2.2-1-3.2c-0.3-1-0.5-1.9-0.8-2.9c-0.2-0.6-0.4-1.3-0.6-1.9c-0.2-0.7,0.1-1.3,0.8-1.6c0.6-0.2,1.1,0,1.4,0.7
				c0.4,1,0.7,1.9,1,2.9c0.4,1.5,0.9,2.9,1.3,4.4c0.3,1.1,0.7,2.2,1,3.3c0.5,1.6,0.9,3.3,1.5,4.9c0.5,1.4,0.8,2.8,1.2,4.1
				c0.5,1.4,0.7,2.8,1.3,4.2C85.2,142.9,85.3,142.9,85.3,142.9z"/>
		</g>
		<g>
			<path class="st8" d="M288.6,114.7c0,5.7-1.5,10.8-4.4,15.3c-2.9,4.5-7.2,7.9-12.7,10.4c-5.5,2.5-12,3.7-19.5,3.7
				c-6.2,0-11.4-0.4-15.6-1.3c-4.2-0.9-8.6-2.4-13.2-4.5V116c4.8,2.4,9.8,4.4,15,5.7c5.2,1.4,10,2.1,14.3,2.1c3.7,0,6.5-0.6,8.2-1.9
				c1.7-1.3,2.6-2.9,2.6-5c0-1.3-0.4-2.4-1.1-3.3c-0.7-1-1.8-1.9-3.4-2.9c-1.6-1-5.7-3-12.4-6c-6.1-2.7-10.7-5.4-13.7-8
				c-3-2.6-5.3-5.5-6.8-8.9c-1.5-3.3-2.2-7.3-2.2-11.8c0-8.5,3.1-15.2,9.4-20c6.3-4.8,14.9-7.2,25.8-7.2c9.7,0,19.5,2.2,29.6,6.6
				l-7.7,19.3c-8.7-4-16.3-6-22.6-6c-3.3,0-5.7,0.6-7.2,1.7c-1.5,1.1-2.2,2.6-2.2,4.2c0,1.8,0.9,3.4,2.8,4.9c1.9,1.4,7,4.1,15.4,7.9
				c8,3.6,13.6,7.4,16.8,11.6C287,103.3,288.6,108.5,288.6,114.7z"/>
			<path class="st8" d="M336.5,144.1c-12,0-21.4-3.2-28.1-9.5c-6.7-6.4-10-15.4-10-27.1c0-12.1,3.1-21.4,9.3-27.9
				c6.2-6.5,15-9.7,26.4-9.7c10.9,0,19.3,2.8,25.2,8.5c5.9,5.6,8.9,13.8,8.9,24.4v11h-44.6c0.2,4,1.6,7.2,4.4,9.4
				c2.8,2.3,6.6,3.4,11.4,3.4c4.4,0,8.4-0.4,12.1-1.2c3.7-0.8,7.7-2.2,12-4.2v17.8c-3.9,2-8,3.4-12.1,4.1
				C347.3,143.7,342.3,144.1,336.5,144.1z M335,86.7c-2.9,0-5.4,0.9-7.4,2.8c-2,1.8-3.1,4.7-3.5,8.6h21.5c-0.1-3.5-1.1-6.2-3-8.3
				C340.7,87.7,338.2,86.7,335,86.7z"/>
			<path class="st8" d="M407.3,142.8h-25V44.3h25V142.8z"/>
			<path class="st8" d="M449.6,142.8h-25V44.3h25V142.8z"/>
			<path class="st8" d="M501.8,144.1c-12,0-21.4-3.2-28.1-9.5c-6.7-6.4-10-15.4-10-27.1c0-12.1,3.1-21.4,9.3-27.9
				c6.2-6.5,15-9.7,26.4-9.7c10.9,0,19.3,2.8,25.2,8.5c5.9,5.6,8.9,13.8,8.9,24.4v11H489c0.2,4,1.6,7.2,4.4,9.4
				c2.8,2.3,6.6,3.4,11.4,3.4c4.4,0,8.4-0.4,12.1-1.2c3.7-0.8,7.7-2.2,12-4.2v17.8c-3.9,2-8,3.4-12.1,4.1
				C512.6,143.7,507.6,144.1,501.8,144.1z M500.4,86.7c-2.9,0-5.4,0.9-7.4,2.8c-2,1.8-3.1,4.7-3.5,8.6H511c-0.1-3.5-1.1-6.2-3-8.3
				C506.1,87.7,503.6,86.7,500.4,86.7z"/>
			<path class="st8" d="M591.4,69.8c2.2,0,4.2,0.2,6.2,0.5l1.4,0.3l-2.2,23.4c-2-0.5-4.9-0.8-8.5-0.8c-5.4,0-9.4,1.2-11.9,3.7
				c-2.5,2.5-3.7,6-3.7,10.7v35.3h-25V71.1h18.6l3.9,11.5h1.2c2.1-3.8,5-6.9,8.7-9.2C583.9,71,587.6,69.8,591.4,69.8z"/>
			<path class="st8" d="M652.1,69.4c-6,0-10.7,2.4-14,7.3c-3.4,4.9-5,11.6-5,20.2c0,17.8,6.8,26.7,20.5,26.7c4.1,0,8.1-0.6,12-1.7
				c3.9-1.1,7.8-2.5,11.7-4.1V139c-7.8,3.4-16.6,5.1-26.4,5.1c-14.1,0-24.9-4.1-32.4-12.2c-7.5-8.1-11.3-19.8-11.3-35.2
				c0-9.6,1.8-18,5.5-25.3c3.6-7.3,8.9-12.8,15.7-16.8c6.8-3.9,14.9-5.9,24.1-5.9c10.1,0,19.7,2.2,28.9,6.5l-7.7,19.7
				c-3.4-1.6-6.9-3-10.3-4.1C659.8,70,656.1,69.4,652.1,69.4z"/>
			<path class="st8" d="M693.4,53.2c0-3.7,1-6.5,3.1-8.3c2.1-1.8,5.4-2.7,10.1-2.7c4.6,0,8,0.9,10.2,2.8c2.1,1.9,3.2,4.6,3.2,8.2
				c0,7.3-4.4,10.9-13.3,10.9C697.8,64.1,693.4,60.5,693.4,53.2z M719,142.8h-25V71.1h25V142.8z"/>
			<path class="st8" d="M780.1,69.8c2.2,0,4.2,0.2,6.2,0.5l1.4,0.3l-2.2,23.4c-2-0.5-4.9-0.8-8.5-0.8c-5.4,0-9.4,1.2-11.9,3.7
				c-2.5,2.5-3.7,6-3.7,10.7v35.3h-25V71.1H755l3.9,11.5h1.2c2.1-3.8,5-6.9,8.7-9.2C772.6,71,776.3,69.8,780.1,69.8z"/>
			<path class="st8" d="M830.7,144.1c-11.8,0-20.8-3.2-26.9-9.5c-6.1-6.3-9.2-15.4-9.2-27.3c0-11.9,3.3-21.1,9.9-27.7
				c6.6-6.5,16-9.8,28.2-9.8c8.4,0,16.3,1.8,23.7,5.4l-7.3,18.3c-3-1.3-5.8-2.4-8.4-3.1c-2.6-0.8-5.2-1.2-8-1.2
				c-4,0-7.2,1.6-9.4,4.7c-2.2,3.1-3.3,7.5-3.3,13.2c0,11.5,4.3,17.2,12.8,17.2c7.3,0,14.3-2.1,21.1-6.3v19.7
				C847.5,142,839.8,144.1,830.7,144.1z"/>
			<path class="st8" d="M893.2,142.8h-25V44.3h25V142.8z"/>
			<path class="st8" d="M945.5,144.1c-12,0-21.4-3.2-28.1-9.5c-6.7-6.4-10-15.4-10-27.1c0-12.1,3.1-21.4,9.3-27.9
				c6.2-6.5,15-9.7,26.4-9.7c10.9,0,19.3,2.8,25.2,8.5c5.9,5.6,8.9,13.8,8.9,24.4v11h-44.6c0.2,4,1.6,7.2,4.4,9.4
				c2.8,2.3,6.6,3.4,11.4,3.4c4.4,0,8.4-0.4,12.1-1.2c3.7-0.8,7.7-2.2,12-4.2v17.8c-3.9,2-8,3.4-12.1,4.1
				C956.2,143.7,951.3,144.1,945.5,144.1z M944,86.7c-2.9,0-5.4,0.9-7.4,2.8c-2,1.8-3.1,4.7-3.5,8.6h21.5c-0.1-3.5-1.1-6.2-3-8.3
				C949.7,87.7,947.2,86.7,944,86.7z"/>
		</g>
		<g>
			<path d="M268.6,167.5v20.9h-3.2v-20.9h-8v-2.9h19.1v2.9H268.6z"/>
			<path d="M286.8,173.3c-0.3-0.1-0.8-0.2-1.4-0.2c-0.9,0-1.7,0.2-2.6,0.6c-0.8,0.4-1.8,1.2-2.9,2.2v12.5h-3v-18h3v2.9
				c0.8-0.8,1.7-1.6,2.6-2.2c0.9-0.6,1.9-1,3.1-1c0.8,0,1.4,0.1,1.8,0.4L286.8,173.3z"/>
			<path d="M301,188.4v-2.3c-0.9,0.8-1.9,1.5-2.8,2c-0.9,0.5-2,0.8-3.2,0.8c-1.7,0-3.1-0.5-4-1.6c-0.9-1-1.4-2.4-1.4-4
				c0-1.2,0.2-2.3,0.7-3.1s1.2-1.5,2.1-1.9c0.9-0.5,2.3-0.8,4-1l4.5-0.4V176c0-1.4-0.4-2.3-1.2-2.8c-0.8-0.5-1.9-0.8-3.2-0.8
				c-1.2,0-2.2,0.2-2.8,0.6c-0.7,0.4-1.1,0.9-1.4,1.4l-2.4-1.5c0.6-1,1.4-1.8,2.5-2.3c1.1-0.5,2.5-0.8,4.2-0.8
				c2.6,0,4.5,0.5,5.6,1.4c1.1,0.9,1.7,2.6,1.7,4.9v12.3H301z M301,179.2l-2.9,0.3c-2,0.2-3.4,0.6-4.2,1.1c-0.8,0.6-1.2,1.5-1.2,2.6
				c0,1.1,0.3,1.8,0.8,2.3c0.5,0.5,1.4,0.7,2.4,0.7c0.5,0,0.9-0.1,1.3-0.2s0.9-0.4,1.3-0.6s0.8-0.5,1.2-0.8s0.8-0.6,1.2-0.9V179.2z"
				/>
			<path d="M321.2,188.4v-10.6c0-1.7-0.1-2.9-0.3-3.4c-0.2-0.6-0.5-1-0.8-1.2s-1-0.4-1.7-0.4c-0.8,0-1.7,0.3-2.7,0.9
				c-1,0.6-2,1.3-2.9,2.1v12.7h-3v-18h3v2.7c0.8-0.8,1.8-1.6,2.9-2.2s2.2-1,3.4-1c1.8,0,3,0.5,3.9,1.5s1.2,2.7,1.2,5v12H321.2z"/>
			<path d="M342.3,183.5c0,1.7-0.6,3-1.8,4c-1.2,1-2.9,1.4-5.1,1.4c-1.5,0-2.9-0.3-4.1-0.9c-1.2-0.6-2.1-1.4-2.6-2.4l2.4-1.4
				c0.9,1.5,2.4,2.2,4.4,2.2c1.3,0,2.3-0.2,3-0.7s1-1.2,1-2c0-0.5-0.1-0.9-0.3-1.2c-0.2-0.3-0.6-0.6-1.1-0.8c-0.5-0.2-1.5-0.6-3-1
				c-2.2-0.5-3.7-1.2-4.6-2c-0.9-0.9-1.3-2-1.3-3.5c0-1.6,0.6-2.9,1.7-3.8c1.2-1,2.8-1.4,4.8-1.4c1.6,0,2.9,0.3,4,0.9
				c1.1,0.6,1.9,1.4,2.4,2.2l-2.4,1.4c-0.9-1.4-2.3-2.1-4-2.1c-1,0-1.8,0.2-2.5,0.7s-1,1.1-1,2c0,0.8,0.3,1.4,0.9,1.8
				c0.6,0.4,1.5,0.7,2.8,1c2.1,0.5,3.5,1,4.3,1.5s1.4,1,1.7,1.7C342.1,181.6,342.3,182.5,342.3,183.5z"/>
			<path d="M355.8,165.5c-0.3-0.2-0.8-0.3-1.3-0.4c-0.5-0.1-1-0.2-1.4-0.2c-1,0-1.7,0.3-2.1,0.8c-0.4,0.5-0.6,1.5-0.6,3v1.8h4v2.5
				h-4v15.6h-3v-15.6h-2.7v-2.5h2.7v-1.8c0-2.2,0.4-3.8,1.2-4.8c0.8-1,2.3-1.5,4.4-1.5c1.3,0,2.5,0.2,3.5,0.7L355.8,165.5z"/>
			<path d="M373.1,179.4c0,3.1-0.7,5.5-2,7.1c-1.4,1.6-3.3,2.4-5.9,2.4s-4.6-0.8-6-2.4c-1.4-1.6-2.1-4-2.1-7.1
				c0-3.2,0.7-5.6,2.1-7.2c1.4-1.6,3.4-2.4,5.9-2.4c2.6,0,4.6,0.8,5.9,2.4S373.1,176.3,373.1,179.4z M370,179.4
				c0-2.5-0.4-4.2-1.2-5.3c-0.8-1.1-2-1.7-3.7-1.7c-1.7,0-2.9,0.6-3.7,1.7c-0.8,1.1-1.2,2.9-1.2,5.3c0,2.3,0.4,4.1,1.2,5.2
				s2,1.7,3.8,1.7c1.7,0,2.9-0.6,3.7-1.7C369.6,183.5,370,181.8,370,179.4z"/>
			<path d="M387.9,173.3c-0.3-0.1-0.8-0.2-1.4-0.2c-0.9,0-1.7,0.2-2.6,0.6c-0.8,0.4-1.8,1.2-2.9,2.2v12.5h-3v-18h3v2.9
				c0.8-0.8,1.7-1.6,2.6-2.2c0.9-0.6,1.9-1,3.1-1c0.8,0,1.4,0.1,1.8,0.4L387.9,173.3z"/>
			<path d="M413,188.4v-10.6c0-1.8-0.1-3-0.2-3.5s-0.4-1-0.7-1.2s-0.9-0.3-1.6-0.3c-0.6,0-1.3,0.2-2,0.6c-0.8,0.4-1.7,1.2-2.9,2.3
				v12.7h-3v-10.6c0-1.7-0.1-2.8-0.2-3.4c-0.1-0.6-0.4-1-0.7-1.3c-0.3-0.2-0.9-0.4-1.6-0.4c-0.6,0-1.4,0.3-2.3,0.8
				c-0.9,0.5-1.8,1.2-2.7,2.2v12.7h-3v-18h3v2.7c0.8-0.8,1.7-1.6,2.6-2.2c1-0.6,2-1,3.1-1c1.2,0,2.2,0.3,2.9,0.8s1.2,1.5,1.5,2.7
				c0.9-1,1.9-1.8,2.9-2.5c1-0.7,2.1-1,3.3-1c1.1,0,2,0.2,2.7,0.7c0.7,0.5,1.2,1.1,1.5,2c0.3,0.9,0.5,2.1,0.5,3.8v12H413z"/>
			<path d="M425.2,165.8c0,0.7-0.2,1.2-0.5,1.4c-0.3,0.2-0.8,0.4-1.5,0.4c-0.7,0-1.2-0.2-1.5-0.5c-0.3-0.3-0.4-0.7-0.4-1.3
				c0-0.6,0.1-1.1,0.5-1.3c0.3-0.3,0.8-0.4,1.5-0.4c0.7,0,1.2,0.1,1.5,0.4S425.2,165.2,425.2,165.8z M421.8,188.4v-18h3v18H421.8z"
				/>
			<path d="M442,188.4v-10.6c0-1.7-0.1-2.9-0.3-3.4c-0.2-0.6-0.5-1-0.8-1.2s-1-0.4-1.7-0.4c-0.8,0-1.7,0.3-2.7,0.9
				c-1,0.6-2,1.3-2.9,2.1v12.7h-3v-18h3v2.7c0.8-0.8,1.8-1.6,2.9-2.2s2.2-1,3.4-1c1.8,0,3,0.5,3.9,1.5s1.2,2.7,1.2,5v12H442z"/>
			<path d="M465.2,188c0,2.4-0.6,4.2-1.8,5.4s-3.2,1.8-6,1.8c-2.7,0-4.9-0.6-6.6-1.7l1.1-2.4c1.6,1.1,3.4,1.6,5.5,1.6
				c1.7,0,2.9-0.4,3.7-1.1s1.1-1.9,1.1-3.5v-2.1c-0.7,0.7-1.5,1.2-2.4,1.6c-0.9,0.4-2,0.7-3.1,0.7c-2.2,0-3.9-0.8-5.1-2.4
				s-1.7-3.9-1.7-6.8c0-2.9,0.7-5.2,2-6.9c1.3-1.7,3.1-2.5,5.4-2.5c1.8,0,3.5,0.7,5.1,2v-1.5h3V188z M462.2,174.4
				c-1.6-1.3-3.1-1.9-4.7-1.9c-1.5,0-2.7,0.6-3.4,1.8c-0.8,1.2-1.2,2.8-1.2,4.9c0,2.3,0.4,4,1.1,5c0.7,1,1.8,1.6,3.2,1.6
				c1.7,0,3.3-0.8,5-2.3V174.4z"/>
			<path d="M497,181.9c0,2.2-0.7,3.9-2.2,5.2c-1.5,1.2-3.6,1.8-6.5,1.8c-2.2,0-4-0.4-5.4-1.1s-2.6-1.9-3.5-3.5l2.6-1.7
				c1.4,2.4,3.4,3.6,6.3,3.6c1.7,0,3-0.4,4-1.1c1-0.7,1.5-1.7,1.5-2.9c0-0.7-0.2-1.3-0.5-1.8c-0.3-0.5-0.7-0.9-1.2-1.2
				c-0.5-0.3-1.1-0.6-1.7-0.8c-0.7-0.2-1.3-0.4-2.1-0.6c-1.2-0.3-2.3-0.6-3.3-0.9c-1-0.3-1.9-0.7-2.6-1.2c-0.7-0.5-1.3-1.1-1.8-1.8
				c-0.4-0.8-0.6-1.7-0.6-2.9c0-2.1,0.7-3.8,2.1-5c1.4-1.2,3.4-1.8,6.1-1.8c2.2,0,3.9,0.4,5.2,1.2s2.3,1.8,3.1,3.1l-2.5,1.8
				c-0.6-1-1.4-1.8-2.3-2.4c-0.9-0.6-2-0.8-3.4-0.8c-1.6,0-2.8,0.3-3.6,1c-0.9,0.7-1.3,1.6-1.3,2.7c0,0.6,0.1,1.1,0.4,1.5
				s0.6,0.8,1.1,1c0.5,0.3,1.1,0.5,1.8,0.7s1.5,0.4,2.5,0.6c1.1,0.3,2.1,0.6,3.1,0.9c1,0.3,1.8,0.7,2.6,1.2s1.3,1.2,1.7,2
				S497,180.6,497,181.9z"/>
			<path d="M513.3,188.4v-10.6c0-1.7-0.1-2.9-0.3-3.4c-0.2-0.6-0.4-1-0.8-1.2s-1-0.4-1.7-0.4c-0.8,0-1.7,0.3-2.7,0.9
				c-1,0.6-2,1.3-2.9,2.1v12.7h-3v-25.6h3V173c0.8-0.8,1.8-1.6,2.9-2.2c1.1-0.6,2.2-1,3.4-1c1.8,0,3,0.5,3.9,1.5s1.2,2.7,1.2,5v12
				H513.3z"/>
			<path d="M537.1,179.4c0,3.1-0.7,5.5-2,7.1c-1.4,1.6-3.3,2.4-5.9,2.4c-2.6,0-4.6-0.8-6-2.4c-1.4-1.6-2.1-4-2.1-7.1
				c0-3.2,0.7-5.6,2.1-7.2s3.4-2.4,5.9-2.4c2.6,0,4.6,0.8,5.9,2.4C536.5,173.9,537.1,176.3,537.1,179.4z M534.1,179.4
				c0-2.5-0.4-4.2-1.2-5.3c-0.8-1.1-2-1.7-3.7-1.7c-1.7,0-2.9,0.6-3.7,1.7c-0.8,1.1-1.2,2.9-1.2,5.3c0,2.3,0.4,4.1,1.2,5.2
				c0.8,1.1,2,1.7,3.8,1.7c1.7,0,2.9-0.6,3.7-1.7C533.7,183.5,534.1,181.8,534.1,179.4z"/>
			<path d="M557.5,179.2c0,3-0.6,5.3-1.9,7.1c-1.3,1.7-3.1,2.6-5.4,2.6c-1.8,0-3.5-0.7-5.1-2v8.3h-3v-24.8h3v1.8
				c0.7-0.7,1.5-1.2,2.5-1.6c1-0.4,2-0.7,3.1-0.7c2.2,0,3.8,0.8,5,2.4S557.5,176.2,557.5,179.2z M554.4,179.3c0-4.6-1.4-6.8-4.3-6.8
				c-0.9,0-1.9,0.2-2.7,0.7s-1.6,1-2.3,1.6v9.5c1.5,1.3,3.1,1.9,4.7,1.9c1.4,0,2.5-0.6,3.3-1.7C554,183.5,554.4,181.7,554.4,179.3z"
				/>
			<path d="M577.8,179.2c0,3-0.6,5.3-1.9,7.1c-1.3,1.7-3.1,2.6-5.4,2.6c-1.8,0-3.5-0.7-5.1-2v8.3h-3v-24.8h3v1.8
				c0.7-0.7,1.5-1.2,2.5-1.6c1-0.4,2-0.7,3.1-0.7c2.2,0,3.8,0.8,5,2.4S577.8,176.2,577.8,179.2z M574.7,179.3c0-4.6-1.4-6.8-4.3-6.8
				c-0.9,0-1.9,0.2-2.7,0.7s-1.6,1-2.3,1.6v9.5c1.5,1.3,3.1,1.9,4.7,1.9c1.4,0,2.5-0.6,3.3-1.7C574.3,183.5,574.7,181.7,574.7,179.3
				z"/>
			<path d="M586.2,165.8c0,0.7-0.2,1.2-0.5,1.4c-0.3,0.2-0.8,0.4-1.5,0.4c-0.7,0-1.2-0.2-1.5-0.5c-0.3-0.3-0.4-0.7-0.4-1.3
				c0-0.6,0.1-1.1,0.5-1.3c0.3-0.3,0.8-0.4,1.5-0.4c0.7,0,1.2,0.1,1.5,0.4C586.1,164.7,586.2,165.2,586.2,165.8z M582.8,188.4v-18h3
				v18H582.8z"/>
			<path d="M603.1,188.4v-10.6c0-1.7-0.1-2.9-0.3-3.4c-0.2-0.6-0.5-1-0.8-1.2c-0.4-0.3-1-0.4-1.7-0.4c-0.8,0-1.7,0.3-2.7,0.9
				c-1,0.6-2,1.3-2.9,2.1v12.7h-3v-18h3v2.7c0.8-0.8,1.8-1.6,2.9-2.2s2.2-1,3.4-1c1.8,0,3,0.5,3.9,1.5s1.2,2.7,1.2,5v12H603.1z"/>
			<path d="M626.2,188c0,2.4-0.6,4.2-1.8,5.4s-3.2,1.8-6,1.8c-2.7,0-4.9-0.6-6.6-1.7l1.1-2.4c1.6,1.1,3.4,1.6,5.5,1.6
				c1.7,0,2.9-0.4,3.7-1.1c0.8-0.7,1.1-1.9,1.1-3.5v-2.1c-0.7,0.7-1.5,1.2-2.4,1.6c-0.9,0.4-2,0.7-3.1,0.7c-2.2,0-3.9-0.8-5.1-2.4
				c-1.2-1.6-1.8-3.9-1.8-6.8c0-2.9,0.7-5.2,2-6.9c1.3-1.7,3.1-2.5,5.4-2.5c1.8,0,3.5,0.7,5.1,2v-1.5h3V188z M623.3,174.4
				c-1.6-1.3-3.1-1.9-4.7-1.9c-1.5,0-2.7,0.6-3.4,1.8c-0.8,1.2-1.2,2.8-1.2,4.9c0,2.3,0.4,4,1.1,5c0.7,1,1.8,1.6,3.2,1.6
				c1.7,0,3.3-0.8,5-2.3V174.4z"/>
			<path d="M650.3,188.4h-9.8v-2.7h3.3v-18.3h-3.3v-2.7h9.8v2.7H647v18.3h3.3V188.4z"/>
			<path d="M666.5,188.4v-10.6c0-1.7-0.1-2.9-0.3-3.4c-0.2-0.6-0.5-1-0.8-1.2c-0.4-0.3-1-0.4-1.7-0.4c-0.8,0-1.7,0.3-2.7,0.9
				c-1,0.6-2,1.3-2.9,2.1v12.7h-3v-18h3v2.7c0.8-0.8,1.8-1.6,2.9-2.2s2.2-1,3.4-1c1.8,0,3,0.5,3.9,1.5s1.2,2.7,1.2,5v12H666.5z"/>
			<path d="M684.3,188.4c-1.2,0.4-2.3,0.5-3.4,0.5c-1.8,0-3.2-0.5-4-1.4c-0.8-1-1.2-2.5-1.2-4.5v-10.1h-2.6v-2.5h2.6v-5h3v5h4.6v2.5
				h-4.6v9.5c0,1.5,0.1,2.5,0.4,3.1c0.3,0.6,1,0.9,2,0.9c0.9,0,1.7-0.2,2.4-0.5L684.3,188.4z"/>
			<path d="M702.5,179.4c0,3.1-0.7,5.5-2,7.1c-1.4,1.6-3.3,2.4-5.9,2.4c-2.6,0-4.6-0.8-6-2.4c-1.4-1.6-2.1-4-2.1-7.1
				c0-3.2,0.7-5.6,2.1-7.2s3.4-2.4,5.9-2.4c2.6,0,4.6,0.8,5.9,2.4C701.9,173.9,702.5,176.3,702.5,179.4z M699.5,179.4
				c0-2.5-0.4-4.2-1.2-5.3c-0.8-1.1-2-1.7-3.7-1.7c-1.7,0-2.9,0.6-3.7,1.7c-0.8,1.1-1.2,2.9-1.2,5.3c0,2.3,0.4,4.1,1.2,5.2
				c0.8,1.1,2,1.7,3.8,1.7c1.7,0,2.9-0.6,3.7-1.7C699.1,183.5,699.5,181.8,699.5,179.4z"/>
			<path d="M715,188.4l8.2-23.8h4.2l8.2,23.8h-3.4l-2.1-6.2h-9.8l-2,6.2H715z M721.3,179.3h7.8l-3.9-11.6L721.3,179.3z"/>
			<path d="M750.8,188.4v-10.6c0-1.7-0.1-2.9-0.3-3.4c-0.2-0.6-0.5-1-0.8-1.2c-0.4-0.3-1-0.4-1.7-0.4c-0.8,0-1.7,0.3-2.7,0.9
				c-1,0.6-2,1.3-2.9,2.1v12.7h-3v-18h3v2.7c0.8-0.8,1.8-1.6,2.9-2.2s2.2-1,3.4-1c1.8,0,3,0.5,3.9,1.5s1.2,2.7,1.2,5v12H750.8z"/>
			<path d="M769.3,188.4v-23.8H784v2.9h-11.4v6.9h9.8v2.9h-9.8v8.2H784v2.9H769.3z"/>
			<path d="M799,188.4l-4.2-6.9l-4.3,6.9h-3.4l6-8.9l-6-9.1h3.7l4.2,6.8l4.3-6.8h3.4l-6,8.9l6,9.1H799z"/>
			<path d="M822,179.2c0,3-0.6,5.3-1.9,7.1c-1.3,1.7-3.1,2.6-5.4,2.6c-1.8,0-3.5-0.7-5.1-2v8.3h-3v-24.8h3v1.8
				c0.7-0.7,1.5-1.2,2.5-1.6c1-0.4,2-0.7,3.1-0.7c2.2,0,3.8,0.8,5,2.4S822,176.2,822,179.2z M818.9,179.3c0-4.6-1.4-6.8-4.3-6.8
				c-0.9,0-1.9,0.2-2.7,0.7s-1.6,1-2.3,1.6v9.5c1.5,1.3,3.1,1.9,4.7,1.9c1.4,0,2.5-0.6,3.3-1.7C818.5,183.5,818.9,181.7,818.9,179.3
				z"/>
			<path d="M829.1,179.7c0,2.4,0.4,4.1,1.2,5.1c0.8,1,2.1,1.5,3.9,1.5c0.8,0,1.5-0.2,2.1-0.5s1.2-0.9,1.8-1.6l2.5,1.5
				c-0.7,1-1.5,1.8-2.5,2.4s-2.3,0.8-4,0.8c-2.7,0-4.7-0.8-6.1-2.3c-1.3-1.6-2-3.9-2-7.1c0-3.3,0.6-5.7,1.9-7.3
				c1.3-1.6,3.3-2.4,5.9-2.4c2.4,0,4.1,0.7,5.3,2c1.2,1.3,1.8,3.4,1.8,6.2v1.7H829.1z M838,177.4c0-1.6-0.4-2.9-1-3.8
				s-1.7-1.3-3.2-1.3c-1.4,0-2.5,0.4-3.2,1.2c-0.7,0.8-1.2,2.1-1.4,3.9H838z"/>
			<path d="M855.5,173.3c-0.3-0.1-0.8-0.2-1.4-0.2c-0.9,0-1.7,0.2-2.6,0.6c-0.8,0.4-1.8,1.2-2.9,2.2v12.5h-3v-18h3v2.9
				c0.8-0.8,1.7-1.6,2.6-2.2c0.9-0.6,1.9-1,3.1-1c0.8,0,1.4,0.1,1.8,0.4L855.5,173.3z"/>
			<path d="M863.2,165.8c0,0.7-0.2,1.2-0.5,1.4c-0.3,0.2-0.8,0.4-1.5,0.4c-0.7,0-1.2-0.2-1.5-0.5c-0.3-0.3-0.4-0.7-0.4-1.3
				c0-0.6,0.1-1.1,0.5-1.3c0.3-0.3,0.8-0.4,1.5-0.4c0.7,0,1.2,0.1,1.5,0.4C863,164.7,863.2,165.2,863.2,165.8z M859.7,188.4v-18h3
				v18H859.7z"/>
			<path d="M870.8,179.7c0,2.4,0.4,4.1,1.2,5.1c0.8,1,2.1,1.5,3.9,1.5c0.8,0,1.5-0.2,2.1-0.5s1.2-0.9,1.8-1.6l2.5,1.5
				c-0.7,1-1.5,1.8-2.5,2.4s-2.3,0.8-4,0.8c-2.7,0-4.7-0.8-6.1-2.3c-1.3-1.6-2-3.9-2-7.1c0-3.3,0.6-5.7,1.9-7.3
				c1.3-1.6,3.3-2.4,5.9-2.4c2.4,0,4.1,0.7,5.3,2c1.2,1.3,1.8,3.4,1.8,6.2v1.7H870.8z M879.7,177.4c0-1.6-0.4-2.9-1-3.8
				s-1.7-1.3-3.2-1.3c-1.4,0-2.5,0.4-3.2,1.2c-0.7,0.8-1.2,2.1-1.4,3.9H879.7z"/>
			<path d="M898.7,188.4v-10.6c0-1.7-0.1-2.9-0.3-3.4c-0.2-0.6-0.5-1-0.8-1.2c-0.4-0.3-1-0.4-1.7-0.4c-0.8,0-1.7,0.3-2.7,0.9
				c-1,0.6-2,1.3-2.9,2.1v12.7h-3v-18h3v2.7c0.8-0.8,1.8-1.6,2.9-2.2s2.2-1,3.4-1c1.8,0,3,0.5,3.9,1.5s1.2,2.7,1.2,5v12H898.7z"/>
			<path d="M921.1,185.6c-0.6,1-1.4,1.8-2.4,2.4c-1,0.6-2.4,0.9-4.2,0.9c-2.7,0-4.7-0.8-6-2.4c-1.4-1.6-2-4-2-7.1s0.7-5.5,2-7.1
				c1.3-1.6,3.3-2.4,5.9-2.4c3,0,5.1,1.1,6.4,3.3l-2.4,1.5c-0.5-0.7-1-1.2-1.6-1.6s-1.4-0.6-2.4-0.6c-1.7,0-3,0.6-3.7,1.9
				c-0.7,1.3-1.1,3-1.1,5.2c0,1.7,0.2,3,0.5,3.9c0.3,0.9,0.9,1.7,1.6,2.2s1.7,0.8,2.8,0.8c1,0,1.8-0.2,2.4-0.5
				c0.6-0.4,1.2-0.9,1.7-1.7L921.1,185.6z"/>
			<path d="M927.5,179.7c0,2.4,0.4,4.1,1.2,5.1c0.8,1,2.1,1.5,3.9,1.5c0.8,0,1.5-0.2,2.1-0.5s1.2-0.9,1.8-1.6l2.5,1.5
				c-0.7,1-1.5,1.8-2.5,2.4s-2.3,0.8-4,0.8c-2.7,0-4.7-0.8-6.1-2.3c-1.3-1.6-2-3.9-2-7.1c0-3.3,0.6-5.7,1.9-7.3
				c1.3-1.6,3.3-2.4,5.9-2.4c2.4,0,4.1,0.7,5.3,2c1.2,1.3,1.8,3.4,1.8,6.2v1.7H927.5z M936.4,177.4c0-1.6-0.4-2.9-1-3.8
				s-1.7-1.3-3.2-1.3c-1.4,0-2.5,0.4-3.2,1.2c-0.7,0.8-1.2,2.1-1.4,3.9H936.4z"/>
		</g>
	</g>
</g>
<g>
	<g>
		<g>
			<linearGradient id="SVGID_8_" gradientUnits="userSpaceOnUse" x1="-260.6648" y1="-188.7732" x2="30.394" y2="-188.7732">
				<stop  offset="0" style="stop-color:#002CAE"/>
				<stop  offset="1" style="stop-color:#039BE4"/>
			</linearGradient>
			<path class="st9" d="M-229.8-106.3c0.3,0.6,0.6,1.1,0.9,1.7c-0.5,0.3-0.6-0.1-0.8-0.3c-2.1-2.8-4.3-5.6-5.5-8.9
				c-0.7-1.9-1.2-3.8-2-5.6c-0.6-1.2-1.8-1.6-2.4-2.7c-6.5-12.1-9.8-25.2-12.5-38.5c-0.7-3.4-1.3-6.8-2-10.1c0,2.8,0.5,5.6,1,8.4
				c1,5.9,2.6,11.7,3.8,17.6c0.2,0.8,0.3,1.7,0.4,2.6c0,0.3,0,0.5-0.3,0.7c-0.3,0.1-0.5-0.1-0.7-0.2c-0.4-0.4-0.6-0.9-0.8-1.4
				c-2.6-7.3-4.5-14.7-4.9-22.5c0-0.1-0.1-0.3-0.1-0.5c-0.9,0.3-0.8,1.1-0.8,1.7c-0.1,4.4,0.4,8.8,1.5,13.1c2.2,8.7,5.3,17.2,9,25.4
				c0.3,0.7,0.6,1.4,0.8,2.1c0.1,0.4,0.5,1,0,1.2c-0.5,0.3-0.8-0.3-1-0.7c-1.3-2.1-2.5-4.2-3.3-6.5c-4.7-13.7-8.3-27.6-10.2-42
				c-0.5-3.5-0.6-7.1-0.8-10.6c-0.4-6.2,0.1-12.4,1-18.5c0.1-0.6,0.2-1.2,0.6-1.8c0,0.5,0.1,1.1,0,1.6c-0.7,6.9-0.2,13.6,1.2,20.4
				c0.8,3.9,1.1,7.9,1.8,11.9c-0.1-2.4-0.3-4.7-0.4-7.1c-0.3-6.6-0.7-13.2-0.3-19.8c0.3-4.4,0.5-8.9,1-13.3
				c1.5-11.9,4.8-23.1,10.4-33.7c0.2-0.4,0.4-0.9,0.9-1c2-0.4,3.1-1.9,3.9-3.5c1.9-3.9,3.9-7.7,6.1-11.4c0.1-0.1,0.1-0.3,0.2-0.4
				c0.3-0.4,0.4-0.8-0.1-1.2c-0.6-0.4-0.7,0.2-0.9,0.4c-1.1,1.4-2.2,2.8-3.2,4.2c-0.2,0.3-0.3,0.8-1.2,0.8c3.6-9.1,9.3-16.7,15-24.5
				c-0.9-0.2-1.1,0.3-1.4,0.6c-5.7,5.3-9.9,11.6-13.6,18.4c-2.9,5.4-5.4,11-8.2,16.5c-0.5,0.9-1,2.7-1.9,2.3c-1.1-0.5-0.1-2,0.2-3
				c2.9-8.2,6.9-15.8,11.5-23.1c4.8-7.6,10.2-14.7,16.9-20.7c6.3-5.6,11.7-12,18.7-16.8c6.4-4.4,13.1-8.3,20.3-11.4
				c11.3-5,23.1-8.6,34.8-12.5c2.9-1,6-1,9-1.2c4.2-0.2,8.5-0.4,12.7-0.7c0.9-0.1,1.7-0.2,2.4-0.8c0.6-0.5,1.3-0.7,2-0.7
				c5.2-0.4,10.3-0.5,15.5-0.1c3.7,0.3,7.5,0.3,11.2,0.7c7.1,0.7,14.2,2,21.1,4c10.5,2.9,20.6,7,30.3,12.2c3.6,1.9,7.1,4.1,10.5,6.5
				c3.9,2.8,7.8,5.8,12,8c4.3,2.2,6.9,5.8,10.1,9c3.1,3.2,6.1,6.5,9.1,9.8c0.2,0.2,0.4,0.3,0.6,0.3c-3.6-4.8-7.5-9.2-11.4-13.7
				c2,1,3.6,2.4,5.1,3.9c8.1,7.3,14.7,15.8,20.5,25c3.7,5.8,6.8,11.8,9.7,17.9c1.8,3.7,2.6,7.7,3.6,11.6c1.6,6.4,2.8,12.9,3.2,19.5
				c0.5,7.4,0.7,14.9-0.7,22.3c-0.3,1.6-0.4,3.2-0.4,4.8c0.3,10.9-0.5,21.7-2.7,32.4c-2.2,10.8-5.7,21.2-10.2,31.2
				c-4.7,10.3-10.6,19.9-17.6,28.7c-6.8,8.6-14.5,16.2-23.1,23.1c-6.9,5.6-14.2,10.7-21.9,15.1c-0.4,0.2-0.7,0.5-1.1,0.6
				c-6.2,1.7-11.7,4.9-17.7,6.9c-9,3.1-18.1,5.3-27.5,6.7c-9.4,1.4-18.9,1.4-28.4,1.1c-10.4-0.4-20.5-2.4-30.5-5.2
				c-11.4-3.2-22.1-8.1-32.5-13.7c-4.8-2.6-9.1-6.2-13.6-9.4c-3.8-2.7-7.3-6-10.9-9c-0.6-0.5-1.2-0.9-2-1.1c3.2,3,6.3,6,9.5,9
				c-0.1,0.1-0.3,0.3-0.4,0.4c-7-4.4-11.8-11-17.4-17c0.5-0.2,0.7,0.1,0.8,0.2c0.2,0.1,0.4,0.3,0.7,0.4
				C-221.7-95.9-225.7-101.1-229.8-106.3z"/>
			<linearGradient id="SVGID_9_" gradientUnits="userSpaceOnUse" x1="-146.393" y1="-333.3512" x2="-83.5344" y2="-333.3512">
				<stop  offset="0" style="stop-color:#002CAE"/>
				<stop  offset="1" style="stop-color:#039BE4"/>
			</linearGradient>
			<path class="st10" d="M-83.5-332.3c-10.4-0.7-20.8-2.2-31.3-1.4c-10.4,0.8-20.8,1.5-31.5,2.9c0.6-1.1,1.4-1.4,2-1.6
				c5.9-1.8,12-2.7,18.1-3.1c4.9-0.4,9.8-0.7,14.7-0.6c8.8,0.2,17.5,0.9,26.1,2.8c0.6,0.1,1.3,0.3,1.9,0.5
				C-83.5-332.5-83.5-332.4-83.5-332.3z"/>
			<linearGradient id="SVGID_10_" gradientUnits="userSpaceOnUse" x1="-242.982" y1="-110.1909" x2="-229.8702" y2="-110.1909">
				<stop  offset="0" style="stop-color:#002CAE"/>
				<stop  offset="1" style="stop-color:#039BE4"/>
			</linearGradient>
			<path class="st11" d="M-229.9-97.6c-5.4-7.8-10.7-15.7-13.1-25.1C-238.7-114.3-233.1-106.6-229.9-97.6z"/>
			<linearGradient id="SVGID_11_" gradientUnits="userSpaceOnUse" x1="-176.6327" y1="-324.7419" x2="-155.8998" y2="-324.7419">
				<stop  offset="0" style="stop-color:#002CAE"/>
				<stop  offset="1" style="stop-color:#039BE4"/>
			</linearGradient>
			<path class="st12" d="M-176.6-321.1c6.8-3.2,13.6-5.4,20.7-7.3C-157-326.2-174.2-320.1-176.6-321.1z"/>
			<linearGradient id="SVGID_12_" gradientUnits="userSpaceOnUse" x1="-197.2946" y1="-64.8537" x2="-187.4979" y2="-64.8537">
				<stop  offset="0" style="stop-color:#002CAE"/>
				<stop  offset="1" style="stop-color:#039BE4"/>
			</linearGradient>
			<path class="st13" d="M-187.8-61.4c-3.4-1.9-8.3-1.7-9.5-6.9c3.3,2.2,6.5,4.3,9.8,6.5C-187.6-61.7-187.7-61.5-187.8-61.4z"/>
			<linearGradient id="SVGID_13_" gradientUnits="userSpaceOnUse" x1="-173.1006" y1="-50.8397" x2="-163.317" y2="-50.8397">
				<stop  offset="0" style="stop-color:#002CAE"/>
				<stop  offset="1" style="stop-color:#039BE4"/>
			</linearGradient>
			<path class="st14" d="M-173.1-52.8c3.4,0.8,6.5,2.4,9.8,3.8C-165.6-48.3-170.1-50.7-173.1-52.8z"/>
			<linearGradient id="SVGID_14_" gradientUnits="userSpaceOnUse" x1="-188.143" y1="-61.854" x2="-180.2259" y2="-61.854">
				<stop  offset="0" style="stop-color:#002CAE"/>
				<stop  offset="1" style="stop-color:#039BE4"/>
			</linearGradient>
			<path class="st15" d="M-180.2-59.3c-2.9-1.3-5.4-2.9-7.9-5.2C-186.1-64.1-183.5-62.4-180.2-59.3z"/>
		</g>
		<g>
			<path class="st7" d="M-218.4-185.7c-0.1-3.4,1.8-6,5-7.1c2.7-0.9,5.4-2.1,8.2-3c3.2-1.1,6.4-2.4,9.6-3.5c2.3-0.8,4.6-1.7,6.8-2.6
				c2.1-0.9,4.3-1.5,6.4-2.3c1.6-0.6,3.3-1.2,4.9-1.8c2.3-0.9,4.6-1.7,6.9-2.5c3.3-1.2,6.5-2.4,9.8-3.6c2.8-1,5.7-2.1,8.5-3.1
				c2.5-0.8,5-1.9,7.5-2.8c2.8-1.1,5.7-2,8.5-3.1c4.3-1.6,8.6-3.1,12.9-4.8c2.7-1.1,5.6-1.9,8.4-3c2.1-0.8,4.2-1.6,6.3-2.4
				c1.8-0.7,3.6-1.3,5.4-2c2.6-1,5.3-1.9,7.9-2.9c2.8-1,5.6-2.1,8.4-3.1c2.2-0.8,4.5-1.7,6.7-2.6c2.7-1,5.4-1.9,8-2.9
				c2.9-1,5.7-2.1,8.6-3.2c2.7-1,5.3-2,8-2.9c2.7-0.9,5.3-1.9,8.1-2.7c2.7-0.7,5.3-1.7,8-2.5c2.2-0.7,4.4-1.5,6.6-1.9
				c4.4-0.9,8.3,2,9.6,5.2c1.2,3,0.6,5.7-0.7,8.5c-2.5,5.3-4.9,10.6-7.4,15.9c-2.2,4.7-4.5,9.4-6.6,14.1c-3.8,8.5-8,16.9-11.7,25.5
				c-1.9,4.3-4.1,8.5-6,12.8c-2.3,5.1-4.7,10.3-7.1,15.4c-2.9,6.1-5.6,12.3-8.5,18.4c-2.4,4.9-4.5,9.9-6.8,14.8
				c-2.6,5.5-5.2,11.1-7.8,16.6c-0.9,1.8-1.6,3.7-2.5,5.5c-0.7,1.4-1.7,2.6-3.1,3.4c-2.3,1.3-5.9,1-8.2-0.6
				c-2.7-1.9-5.4-3.6-8.2-5.4c-2.9-1.9-5.9-3.9-8.8-5.8c-3.1-2.1-6.3-4.2-9.4-6.3c-7-4.6-13.9-9.2-20.9-13.7
				c-1.1-0.7-1.7-1.7-2.1-2.8c-0.6-1.7,1-4.8,3.4-5.1c1.6-0.2,2.8,0.4,4,1.2c2.6,1.7,5.1,3.5,7.7,5.2c3.8,2.5,7.7,5,11.5,7.5
				c5.4,3.5,10.7,7.2,16.1,10.7c2.6,1.7,5.1,3.6,7.8,5.1c0.7,0.4,1.4,0.9,2,1.4c0.6,0.5,1,0.3,1.3-0.4c1.1-2.5,2.3-5,3.4-7.5
				c1.6-3.5,3.3-7,4.9-10.5c2.3-5,4.6-10,6.9-14.9c2.7-5.8,5.4-11.6,8.1-17.4c3.1-6.6,6.2-13.2,9.2-19.9c2.3-5,4.7-9.9,7-14.9
				c3.8-8.5,7.9-16.9,11.7-25.4c1.9-4.3,4-8.5,6-12.7c2.2-4.7,4.2-9.4,6.5-14.1c0.1-0.3,0.4-0.6,0.1-0.9c-0.3-0.3-0.7-0.2-1-0.1
				c-1.8,0.6-3.7,1.2-5.5,1.8c-1.6,0.5-3.2,1-4.9,1.5c-2.2,0.7-4.3,1.4-6.5,2.1c-2.5,0.7-4.9,1.6-7.3,2.5c-3.2,1.2-6.4,2.4-9.6,3.5
				c-2.8,1-5.6,2-8.3,3.1c-2.3,0.9-4.5,1.8-6.8,2.6c-2.7,0.9-5.3,1.9-7.9,2.9c-2.9,1-5.8,2.2-8.7,3.2c-2.7,1-5.3,2-8,2.9
				c-2.1,0.7-4.2,1.6-6.3,2.4c-2.4,0.9-4.8,1.7-7.1,2.5c-1.6,0.6-3.2,1.2-4.8,1.8c-2.9,1.1-5.8,2-8.6,3.1c-3.7,1.5-7.5,2.7-11.2,4.2
				c-3.2,1.3-6.4,2.2-9.6,3.5c-4.1,1.6-8.4,3-12.5,4.7c-3.1,1.2-6.4,2.3-9.5,3.5c-4.2,1.6-8.4,3-12.6,4.7c-2.3,0.9-4.7,1.7-7,2.5
				c-2.1,0.8-4.2,1.6-6.3,2.3c-1.8,0.7-3.7,1.4-5.5,2c-0.3,0.1-0.8,0.2-0.8,0.5c-0.1,0.4,0.4,0.5,0.6,0.7
				c5.9,3.9,11.8,7.8,17.7,11.7c1.4,0.9,2.9,1.7,3.8,3.1c1,1.6,0.8,3.5-0.6,5.1c-1.2,1.3-3.2,1.8-4.8,1c-1.5-0.7-2.9-1.8-4.3-2.7
				c-3-2-6-4-9-6c-3.7-2.5-7.5-5-11.2-7.6C-217.5-181.5-218.5-183.4-218.4-185.7z"/>
			<path class="st7" d="M-164.5-123.9c0-2.1-0.1-4.2,0-6.3c0.1-2.3,0.3-4.7,0.5-7c0.1-1.2,0-2.4,0-3.6c0.2-3,0.6-6,0.5-9.1
				c0-0.5,0.3-0.9,0.7-1.2c4.4-3.2,8.6-6.6,12.9-9.9c2.7-2,5.3-4.2,8-6.3c4.4-3.4,8.8-6.8,13.2-10.1c3-2.3,6-4.7,9-7
				c6.3-4.8,12.5-9.7,18.8-14.6c4.7-3.7,9.6-7.3,14.3-11c1.6-1.2,3.1-2.5,4.7-3.7c0.9-0.7,1.9-0.6,2.6,0.2c0.8,0.9,0.6,1.9-0.5,2.8
				c-2.5,2-5,4-7.6,5.9c-4.6,3.5-9.2,7-13.8,10.6c-3.6,2.8-7.1,5.6-10.7,8.4c-5.7,4.4-11.6,8.8-17.3,13.3
				c-5.4,4.3-10.9,8.3-16.3,12.6c-4.4,3.4-8.7,6.8-13.2,10.2c-1.2,0.9-1.7,1.9-1.4,3.3c0.2,0.8-0.1,1.6-0.1,2.5
				c-0.1,1.8-0.4,3.6-0.3,5.4c0.1,2-0.2,3.9-0.3,5.8c-0.1,1.9-0.2,3.9-0.3,5.8c-0.1,2.1-0.2,4.3-0.3,6.4c0,0.9-0.1,1.8-0.2,2.7
				c-0.1,0.9-1.1,2-2,2.1c-1.3,0.2-2.5-0.3-3.1-1.4c-0.6-1.1-0.8-2.4-1.2-3.6c-0.5-1.6-1.1-3.2-1.5-4.9c-0.4-1.6-0.8-3.2-1.4-4.7
				c-0.9-2.5-1.6-5.1-2.3-7.7c-0.9-2.9-1.8-5.9-2.6-8.8c-0.4-1.7-1-3.3-1.6-5c-0.5-1.5-0.8-3-1.3-4.5c-0.3-1-0.6-1.9-0.9-2.9
				c-0.3-1,0.2-2,1.2-2.4c0.9-0.3,1.7,0,2.1,1.1c0.6,1.5,1.1,3,1.5,4.5c0.6,2.3,1.3,4.5,2,6.7c0.5,1.7,1,3.4,1.5,5.1
				c0.8,2.5,1.4,5.1,2.3,7.6c0.7,2.1,1.2,4.3,1.9,6.4c0.7,2.1,1.1,4.3,2,6.4C-164.7-123.9-164.6-123.9-164.5-123.9z"/>
		</g>
		<g>
			<path class="st8" d="M147.8-167.2c0,8.8-2.3,16.7-6.8,23.5s-11,12.2-19.5,16c-8.5,3.8-18.5,5.7-29.9,5.7c-9.5,0-17.6-0.7-24-2
				c-6.5-1.3-13.2-3.6-20.2-7v-34.3c7.4,3.8,15.1,6.7,23,8.8c8,2.1,15.3,3.2,22,3.2c5.8,0,10-1,12.7-3c2.7-2,4-4.5,4-7.6
				c0-1.9-0.5-3.6-1.6-5.1c-1.1-1.5-2.8-2.9-5.2-4.4c-2.4-1.5-8.7-4.5-19.1-9.1c-9.4-4.2-16.4-8.3-21-12.3c-4.7-4-8.1-8.5-10.4-13.6
				c-2.3-5.1-3.4-11.2-3.4-18.2c0-13.1,4.8-23.3,14.4-30.6c9.6-7.3,22.8-11,39.6-11c14.8,0,30,3.4,45.4,10.2l-11.9,29.7
				c-13.4-6.1-25-9.1-34.7-9.1c-5,0-8.7,0.9-11,2.6c-2.3,1.8-3.4,3.9-3.4,6.5c0,2.8,1.5,5.3,4.4,7.5c2.9,2.2,10.8,6.2,23.7,12.1
				c12.4,5.5,20.9,11.4,25.7,17.8C145.4-184.8,147.8-176.8,147.8-167.2z"/>
			<path class="st8" d="M221.3-122c-18.5,0-32.9-4.9-43.1-14.6c-10.2-9.8-15.3-23.7-15.3-41.7c0-18.6,4.7-32.9,14.2-42.9
				c9.5-10,23-14.9,40.6-14.9c16.7,0,29.7,4.3,38.8,13c9.1,8.7,13.7,21.1,13.7,37.4v16.9h-68.6c0.3,6.2,2.5,11,6.8,14.5
				c4.3,3.5,10.1,5.3,17.5,5.3c6.7,0,12.9-0.6,18.6-1.9c5.7-1.3,11.8-3.4,18.4-6.5v27.3c-6,3-12.2,5.2-18.6,6.3
				C237.9-122.6,230.2-122,221.3-122z M219.1-210.3c-4.5,0-8.3,1.4-11.3,4.2s-4.8,7.2-5.3,13.3h33c-0.1-5.3-1.7-9.6-4.6-12.7
				C227.9-208.7,224-210.3,219.1-210.3z"/>
			<path class="st8" d="M330.2-124h-38.3v-151.4h38.3V-124z"/>
			<path class="st8" d="M395.1-124h-38.3v-151.4h38.3V-124z"/>
			<path class="st8" d="M475.4-122c-18.5,0-32.9-4.9-43.1-14.6c-10.2-9.8-15.3-23.7-15.3-41.7c0-18.6,4.7-32.9,14.2-42.9
				c9.5-10,23-14.9,40.6-14.9c16.7,0,29.7,4.3,38.8,13c9.1,8.7,13.7,21.1,13.7,37.4v16.9h-68.6c0.3,6.2,2.5,11,6.8,14.5
				c4.3,3.5,10.1,5.3,17.5,5.3c6.7,0,12.9-0.6,18.6-1.9c5.7-1.3,11.8-3.4,18.4-6.5v27.3c-6,3-12.2,5.2-18.6,6.3
				C491.9-122.6,484.3-122,475.4-122z M473.1-210.3c-4.5,0-8.3,1.4-11.3,4.2c-3,2.8-4.8,7.2-5.3,13.3h33c-0.1-5.3-1.7-9.6-4.6-12.7
				C481.9-208.7,478-210.3,473.1-210.3z"/>
			<path class="st8" d="M613-236.2c3.3,0,6.5,0.3,9.5,0.8l2.2,0.4l-3.4,35.9c-3.1-0.8-7.5-1.2-13-1.2c-8.4,0-14.5,1.9-18.2,5.7
				c-3.8,3.8-5.7,9.3-5.7,16.4v54.2h-38.3v-110.2h28.5l6,17.6h1.9c3.2-5.8,7.7-10.6,13.4-14.2C601.4-234.4,607.2-236.2,613-236.2z"
				/>
			<path class="st8" d="M706.3-236.8c-9.2,0-16.4,3.7-21.6,11.2c-5.2,7.5-7.7,17.8-7.7,31c0,27.4,10.5,41.1,31.5,41.1
				c6.3,0,12.5-0.9,18.4-2.6c5.9-1.8,11.9-3.9,17.9-6.3v32.5c-12,5.3-25.5,7.9-40.6,7.9c-21.6,0-38.2-6.2-49.8-18.7
				c-11.5-12.5-17.3-30.5-17.3-54c0-14.7,2.8-27.7,8.4-38.8c5.6-11.2,13.6-19.7,24.1-25.7c10.5-6,22.8-9,37-9
				c15.5,0,30.3,3.3,44.4,10L739.2-228c-5.3-2.5-10.6-4.5-15.9-6.2C718-235.9,712.3-236.8,706.3-236.8z"/>
			<path class="st8" d="M769.7-261.7c0-5.7,1.6-10,4.8-12.7c3.2-2.8,8.4-4.2,15.5-4.2c7.1,0,12.3,1.4,15.6,4.3
				c3.3,2.9,4.9,7.1,4.9,12.6c0,11.2-6.8,16.7-20.5,16.7C776.5-244.9,769.7-250.5,769.7-261.7z M809-124h-38.3v-110.2H809V-124z"/>
			<path class="st8" d="M902.9-236.2c3.3,0,6.5,0.3,9.5,0.8l2.2,0.4l-3.4,35.9c-3.1-0.8-7.5-1.2-13-1.2c-8.4,0-14.5,1.9-18.2,5.7
				c-3.8,3.8-5.7,9.3-5.7,16.4v54.2h-38.3v-110.2h28.5l6,17.6h1.9c3.2-5.8,7.7-10.6,13.4-14.2C891.3-234.4,897.1-236.2,902.9-236.2z
				"/>
			<path class="st8" d="M980.7-122c-18.2,0-32-4.9-41.3-14.6c-9.4-9.7-14.1-23.7-14.1-41.9c0-18.3,5.1-32.5,15.2-42.5
				c10.1-10.1,24.6-15.1,43.3-15.1c12.9,0,25,2.8,36.4,8.4l-11.3,28.1c-4.6-2-8.9-3.6-12.8-4.8c-3.9-1.2-8-1.8-12.3-1.8
				c-6.2,0-11,2.4-14.4,7.2c-3.4,4.8-5.1,11.6-5.1,20.3c0,17.6,6.6,26.5,19.7,26.5c11.2,0,22-3.2,32.4-9.7v30.3
				C1006.4-125.3,994.5-122,980.7-122z"/>
			<path class="st8" d="M1076.7-124h-38.3v-151.4h38.3V-124z"/>
			<path class="st8" d="M1156.9-122c-18.5,0-32.9-4.9-43.1-14.6c-10.2-9.8-15.3-23.7-15.3-41.7c0-18.6,4.7-32.9,14.2-42.9
				c9.5-10,23-14.9,40.6-14.9c16.7,0,29.7,4.3,38.8,13c9.1,8.7,13.7,21.1,13.7,37.4v16.9h-68.6c0.3,6.2,2.5,11,6.8,14.5
				c4.3,3.5,10.1,5.3,17.5,5.3c6.7,0,12.9-0.6,18.6-1.9c5.7-1.3,11.8-3.4,18.4-6.5v27.3c-6,3-12.2,5.2-18.6,6.3
				C1173.5-122.6,1165.8-122,1156.9-122z M1154.7-210.3c-4.5,0-8.3,1.4-11.3,4.2c-3,2.8-4.8,7.2-5.3,13.3h33
				c-0.1-5.3-1.7-9.6-4.6-12.7C1163.5-208.7,1159.6-210.3,1154.7-210.3z"/>
		</g>
		<text transform="matrix(1.008 0 0 1 98.8049 -54.0099)" style="font-family:'ClearSans'; font-size:54.0656px;">Transforming Shopping Into An Experience</text>
	</g>
</g>
</svg>
