
<svg width="295" height="61" viewBox="0 0 295 61" fill="none" xmlns="http://www.w3.org/2000/svg">
<path d="M83.8562 33.6317C83.8562 35.3618 83.4126 36.8924 82.5253 38.2233C81.638 39.5542 80.3737 40.5968 78.71 41.3509C77.0464 42.0829 75.0944 42.46 72.854 42.46C70.9908 42.46 69.4159 42.3269 68.1515 42.0607C66.8871 41.7946 65.5562 41.3509 64.2031 40.7077V34.0088C65.6449 34.7408 67.1533 35.3175 68.706 35.7389C70.2588 36.1604 71.7006 36.36 73.0093 36.36C74.1406 36.36 74.9613 36.1604 75.4937 35.7833C76.026 35.4062 76.27 34.896 76.27 34.2971C76.27 33.92 76.1591 33.5873 75.9595 33.2989C75.7377 33.0106 75.4049 32.7222 74.9391 32.4339C74.4733 32.1455 73.2311 31.5466 71.2126 30.6371C69.3715 29.8164 68.0184 29.0179 67.0868 28.2415C66.1773 27.4651 65.4897 26.5779 65.046 25.5797C64.6024 24.5815 64.3806 23.3837 64.3806 22.0084C64.3806 19.4353 65.3122 17.4389 67.1977 16.0193C69.0831 14.5775 71.6562 13.8677 74.9613 13.8677C77.8671 13.8677 80.8173 14.5331 83.8562 15.864L81.5271 21.6757C78.9097 20.4779 76.6471 19.879 74.7395 19.879C73.7635 19.879 73.0315 20.0564 72.5879 20.3891C72.1442 20.7219 71.9224 21.1655 71.9224 21.6757C71.9224 22.2302 72.2108 22.7182 72.7875 23.1397C73.3642 23.5611 74.8948 24.3597 77.4235 25.4909C79.8413 26.5779 81.5271 27.7313 82.4588 28.9735C83.3904 30.1935 83.8562 31.7462 83.8562 33.6317Z" fill="white"/>
<path d="M98.2522 42.4601C94.6366 42.4601 91.8195 41.5063 89.8232 39.5987C87.8268 37.691 86.8286 34.9627 86.8286 31.4358C86.8286 27.798 87.7602 25.003 89.6013 23.051C91.4646 21.099 94.1042 20.123 97.5424 20.123C100.825 20.123 103.354 20.966 105.129 22.674C106.903 24.3598 107.813 26.7998 107.813 29.994V33.299H94.3926C94.437 34.4968 94.8806 35.4507 95.7235 36.1383C96.5664 36.8259 97.6977 37.1587 99.1395 37.1587C100.448 37.1587 101.668 37.0256 102.777 36.7816C103.886 36.5376 105.084 36.1161 106.371 35.5172V40.863C105.195 41.462 103.975 41.8834 102.733 42.1052C101.491 42.3492 99.9824 42.4601 98.2522 42.4601ZM97.8086 25.1805C96.9213 25.1805 96.1893 25.4467 95.5904 26.0012C94.9915 26.5558 94.6366 27.4209 94.5479 28.5965H101.003C100.981 27.554 100.67 26.7332 100.116 26.1121C99.5388 25.491 98.7624 25.1805 97.8086 25.1805Z" fill="white"/>
<path d="M119.547 42.0827H112.049V12.4478H119.547V42.0827Z" fill="white"/>
<path d="M132.258 42.0827H124.76V12.4478H132.258V42.0827Z" fill="white"/>
<path d="M147.962 42.4601C144.346 42.4601 141.529 41.5063 139.533 39.5987C137.536 37.691 136.538 34.9627 136.538 31.4358C136.538 27.798 137.47 25.003 139.311 23.051C141.174 21.099 143.814 20.123 147.252 20.123C150.535 20.123 153.064 20.966 154.838 22.674C156.613 24.3598 157.522 26.7998 157.522 29.994V33.299H144.102C144.146 34.4968 144.59 35.4507 145.433 36.1383C146.276 36.8259 147.407 37.1587 148.849 37.1587C150.158 37.1587 151.378 37.0256 152.487 36.7816C153.596 36.5376 154.794 36.1161 156.08 35.5172V40.863C154.905 41.462 153.685 41.8834 152.442 42.1052C151.2 42.3492 149.692 42.4601 147.962 42.4601ZM147.518 25.1805C146.631 25.1805 145.899 25.4467 145.3 26.0012C144.701 26.5558 144.346 27.4209 144.257 28.5965H150.712C150.69 27.554 150.38 26.7332 149.825 26.1121C149.248 25.491 148.472 25.1805 147.518 25.1805Z" fill="white"/>
<path d="M174.89 20.123C175.533 20.123 176.155 20.1674 176.753 20.2783L177.175 20.3449L176.509 27.3765C175.888 27.2212 175.045 27.1547 173.959 27.1547C172.317 27.1547 171.141 27.5318 170.387 28.2638C169.655 28.9958 169.278 30.0827 169.278 31.4801V42.083H161.781V20.5001H167.371L168.546 23.9383H168.901C169.522 22.7849 170.409 21.8754 171.519 21.1656C172.628 20.478 173.759 20.123 174.89 20.123Z" fill="white"/>
<path d="M197.05 20.0122C195.253 20.0122 193.834 20.7442 192.836 22.2082C191.815 23.6722 191.327 25.6908 191.327 28.2639C191.327 33.6319 193.39 36.2937 197.494 36.2937C198.736 36.2937 199.934 36.1162 201.109 35.7835C202.263 35.4508 203.439 35.0293 204.614 34.5413V40.9075C202.263 41.9279 199.623 42.4602 196.673 42.4602C192.436 42.4602 189.198 41.2402 186.935 38.8002C184.673 36.3602 183.542 32.8333 183.542 28.2417C183.542 25.3581 184.096 22.8293 185.183 20.6333C186.27 18.4595 187.845 16.7737 189.908 15.5981C191.971 14.4224 194.366 13.8457 197.161 13.8457C200.2 13.8457 203.084 14.489 205.856 15.7977L203.527 21.7202C202.485 21.2322 201.464 20.833 200.422 20.5002C199.357 20.1675 198.248 20.0122 197.05 20.0122Z" fill="white"/>
<path d="M209.472 15.1322C209.472 14.0231 209.783 13.1802 210.404 12.6479C211.025 12.0933 212.045 11.8271 213.443 11.8271C214.84 11.8271 215.861 12.1155 216.504 12.6701C217.147 13.2246 217.458 14.0453 217.458 15.1544C217.458 17.3282 216.127 18.4373 213.443 18.4373C210.781 18.4151 209.472 17.306 209.472 15.1322ZM217.169 42.0831H209.672V20.5002H217.169V42.0831Z" fill="white"/>
<path d="M235.535 20.123C236.179 20.123 236.8 20.1674 237.398 20.2783L237.82 20.3449L237.155 27.3765C236.533 27.2212 235.691 27.1547 234.604 27.1547C232.962 27.1547 231.787 27.5318 231.032 28.2638C230.3 28.9958 229.923 30.0827 229.923 31.4801V42.083H222.426V20.5001H228.016L229.191 23.9383H229.546C230.167 22.7849 231.055 21.8754 232.164 21.1656C233.273 20.478 234.382 20.123 235.535 20.123Z" fill="white"/>
<path d="M250.752 42.4601C247.203 42.4601 244.497 41.5063 242.656 39.5987C240.815 37.691 239.905 34.9627 239.905 31.3914C239.905 27.8201 240.903 25.0474 242.878 23.0732C244.852 21.099 247.691 20.123 251.351 20.123C253.88 20.123 256.253 20.6776 258.471 21.7645L256.253 27.2656C255.344 26.8663 254.501 26.5558 253.747 26.334C252.97 26.09 252.172 25.979 251.351 25.979C250.131 25.979 249.199 26.4449 248.534 27.3987C247.869 28.3303 247.536 29.6612 247.536 31.3692C247.536 34.8296 248.822 36.5598 251.395 36.5598C253.591 36.5598 255.699 35.9165 257.739 34.6521V40.5747C255.787 41.8169 253.458 42.4601 250.752 42.4601Z" fill="white"/>
<path d="M269.541 42.0827H262.043V12.4478H269.541V42.0827Z" fill="white"/>
<path d="M285.245 42.4601C281.629 42.4601 278.812 41.5063 276.816 39.5987C274.819 37.691 273.821 34.9627 273.821 31.4358C273.821 27.798 274.753 25.003 276.594 23.051C278.457 21.099 281.097 20.123 284.535 20.123C287.818 20.123 290.347 20.966 292.121 22.674C293.896 24.3598 294.805 26.7998 294.805 29.994V33.299H281.385C281.43 34.4968 281.873 35.4507 282.716 36.1383C283.559 36.8259 284.69 37.1587 286.132 37.1587C287.441 37.1587 288.661 37.0256 289.77 36.7816C290.879 36.5376 292.077 36.1161 293.363 35.5172V40.863C292.188 41.462 290.968 41.8834 289.726 42.1052C288.483 42.3492 286.997 42.4601 285.245 42.4601ZM284.801 25.1805C283.914 25.1805 283.182 25.4467 282.583 26.0012C281.984 26.5558 281.629 27.4209 281.541 28.5965H287.995C287.973 27.554 287.663 26.7332 287.108 26.1121C286.531 25.491 285.755 25.1805 284.801 25.1805Z" fill="white"/>
<path d="M6.06468 44.9446C6.13123 45.0555 6.17559 45.1664 6.24213 45.2773C6.15341 45.3217 6.10904 45.2552 6.08686 45.2108C5.68759 44.6562 5.24395 44.1239 4.99995 43.4806C4.86686 43.1257 4.75595 42.7486 4.60068 42.3937C4.48977 42.1497 4.24577 42.0832 4.13486 41.8613C2.84832 39.4879 2.20504 36.937 1.67268 34.3195C1.53959 33.6541 1.42868 32.9886 1.27341 32.3453C1.27341 32.8999 1.38432 33.4323 1.47304 33.9868C1.67268 35.1403 1.98323 36.2715 2.22723 37.425C2.27159 37.5803 2.27159 37.7577 2.29377 37.9351C2.29377 37.9795 2.29377 38.0461 2.24941 38.0682C2.20504 38.0904 2.16068 38.0461 2.11632 38.0239C2.02759 37.9352 1.98323 37.8464 1.96105 37.7355C1.45086 36.3159 1.07377 34.8519 1.00723 33.3213C1.00723 33.2992 1.00723 33.2548 0.985046 33.2326C0.807591 33.2992 0.829772 33.4544 0.829772 33.5653C0.807591 34.4304 0.9185 35.2955 1.11814 36.1384C1.56177 37.8464 2.16068 39.4879 2.8705 41.1072C2.93704 41.2402 2.98141 41.3733 3.02577 41.5286C3.04795 41.6173 3.1145 41.7061 3.02577 41.7726C2.91486 41.817 2.8705 41.7061 2.82613 41.6395C2.58213 41.2402 2.33814 40.8188 2.18286 40.3751C1.27341 37.6911 0.563591 34.9628 0.186501 32.1679C0.0977733 31.4802 0.0755913 30.7926 0.0312277 30.0828C-0.0574995 28.8628 0.0534098 27.665 0.230864 26.4672C0.253046 26.3563 0.275228 26.2453 0.341773 26.1122C0.341773 26.2232 0.341773 26.3341 0.341773 26.445C0.186501 27.7981 0.297409 29.1068 0.585773 30.4377C0.741045 31.1919 0.80759 31.9904 0.940681 32.7668C0.918499 32.301 0.874137 31.8352 0.851955 31.3693C0.807592 30.0828 0.696682 28.7962 0.785409 27.5097C0.851955 26.6446 0.874137 25.7573 0.985046 24.8922C1.27341 22.5632 1.91668 20.3672 3.02577 18.3042C3.07013 18.2377 3.09232 18.1268 3.20323 18.1046C3.58032 18.0159 3.82432 17.7275 3.95741 17.417C4.31232 16.6628 4.73377 15.9086 5.15522 15.1766C5.17741 15.1544 5.17741 15.1323 5.19959 15.1101C5.26613 15.0213 5.26613 14.9548 5.17741 14.8883C5.0665 14.7995 5.04432 14.9104 4.99995 14.977C4.77813 15.2432 4.5785 15.5315 4.35668 15.7977C4.31232 15.8643 4.29013 15.953 4.13486 15.953C4.8225 14.1563 5.95377 12.6701 7.08504 11.1617C6.90759 11.1174 6.88541 11.2283 6.81886 11.2726C5.70977 12.293 4.86686 13.5352 4.15704 14.8661C3.58032 15.9308 3.09232 17.0177 2.53777 18.0824C2.44904 18.2599 2.36032 18.6148 2.16068 18.5483C1.93886 18.4595 2.1385 18.149 2.20505 17.9715C2.78177 16.3744 3.55814 14.8661 4.44541 13.4464C5.37704 11.9603 6.44177 10.5628 7.7505 9.38717C8.9705 8.30026 10.0352 7.03589 11.4105 6.10425C12.6749 5.23916 13.9836 4.48499 15.381 3.8639C17.5992 2.8879 19.9061 2.20026 22.1908 1.4239C22.7676 1.22426 23.3665 1.22426 23.9654 1.20208C24.7861 1.15772 25.629 1.11336 26.4498 1.06899C26.6272 1.06899 26.7825 1.04681 26.9156 0.913719C27.0265 0.824992 27.1596 0.78062 27.2927 0.78062C28.313 0.714075 29.3112 0.691898 30.3316 0.758444C31.0636 0.802807 31.7956 0.824984 32.5276 0.891529C33.925 1.02462 35.3003 1.2908 36.6534 1.66789C38.7163 2.24462 40.6905 3.04317 42.5759 4.04135C43.2857 4.41844 43.9734 4.8399 44.6167 5.30571C45.393 5.83808 46.1472 6.43699 46.9679 6.85844C47.8108 7.27989 48.321 7.98972 48.9421 8.61081C49.5632 9.2319 50.1399 9.87517 50.7388 10.5184C50.761 10.5628 50.8054 10.585 50.8719 10.585C50.1843 9.65335 49.4079 8.76608 48.6537 7.90099C49.0308 8.10062 49.3414 8.38898 49.6519 8.65516C51.2268 10.097 52.5356 11.7384 53.6668 13.5352C54.3766 14.6664 54.9977 15.8421 55.5745 17.0399C55.9072 17.7497 56.0847 18.5483 56.2843 19.3246C56.5948 20.589 56.8166 21.8533 56.9276 23.1399C57.0385 24.6039 57.0606 26.0457 56.7723 27.5097C56.7057 27.8202 56.6836 28.1308 56.7057 28.4635C56.7723 30.593 56.5948 32.7002 56.1734 34.8075C55.7297 36.9148 55.0643 38.9555 54.177 40.9075C53.2454 42.9261 52.1141 44.7893 50.7167 46.5195C49.3857 48.2053 47.8774 49.6915 46.1916 51.0446C44.8385 52.1315 43.4188 53.1297 41.9105 53.9948C41.8439 54.0391 41.7774 54.0835 41.7108 54.1057C40.513 54.4384 39.4261 55.0595 38.2505 55.4588C36.4981 56.0577 34.7014 56.5013 32.8825 56.7675C31.0414 57.0337 29.1781 57.0559 27.337 56.9893C25.3185 56.9228 23.3221 56.5235 21.3701 55.969C19.1298 55.3479 17.0447 54.3941 15.0261 53.285C14.0723 52.7748 13.2294 52.065 12.3643 51.4439C11.6101 50.9115 10.9447 50.2682 10.2349 49.6693C10.1239 49.5806 10.013 49.4919 9.85777 49.4475C10.4789 50.0242 11.0999 50.6231 11.721 51.1999C11.6989 51.2221 11.6767 51.2442 11.6545 51.2886C10.2792 50.4235 9.34759 49.137 8.2385 47.9613C8.3494 47.917 8.37159 47.9835 8.39377 48.0057C8.43813 48.0279 8.46031 48.0722 8.52686 48.0722C7.66177 47.0075 6.86322 45.9871 6.06468 44.9446Z" fill="white"/>
<path d="M34.7013 0.736361C32.6606 0.603271 30.6199 0.314904 28.5791 0.470177C26.5384 0.62545 24.4977 0.780717 22.4126 1.0469C22.5235 0.825081 22.6788 0.780725 22.8119 0.736361C23.9653 0.381453 25.1631 0.226169 26.361 0.11526C27.3148 0.0487146 28.2908 -0.0178308 29.2446 0.00435102C30.9526 0.0487146 32.6606 0.181805 34.3464 0.558896C34.4795 0.581078 34.5904 0.625447 34.7235 0.647629C34.7013 0.691992 34.7013 0.71418 34.7013 0.736361Z" fill="url(#paint0_linear_428_2059)"/>
<path d="M6.06479 46.6524C5.00006 45.1219 3.9797 43.5691 3.4917 41.728C4.33461 43.3917 5.42152 44.9 6.06479 46.6524Z" fill="url(#paint1_linear_428_2059)"/>
<path d="M16.4683 2.90988C17.7992 2.28878 19.1301 1.84514 20.5275 1.49023C20.3057 1.93387 16.9563 3.10951 16.4683 2.90988Z" fill="url(#paint2_linear_428_2059)"/>
<path d="M14.2934 53.751C13.628 53.3739 12.6742 53.4183 12.4302 52.3979C13.0734 52.8194 13.7167 53.2408 14.3378 53.6623C14.3378 53.6845 14.3156 53.7289 14.2934 53.751Z" fill="url(#paint3_linear_428_2059)"/>
<path d="M17.1553 55.4365C17.8207 55.5918 18.4196 55.9024 19.0629 56.1685C18.6193 56.3016 17.7542 55.858 17.1553 55.4365Z" fill="url(#paint4_linear_428_2059)"/>
<path d="M15.7798 54.1722C15.2252 53.9282 14.7151 53.5955 14.2271 53.1519C14.6041 53.2184 15.1365 53.5511 15.7798 54.1722Z" fill="url(#paint5_linear_428_2059)"/>
<path d="M8.30442 29.4173C8.28223 28.7518 8.65932 28.2416 9.28041 28.0198C9.81278 27.8424 10.3451 27.5984 10.8775 27.4209C11.5208 27.1991 12.1197 26.9551 12.763 26.7333C13.2066 26.578 13.6502 26.4005 14.0939 26.2231C14.5153 26.0456 14.9368 25.9347 15.3582 25.7795C15.6688 25.6685 16.0015 25.5355 16.312 25.4246C16.7557 25.2471 17.2215 25.0918 17.6651 24.9365C18.3084 24.6925 18.9295 24.4707 19.5728 24.2267C20.1273 24.0271 20.6819 23.8053 21.2364 23.6278C21.7244 23.4725 22.2124 23.2507 22.7004 23.0733C23.255 22.8736 23.8095 22.674 24.364 22.4522C25.207 22.1195 26.0499 21.8533 26.8928 21.5205C27.4251 21.2987 28.0019 21.1435 28.5342 20.9438C28.9335 20.7885 29.3549 20.6333 29.7764 20.478C30.1313 20.3449 30.4862 20.2118 30.8411 20.1009C31.3513 19.9013 31.8837 19.7238 32.3939 19.5242C32.9484 19.3245 33.5029 19.1249 34.0353 18.9253C34.4789 18.77 34.9226 18.5925 35.344 18.4151C35.8764 18.2155 36.3866 18.038 36.9189 17.8605C37.4735 17.6609 38.0502 17.4391 38.6048 17.2395C39.1371 17.0398 39.6473 16.8624 40.1797 16.6849C40.712 16.5075 41.2222 16.3078 41.7546 16.1526C42.2869 15.9973 42.7971 15.8198 43.3073 15.6646C43.7288 15.5315 44.1724 15.3762 44.616 15.2875C45.4811 15.11 46.2353 15.6867 46.4793 16.3078C46.7011 16.8845 46.6124 17.4169 46.3462 17.9715C45.8582 18.9918 45.3924 20.0344 44.9044 21.0769C44.4829 22.0085 44.0171 22.918 43.6179 23.8496C42.8637 25.5133 42.0651 27.1547 41.3109 28.8405C40.9338 29.6834 40.5124 30.5042 40.1353 31.3471C39.6695 32.3453 39.2259 33.3656 38.7379 34.3416C38.1611 35.5395 37.6509 36.7373 37.0742 37.9351C36.6084 38.8889 36.1869 39.8649 35.7433 40.8187C35.2331 41.9056 34.7229 42.9925 34.2128 44.0573C34.0353 44.4122 33.9022 44.7893 33.7248 45.1442C33.5917 45.4325 33.392 45.6543 33.1259 45.8096C32.66 46.0758 31.9724 46.0093 31.5288 45.6987C31.0186 45.3216 30.464 44.9889 29.9317 44.634C29.3549 44.2569 28.7782 43.8798 28.2015 43.4805C27.5804 43.0813 26.9815 42.6598 26.3604 42.2605C25.0073 41.3733 23.632 40.4638 22.279 39.5765C22.0793 39.4434 21.9462 39.2438 21.8575 39.022C21.7466 38.6893 22.0571 38.0904 22.523 38.0238C22.8335 37.9794 23.0775 38.0904 23.2993 38.2456C23.8095 38.5784 24.2975 38.9333 24.8077 39.266C25.5619 39.754 26.316 40.242 27.048 40.73C28.0906 41.4176 29.1331 42.1274 30.1979 42.8151C30.708 43.1478 31.196 43.5249 31.7284 43.8133C31.8615 43.8798 31.9946 43.9907 32.1277 44.1016C32.2608 44.2125 32.3273 44.1682 32.3717 44.0351C32.5935 43.5471 32.8153 43.0591 33.0371 42.5711C33.3477 41.8834 33.6804 41.1958 33.9909 40.5082C34.4346 39.5322 34.8782 38.5562 35.344 37.5802C35.8764 36.4489 36.4088 35.3176 36.9189 34.1642C37.5179 32.8554 38.1389 31.5689 38.7157 30.2602C39.1593 29.2842 39.6473 28.3304 40.0909 27.3544C40.8451 25.6907 41.6437 24.0493 42.3757 22.3856C42.7528 21.5427 43.152 20.722 43.5513 19.9013C43.9728 18.9918 44.372 18.0602 44.8157 17.1507C44.8378 17.1064 44.8822 17.0398 44.8378 16.9733C44.7935 16.9289 44.7048 16.9289 44.6382 16.9511C44.2833 17.062 43.9284 17.1951 43.5735 17.306C43.2629 17.4169 42.9302 17.5056 42.6197 17.6166C42.1982 17.7496 41.7768 17.8827 41.3553 18.0158C40.8673 18.1711 40.4015 18.3264 39.9357 18.5038C39.3146 18.7478 38.6935 18.9696 38.0502 19.1915C37.4957 19.3911 36.9633 19.5907 36.4088 19.7904C35.9651 19.9678 35.5215 20.1453 35.0779 20.3005C34.5455 20.478 34.0353 20.6776 33.5251 20.8551C32.9484 21.0547 32.3939 21.2766 31.8171 21.4762C31.2848 21.6536 30.7746 21.8755 30.2422 22.0529C29.8208 22.186 29.4215 22.3635 29.0222 22.5187C28.5564 22.6962 28.0906 22.8515 27.6248 23.0067C27.3142 23.1176 27.0037 23.2507 26.6931 23.3616C26.1386 23.5613 25.5619 23.7609 25.0073 23.9827C24.2753 24.2711 23.5433 24.5151 22.8113 24.8035C22.1902 25.0475 21.547 25.2471 20.9259 25.4911C20.1051 25.8016 19.2844 26.09 18.4859 26.4005C17.8648 26.6445 17.2437 26.8442 16.6226 27.0882C15.8019 27.3987 14.9811 27.6871 14.1604 27.9976C13.7168 28.1751 13.251 28.3304 12.7851 28.4856C12.3637 28.6409 11.9644 28.7962 11.543 28.9514C11.188 29.0845 10.8331 29.2176 10.456 29.3507C10.3895 29.3729 10.3008 29.3951 10.3008 29.4616C10.2786 29.5504 10.3673 29.5725 10.4339 29.5947C11.5873 30.3489 12.7408 31.1253 13.8942 31.8795C14.1604 32.0569 14.4488 32.2122 14.6262 32.5005C14.8259 32.8111 14.7815 33.1882 14.5153 33.4987C14.2935 33.7649 13.8942 33.8536 13.5837 33.6984C13.2953 33.5653 13.0291 33.3434 12.7408 33.166C12.1419 32.7889 11.5651 32.3896 10.9662 31.9904C10.2342 31.5024 9.50223 31.0144 8.77023 30.5042C8.48187 30.238 8.28223 29.8609 8.30442 29.4173Z" fill="black"/>
<path d="M18.8627 41.5284C18.8627 41.1069 18.8405 40.7076 18.8627 40.2862C18.8849 39.8204 18.9292 39.3767 18.9514 38.9109C18.9736 38.6669 18.9514 38.4451 18.9514 38.2011C18.9958 37.6022 19.0623 37.0255 19.0402 36.4266C19.0402 36.3157 19.1067 36.2491 19.1732 36.2047C20.0383 35.5837 20.8591 34.9182 21.702 34.2749C22.2343 33.8756 22.7445 33.4542 23.2769 33.0549C24.142 32.3895 25.0071 31.724 25.85 31.0807C26.4489 30.6149 27.0256 30.1491 27.6023 29.7055C28.8445 28.7738 30.0645 27.82 31.2845 26.8662C32.2161 26.1342 33.1478 25.4244 34.0794 24.7146C34.39 24.4706 34.7005 24.2266 35.0111 23.9826C35.1885 23.8495 35.3881 23.8495 35.5212 24.0269C35.6765 24.2044 35.6321 24.404 35.4325 24.5593C34.9445 24.9364 34.4565 25.3357 33.9463 25.7127C33.0369 26.4004 32.1496 27.088 31.2401 27.7978C30.5303 28.3302 29.8427 28.8847 29.1551 29.4393C28.0238 30.3044 26.8925 31.1473 25.7834 32.0346C24.7187 32.8775 23.654 33.676 22.5892 34.4967C21.7463 35.1622 20.8812 35.8276 20.0162 36.4931C19.7722 36.6705 19.6834 36.8702 19.75 37.1364C19.7722 37.2916 19.7278 37.4469 19.7278 37.6244C19.7056 37.9793 19.6612 38.3342 19.6612 38.6891C19.6834 39.0662 19.6391 39.4433 19.6169 39.8204C19.5947 40.1975 19.5725 40.5745 19.5503 40.9516C19.5282 41.3731 19.5282 41.7946 19.506 42.216C19.506 42.3935 19.4838 42.5709 19.4616 42.7484C19.4394 42.9258 19.2398 43.1254 19.0845 43.1698C18.8405 43.2142 18.5965 43.1033 18.4856 42.8815C18.3525 42.6596 18.3303 42.4156 18.2638 42.1716C18.1529 41.8611 18.0642 41.5284 17.9754 41.2178C17.8867 40.9073 17.8202 40.5967 17.7092 40.2862C17.5318 39.7982 17.3987 39.288 17.2656 38.7778C17.0882 38.2011 16.9107 37.6244 16.7554 37.0476C16.6667 36.7149 16.5558 36.4044 16.4449 36.0716C16.3562 35.7833 16.2896 35.4949 16.2009 35.2066C16.1343 35.0069 16.09 34.8295 16.0234 34.6298C15.9569 34.4302 16.0678 34.2305 16.2452 34.164C16.4227 34.0975 16.578 34.164 16.6445 34.3858C16.7554 34.6742 16.8663 34.9625 16.9329 35.2731C17.0438 35.7167 17.1991 36.1604 17.31 36.5818C17.3987 36.9146 17.5096 37.2473 17.6205 37.58C17.7758 38.068 17.9089 38.5782 18.0642 39.0662C18.1972 39.4654 18.3082 39.9091 18.4412 40.3084C18.5743 40.7298 18.6409 41.1513 18.8183 41.5506C18.8183 41.5284 18.8405 41.5284 18.8627 41.5284Z" fill="black"/>
<path d="M77.3785 49.8687C79.5967 49.8687 80.6836 51.133 80.6836 52.6636C80.6836 53.7726 80.0847 54.9483 78.5319 55.3254L80.8388 59.185H79.0199L76.8683 55.4585H75.6927V59.185H74.1621V49.8687H77.3785ZM77.3785 51.1108H75.6927V54.2385H77.3785C78.5763 54.2385 79.1087 53.573 79.1087 52.6636C79.1087 51.7319 78.5763 51.1108 77.3785 51.1108Z" fill="white"/>
<path d="M85.8077 59.318C83.7004 59.318 82.1255 57.8097 82.1255 55.5028C82.1255 53.1737 83.6338 51.6875 85.8077 51.6875C87.9149 51.6875 89.4011 53.1515 89.4011 55.3253C89.4011 55.5693 89.3789 55.8133 89.3568 56.0795H83.7226C83.8335 57.2995 84.6986 58.0315 85.8298 58.0315C86.7615 58.0315 87.2938 57.5657 87.5822 56.989H89.2237C88.78 58.2755 87.6266 59.318 85.8077 59.318ZM83.7226 54.8373H87.804C87.7818 53.7061 86.8724 52.9741 85.7411 52.9741C84.7208 52.9741 83.8778 53.6617 83.7226 54.8373Z" fill="white"/>
<path d="M93.593 59.318C91.8185 59.318 90.5763 58.2755 90.5098 56.9224H92.0847C92.129 57.5213 92.7058 58.0315 93.5487 58.0315C94.4359 58.0315 94.9018 57.6544 94.9018 57.1442C94.9018 55.7024 90.6207 56.5231 90.6207 53.8169C90.6207 52.6413 91.7298 51.6875 93.4599 51.6875C95.1458 51.6875 96.2327 52.5748 96.3214 54.061H94.7909C94.7465 53.4177 94.2363 52.9741 93.4156 52.9741C92.5949 52.9741 92.1734 53.3068 92.1734 53.7948C92.1734 55.281 96.3436 54.4602 96.4323 57.122C96.4101 58.3642 95.3232 59.318 93.593 59.318Z" fill="white"/>
<path d="M101.246 59.318C99.1384 59.318 97.5635 57.8097 97.5635 55.5028C97.5635 53.1737 99.0718 51.6875 101.246 51.6875C103.353 51.6875 104.839 53.1515 104.839 55.3253C104.839 55.5693 104.817 55.8133 104.795 56.0795H99.1606C99.2715 57.2995 100.137 58.0315 101.268 58.0315C102.199 58.0315 102.732 57.5657 103.02 56.989H104.662C104.218 58.2755 103.042 59.318 101.246 59.318ZM99.1606 54.8373H103.242C103.22 53.7061 102.31 52.9741 101.179 52.9741C100.137 52.9741 99.3158 53.6617 99.1606 54.8373Z" fill="white"/>
<path d="M109.321 51.6875C110.563 51.6875 111.428 52.2864 111.872 52.8853V51.8206H113.403V59.2071H111.872V58.098C111.406 58.7191 110.519 59.318 109.277 59.318C107.369 59.318 105.816 57.7431 105.816 55.4806C105.816 53.1959 107.369 51.6875 109.321 51.6875ZM109.632 53.0184C108.5 53.0184 107.391 53.8835 107.391 55.4806C107.391 57.0777 108.5 58.0093 109.632 58.0093C110.785 58.0093 111.872 57.1221 111.872 55.525C111.872 53.9057 110.785 53.0184 109.632 53.0184Z" fill="white"/>
<path d="M116.951 59.1852H115.42V51.7986H116.951V52.8634C117.372 52.1314 118.127 51.6655 119.169 51.6655V53.2404H118.77C117.639 53.2404 116.951 53.7063 116.951 55.2812V59.1852Z" fill="white"/>
<path d="M123.672 51.6875C125.491 51.6875 126.667 52.5748 127.066 54.1497H125.425C125.181 53.4399 124.582 52.9741 123.672 52.9741C122.43 52.9741 121.632 53.8835 121.632 55.5028C121.632 57.1221 122.452 58.0315 123.672 58.0315C124.582 58.0315 125.136 57.6322 125.425 56.8559H127.066C126.645 58.2977 125.469 59.318 123.672 59.318C121.565 59.318 120.057 57.8097 120.057 55.5028C120.057 53.1959 121.565 51.6875 123.672 51.6875Z" fill="white"/>
<path d="M128.618 49.27H130.149V52.6638C130.659 52.0428 131.48 51.6878 132.433 51.6878C134.075 51.6878 135.361 52.7748 135.361 54.8377V59.1853H133.853V55.0595C133.853 53.7064 133.121 53.0188 132.012 53.0188C130.881 53.0188 130.149 53.7064 130.149 55.0595V59.1853H128.618V49.27Z" fill="white"/>
<path d="M142.726 48.4492V60.6936H141.195V48.4492H142.726Z" fill="white"/>
<path d="M157.211 52.5529H155.37C154.882 51.6213 153.995 51.1555 152.886 51.1555C151.045 51.1555 149.692 52.4642 149.692 54.5271C149.692 56.5678 151.023 57.8987 152.886 57.8987C154.572 57.8987 155.636 56.8784 155.858 55.3035H152.353V54.0835H157.5V55.2813C157.211 57.4329 155.392 59.274 152.886 59.274C150.268 59.274 148.117 57.322 148.117 54.5049C148.117 51.71 150.246 49.7358 152.886 49.7358C154.816 49.758 156.501 50.734 157.211 52.5529Z" fill="white"/>
<path d="M160.516 59.1852H158.985V51.7986H160.516V52.8634C160.937 52.1314 161.692 51.6655 162.734 51.6655V53.2404H162.335C161.204 53.2404 160.516 53.7063 160.516 55.2812V59.1852Z" fill="white"/>
<path d="M167.348 59.318C165.241 59.318 163.644 57.8097 163.644 55.5028C163.644 53.1737 165.308 51.6875 167.415 51.6875C169.522 51.6875 171.186 53.1737 171.186 55.5028C171.186 57.8097 169.456 59.318 167.348 59.318ZM167.348 57.9871C168.48 57.9871 169.611 57.1664 169.611 55.5028C169.611 53.817 168.524 53.0184 167.393 53.0184C166.239 53.0184 165.197 53.817 165.197 55.5028C165.197 57.1664 166.195 57.9871 167.348 57.9871Z" fill="white"/>
<path d="M171.829 51.7988H173.381L174.912 57.7436L176.487 51.7988H178.084L179.592 57.6992L181.123 51.7988H182.631L180.346 59.1854H178.727L177.241 53.7287L175.755 59.1854H174.136L171.829 51.7988Z" fill="white"/>
<path d="M184.007 53.0408H183.142V51.7986H184.007V49.9575H185.537V51.7986H187.334V53.0408H185.537V57.1222C185.537 57.6768 185.759 57.8986 186.402 57.8986H187.334V59.163H186.136C184.827 59.163 184.007 58.6084 184.007 57.1222V53.0408Z" fill="white"/>
<path d="M188.753 49.27H190.283V52.6638C190.794 52.0428 191.614 51.6878 192.568 51.6878C194.21 51.6878 195.496 52.7748 195.496 54.8377V59.1853H193.988V55.0595C193.988 53.7064 193.256 53.0188 192.147 53.0188C191.015 53.0188 190.283 53.7064 190.283 55.0595V59.1853H188.753V49.27Z" fill="white"/>
<path d="M202.861 48.4492V60.6936H201.331V48.4492H202.861Z" fill="white"/>
<path d="M214.374 57.2776H210.47L209.804 59.1852H208.207L211.534 49.8467H213.309L216.636 59.1852H215.017L214.374 57.2776ZM212.422 51.7099L210.891 56.0354H213.93L212.422 51.7099Z" fill="white"/>
<path d="M221.205 51.6875C223.024 51.6875 224.2 52.5748 224.599 54.1497H222.958C222.714 53.4399 222.115 52.9741 221.205 52.9741C219.963 52.9741 219.165 53.8835 219.165 55.5028C219.165 57.1221 219.985 58.0315 221.205 58.0315C222.115 58.0315 222.669 57.6322 222.958 56.8559H224.599C224.178 58.2977 223.002 59.318 221.205 59.318C219.098 59.318 217.59 57.8097 217.59 55.5028C217.59 53.1959 219.098 51.6875 221.205 51.6875Z" fill="white"/>
<path d="M229.257 51.6875C231.076 51.6875 232.252 52.5748 232.651 54.1497H231.01C230.766 53.4399 230.167 52.9741 229.257 52.9741C228.015 52.9741 227.217 53.8835 227.217 55.5028C227.217 57.1221 228.037 58.0315 229.257 58.0315C230.167 58.0315 230.721 57.6322 231.01 56.8559H232.651C232.23 58.2977 231.054 59.318 229.257 59.318C227.15 59.318 225.642 57.8097 225.642 55.5028C225.642 53.1959 227.128 51.6875 229.257 51.6875Z" fill="white"/>
<path d="M237.376 59.318C235.269 59.318 233.694 57.8097 233.694 55.5028C233.694 53.1737 235.202 51.6875 237.376 51.6875C239.483 51.6875 240.969 53.1515 240.969 55.3253C240.969 55.5693 240.947 55.8133 240.925 56.0795H235.291C235.402 57.2995 236.267 58.0315 237.398 58.0315C238.33 58.0315 238.862 57.5657 239.151 56.989H240.792C240.348 58.2755 239.173 59.318 237.376 59.318ZM235.269 54.8373H239.35C239.328 53.7061 238.419 52.9741 237.287 52.9741C236.267 52.9741 235.446 53.6617 235.269 54.8373Z" fill="white"/>
<path d="M242.455 49.27H243.986V59.1853H242.455V49.27Z" fill="white"/>
<path d="M249.177 59.318C247.07 59.318 245.495 57.8097 245.495 55.5028C245.495 53.1737 247.004 51.6875 249.177 51.6875C251.285 51.6875 252.771 53.1515 252.771 55.3253C252.771 55.5693 252.749 55.8133 252.726 56.0795H247.092C247.203 57.2995 248.068 58.0315 249.199 58.0315C250.131 58.0315 250.663 57.5657 250.952 56.989H252.593C252.15 58.2755 250.996 59.318 249.177 59.318ZM247.092 54.8373H251.174C251.151 53.7061 250.242 52.9741 249.111 52.9741C248.068 52.9741 247.247 53.6617 247.092 54.8373Z" fill="white"/>
<path d="M255.808 59.1852H254.278V51.7986H255.808V52.8634C256.23 52.1314 256.984 51.6655 258.027 51.6655V53.2404H257.627C256.496 53.2404 255.808 53.7063 255.808 55.2812V59.1852Z" fill="white"/>
<path d="M262.397 51.6875C263.639 51.6875 264.505 52.2864 264.948 52.8853V51.8206H266.501V59.2071H264.948V58.098C264.482 58.7191 263.595 59.318 262.353 59.318C260.445 59.318 258.893 57.7431 258.893 55.4806C258.915 53.1959 260.445 51.6875 262.397 51.6875ZM262.708 53.0184C261.577 53.0184 260.467 53.8835 260.467 55.4806C260.467 57.0777 261.577 58.0093 262.708 58.0093C263.861 58.0093 264.948 57.1221 264.948 55.525C264.948 53.9057 263.861 53.0184 262.708 53.0184Z" fill="white"/>
<path d="M268.741 53.0408H267.876V51.7986H268.741V49.9575H270.272V51.7986H272.068V53.0408H270.272V57.1222C270.272 57.6768 270.493 57.8986 271.137 57.8986H272.068V59.163H270.871C269.562 59.163 268.741 58.6084 268.741 57.1222V53.0408Z" fill="white"/>
<path d="M276.682 59.318C274.575 59.318 273 57.8097 273 55.5028C273 53.1737 274.508 51.6875 276.682 51.6875C278.789 51.6875 280.276 53.1515 280.276 55.3253C280.276 55.5693 280.253 55.8133 280.231 56.0795H274.597C274.708 57.2995 275.573 58.0315 276.704 58.0315C277.636 58.0315 278.168 57.5657 278.457 56.989H280.098C279.655 58.2755 278.479 59.318 276.682 59.318ZM274.575 54.8373H278.656C278.634 53.7061 277.725 52.9741 276.593 52.9741C275.573 52.9741 274.752 53.6617 274.575 54.8373Z" fill="white"/>
<defs>
<linearGradient id="paint0_linear_428_2059" x1="22.3917" y1="0.526689" x2="34.6933" y2="0.526689" gradientUnits="userSpaceOnUse">
<stop stop-color="#002CAE"/>
<stop offset="1" stop-color="#039BE4"/>
</linearGradient>
<linearGradient id="paint1_linear_428_2059" x1="3.48902" y1="44.1997" x2="6.05505" y2="44.1997" gradientUnits="userSpaceOnUse">
<stop stop-color="#002CAE"/>
<stop offset="1" stop-color="#039BE4"/>
</linearGradient>
<linearGradient id="paint2_linear_428_2059" x1="16.474" y1="2.21126" x2="20.5315" y2="2.21126" gradientUnits="userSpaceOnUse">
<stop stop-color="#002CAE"/>
<stop offset="1" stop-color="#039BE4"/>
</linearGradient>
<linearGradient id="paint3_linear_428_2059" x1="12.4294" y1="53.0729" x2="14.3467" y2="53.0729" gradientUnits="userSpaceOnUse">
<stop stop-color="#002CAE"/>
<stop offset="1" stop-color="#039BE4"/>
</linearGradient>
<linearGradient id="paint4_linear_428_2059" x1="17.1647" y1="55.8151" x2="19.0793" y2="55.8151" gradientUnits="userSpaceOnUse">
<stop stop-color="#002CAE"/>
<stop offset="1" stop-color="#039BE4"/>
</linearGradient>
<linearGradient id="paint5_linear_428_2059" x1="14.2206" y1="53.6597" x2="15.77" y2="53.6597" gradientUnits="userSpaceOnUse">
<stop stop-color="#002CAE"/>
<stop offset="1" stop-color="#039BE4"/>
</linearGradient>
</defs>
</svg>
