<?xml version="1.0" encoding="utf-8"?>
<!-- Generator: Adobe Illustrator 19.2.1, SVG Export Plug-In . SVG Version: 6.00 Build 0)  -->
<svg version="1.1" id="Layer_1" xmlns="http://www.w3.org/2000/svg" xmlns:xlink="http://www.w3.org/1999/xlink" x="0px" y="0px"
	 viewBox="0 0 494 56" style="enable-background:new 0 0 494 56;" xml:space="preserve">
<style type="text/css">
	.st0{fill:#231F20;}
</style>
<g>
	<path class="st0" d="M61.5,1.5c-1.1,0.1-2.4,0.2-3.8,0.2c-1.5,0-3.2-0.1-4.7-0.2c-1.2-0.1-2.1-0.2-2.8-0.2h-0.2V3h0.2
		c2.6,0,3.9,1.2,3.9,3.5v44c0,2.4-1.3,3.6-3.9,3.6h-0.2v1.6h0.2c0.7,0,1.7-0.1,2.9-0.2c1.5-0.1,3.2-0.2,4.7-0.2
		c1.5,0,2.8,0.1,3.9,0.2c0.9,0.1,1.6,0.2,2.3,0.2h0.2v-1.6h-0.2c-2.6,0-3.9-1.2-3.9-3.5v-44c0-2.4,1.3-3.6,3.9-3.6h0.2V1.4h-0.2
		C63.2,1.4,62.4,1.4,61.5,1.5"/>
	<path class="st0" d="M36.8,48.6c-1.1,2-2.5,4.5-7.5,4.5H12.8c-2,0-2.7-0.7-2.7-2.4v-44c0-2.4,1.3-3.6,3.9-3.6h0.2V1.6H14
		c-0.7,0-1.5,0.1-2.4,0.2C10.5,1.9,9.2,2,7.8,2C6.3,2,4.4,1.9,2.8,1.8c-1.3-0.1-2.3-0.1-3-0.1h-0.2v1.6h0.2c2.6,0,3.9,1.2,3.9,3.5
		v44c0,2.4-1.3,3.6-3.9,3.6h-0.2v1.6h0.2c0.5,0,1.1,0,2.1-0.1c2.3-0.1,6.2-0.3,12.3-0.3h2.5c5.3,0,16.3,0.2,18.2,0.4l0.2,0l3.4-7.1
		L37,48.3L36.8,48.6z"/>
	<path class="st0" d="M123.5,1.5c-0.9,0.1-2,0.2-3.6,0.2c-1.5,0-2.4-0.1-3.3-0.2c-0.8-0.1-1.6-0.2-2.6-0.2h-0.2V3h0.2
		c1.7,0,2.9,0.4,3.4,1c0.2,0.4,0.2,0.8,0,1.4l-16.3,39.1L85.6,5.3c-0.3-0.7-0.3-1.3-0.1-1.6C85.9,3.2,86.6,3,87.8,3H88V1.4h-0.2
		c-0.6,0-1.3,0.1-2.2,0.1c-1.2,0.1-2.6,0.2-4.5,0.2c-1.6,0-2.9-0.1-4.1-0.2c-1-0.1-1.8-0.2-2.6-0.2h-0.2V3h0.2c2.7,0,4.3,0.8,5,2.5
		l20.2,50.4l0.1,0.1h0.9l20.1-50.6c0.7-1.7,2.3-2.5,5.1-2.5h0.2V1.4h-0.2C125,1.4,124.3,1.5,123.5,1.5"/>
	<path class="st0" d="M145.4,1.5c-1.1,0.1-2.4,0.2-3.8,0.2c-1.5,0-3.2-0.1-4.7-0.2c-1.2-0.1-2.1-0.2-2.8-0.2h-0.2V3h0.2
		c2.6,0,3.9,1.2,3.9,3.5v44c0,2.4-1.3,3.6-3.9,3.6h-0.2v1.6h0.2c0.7,0,1.7-0.1,2.9-0.2c1.5-0.1,3.2-0.2,4.7-0.2
		c1.5,0,2.8,0.1,3.9,0.2c0.9,0.1,1.6,0.2,2.3,0.2h0.2v-1.6h-0.2c-2.6,0-3.9-1.2-3.9-3.5v-44c0-2.4,1.3-3.6,3.9-3.6h0.2V1.4h-0.2
		C147.1,1.4,146.3,1.4,145.4,1.5"/>
	<path class="st0" d="M212.1,1.5c-1,0.1-2.2,0.2-3.5,0.2c-1.2,0-2.3-0.1-3.4-0.2c-0.9-0.1-1.8-0.2-2.7-0.2h-0.2V3h0.2
		c2.2,0,3.9,0.2,3.9,3v37.6l-35-38.1l-0.1,0c-0.6-0.4-1.1-0.9-1.4-1.6l0-0.1l-0.1,0c-0.8-0.6-1.6-1.4-2.1-2l-0.1-0.1l-0.1,0
		c-1.2,0-2.2,0.1-3,0.1c-2.2,0-3.6-0.1-4.8-0.2c-1-0.1-2-0.2-3.3-0.2h-0.2V3h0.2c2.1,0,5,0,9.9,6.2v41.3c0,3.3-1.6,3.6-3.9,3.6h-0.2
		v1.6h0.2c0.9,0,1.8-0.1,2.9-0.2c1.1-0.1,2.2-0.2,3.2-0.2c1.2,0,2.3,0.1,3.4,0.2c1,0.1,1.9,0.2,2.7,0.2h0.2v-1.6h-0.2
		c-2.9,0-4.7-0.6-4.7-3.6V12.3L208.5,56l0.1,0.1h1.4V6.3c0-2.2,1.6-3.3,4.7-3.3h0.2V1.4h-0.2C213.8,1.4,213,1.5,212.1,1.5"/>
	<path class="st0" d="M266.7,30.3c-1.1,0.1-2.4,0.2-3.8,0.2c-1.5,0-2.8-0.1-4-0.2c-0.9-0.1-1.6-0.2-2.3-0.2h-0.2v1.6h0.2
		c2.6,0,3.9,1.2,3.9,3.6v12.9c0,2-0.4,2.8-2.7,3.8c-2.7,1.2-5.5,1.2-8.4,1.1l-0.8,0c-12.7,0-20.3-9.2-20.3-24.7
		c0-15.4,7.4-24.2,20.2-24.2c9,0,14.5,1.9,17.3,6.1l0.1,0.1h1.1V5.2l-0.1-0.1C261.2,2.3,255.6,1,248.9,1c-16.2,0-28,11.6-28,27.5
		c0,15.9,11.6,27.5,27.5,27.5c6.6,0,12.8-1.4,18.3-4.1l0.1-0.1v-1.6l-0.3,0.1c-0.4,0.1-0.7,0.1-0.9,0c-0.3-0.2-0.5-1-0.5-2.1V35.3
		c0-2.4,1.3-3.6,3.9-3.6h0.2v-1.6h-0.2C268.4,30.2,267.6,30.3,266.7,30.3"/>
	<path class="st0" d="M341.5,48.4c-1.1,2-2.5,4.5-7.5,4.5h-16.5c-2,0-2.7-0.7-2.7-2.4v-44c0-2.4,1.3-3.6,3.9-3.6h0.2V1.4h-0.2
		c-0.7,0-1.5,0.1-2.4,0.2c-1.1,0.1-2.4,0.2-3.8,0.2c-1.5,0-3.4-0.1-5.1-0.2c-1.3-0.1-2.3-0.2-3-0.2h-0.2V3h0.2
		c2.6,0,3.9,1.2,3.9,3.5v44c0,2.4-1.3,3.6-3.9,3.6h-0.2v1.6h0.2c0.5,0,1.1,0,2.1-0.1c2.3-0.1,6.2-0.3,12.3-0.3h2.5
		c5.3,0,16.3,0.2,18.2,0.4l0.2,0l3.4-7.1l-1.5-0.5L341.5,48.4z"/>
	<path class="st0" d="M398.1,1.5c-1.1,0.1-2.4,0.2-3.8,0.2c-1.5,0-3.3-0.1-4.9-0.2c-1.2-0.1-2.2-0.2-2.9-0.2h-0.2V3h0.2
		c2.6,0,3.9,1.2,3.9,3.6V45c-5.1,4.9-10.2,7.1-16,7.1c-9.3,0-14.6-5.7-14.6-15.5V6.5c0-2.4,1.3-3.6,3.9-3.6h0.2V1.4h-0.2
		c-0.7,0-1.4,0.1-2.2,0.2c-1,0.1-2.1,0.2-3.5,0.2c-1.5,0-3.1-0.1-4.4-0.2c-1-0.1-1.9-0.2-2.6-0.2h-0.2V3h0.2c2.6,0,3.9,1.2,3.9,3.6
		v31.1c0,11.2,7,18.4,17.9,18.4c8.3,0,13.8-4.3,17.6-8.2v7.8l0.3,0c1.1-0.2,3.6-0.4,5.4-0.4c1,0,1.8,0.1,2.6,0.2
		c0.6,0.1,1.2,0.2,1.8,0.2h0.2v-1.6h-0.2c-2.6,0-3.9-1.2-3.9-3.5v-44c0-2.4,1.3-3.6,3.9-3.6h0.2V1.4h-0.2
		C399.8,1.4,399,1.4,398.1,1.5"/>
	<path class="st0" d="M448.1,49.8l-13.2-25.2l8.2-17.5c1.4-2.7,3.9-4.1,7.3-4.1h0.2V1.4h-0.2c-0.6,0-1.3,0-2.1,0
		c-1.1,0-2.5,0.1-4.3,0.1c-1.5,0-2.9,0-4.1-0.1c-1,0-2-0.1-2.8-0.1h-0.2V3h0.2c1.5,0,3.2,0.1,3.7,0.9c0.3,0.5,0.2,1.4-0.4,2.6
		l-6.8,15.2l-7.5-14.8c0-0.1-0.1-0.2-0.1-0.3l-2.5-5l-1.8,0c0,0-2.5,0-3.6,0c-1.6,0-3.2,0-4.6-0.1c-1,0-1.9,0-2.6,0h-0.2V3h0.4
		c1.6,0,5.8,0,7.5,3.3l10.7,20.9l-12,22.6c-2,3.9-5.8,4.3-7.4,4.3h-0.2v1.6h0.2c0.7,0,1.5-0.1,2.3-0.2c1-0.1,2.1-0.2,3.4-0.2
		c1.4,0,2.6,0.1,3.8,0.2c1.2,0.1,2.5,0.2,3.8,0.2h0.2v-1.6h-0.2c-1.5,0-3.2-0.1-3.7-0.9c-0.3-0.5-0.2-1.4,0.4-2.5l11.2-20.7
		l10.3,20.2c2.7,5.2,2.7,5.2,2.9,5.2c0.2,0,0.3,0,0.4,0c0.2,0,0.3,0,0.8,0c0.8,0,1.7-0.1,2.6-0.1c1.6,0,3.2,0.1,4.7,0.2
		c1.1,0.1,2,0.1,2.7,0.1h0.2v-1.6h-0.2C454,54.1,450.1,53.6,448.1,49.8"/>
	<path class="st0" d="M491.9,48l-0.2,0.4c-1.1,2-2.5,4.5-7.5,4.5h-8.9c-2,0-2.7-0.7-2.7-2.4V29.2h11.8c3.8,0,4.1,3.5,4.1,4.6V34h1.6
		v-0.2c0-0.7-0.1-1.4-0.2-2.2c-0.1-1-0.2-2.2-0.2-3.6c0-1.3,0.1-2.5,0.2-3.6c0.1-0.9,0.2-1.6,0.2-2.3V22h-1.6v0.2
		c0,0.8-0.2,4.6-4.1,4.6h-11.8V5.7c0-1.2,0.4-1.6,1.6-1.6h9.8c4.3,0,4.8,2.8,5.1,4.6l0,0.3h1.6l-0.8-7.6l-0.2,0
		c-2.2,0.2-6.1,0.4-10.4,0.4h-10.8c-1.7,0-3-0.1-4.2-0.2c-0.8-0.1-1.6-0.1-2.2-0.1h-0.2V3h0.2c2.6,0,3.9,1.2,3.9,3.5v44
		c0,2.4-1.3,3.6-3.9,3.6h-0.2v1.6h0.2c0.5,0,1.2,0,2.1-0.1c2.4-0.1,6.4-0.3,12.5-0.3h2.5c4.7,0,7.9,0.1,10.6,0.4l0.2,0l3.4-7.1
		L491.9,48z"/>
</g>
</svg>
