<?xml version="1.0" encoding="UTF-8"?>
<!DOCTYPE svg PUBLIC "-//W3C//DTD SVG 1.1//EN" "http://www.w3.org/Graphics/SVG/1.1/DTD/svg11.dtd">
<svg xmlns="http://www.w3.org/2000/svg" version="1.1" width="674px" height="675px" style="shape-rendering:geometricPrecision; text-rendering:geometricPrecision; image-rendering:optimizeQuality; fill-rule:evenodd; clip-rule:evenodd" xmlns:xlink="http://www.w3.org/1999/xlink">
<g><path style="opacity:0.994" fill="#5e8dd6" d="M 13.5,-0.5 C 228.833,-0.5 444.167,-0.5 659.5,-0.5C 660.29,0.40128 661.29,1.06795 662.5,1.5C 445.167,1.5 227.833,1.5 10.5,1.5C 11.7095,1.06795 12.7095,0.40128 13.5,-0.5 Z"/></g>
<g><path style="opacity:1" fill="#4f82d2" d="M 10.5,1.5 C 227.833,1.5 445.167,1.5 662.5,1.5C 666.5,3.5 669.5,6.5 671.5,10.5C 670.85,10.8039 670.183,11.1373 669.5,11.5C 666.138,9.15695 662.804,6.82362 659.5,4.5C 658.737,3.73209 657.737,3.23209 656.5,3C 443,2.16706 229.666,2.33372 16.5,3.5C 11.9483,4.52743 8.28161,7.02743 5.5,11C 4.07153,11.5791 2.7382,11.4124 1.5,10.5C 3.5,6.5 6.5,3.5 10.5,1.5 Z"/></g>
<g><path style="opacity:1" fill="#4279cf" d="M 16.5,3.5 C 229.666,2.33372 443,2.16706 656.5,3C 657.737,3.23209 658.737,3.73209 659.5,4.5C 445.188,3.50421 230.854,3.17087 16.5,3.5 Z"/></g>
<g><path style="opacity:1" fill="#2d6ac9" d="M 16.5,3.5 C 230.854,3.17087 445.188,3.50421 659.5,4.5C 662.804,6.82362 666.138,9.15695 669.5,11.5C 670.183,11.1373 670.85,10.8039 671.5,10.5C 671.932,11.7095 672.599,12.7095 673.5,13.5C 673.5,13.8333 673.5,14.1667 673.5,14.5C 671.871,15.6253 670.371,16.9586 669,18.5C 666.406,11.5724 661.573,7.07242 654.5,5C 441.5,4.33333 228.5,4.33333 15.5,5C 9.29725,8.36904 5.63058,13.5357 4.5,20.5C 3.75675,19.0921 2.92342,17.7588 2,16.5C 1.53566,17.0944 1.36899,17.7611 1.5,18.5C 0.833333,18.1667 0.166667,17.8333 -0.5,17.5C -0.5,16.1667 -0.5,14.8333 -0.5,13.5C 0.40128,12.7095 1.06795,11.7095 1.5,10.5C 2.7382,11.4124 4.07153,11.5791 5.5,11C 8.28161,7.02743 11.9483,4.52743 16.5,3.5 Z"/></g>
<g><path style="opacity:1" fill="#2462c6" d="M 673.5,14.5 C 673.5,15.1667 673.5,15.8333 673.5,16.5C 671.018,18.5027 670.018,21.1694 670.5,24.5C 669.504,39.9911 669.17,55.6578 669.5,71.5C 447.5,71.5 225.5,71.5 3.5,71.5C 3.82962,55.6578 3.49628,39.9911 2.5,24.5C 2.67474,22.3792 2.34141,20.3792 1.5,18.5C 1.36899,17.7611 1.53566,17.0944 2,16.5C 2.92342,17.7588 3.75675,19.0921 4.5,20.5C 5.63058,13.5357 9.29725,8.36904 15.5,5C 228.5,4.33333 441.5,4.33333 654.5,5C 661.573,7.07242 666.406,11.5724 669,18.5C 670.371,16.9586 671.871,15.6253 673.5,14.5 Z"/></g>
<g><path style="opacity:1" fill="#2860c5" d="M 2.5,24.5 C 3.49628,39.9911 3.82962,55.6578 3.5,71.5C 225.5,71.5 447.5,71.5 669.5,71.5C 669.17,55.6578 669.504,39.9911 670.5,24.5C 670.5,84.8333 670.5,145.167 670.5,205.5C 670.167,205.5 669.833,205.5 669.5,205.5C 669.5,199.833 669.5,194.167 669.5,188.5C 576.5,188.5 483.5,188.5 390.5,188.5C 390.667,176.829 390.5,165.162 390,153.5C 388.6,150.098 386.433,147.264 383.5,145C 367.922,143.848 352.256,143.348 336.5,143.5C 320.744,143.348 305.078,143.848 289.5,145C 286.567,147.264 284.4,150.098 283,153.5C 282.5,165.162 282.333,176.829 282.5,188.5C 189.5,188.5 96.5,188.5 3.5,188.5C 3.5,194.167 3.5,199.833 3.5,205.5C 3.16667,205.5 2.83333,205.5 2.5,205.5C 2.5,145.167 2.5,84.8333 2.5,24.5 Z"/></g>
<g><path style="opacity:1" fill="#ccced6" d="M 390.5,188.5 C 390.5,205.833 390.5,223.167 390.5,240.5C 390.5,272.5 390.5,304.5 390.5,336.5C 390.5,386.167 390.5,435.833 390.5,485.5C 390.825,492.687 390.491,499.687 389.5,506.5C 389.5,490.167 389.5,473.833 389.5,457.5C 389.5,443.833 389.5,430.167 389.5,416.5C 389.5,400.833 389.5,385.167 389.5,369.5C 389.5,344.5 389.5,319.5 389.5,294.5C 389.5,273.5 389.5,252.5 389.5,231.5C 389.667,218.163 389.5,204.829 389,191.5C 387.992,191.018 386.825,190.852 385.5,191C 387.657,189.915 387.824,188.749 386,187.5C 383.667,187.5 381.333,187.5 379,187.5C 376.979,185.003 374.646,183.67 372,183.5C 371.167,184.5 370.333,185.5 369.5,186.5C 366.935,185.537 364.602,184.204 362.5,182.5C 361.676,184.748 360.676,184.914 359.5,183C 360.451,182.282 360.617,181.449 360,180.5C 359.077,181.759 358.243,183.092 357.5,184.5C 356.757,183.092 355.923,181.759 355,180.5C 354.667,181.167 354.333,181.833 354,182.5C 351.572,182.786 349.072,182.786 346.5,182.5C 345.328,182.919 344.328,183.585 343.5,184.5C 343.511,183.559 343.011,182.892 342,182.5C 341.055,182.905 340.388,183.572 340,184.5C 339.804,182.714 338.971,181.381 337.5,180.5C 334.38,183.377 331.213,183.711 328,181.5C 323.883,184.094 320.55,183.76 318,180.5C 314.013,181.336 310.347,183.336 307,186.5C 305.956,185.377 305.29,184.044 305,182.5C 304.751,183.624 304.251,184.624 303.5,185.5C 301.685,185.354 299.685,185.188 297.5,185C 298.451,185.718 298.617,186.551 298,187.5C 295.015,188.158 291.849,188.158 288.5,187.5C 287.304,187.846 287.304,188.346 288.5,189C 287.175,188.852 286.008,189.018 285,189.5C 283.534,203.736 283.034,218.069 283.5,232.5C 283.5,252.833 283.5,273.167 283.5,293.5C 283.5,317.833 283.5,342.167 283.5,366.5C 283.5,382.5 283.5,398.5 283.5,414.5C 283.5,428.833 283.5,443.167 283.5,457.5C 283.5,474.167 283.5,490.833 283.5,507.5C 282.502,483.006 282.169,458.339 282.5,433.5C 282.5,401.167 282.5,368.833 282.5,336.5C 282.5,319.167 282.5,301.833 282.5,284.5C 282.5,269.833 282.5,255.167 282.5,240.5C 282.5,223.167 282.5,205.833 282.5,188.5C 282.333,176.829 282.5,165.162 283,153.5C 284.4,150.098 286.567,147.264 289.5,145C 305.078,143.848 320.744,143.348 336.5,143.5C 352.256,143.348 367.922,143.848 383.5,145C 386.433,147.264 388.6,150.098 390,153.5C 390.5,165.162 390.667,176.829 390.5,188.5 Z"/></g>
<g><path style="opacity:1" fill="#2d5ec3" d="M 282.5,188.5 C 282.5,205.833 282.5,223.167 282.5,240.5C 189.5,240.5 96.5,240.5 3.5,240.5C 3.5,228.833 3.5,217.167 3.5,205.5C 3.5,199.833 3.5,194.167 3.5,188.5C 96.5,188.5 189.5,188.5 282.5,188.5 Z"/></g>
<g><path style="opacity:1" fill="#2d5ec3" d="M 390.5,188.5 C 483.5,188.5 576.5,188.5 669.5,188.5C 669.5,194.167 669.5,199.833 669.5,205.5C 669.5,217.167 669.5,228.833 669.5,240.5C 576.5,240.5 483.5,240.5 390.5,240.5C 390.5,223.167 390.5,205.833 390.5,188.5 Z"/></g>
<g><path style="opacity:1" fill="#dbdbdd" d="M 389.5,231.5 C 386.767,231.052 384.601,229.719 383,227.5C 381.605,228.815 380.605,228.481 380,226.5C 378.089,226.255 376.089,226.255 374,226.5C 373.646,224.193 372.646,223.859 371,225.5C 370.055,225.095 369.388,224.428 369,223.5C 368.344,227.002 367.011,227.002 365,223.5C 364.282,224.451 363.449,224.617 362.5,224C 363.451,223.282 363.617,222.449 363,221.5C 361.602,222.051 360.268,222.384 359,222.5C 356.751,220.428 354.084,219.095 351,218.5C 350.692,219.308 350.192,219.975 349.5,220.5C 348.304,220.154 348.304,219.654 349.5,219C 348.234,218.691 347.067,218.191 346,217.5C 345.383,218.449 345.549,219.282 346.5,220C 344.82,220.034 343.32,220.201 342,220.5C 341.333,219.833 340.667,219.167 340,218.5C 338.602,219.051 337.268,219.384 336,219.5C 335.333,218.167 334.333,217.167 333,216.5C 332,217.833 331,217.833 330,216.5C 327.703,218.591 325.37,219.925 323,220.5C 321.236,217.862 319.902,218.196 319,221.5C 318.692,220.692 318.192,220.025 317.5,219.5C 316.5,220.167 315.5,220.833 314.5,221.5C 312.398,221.521 310.232,221.187 308,220.5C 307.667,222.167 307.333,223.833 307,225.5C 304.323,225.823 301.323,225.823 298,225.5C 297.085,226.328 296.419,227.328 296,228.5C 292.053,227.981 289.053,229.647 287,233.5C 286.073,230.294 284.907,229.961 283.5,232.5C 283.034,218.069 283.534,203.736 285,189.5C 286.008,189.018 287.175,188.852 288.5,189C 287.304,188.346 287.304,187.846 288.5,187.5C 291.849,188.158 295.015,188.158 298,187.5C 298.617,186.551 298.451,185.718 297.5,185C 299.685,185.188 301.685,185.354 303.5,185.5C 304.251,184.624 304.751,183.624 305,182.5C 305.29,184.044 305.956,185.377 307,186.5C 310.347,183.336 314.013,181.336 318,180.5C 320.55,183.76 323.883,184.094 328,181.5C 331.213,183.711 334.38,183.377 337.5,180.5C 338.971,181.381 339.804,182.714 340,184.5C 340.388,183.572 341.055,182.905 342,182.5C 343.011,182.892 343.511,183.559 343.5,184.5C 344.328,183.585 345.328,182.919 346.5,182.5C 349.072,182.786 351.572,182.786 354,182.5C 354.333,181.833 354.667,181.167 355,180.5C 355.923,181.759 356.757,183.092 357.5,184.5C 358.243,183.092 359.077,181.759 360,180.5C 360.617,181.449 360.451,182.282 359.5,183C 360.676,184.914 361.676,184.748 362.5,182.5C 364.602,184.204 366.935,185.537 369.5,186.5C 370.333,185.5 371.167,184.5 372,183.5C 374.646,183.67 376.979,185.003 379,187.5C 381.333,187.5 383.667,187.5 386,187.5C 387.824,188.749 387.657,189.915 385.5,191C 386.825,190.852 387.992,191.018 389,191.5C 389.5,204.829 389.667,218.163 389.5,231.5 Z"/></g>
<g><path style="opacity:1" fill="#2654ad" d="M -0.5,17.5 C 0.166667,17.8333 0.833333,18.1667 1.5,18.5C 2.34141,20.3792 2.67474,22.3792 2.5,24.5C 2.5,84.8333 2.5,145.167 2.5,205.5C 2.5,221.5 2.5,237.5 2.5,253.5C 1.83333,268.833 1.16667,284.167 0.5,299.5C 0.832733,205.999 0.4994,112.665 -0.5,19.5C -0.5,18.8333 -0.5,18.1667 -0.5,17.5 Z"/></g>
<g><path style="opacity:1" fill="#2654ad" d="M 673.5,16.5 C 673.5,17.1667 673.5,17.8333 673.5,18.5C 672.501,111.999 672.167,205.665 672.5,299.5C 671.833,284.167 671.167,268.833 670.5,253.5C 670.5,237.5 670.5,221.5 670.5,205.5C 670.5,145.167 670.5,84.8333 670.5,24.5C 670.018,21.1694 671.018,18.5027 673.5,16.5 Z"/></g>
<g><path style="opacity:1" fill="#e2e2e4" d="M 389.5,231.5 C 389.5,252.5 389.5,273.5 389.5,294.5C 387.345,295.552 387.012,294.886 388.5,292.5C 387.448,290.57 386.114,289.07 384.5,288C 384.833,287.667 385.167,287.333 385.5,287C 384.809,285.933 384.309,284.766 384,283.5C 383.581,284.672 382.915,285.672 382,286.5C 381.033,285.322 380.533,283.989 380.5,282.5C 377.542,281.039 375.042,279.039 373,276.5C 372.667,276.833 372.333,277.167 372,277.5C 369.929,274.833 367.596,272.5 365,270.5C 364.333,271.833 363.667,273.167 363,274.5C 362.676,272.431 361.842,272.098 360.5,273.5C 359.186,272.687 358.019,271.687 357,270.5C 354.871,271.863 354.371,271.529 355.5,269.5C 354.758,268.713 353.925,268.047 353,267.5C 351.333,268.5 349.667,269.5 348,270.5C 347.493,269.004 347.993,267.837 349.5,267C 347.112,266.135 345.612,266.968 345,269.5C 344.374,267.009 343.541,267.009 342.5,269.5C 341.751,267.988 340.584,266.988 339,266.5C 338.241,267.646 337.574,268.646 337,269.5C 333.902,268.795 331.569,267.128 330,264.5C 329.228,265.849 328.061,266.682 326.5,267C 328.595,267.556 328.762,268.056 327,268.5C 326.055,268.095 325.388,267.428 325,266.5C 323.406,267.716 321.906,269.049 320.5,270.5C 319.742,269.189 318.742,268.689 317.5,269C 318.451,269.718 318.617,270.551 318,271.5C 316.488,270.743 315.154,269.743 314,268.5C 313.585,270.291 312.585,271.624 311,272.5C 310.667,271.833 310.333,271.167 310,270.5C 307.95,272.893 306.283,275.559 305,278.5C 304.333,277.833 303.667,277.167 303,276.5C 301.156,277.711 300.322,279.044 300.5,280.5C 299.749,279.624 299.249,278.624 299,277.5C 297.943,279.9 297.276,282.233 297,284.5C 296.692,283.692 296.192,283.025 295.5,282.5C 295.089,283.262 294.923,284.262 295,285.5C 291.365,282.514 288.865,283.348 287.5,288C 288.791,290.09 288.124,291.424 285.5,292C 285.833,292.333 286.167,292.667 286.5,293C 285.552,293.483 284.552,293.649 283.5,293.5C 283.5,273.167 283.5,252.833 283.5,232.5C 284.907,229.961 286.073,230.294 287,233.5C 289.053,229.647 292.053,227.981 296,228.5C 296.419,227.328 297.085,226.328 298,225.5C 301.323,225.823 304.323,225.823 307,225.5C 307.333,223.833 307.667,222.167 308,220.5C 310.232,221.187 312.398,221.521 314.5,221.5C 315.5,220.833 316.5,220.167 317.5,219.5C 318.192,220.025 318.692,220.692 319,221.5C 319.902,218.196 321.236,217.862 323,220.5C 325.37,219.925 327.703,218.591 330,216.5C 331,217.833 332,217.833 333,216.5C 334.333,217.167 335.333,218.167 336,219.5C 337.268,219.384 338.602,219.051 340,218.5C 340.667,219.167 341.333,219.833 342,220.5C 343.32,220.201 344.82,220.034 346.5,220C 345.549,219.282 345.383,218.449 346,217.5C 347.067,218.191 348.234,218.691 349.5,219C 348.304,219.654 348.304,220.154 349.5,220.5C 350.192,219.975 350.692,219.308 351,218.5C 354.084,219.095 356.751,220.428 359,222.5C 360.268,222.384 361.602,222.051 363,221.5C 363.617,222.449 363.451,223.282 362.5,224C 363.449,224.617 364.282,224.451 365,223.5C 367.011,227.002 368.344,227.002 369,223.5C 369.388,224.428 370.055,225.095 371,225.5C 372.646,223.859 373.646,224.193 374,226.5C 376.089,226.255 378.089,226.255 380,226.5C 380.605,228.481 381.605,228.815 383,227.5C 384.601,229.719 386.767,231.052 389.5,231.5 Z"/></g>
<g><path style="opacity:1" fill="#305cc2" d="M 2.5,205.5 C 2.83333,205.5 3.16667,205.5 3.5,205.5C 3.5,217.167 3.5,228.833 3.5,240.5C 96.5,240.5 189.5,240.5 282.5,240.5C 282.5,255.167 282.5,269.833 282.5,284.5C 189.5,284.5 96.5,284.5 3.5,284.5C 3.5,285.5 3.5,286.5 3.5,287.5C 3.82664,296.682 3.4933,305.682 2.5,314.5C 2.5,294.167 2.5,273.833 2.5,253.5C 2.5,237.5 2.5,221.5 2.5,205.5 Z"/></g>
<g><path style="opacity:1" fill="#305cc2" d="M 669.5,205.5 C 669.833,205.5 670.167,205.5 670.5,205.5C 670.5,221.5 670.5,237.5 670.5,253.5C 670.5,273.833 670.5,294.167 670.5,314.5C 669.507,305.682 669.173,296.682 669.5,287.5C 669.5,286.5 669.5,285.5 669.5,284.5C 620.833,284.5 572.167,284.5 523.5,284.5C 523.945,275.06 523.445,265.726 522,256.5C 520.127,254.291 517.96,252.458 515.5,251C 507.507,250.5 499.507,250.334 491.5,250.5C 482.833,250.5 474.167,250.5 465.5,250.5C 451.829,250.333 438.163,250.5 424.5,251C 421.921,252.076 420.254,253.909 419.5,256.5C 418.094,256.973 417.427,257.973 417.5,259.5C 416.502,284.995 416.169,310.661 416.5,336.5C 407.833,336.5 399.167,336.5 390.5,336.5C 390.5,304.5 390.5,272.5 390.5,240.5C 483.5,240.5 576.5,240.5 669.5,240.5C 669.5,228.833 669.5,217.167 669.5,205.5 Z"/></g>
<g><path style="opacity:1" fill="#dadadc" d="M 465.5,250.5 C 464.883,252.229 463.883,253.729 462.5,255C 464.194,256.728 465.361,256.228 466,253.5C 468.27,255.805 468.436,257.971 466.5,260C 468.75,260.611 470.417,261.944 471.5,264C 470.262,263.923 469.262,264.089 468.5,264.5C 469.035,266.271 469.869,266.604 471,265.5C 474.357,266.742 474.19,267.576 470.5,268C 471.362,270.734 472.195,270.901 473,268.5C 473.374,269.416 473.874,270.25 474.5,271C 473.692,271.308 473.025,271.808 472.5,272.5C 472.938,273.506 473.604,273.506 474.5,272.5C 475.833,274.167 477.167,275.833 478.5,277.5C 475.636,278.343 475.136,280.343 477,283.5C 479.2,284.548 479.7,286.048 478.5,288C 479.449,288.617 480.282,288.451 481,287.5C 481.5,288.667 482.333,289.5 483.5,290C 482.672,290.915 481.672,291.581 480.5,292C 480.783,293.924 482.116,295.591 484.5,297C 482.968,297.7 481.968,298.866 481.5,300.5C 482.648,302.149 483.981,303.649 485.5,305C 484.289,306.113 484.289,307.28 485.5,308.5C 483.199,310.163 483.199,311.997 485.5,314C 483.009,314.626 483.009,315.459 485.5,316.5C 484.96,317.748 484.293,318.915 483.5,320C 484.841,322.687 486.507,324.353 488.5,325C 485.591,326.321 484.425,328.488 485,331.5C 485.667,330.167 486.333,330.167 487,331.5C 487.078,333.657 487.245,335.657 487.5,337.5C 487,338.5 486.5,339.5 486,340.5C 485.282,339.549 484.449,339.383 483.5,340C 485.054,342.224 486.054,344.724 486.5,347.5C 487.025,348.192 487.692,348.692 488.5,349C 487.141,350.204 486.141,351.704 485.5,353.5C 484.5,354 483.5,354.5 482.5,355C 483.357,355.689 484.023,356.522 484.5,357.5C 484.154,358.696 483.654,358.696 483,357.5C 482.383,358.449 482.549,359.282 483.5,360C 482.692,360.308 482.025,360.808 481.5,361.5C 482.688,361.307 484.022,361.807 485.5,363C 483.262,364.908 481.929,366.908 481.5,369C 480.707,370.085 480.04,371.252 479.5,372.5C 481.276,373.315 481.943,374.482 481.5,376C 480.262,375.923 479.262,376.089 478.5,376.5C 478.833,377.167 479.167,377.833 479.5,378.5C 478.112,380.109 477.112,381.942 476.5,384C 477.251,385.975 477.251,387.642 476.5,389C 474.478,391.022 472.478,393.022 470.5,395C 471.802,396.923 471.635,398.757 470,400.5C 469.195,398.099 468.362,398.266 467.5,401C 467.833,401.333 468.167,401.667 468.5,402C 467.167,402.667 465.833,403.333 464.5,404C 465.022,404.561 465.355,405.228 465.5,406C 463.783,408.835 462.95,411.669 463,414.5C 460.925,411.972 460.092,412.139 460.5,415C 459.5,415.833 458.5,416.667 457.5,417.5C 458.46,418.812 458.294,420.146 457,421.5C 456.576,417.81 455.742,417.643 454.5,421C 455.7,422.952 455.2,424.452 453,425.5C 451.334,424.66 451.167,425.16 452.5,427C 451.309,429.563 448.976,431.563 445.5,433C 445.833,433.333 446.167,433.667 446.5,434C 445.151,434.772 444.318,435.939 444,437.5C 442.312,435.152 440.478,434.985 438.5,437C 441.855,436.205 442.355,437.372 440,440.5C 438.984,439.366 438.317,439.699 438,441.5C 436.657,440.786 435.324,441.12 434,442.5C 433.966,444.18 433.799,445.68 433.5,447C 431.939,447.318 430.772,448.151 430,449.5C 429.577,448.044 428.744,447.544 427.5,448C 427.833,448.333 428.167,448.667 428.5,449C 427.167,449.333 425.833,449.667 424.5,450C 425.833,450.667 425.833,451.333 424.5,452C 422.188,453.268 419.854,454.435 417.5,455.5C 417.5,439.5 417.5,423.5 417.5,407.5C 418.69,405.174 420.69,404.007 423.5,404C 422.692,403.692 422.025,403.192 421.5,402.5C 423.557,400.523 425.891,399.023 428.5,398C 428.043,397.586 427.709,397.086 427.5,396.5C 430.281,394.33 431.114,391.663 430,388.5C 433.508,392.611 434.008,392.444 431.5,388C 433.193,385.31 435.527,383.31 438.5,382C 435.723,379.827 435.89,379.327 439,380.5C 439.574,378.508 440.741,377.008 442.5,376C 440.729,373.887 439.229,374.053 438,376.5C 437.5,376 437,375.5 436.5,375C 437.833,374.333 439.167,373.667 440.5,373C 440.132,371.527 440.632,370.027 442,368.5C 442.75,367.874 443.584,367.374 444.5,367C 443.692,366.692 443.025,366.192 442.5,365.5C 443.5,363.5 444.5,361.5 445.5,359.5C 444.833,358.5 444.167,357.5 443.5,356.5C 444.932,356.415 446.265,355.415 447.5,353.5C 447.167,352.833 446.833,352.167 446.5,351.5C 447.167,351.167 447.833,350.833 448.5,350.5C 447.975,349.808 447.308,349.308 446.5,349C 447.364,347.863 448.364,346.53 449.5,345C 448.5,344 447.5,343 446.5,342C 448.41,341.592 449.41,340.425 449.5,338.5C 448.935,336.595 447.935,334.929 446.5,333.5C 447.582,333.251 448.915,333.085 450.5,333C 447.159,330.528 447.159,328.528 450.5,327C 449.069,323.93 447.403,320.93 445.5,318C 446.328,317.085 447.328,316.419 448.5,316C 445.833,315.333 445.833,314.667 448.5,314C 445.376,312.459 445.043,310.625 447.5,308.5C 445.213,304.237 443.546,299.57 442.5,294.5C 443.167,293.833 443.833,293.167 444.5,292.5C 444.154,291.304 443.654,291.304 443,292.5C 442.667,291.167 442.333,289.833 442,288.5C 440.853,289.458 439.853,289.125 439,287.5C 438.383,286.551 438.549,285.718 439.5,285C 437.311,284.323 436.978,283.156 438.5,281.5C 437.624,280.749 436.624,280.249 435.5,280C 436.654,279.086 436.487,278.253 435,277.5C 434.667,277.833 434.333,278.167 434,278.5C 433.316,277.216 433.483,276.049 434.5,275C 433.328,274.581 432.328,273.915 431.5,273C 432.517,271.951 432.684,270.784 432,269.5C 431.667,269.833 431.333,270.167 431,270.5C 429.823,268.824 428.323,267.491 426.5,266.5C 426.709,265.914 427.043,265.414 427.5,265C 426.977,263.386 425.644,261.886 423.5,260.5C 425.461,259.152 425.628,257.819 424,256.5C 422.586,257.413 421.086,257.413 419.5,256.5C 420.254,253.909 421.921,252.076 424.5,251C 438.163,250.5 451.829,250.333 465.5,250.5 Z"/></g>
<g><path style="opacity:1" fill="#d6d6d8" d="M 465.5,250.5 C 474.167,250.5 482.833,250.5 491.5,250.5C 493.802,255.298 496.135,260.131 498.5,265C 498.043,265.414 497.709,265.914 497.5,266.5C 499.863,268.736 501.863,271.236 503.5,274C 501.398,275.73 501.565,277.563 504,279.5C 503.806,283.26 504.973,286.426 507.5,289C 507.412,290.946 507.079,292.946 506.5,295C 507.355,299.015 509.022,303.015 511.5,307C 511.241,308.261 510.574,309.261 509.5,310C 510.167,310.333 510.833,310.667 511.5,311C 510.949,312.398 510.616,313.732 510.5,315C 512.8,316.113 513.133,317.613 511.5,319.5C 511.529,321.029 512.196,322.196 513.5,323C 512.285,325.096 511.451,324.929 511,322.5C 510.342,324.108 510.842,325.275 512.5,326C 510.578,327.46 509.911,329.127 510.5,331C 512.085,331.085 513.418,331.251 514.5,331.5C 513.68,333.111 512.346,333.778 510.5,333.5C 509.829,337.315 511.162,340.149 514.5,342C 512.956,342.29 511.623,342.956 510.5,344C 511.214,345.343 510.88,346.676 509.5,348C 510.833,350 510.833,352 509.5,354C 510.167,354.667 510.833,355.333 511.5,356C 507.291,358.095 506.958,360.262 510.5,362.5C 507.972,363.517 507.972,364.684 510.5,366C 506.178,367.191 505.845,368.525 509.5,370C 508.929,371.205 508.262,372.372 507.5,373.5C 506.742,372.189 505.742,371.689 504.5,372C 505.727,373.587 505.394,374.921 503.5,376C 504.167,376.667 504.833,377.333 505.5,378C 504.898,380.036 503.898,381.87 502.5,383.5C 503.167,384.167 503.833,384.833 504.5,385.5C 502.238,386.345 501.571,387.678 502.5,389.5C 501.284,391.304 500.284,392.971 499.5,394.5C 499.5,396.167 499.5,397.833 499.5,399.5C 497.833,400.667 496.167,401.833 494.5,403C 495.833,403.667 495.833,404.333 494.5,405C 495.167,405.333 495.833,405.667 496.5,406C 495.109,407.02 493.609,407.853 492,408.5C 491.544,409.744 492.044,410.577 493.5,411C 492.747,412.487 491.914,412.654 491,411.5C 489.255,416.157 487.089,420.657 484.5,425C 485.833,426.84 485.666,427.34 484,426.5C 481.916,429.003 480.083,431.669 478.5,434.5C 478.089,433.738 477.923,432.738 478,431.5C 476.954,433.09 475.787,434.59 474.5,436C 475.167,436.333 475.833,436.667 476.5,437C 474.871,438.056 473.538,439.556 472.5,441.5C 471.325,440.145 470.325,440.312 469.5,442C 469.5,443.333 469.5,444.667 469.5,446C 468.128,447.242 467.128,448.742 466.5,450.5C 462.775,452.057 460.275,454.724 459,458.5C 456.964,457.049 455.131,457.549 453.5,460C 455.569,460.324 455.902,461.158 454.5,462.5C 453.009,463.244 451.509,463.91 450,464.5C 449.667,464.167 449.333,463.833 449,463.5C 448.333,465.5 447.667,467.5 447,469.5C 445.16,468.167 444.66,468.334 445.5,470C 442.263,469.169 439.763,470.336 438,473.5C 436.16,472.167 435.66,472.334 436.5,474C 435.874,474.75 435.374,475.584 435,476.5C 433.744,477.03 432.244,477.03 430.5,476.5C 428.149,479.182 425.816,481.849 423.5,484.5C 420.482,482.022 419.315,482.689 420,486.5C 419.586,486.043 419.086,485.709 418.5,485.5C 417.501,475.522 417.168,465.522 417.5,455.5C 419.854,454.435 422.188,453.268 424.5,452C 425.833,451.333 425.833,450.667 424.5,450C 425.833,449.667 427.167,449.333 428.5,449C 428.167,448.667 427.833,448.333 427.5,448C 428.744,447.544 429.577,448.044 430,449.5C 430.772,448.151 431.939,447.318 433.5,447C 433.799,445.68 433.966,444.18 434,442.5C 435.324,441.12 436.657,440.786 438,441.5C 438.317,439.699 438.984,439.366 440,440.5C 442.355,437.372 441.855,436.205 438.5,437C 440.478,434.985 442.312,435.152 444,437.5C 444.318,435.939 445.151,434.772 446.5,434C 446.167,433.667 445.833,433.333 445.5,433C 448.976,431.563 451.309,429.563 452.5,427C 451.167,425.16 451.334,424.66 453,425.5C 455.2,424.452 455.7,422.952 454.5,421C 455.742,417.643 456.576,417.81 457,421.5C 458.294,420.146 458.46,418.812 457.5,417.5C 458.5,416.667 459.5,415.833 460.5,415C 460.092,412.139 460.925,411.972 463,414.5C 462.95,411.669 463.783,408.835 465.5,406C 465.355,405.228 465.022,404.561 464.5,404C 465.833,403.333 467.167,402.667 468.5,402C 468.167,401.667 467.833,401.333 467.5,401C 468.362,398.266 469.195,398.099 470,400.5C 471.635,398.757 471.802,396.923 470.5,395C 472.478,393.022 474.478,391.022 476.5,389C 477.251,387.642 477.251,385.975 476.5,384C 477.112,381.942 478.112,380.109 479.5,378.5C 479.167,377.833 478.833,377.167 478.5,376.5C 479.262,376.089 480.262,375.923 481.5,376C 481.943,374.482 481.276,373.315 479.5,372.5C 480.04,371.252 480.707,370.085 481.5,369C 481.929,366.908 483.262,364.908 485.5,363C 484.022,361.807 482.688,361.307 481.5,361.5C 482.025,360.808 482.692,360.308 483.5,360C 482.549,359.282 482.383,358.449 483,357.5C 483.654,358.696 484.154,358.696 484.5,357.5C 484.023,356.522 483.357,355.689 482.5,355C 483.5,354.5 484.5,354 485.5,353.5C 486.141,351.704 487.141,350.204 488.5,349C 487.692,348.692 487.025,348.192 486.5,347.5C 486.054,344.724 485.054,342.224 483.5,340C 484.449,339.383 485.282,339.549 486,340.5C 486.5,339.5 487,338.5 487.5,337.5C 487.245,335.657 487.078,333.657 487,331.5C 486.333,330.167 485.667,330.167 485,331.5C 484.425,328.488 485.591,326.321 488.5,325C 486.507,324.353 484.841,322.687 483.5,320C 484.293,318.915 484.96,317.748 485.5,316.5C 483.009,315.459 483.009,314.626 485.5,314C 483.199,311.997 483.199,310.163 485.5,308.5C 484.289,307.28 484.289,306.113 485.5,305C 483.981,303.649 482.648,302.149 481.5,300.5C 481.968,298.866 482.968,297.7 484.5,297C 482.116,295.591 480.783,293.924 480.5,292C 481.672,291.581 482.672,290.915 483.5,290C 482.333,289.5 481.5,288.667 481,287.5C 480.282,288.451 479.449,288.617 478.5,288C 479.7,286.048 479.2,284.548 477,283.5C 475.136,280.343 475.636,278.343 478.5,277.5C 477.167,275.833 475.833,274.167 474.5,272.5C 473.604,273.506 472.938,273.506 472.5,272.5C 473.025,271.808 473.692,271.308 474.5,271C 473.874,270.25 473.374,269.416 473,268.5C 472.195,270.901 471.362,270.734 470.5,268C 474.19,267.576 474.357,266.742 471,265.5C 469.869,266.604 469.035,266.271 468.5,264.5C 469.262,264.089 470.262,263.923 471.5,264C 470.417,261.944 468.75,260.611 466.5,260C 468.436,257.971 468.27,255.805 466,253.5C 465.361,256.228 464.194,256.728 462.5,255C 463.883,253.729 464.883,252.229 465.5,250.5 Z"/></g>
<g><path style="opacity:1" fill="#e0e0e2" d="M 419.5,256.5 C 421.086,257.413 422.586,257.413 424,256.5C 425.628,257.819 425.461,259.152 423.5,260.5C 425.644,261.886 426.977,263.386 427.5,265C 427.043,265.414 426.709,265.914 426.5,266.5C 428.323,267.491 429.823,268.824 431,270.5C 431.333,270.167 431.667,269.833 432,269.5C 432.684,270.784 432.517,271.951 431.5,273C 432.328,273.915 433.328,274.581 434.5,275C 433.483,276.049 433.316,277.216 434,278.5C 434.333,278.167 434.667,277.833 435,277.5C 436.487,278.253 436.654,279.086 435.5,280C 436.624,280.249 437.624,280.749 438.5,281.5C 436.978,283.156 437.311,284.323 439.5,285C 438.549,285.718 438.383,286.551 439,287.5C 439.853,289.125 440.853,289.458 442,288.5C 442.333,289.833 442.667,291.167 443,292.5C 443.654,291.304 444.154,291.304 444.5,292.5C 443.833,293.167 443.167,293.833 442.5,294.5C 443.546,299.57 445.213,304.237 447.5,308.5C 445.043,310.625 445.376,312.459 448.5,314C 445.833,314.667 445.833,315.333 448.5,316C 447.328,316.419 446.328,317.085 445.5,318C 447.403,320.93 449.069,323.93 450.5,327C 447.159,328.528 447.159,330.528 450.5,333C 448.915,333.085 447.582,333.251 446.5,333.5C 447.935,334.929 448.935,336.595 449.5,338.5C 449.41,340.425 448.41,341.592 446.5,342C 447.5,343 448.5,344 449.5,345C 448.364,346.53 447.364,347.863 446.5,349C 447.308,349.308 447.975,349.808 448.5,350.5C 447.833,350.833 447.167,351.167 446.5,351.5C 446.833,352.167 447.167,352.833 447.5,353.5C 446.265,355.415 444.932,356.415 443.5,356.5C 444.167,357.5 444.833,358.5 445.5,359.5C 444.5,361.5 443.5,363.5 442.5,365.5C 443.025,366.192 443.692,366.692 444.5,367C 443.584,367.374 442.75,367.874 442,368.5C 440.632,370.027 440.132,371.527 440.5,373C 439.167,373.667 437.833,374.333 436.5,375C 437,375.5 437.5,376 438,376.5C 439.229,374.053 440.729,373.887 442.5,376C 440.741,377.008 439.574,378.508 439,380.5C 435.89,379.327 435.723,379.827 438.5,382C 435.527,383.31 433.193,385.31 431.5,388C 434.008,392.444 433.508,392.611 430,388.5C 431.114,391.663 430.281,394.33 427.5,396.5C 427.709,397.086 428.043,397.586 428.5,398C 425.891,399.023 423.557,400.523 421.5,402.5C 422.025,403.192 422.692,403.692 423.5,404C 420.69,404.007 418.69,405.174 417.5,407.5C 417.5,358.167 417.5,308.833 417.5,259.5C 417.427,257.973 418.094,256.973 419.5,256.5 Z"/></g>
<g><path style="opacity:1" fill="#e8e8ea" d="M 389.5,294.5 C 389.5,319.5 389.5,344.5 389.5,369.5C 387.807,371.01 386.973,372.677 387,374.5C 386.043,372.291 384.876,372.457 383.5,375C 383.833,375.333 384.167,375.667 384.5,376C 383.256,376.456 382.423,375.956 382,374.5C 381.031,376.734 379.698,378.734 378,380.5C 376.915,378.343 375.749,378.176 374.5,380C 375.167,380.333 375.833,380.667 376.5,381C 375.101,381.595 373.768,381.428 372.5,380.5C 370.701,382.615 369.034,384.782 367.5,387C 368.167,387.333 368.833,387.667 369.5,388C 367.945,389.646 366.279,389.979 364.5,389C 363.284,390.74 361.618,391.74 359.5,392C 360.696,392.654 360.696,393.154 359.5,393.5C 358.614,392.675 358.281,391.675 358.5,390.5C 361.336,390.798 361.836,390.131 360,388.5C 357.56,389.274 356.227,390.94 356,393.5C 355.667,392.833 355.333,392.167 355,391.5C 352.545,394.44 349.712,395.107 346.5,393.5C 345.416,394.665 344.583,395.998 344,397.5C 343.026,392.715 341.026,392.382 338,396.5C 336.43,395.386 335.097,394.053 334,392.5C 332.383,393.851 331.216,395.518 330.5,397.5C 330.26,396.163 329.76,394.497 329,392.5C 328.647,394.074 327.98,395.741 327,397.5C 325.956,396.377 325.29,395.044 325,393.5C 322.016,395.707 321.85,395.207 324.5,392C 322.094,391.694 319.927,390.861 318,389.5C 316.108,389.777 314.775,390.777 314,392.5C 313.751,391.376 313.251,390.376 312.5,389.5C 311.549,390.326 310.549,390.492 309.5,390C 309.867,388.243 309.034,386.743 307,385.5C 306,386.167 305,386.833 304,387.5C 303.89,384.354 302.557,383.354 300,384.5C 299.097,383.299 297.931,382.465 296.5,382C 297.167,381 297.833,380 298.5,379C 296.402,378.986 294.569,379.153 293,379.5C 292.228,378.151 291.061,377.318 289.5,377C 290.833,376.333 291.833,375.333 292.5,374C 289.57,373.156 286.904,371.822 284.5,370C 285.167,369.667 285.833,369.333 286.5,369C 285.309,368.302 284.309,367.469 283.5,366.5C 283.5,342.167 283.5,317.833 283.5,293.5C 284.552,293.649 285.552,293.483 286.5,293C 286.167,292.667 285.833,292.333 285.5,292C 288.124,291.424 288.791,290.09 287.5,288C 288.865,283.348 291.365,282.514 295,285.5C 294.923,284.262 295.089,283.262 295.5,282.5C 296.192,283.025 296.692,283.692 297,284.5C 297.276,282.233 297.943,279.9 299,277.5C 299.249,278.624 299.749,279.624 300.5,280.5C 300.322,279.044 301.156,277.711 303,276.5C 303.667,277.167 304.333,277.833 305,278.5C 306.283,275.559 307.95,272.893 310,270.5C 310.333,271.167 310.667,271.833 311,272.5C 312.585,271.624 313.585,270.291 314,268.5C 315.154,269.743 316.488,270.743 318,271.5C 318.617,270.551 318.451,269.718 317.5,269C 318.742,268.689 319.742,269.189 320.5,270.5C 321.906,269.049 323.406,267.716 325,266.5C 325.388,267.428 326.055,268.095 327,268.5C 328.762,268.056 328.595,267.556 326.5,267C 328.061,266.682 329.228,265.849 330,264.5C 331.569,267.128 333.902,268.795 337,269.5C 337.574,268.646 338.241,267.646 339,266.5C 340.584,266.988 341.751,267.988 342.5,269.5C 343.541,267.009 344.374,267.009 345,269.5C 345.612,266.968 347.112,266.135 349.5,267C 347.993,267.837 347.493,269.004 348,270.5C 349.667,269.5 351.333,268.5 353,267.5C 353.925,268.047 354.758,268.713 355.5,269.5C 354.371,271.529 354.871,271.863 357,270.5C 358.019,271.687 359.186,272.687 360.5,273.5C 361.842,272.098 362.676,272.431 363,274.5C 363.667,273.167 364.333,271.833 365,270.5C 367.596,272.5 369.929,274.833 372,277.5C 372.333,277.167 372.667,276.833 373,276.5C 375.042,279.039 377.542,281.039 380.5,282.5C 380.533,283.989 381.033,285.322 382,286.5C 382.915,285.672 383.581,284.672 384,283.5C 384.309,284.766 384.809,285.933 385.5,287C 385.167,287.333 384.833,287.667 384.5,288C 386.114,289.07 387.448,290.57 388.5,292.5C 387.012,294.886 387.345,295.552 389.5,294.5 Z"/></g>
<g><path style="opacity:1" fill="#335bc2" d="M 282.5,284.5 C 282.5,301.833 282.5,319.167 282.5,336.5C 189.833,336.5 97.1667,336.5 4.5,336.5C 4.82977,319.991 4.49644,303.658 3.5,287.5C 3.5,286.5 3.5,285.5 3.5,284.5C 96.5,284.5 189.5,284.5 282.5,284.5 Z"/></g>
<g><path style="opacity:1" fill="#335bc2" d="M 523.5,284.5 C 572.167,284.5 620.833,284.5 669.5,284.5C 669.5,285.5 669.5,286.5 669.5,287.5C 668.504,303.658 668.17,319.991 668.5,336.5C 620.167,336.5 571.833,336.5 523.5,336.5C 523.5,319.167 523.5,301.833 523.5,284.5 Z"/></g>
<g><path style="opacity:1" fill="#3759c0" d="M 3.5,287.5 C 4.49644,303.658 4.82977,319.991 4.5,336.5C 97.1667,336.5 189.833,336.5 282.5,336.5C 282.5,368.833 282.5,401.167 282.5,433.5C 273.833,433.5 265.167,433.5 256.5,433.5C 256.831,410.994 256.497,388.66 255.5,366.5C 254.313,361.814 251.313,358.981 246.5,358C 232.504,357.5 218.504,357.333 204.5,357.5C 191.167,357.5 177.833,357.5 164.5,357.5C 157.728,356.636 152.895,359.303 150,365.5C 149.5,373.493 149.334,381.493 149.5,389.5C 100.833,389.5 52.1667,389.5 3.5,389.5C 3.5,399.833 3.5,410.167 3.5,420.5C 3.16667,420.5 2.83333,420.5 2.5,420.5C 2.5,385.167 2.5,349.833 2.5,314.5C 3.4933,305.682 3.82664,296.682 3.5,287.5 Z"/></g>
<g><path style="opacity:1" fill="#3659c0" d="M 669.5,287.5 C 669.173,296.682 669.507,305.682 670.5,314.5C 670.5,349.833 670.5,385.167 670.5,420.5C 670.167,420.5 669.833,420.5 669.5,420.5C 669.5,410.167 669.5,399.833 669.5,389.5C 620.833,389.5 572.167,389.5 523.5,389.5C 523.5,371.833 523.5,354.167 523.5,336.5C 571.833,336.5 620.167,336.5 668.5,336.5C 668.17,319.991 668.504,303.658 669.5,287.5 Z"/></g>
<g><path style="opacity:1" fill="#d7d7d9" d="M 164.5,357.5 C 177.833,357.5 191.167,357.5 204.5,357.5C 204.297,359.044 203.63,360.378 202.5,361.5C 203.325,362.386 204.325,362.719 205.5,362.5C 205.779,365.118 206.446,367.618 207.5,370C 206.672,370.915 205.672,371.581 204.5,372C 206.004,373.491 206.837,375.324 207,377.5C 207.333,377.167 207.667,376.833 208,376.5C 208.333,377.5 208.667,378.5 209,379.5C 209.654,378.304 210.154,378.304 210.5,379.5C 209.975,380.192 209.308,380.692 208.5,381C 209.624,381.249 210.624,381.749 211.5,382.5C 209.989,384.838 210.323,385.504 212.5,384.5C 214.256,386.554 214.59,388.721 213.5,391C 216.124,391.576 216.791,392.91 215.5,395C 217.632,395.918 218.299,397.251 217.5,399C 220.544,399.359 220.878,400.026 218.5,401C 219.5,402 220.5,403 221.5,404C 220.833,404.333 220.167,404.667 219.5,405C 220.667,405.5 221.5,406.333 222,407.5C 222.333,407.167 222.667,406.833 223,406.5C 224.29,408.959 225.79,411.292 227.5,413.5C 229.102,412.45 229.935,413.117 230,415.5C 231.558,417.359 233.391,418.859 235.5,420C 232.668,421.908 233.001,422.741 236.5,422.5C 236.008,426.29 236.841,426.956 239,424.5C 241.44,426.274 243.106,428.608 244,431.5C 244.333,431.167 244.667,430.833 245,430.5C 245.645,431.646 246.478,432.646 247.5,433.5C 246.391,435.214 247.058,435.881 249.5,435.5C 250.053,439.456 250.886,439.456 252,435.5C 252.421,438.02 253.588,440.02 255.5,441.5C 255.667,456.504 255.5,471.504 255,486.5C 253.98,485.109 253.147,483.609 252.5,482C 250.893,482.019 249.226,482.185 247.5,482.5C 247.649,481.448 247.483,480.448 247,479.5C 244.506,482.32 243.673,482.153 244.5,479C 243.02,479.058 242.187,477.891 242,475.5C 241.333,476.833 240.667,478.167 240,479.5C 238.69,477.868 238.19,476.201 238.5,474.5C 236.491,472.99 234.658,471.323 233,469.5C 232.586,469.957 232.086,470.291 231.5,470.5C 231.891,469.109 231.058,468.109 229,467.5C 228.667,467.833 228.333,468.167 228,468.5C 227.779,465.057 226.779,464.724 225,467.5C 224.25,466.874 223.416,466.374 222.5,466C 222.13,460.845 219.13,457.512 213.5,456C 214.34,454.334 213.84,454.167 212,455.5C 211.5,455 211,454.5 210.5,454C 211.471,452.796 212.471,452.296 213.5,452.5C 212.349,451.269 211.183,451.269 210,452.5C 208.148,450.77 208.314,449.604 210.5,449C 210,448.5 209.5,448 209,447.5C 207.951,448.517 206.784,448.684 205.5,448C 205.833,447.667 206.167,447.333 206.5,447C 202.5,446.333 202.5,445.667 206.5,445C 202.808,441 198.474,437 193.5,433C 194.956,432.577 195.456,431.744 195,430.5C 193.907,428.651 192.574,426.984 191,425.5C 190.667,425.833 190.333,426.167 190,426.5C 189.667,425.5 189.333,424.5 189,423.5C 188.667,423.833 188.333,424.167 188,424.5C 187.067,420.798 185.233,417.631 182.5,415C 183.956,414.577 184.456,413.744 184,412.5C 183.667,412.833 183.333,413.167 183,413.5C 182.167,411.5 181.333,409.5 180.5,407.5C 174.989,405.917 174.322,403.417 178.5,400C 177.552,399.517 176.552,399.351 175.5,399.5C 175.66,397.801 175.494,396.134 175,394.5C 174.346,395.696 173.846,395.696 173.5,394.5C 173.977,393.522 174.643,392.689 175.5,392C 173.616,391.784 171.949,391.117 170.5,390C 173.742,389.717 174.076,388.883 171.5,387.5C 172.996,385.049 172.329,383.216 169.5,382C 169.854,380.374 169.854,378.541 169.5,376.5C 168.448,376.649 167.448,376.483 166.5,376C 167.833,375 167.833,374 166.5,373C 167.308,372.692 167.975,372.192 168.5,371.5C 165.819,368.989 164.485,366.156 164.5,363C 166.547,361.4 166.547,359.567 164.5,357.5 Z"/></g>
<g><path style="opacity:1" fill="#dddddf" d="M 204.5,357.5 C 218.504,357.333 232.504,357.5 246.5,358C 251.313,358.981 254.313,361.814 255.5,366.5C 255.5,391.5 255.5,416.5 255.5,441.5C 253.588,440.02 252.421,438.02 252,435.5C 250.886,439.456 250.053,439.456 249.5,435.5C 247.058,435.881 246.391,435.214 247.5,433.5C 246.478,432.646 245.645,431.646 245,430.5C 244.667,430.833 244.333,431.167 244,431.5C 243.106,428.608 241.44,426.274 239,424.5C 236.841,426.956 236.008,426.29 236.5,422.5C 233.001,422.741 232.668,421.908 235.5,420C 233.391,418.859 231.558,417.359 230,415.5C 229.935,413.117 229.102,412.45 227.5,413.5C 225.79,411.292 224.29,408.959 223,406.5C 222.667,406.833 222.333,407.167 222,407.5C 221.5,406.333 220.667,405.5 219.5,405C 220.167,404.667 220.833,404.333 221.5,404C 220.5,403 219.5,402 218.5,401C 220.878,400.026 220.544,399.359 217.5,399C 218.299,397.251 217.632,395.918 215.5,395C 216.791,392.91 216.124,391.576 213.5,391C 214.59,388.721 214.256,386.554 212.5,384.5C 210.323,385.504 209.989,384.838 211.5,382.5C 210.624,381.749 209.624,381.249 208.5,381C 209.308,380.692 209.975,380.192 210.5,379.5C 210.154,378.304 209.654,378.304 209,379.5C 208.667,378.5 208.333,377.5 208,376.5C 207.667,376.833 207.333,377.167 207,377.5C 206.837,375.324 206.004,373.491 204.5,372C 205.672,371.581 206.672,370.915 207.5,370C 206.446,367.618 205.779,365.118 205.5,362.5C 204.325,362.719 203.325,362.386 202.5,361.5C 203.63,360.378 204.297,359.044 204.5,357.5 Z"/></g>
<g><path style="opacity:1" fill="#d0d0d3" d="M 164.5,357.5 C 166.547,359.567 166.547,361.4 164.5,363C 164.485,366.156 165.819,368.989 168.5,371.5C 167.975,372.192 167.308,372.692 166.5,373C 167.833,374 167.833,375 166.5,376C 167.448,376.483 168.448,376.649 169.5,376.5C 169.854,378.541 169.854,380.374 169.5,382C 172.329,383.216 172.996,385.049 171.5,387.5C 174.076,388.883 173.742,389.717 170.5,390C 171.949,391.117 173.616,391.784 175.5,392C 174.643,392.689 173.977,393.522 173.5,394.5C 173.846,395.696 174.346,395.696 175,394.5C 175.494,396.134 175.66,397.801 175.5,399.5C 176.552,399.351 177.552,399.517 178.5,400C 174.322,403.417 174.989,405.917 180.5,407.5C 181.333,409.5 182.167,411.5 183,413.5C 183.333,413.167 183.667,412.833 184,412.5C 184.456,413.744 183.956,414.577 182.5,415C 185.233,417.631 187.067,420.798 188,424.5C 188.333,424.167 188.667,423.833 189,423.5C 189.333,424.5 189.667,425.5 190,426.5C 190.333,426.167 190.667,425.833 191,425.5C 192.574,426.984 193.907,428.651 195,430.5C 195.456,431.744 194.956,432.577 193.5,433C 198.474,437 202.808,441 206.5,445C 202.5,445.667 202.5,446.333 206.5,447C 206.167,447.333 205.833,447.667 205.5,448C 206.784,448.684 207.951,448.517 209,447.5C 209.5,448 210,448.5 210.5,449C 208.314,449.604 208.148,450.77 210,452.5C 211.183,451.269 212.349,451.269 213.5,452.5C 212.471,452.296 211.471,452.796 210.5,454C 211,454.5 211.5,455 212,455.5C 213.84,454.167 214.34,454.334 213.5,456C 219.13,457.512 222.13,460.845 222.5,466C 223.416,466.374 224.25,466.874 225,467.5C 226.779,464.724 227.779,465.057 228,468.5C 228.333,468.167 228.667,467.833 229,467.5C 231.058,468.109 231.891,469.109 231.5,470.5C 232.086,470.291 232.586,469.957 233,469.5C 234.658,471.323 236.491,472.99 238.5,474.5C 238.19,476.201 238.69,477.868 240,479.5C 240.667,478.167 241.333,476.833 242,475.5C 242.187,477.891 243.02,479.058 244.5,479C 243.673,482.153 244.506,482.32 247,479.5C 247.483,480.448 247.649,481.448 247.5,482.5C 249.226,482.185 250.893,482.019 252.5,482C 253.147,483.609 253.98,485.109 255,486.5C 255.5,471.504 255.667,456.504 255.5,441.5C 255.5,416.5 255.5,391.5 255.5,366.5C 256.497,388.66 256.831,410.994 256.5,433.5C 256.667,458.169 256.5,482.836 256,507.5C 254.9,511.222 252.734,514.056 249.5,516C 241.92,517.396 234.253,517.896 226.5,517.5C 224.849,516.081 223.016,514.747 221,513.5C 220.282,514.451 219.449,514.617 218.5,514C 217.283,512.352 216.45,510.519 216,508.5C 215.333,509.167 214.667,509.833 214,510.5C 214.077,509.262 213.911,508.262 213.5,507.5C 212.808,508.025 212.308,508.692 212,509.5C 210.887,508.24 210.72,507.073 211.5,506C 210.5,505.667 209.5,505.333 208.5,505C 208.833,504.667 209.167,504.333 209.5,504C 207.702,502.495 205.868,502.328 204,503.5C 203.716,501.114 202.716,500.448 201,501.5C 201.657,497.557 199.824,495.224 195.5,494.5C 194.876,492.042 193.376,490.376 191,489.5C 190.016,491.795 189.183,491.461 188.5,488.5C 188.709,487.914 189.043,487.414 189.5,487C 187.705,486.743 185.705,486.077 183.5,485C 185.835,483.48 185.668,481.98 183,480.5C 181.927,481.28 180.76,481.113 179.5,480C 180.28,478.927 180.113,477.76 179,476.5C 178.632,477.91 177.799,478.91 176.5,479.5C 175.253,477.994 175.253,476.494 176.5,475C 174.875,474.147 174.542,473.147 175.5,472C 172.795,472.498 170.462,471.498 168.5,469C 169.167,468 169.833,467 170.5,466C 167.124,465.693 165.79,463.86 166.5,460.5C 163.86,460.046 161.527,458.879 159.5,457C 160.308,456.692 160.975,456.192 161.5,455.5C 160.315,454.147 158.981,452.98 157.5,452C 157.957,451.586 158.291,451.086 158.5,450.5C 157.194,449.088 156.36,447.421 156,445.5C 154.637,447.784 153.137,447.951 151.5,446C 153.878,445.026 153.544,444.359 150.5,444C 151.883,442.539 151.549,441.706 149.5,441.5C 149.5,438.833 149.5,436.167 149.5,433.5C 149.5,418.833 149.5,404.167 149.5,389.5C 149.334,381.493 149.5,373.493 150,365.5C 152.895,359.303 157.728,356.636 164.5,357.5 Z"/></g>
<g><path style="opacity:1" fill="#d0d1d3" d="M 491.5,250.5 C 499.507,250.334 507.507,250.5 515.5,251C 517.96,252.458 520.127,254.291 522,256.5C 523.445,265.726 523.945,275.06 523.5,284.5C 523.5,301.833 523.5,319.167 523.5,336.5C 523.5,354.167 523.5,371.833 523.5,389.5C 523.5,404.167 523.5,418.833 523.5,433.5C 523.5,436.167 523.5,438.833 523.5,441.5C 522.504,441.414 521.671,441.748 521,442.5C 520.08,445.101 519.413,447.768 519,450.5C 516.878,451.22 516.378,452.387 517.5,454C 514.977,454.518 512.977,455.852 511.5,458C 511.833,458.333 512.167,458.667 512.5,459C 511,460.167 509.5,461.333 508,462.5C 507.333,463.167 507.333,463.833 508,464.5C 508.654,463.304 509.154,463.304 509.5,464.5C 507.993,465.739 506.826,465.405 506,463.5C 505.415,465.129 504.581,466.629 503.5,468C 504.187,469.162 504.353,470.328 504,471.5C 501.71,470.725 499.876,471.558 498.5,474C 499.5,474.333 500.5,474.667 501.5,475C 496.892,474.635 495.892,475.969 498.5,479C 495.624,478.743 492.957,479.743 490.5,482C 491.793,482.49 493.127,482.657 494.5,482.5C 494.725,486.056 493.892,486.39 492,483.5C 490.56,484.148 489.06,484.481 487.5,484.5C 487.649,485.552 487.483,486.552 487,487.5C 486.333,488.833 485.667,488.833 485,487.5C 482.264,489.029 482.098,490.529 484.5,492C 482.5,492.333 480.5,492.667 478.5,493C 478.018,494.008 477.852,495.175 478,496.5C 474.526,495.072 474.026,495.572 476.5,498C 473.987,499.039 471.653,500.372 469.5,502C 471.686,502.604 471.852,503.77 470,505.5C 468.611,501.728 467.611,501.728 467,505.5C 466.586,505.043 466.086,504.709 465.5,504.5C 463.799,505.802 462.632,507.469 462,509.5C 461.667,509.167 461.333,508.833 461,508.5C 455.437,511.688 450.937,514.688 447.5,517.5C 439.826,517.666 432.159,517.5 424.5,517C 420.698,514.913 418.198,511.746 417,507.5C 416.5,500.174 416.334,492.841 416.5,485.5C 416.5,435.833 416.5,386.167 416.5,336.5C 416.169,310.661 416.502,284.995 417.5,259.5C 417.5,308.833 417.5,358.167 417.5,407.5C 417.5,423.5 417.5,439.5 417.5,455.5C 417.168,465.522 417.501,475.522 418.5,485.5C 419.086,485.709 419.586,486.043 420,486.5C 419.315,482.689 420.482,482.022 423.5,484.5C 425.816,481.849 428.149,479.182 430.5,476.5C 432.244,477.03 433.744,477.03 435,476.5C 435.374,475.584 435.874,474.75 436.5,474C 435.66,472.334 436.16,472.167 438,473.5C 439.763,470.336 442.263,469.169 445.5,470C 444.66,468.334 445.16,468.167 447,469.5C 447.667,467.5 448.333,465.5 449,463.5C 449.333,463.833 449.667,464.167 450,464.5C 451.509,463.91 453.009,463.244 454.5,462.5C 455.902,461.158 455.569,460.324 453.5,460C 455.131,457.549 456.964,457.049 459,458.5C 460.275,454.724 462.775,452.057 466.5,450.5C 467.128,448.742 468.128,447.242 469.5,446C 469.5,444.667 469.5,443.333 469.5,442C 470.325,440.312 471.325,440.145 472.5,441.5C 473.538,439.556 474.871,438.056 476.5,437C 475.833,436.667 475.167,436.333 474.5,436C 475.787,434.59 476.954,433.09 478,431.5C 477.923,432.738 478.089,433.738 478.5,434.5C 480.083,431.669 481.916,429.003 484,426.5C 485.666,427.34 485.833,426.84 484.5,425C 487.089,420.657 489.255,416.157 491,411.5C 491.914,412.654 492.747,412.487 493.5,411C 492.044,410.577 491.544,409.744 492,408.5C 493.609,407.853 495.109,407.02 496.5,406C 495.833,405.667 495.167,405.333 494.5,405C 495.833,404.333 495.833,403.667 494.5,403C 496.167,401.833 497.833,400.667 499.5,399.5C 499.5,397.833 499.5,396.167 499.5,394.5C 500.284,392.971 501.284,391.304 502.5,389.5C 501.571,387.678 502.238,386.345 504.5,385.5C 503.833,384.833 503.167,384.167 502.5,383.5C 503.898,381.87 504.898,380.036 505.5,378C 504.833,377.333 504.167,376.667 503.5,376C 505.394,374.921 505.727,373.587 504.5,372C 505.742,371.689 506.742,372.189 507.5,373.5C 508.262,372.372 508.929,371.205 509.5,370C 505.845,368.525 506.178,367.191 510.5,366C 507.972,364.684 507.972,363.517 510.5,362.5C 506.958,360.262 507.291,358.095 511.5,356C 510.833,355.333 510.167,354.667 509.5,354C 510.833,352 510.833,350 509.5,348C 510.88,346.676 511.214,345.343 510.5,344C 511.623,342.956 512.956,342.29 514.5,342C 511.162,340.149 509.829,337.315 510.5,333.5C 512.346,333.778 513.68,333.111 514.5,331.5C 513.418,331.251 512.085,331.085 510.5,331C 509.911,329.127 510.578,327.46 512.5,326C 510.842,325.275 510.342,324.108 511,322.5C 511.451,324.929 512.285,325.096 513.5,323C 512.196,322.196 511.529,321.029 511.5,319.5C 513.133,317.613 512.8,316.113 510.5,315C 510.616,313.732 510.949,312.398 511.5,311C 510.833,310.667 510.167,310.333 509.5,310C 510.574,309.261 511.241,308.261 511.5,307C 509.022,303.015 507.355,299.015 506.5,295C 507.079,292.946 507.412,290.946 507.5,289C 504.973,286.426 503.806,283.26 504,279.5C 501.565,277.563 501.398,275.73 503.5,274C 501.863,271.236 499.863,268.736 497.5,266.5C 497.709,265.914 498.043,265.414 498.5,265C 496.135,260.131 493.802,255.298 491.5,250.5 Z"/></g>
<g><path style="opacity:1" fill="#e3e3e5" d="M 283.5,366.5 C 284.309,367.469 285.309,368.302 286.5,369C 285.833,369.333 285.167,369.667 284.5,370C 286.904,371.822 289.57,373.156 292.5,374C 291.833,375.333 290.833,376.333 289.5,377C 291.061,377.318 292.228,378.151 293,379.5C 294.569,379.153 296.402,378.986 298.5,379C 297.833,380 297.167,381 296.5,382C 297.931,382.465 299.097,383.299 300,384.5C 302.557,383.354 303.89,384.354 304,387.5C 305,386.833 306,386.167 307,385.5C 309.034,386.743 309.867,388.243 309.5,390C 310.549,390.492 311.549,390.326 312.5,389.5C 313.251,390.376 313.751,391.376 314,392.5C 314.775,390.777 316.108,389.777 318,389.5C 319.927,390.861 322.094,391.694 324.5,392C 321.85,395.207 322.016,395.707 325,393.5C 325.29,395.044 325.956,396.377 327,397.5C 327.98,395.741 328.647,394.074 329,392.5C 329.76,394.497 330.26,396.163 330.5,397.5C 331.216,395.518 332.383,393.851 334,392.5C 335.097,394.053 336.43,395.386 338,396.5C 341.026,392.382 343.026,392.715 344,397.5C 344.583,395.998 345.416,394.665 346.5,393.5C 349.712,395.107 352.545,394.44 355,391.5C 355.333,392.167 355.667,392.833 356,393.5C 356.227,390.94 357.56,389.274 360,388.5C 361.836,390.131 361.336,390.798 358.5,390.5C 358.281,391.675 358.614,392.675 359.5,393.5C 360.696,393.154 360.696,392.654 359.5,392C 361.618,391.74 363.284,390.74 364.5,389C 366.279,389.979 367.945,389.646 369.5,388C 368.833,387.667 368.167,387.333 367.5,387C 369.034,384.782 370.701,382.615 372.5,380.5C 373.768,381.428 375.101,381.595 376.5,381C 375.833,380.667 375.167,380.333 374.5,380C 375.749,378.176 376.915,378.343 378,380.5C 379.698,378.734 381.031,376.734 382,374.5C 382.423,375.956 383.256,376.456 384.5,376C 384.167,375.667 383.833,375.333 383.5,375C 384.876,372.457 386.043,372.291 387,374.5C 386.973,372.677 387.807,371.01 389.5,369.5C 389.5,385.167 389.5,400.833 389.5,416.5C 388.178,416.67 387.011,416.337 386,415.5C 382.369,417.216 378.869,419.216 375.5,421.5C 374.402,425.361 373.569,425.361 373,421.5C 369.18,424.524 365.013,425.857 360.5,425.5C 359.719,426.737 358.719,427.737 357.5,428.5C 356.483,425.972 355.316,425.972 354,428.5C 353.374,426.009 352.541,426.009 351.5,428.5C 349.258,427.913 347.091,427.579 345,427.5C 343.51,428.682 342.177,429.682 341,430.5C 339.437,427.956 337.937,427.956 336.5,430.5C 335.522,430.023 334.689,429.357 334,428.5C 333.275,429.059 332.442,429.392 331.5,429.5C 328.816,427.995 326.15,427.328 323.5,427.5C 322.685,429.276 321.518,429.943 320,429.5C 316.792,425.928 312.959,424.928 308.5,426.5C 308.467,425.011 307.967,423.678 307,422.5C 306,422.833 305,423.167 304,423.5C 303.667,422.833 303.333,422.167 303,421.5C 302.066,424.965 300.566,425.298 298.5,422.5C 299.529,422.704 300.529,422.204 301.5,421C 300.234,420.691 299.067,420.191 298,419.5C 296.665,423.361 295.499,423.361 294.5,419.5C 294.709,418.914 295.043,418.414 295.5,418C 294.256,417.544 293.423,418.044 293,419.5C 292.633,415.719 291.3,415.052 289,417.5C 288.085,416.672 287.419,415.672 287,414.5C 286.014,415.171 284.847,415.171 283.5,414.5C 283.5,398.5 283.5,382.5 283.5,366.5 Z"/></g>
<g><path style="opacity:1" fill="#3958bf" d="M 149.5,389.5 C 149.5,404.167 149.5,418.833 149.5,433.5C 100.833,433.5 52.1667,433.5 3.5,433.5C 3.5,429.167 3.5,424.833 3.5,420.5C 3.5,410.167 3.5,399.833 3.5,389.5C 52.1667,389.5 100.833,389.5 149.5,389.5 Z"/></g>
<g><path style="opacity:1" fill="#3958c0" d="M 390.5,336.5 C 399.167,336.5 407.833,336.5 416.5,336.5C 416.5,386.167 416.5,435.833 416.5,485.5C 407.833,485.5 399.167,485.5 390.5,485.5C 390.5,435.833 390.5,386.167 390.5,336.5 Z"/></g>
<g><path style="opacity:1" fill="#3958bf" d="M 523.5,389.5 C 572.167,389.5 620.833,389.5 669.5,389.5C 669.5,399.833 669.5,410.167 669.5,420.5C 669.5,424.833 669.5,429.167 669.5,433.5C 620.833,433.5 572.167,433.5 523.5,433.5C 523.5,418.833 523.5,404.167 523.5,389.5 Z"/></g>
<g><path style="opacity:1" fill="#dddddf" d="M 283.5,414.5 C 284.847,415.171 286.014,415.171 287,414.5C 287.419,415.672 288.085,416.672 289,417.5C 291.3,415.052 292.633,415.719 293,419.5C 293.423,418.044 294.256,417.544 295.5,418C 295.043,418.414 294.709,418.914 294.5,419.5C 295.499,423.361 296.665,423.361 298,419.5C 299.067,420.191 300.234,420.691 301.5,421C 300.529,422.204 299.529,422.704 298.5,422.5C 300.566,425.298 302.066,424.965 303,421.5C 303.333,422.167 303.667,422.833 304,423.5C 305,423.167 306,422.833 307,422.5C 307.967,423.678 308.467,425.011 308.5,426.5C 312.959,424.928 316.792,425.928 320,429.5C 321.518,429.943 322.685,429.276 323.5,427.5C 326.15,427.328 328.816,427.995 331.5,429.5C 332.442,429.392 333.275,429.059 334,428.5C 334.689,429.357 335.522,430.023 336.5,430.5C 337.937,427.956 339.437,427.956 341,430.5C 342.177,429.682 343.51,428.682 345,427.5C 347.091,427.579 349.258,427.913 351.5,428.5C 352.541,426.009 353.374,426.009 354,428.5C 355.316,425.972 356.483,425.972 357.5,428.5C 358.719,427.737 359.719,426.737 360.5,425.5C 365.013,425.857 369.18,424.524 373,421.5C 373.569,425.361 374.402,425.361 375.5,421.5C 378.869,419.216 382.369,417.216 386,415.5C 387.011,416.337 388.178,416.67 389.5,416.5C 389.5,430.167 389.5,443.833 389.5,457.5C 388.778,457.082 388.278,456.416 388,455.5C 386.287,457.193 384.287,458.526 382,459.5C 379.67,458.844 378.003,459.844 377,462.5C 374.502,461.879 372.168,462.545 370,464.5C 368.777,462.015 367.277,461.848 365.5,464C 367.595,464.556 367.762,465.056 366,465.5C 365.055,465.095 364.388,464.428 364,463.5C 360.51,464.434 357.01,465.434 353.5,466.5C 352.284,465.998 351.117,465.665 350,465.5C 347.436,468.806 344.936,469.139 342.5,466.5C 339.833,469.167 337.167,469.167 334.5,466.5C 333.483,469.028 332.316,469.028 331,466.5C 328.373,468.988 325.54,469.155 322.5,467C 323.888,466.111 323.722,465.611 322,465.5C 321.05,466.022 320.216,466.689 319.5,467.5C 318.086,466.376 316.586,465.376 315,464.5C 313.184,466.441 311.184,467.108 309,466.5C 308,465.167 307,463.833 306,462.5C 303.46,463.876 301.46,463.21 300,460.5C 299.333,461.167 298.667,461.833 298,462.5C 296.352,461.283 294.519,460.45 292.5,460C 292.833,459.667 293.167,459.333 293.5,459C 292.584,458.626 291.75,458.126 291,457.5C 289.424,456.987 288.091,457.654 287,459.5C 285.238,459.056 285.405,458.556 287.5,458C 286.207,457.51 284.873,457.343 283.5,457.5C 283.5,443.167 283.5,428.833 283.5,414.5 Z"/></g>
<g><path style="opacity:1" fill="#3c56be" d="M 2.5,420.5 C 2.83333,420.5 3.16667,420.5 3.5,420.5C 3.5,424.833 3.5,429.167 3.5,433.5C 52.1667,433.5 100.833,433.5 149.5,433.5C 149.5,436.167 149.5,438.833 149.5,441.5C 149.5,456.167 149.5,470.833 149.5,485.5C 100.833,485.5 52.1667,485.5 3.5,485.5C 3.5,504.5 3.5,523.5 3.5,542.5C 3.16667,542.5 2.83333,542.5 2.5,542.5C 2.5,501.833 2.5,461.167 2.5,420.5 Z"/></g>
<g><path style="opacity:1" fill="#3c56be" d="M 669.5,420.5 C 669.833,420.5 670.167,420.5 670.5,420.5C 670.5,461.167 670.5,501.833 670.5,542.5C 670.167,542.5 669.833,542.5 669.5,542.5C 669.5,523.5 669.5,504.5 669.5,485.5C 620.833,485.5 572.167,485.5 523.5,485.5C 523.5,470.833 523.5,456.167 523.5,441.5C 523.5,438.833 523.5,436.167 523.5,433.5C 572.167,433.5 620.833,433.5 669.5,433.5C 669.5,429.167 669.5,424.833 669.5,420.5 Z"/></g>
<g><path style="opacity:1" fill="#cccdce" d="M 149.5,441.5 C 151.549,441.706 151.883,442.539 150.5,444C 153.544,444.359 153.878,445.026 151.5,446C 153.137,447.951 154.637,447.784 156,445.5C 156.36,447.421 157.194,449.088 158.5,450.5C 158.291,451.086 157.957,451.586 157.5,452C 158.981,452.98 160.315,454.147 161.5,455.5C 160.975,456.192 160.308,456.692 159.5,457C 161.527,458.879 163.86,460.046 166.5,460.5C 165.79,463.86 167.124,465.693 170.5,466C 169.833,467 169.167,468 168.5,469C 170.462,471.498 172.795,472.498 175.5,472C 174.542,473.147 174.875,474.147 176.5,475C 175.253,476.494 175.253,477.994 176.5,479.5C 177.799,478.91 178.632,477.91 179,476.5C 180.113,477.76 180.28,478.927 179.5,480C 180.76,481.113 181.927,481.28 183,480.5C 185.668,481.98 185.835,483.48 183.5,485C 185.705,486.077 187.705,486.743 189.5,487C 189.043,487.414 188.709,487.914 188.5,488.5C 189.183,491.461 190.016,491.795 191,489.5C 193.376,490.376 194.876,492.042 195.5,494.5C 199.824,495.224 201.657,497.557 201,501.5C 202.716,500.448 203.716,501.114 204,503.5C 205.868,502.328 207.702,502.495 209.5,504C 209.167,504.333 208.833,504.667 208.5,505C 209.5,505.333 210.5,505.667 211.5,506C 210.72,507.073 210.887,508.24 212,509.5C 212.308,508.692 212.808,508.025 213.5,507.5C 213.911,508.262 214.077,509.262 214,510.5C 214.667,509.833 215.333,509.167 216,508.5C 216.45,510.519 217.283,512.352 218.5,514C 219.449,514.617 220.282,514.451 221,513.5C 223.016,514.747 224.849,516.081 226.5,517.5C 203.498,517.667 180.498,517.5 157.5,517C 154.333,515.167 151.833,512.667 150,509.5C 149.5,501.507 149.334,493.507 149.5,485.5C 149.5,470.833 149.5,456.167 149.5,441.5 Z"/></g>
<g><path style="opacity:1" fill="#374eac" d="M 2.5,253.5 C 2.5,273.833 2.5,294.167 2.5,314.5C 2.5,349.833 2.5,385.167 2.5,420.5C 2.5,461.167 2.5,501.833 2.5,542.5C 2.33335,578.502 2.50001,614.502 3,650.5C 3.43957,652.866 3.93957,655.199 4.5,657.5C 2.82665,656.657 1.65999,655.324 1,653.5C 0.500001,535.5 0.333335,417.5 0.5,299.5C 1.16667,284.167 1.83333,268.833 2.5,253.5 Z"/></g>
<g><path style="opacity:1" fill="#374eac" d="M 670.5,253.5 C 671.167,268.833 671.833,284.167 672.5,299.5C 672.667,417.5 672.5,535.5 672,653.5C 671.623,654.942 670.79,655.942 669.5,656.5C 670.488,618.543 670.821,580.543 670.5,542.5C 670.5,501.833 670.5,461.167 670.5,420.5C 670.5,385.167 670.5,349.833 670.5,314.5C 670.5,294.167 670.5,273.833 670.5,253.5 Z"/></g>
<g><path style="opacity:1" fill="#d6d6d8" d="M 389.5,457.5 C 389.5,473.833 389.5,490.167 389.5,506.5C 388.498,511.671 385.498,515.171 380.5,517C 350.833,517.667 321.167,517.667 291.5,517C 287.53,514.869 284.863,511.702 283.5,507.5C 283.5,490.833 283.5,474.167 283.5,457.5C 284.873,457.343 286.207,457.51 287.5,458C 285.405,458.556 285.238,459.056 287,459.5C 288.091,457.654 289.424,456.987 291,457.5C 291.75,458.126 292.584,458.626 293.5,459C 293.167,459.333 292.833,459.667 292.5,460C 294.519,460.45 296.352,461.283 298,462.5C 298.667,461.833 299.333,461.167 300,460.5C 301.46,463.21 303.46,463.876 306,462.5C 307,463.833 308,465.167 309,466.5C 311.184,467.108 313.184,466.441 315,464.5C 316.586,465.376 318.086,466.376 319.5,467.5C 320.216,466.689 321.05,466.022 322,465.5C 323.722,465.611 323.888,466.111 322.5,467C 325.54,469.155 328.373,468.988 331,466.5C 332.316,469.028 333.483,469.028 334.5,466.5C 337.167,469.167 339.833,469.167 342.5,466.5C 344.936,469.139 347.436,468.806 350,465.5C 351.117,465.665 352.284,465.998 353.5,466.5C 357.01,465.434 360.51,464.434 364,463.5C 364.388,464.428 365.055,465.095 366,465.5C 367.762,465.056 367.595,464.556 365.5,464C 367.277,461.848 368.777,462.015 370,464.5C 372.168,462.545 374.502,461.879 377,462.5C 378.003,459.844 379.67,458.844 382,459.5C 384.287,458.526 386.287,457.193 388,455.5C 388.278,456.416 388.778,457.082 389.5,457.5 Z"/></g>
<g><path style="opacity:1" fill="#ccccce" d="M 523.5,441.5 C 523.5,456.167 523.5,470.833 523.5,485.5C 523.666,493.507 523.5,501.507 523,509.5C 521.167,512.667 518.667,515.167 515.5,517C 492.836,517.5 470.169,517.667 447.5,517.5C 450.937,514.688 455.437,511.688 461,508.5C 461.333,508.833 461.667,509.167 462,509.5C 462.632,507.469 463.799,505.802 465.5,504.5C 466.086,504.709 466.586,505.043 467,505.5C 467.611,501.728 468.611,501.728 470,505.5C 471.852,503.77 471.686,502.604 469.5,502C 471.653,500.372 473.987,499.039 476.5,498C 474.026,495.572 474.526,495.072 478,496.5C 477.852,495.175 478.018,494.008 478.5,493C 480.5,492.667 482.5,492.333 484.5,492C 482.098,490.529 482.264,489.029 485,487.5C 485.667,488.833 486.333,488.833 487,487.5C 487.483,486.552 487.649,485.552 487.5,484.5C 489.06,484.481 490.56,484.148 492,483.5C 493.892,486.39 494.725,486.056 494.5,482.5C 493.127,482.657 491.793,482.49 490.5,482C 492.957,479.743 495.624,478.743 498.5,479C 495.892,475.969 496.892,474.635 501.5,475C 500.5,474.667 499.5,474.333 498.5,474C 499.876,471.558 501.71,470.725 504,471.5C 504.353,470.328 504.187,469.162 503.5,468C 504.581,466.629 505.415,465.129 506,463.5C 506.826,465.405 507.993,465.739 509.5,464.5C 509.154,463.304 508.654,463.304 508,464.5C 507.333,463.833 507.333,463.167 508,462.5C 509.5,461.333 511,460.167 512.5,459C 512.167,458.667 511.833,458.333 511.5,458C 512.977,455.852 514.977,454.518 517.5,454C 516.378,452.387 516.878,451.22 519,450.5C 519.413,447.768 520.08,445.101 521,442.5C 521.671,441.748 522.504,441.414 523.5,441.5 Z"/></g>
<g><path style="opacity:1" fill="#4154bd" d="M 256.5,433.5 C 265.167,433.5 273.833,433.5 282.5,433.5C 282.169,458.339 282.502,483.006 283.5,507.5C 284.863,511.702 287.53,514.869 291.5,517C 321.167,517.667 350.833,517.667 380.5,517C 385.498,515.171 388.498,511.671 389.5,506.5C 390.491,499.687 390.825,492.687 390.5,485.5C 399.167,485.5 407.833,485.5 416.5,485.5C 416.334,492.841 416.5,500.174 417,507.5C 418.198,511.746 420.698,514.913 424.5,517C 432.159,517.5 439.826,517.666 447.5,517.5C 470.169,517.667 492.836,517.5 515.5,517C 518.667,515.167 521.167,512.667 523,509.5C 523.5,501.507 523.666,493.507 523.5,485.5C 572.167,485.5 620.833,485.5 669.5,485.5C 669.5,504.5 669.5,523.5 669.5,542.5C 669.5,562.167 669.5,581.833 669.5,601.5C 447.5,601.5 225.5,601.5 3.5,601.5C 3.5,581.833 3.5,562.167 3.5,542.5C 3.5,523.5 3.5,504.5 3.5,485.5C 52.1667,485.5 100.833,485.5 149.5,485.5C 149.334,493.507 149.5,501.507 150,509.5C 151.833,512.667 154.333,515.167 157.5,517C 180.498,517.5 203.498,517.667 226.5,517.5C 234.253,517.896 241.92,517.396 249.5,516C 252.734,514.056 254.9,511.222 256,507.5C 256.5,482.836 256.667,458.169 256.5,433.5 Z"/></g>
<g><path style="opacity:1" fill="#31469a" d="M -0.5,19.5 C 0.4994,112.665 0.832733,205.999 0.5,299.5C 0.333335,417.5 0.500001,535.5 1,653.5C 1.65999,655.324 2.82665,656.657 4.5,657.5C 5.16667,659.5 5.83333,661.5 6.5,663.5C 4.16667,660.833 1.83333,658.167 -0.5,655.5C -0.5,443.5 -0.5,231.5 -0.5,19.5 Z"/></g>
<g><path style="opacity:1" fill="#314599" d="M 673.5,18.5 C 673.5,231.833 673.5,445.167 673.5,658.5C 669.441,662.565 665.107,666.232 660.5,669.5C 660.5,669.167 660.5,668.833 660.5,668.5C 665.004,665.658 668.004,661.658 669.5,656.5C 670.79,655.942 671.623,654.942 672,653.5C 672.5,535.5 672.667,417.5 672.5,299.5C 672.167,205.665 672.501,111.999 673.5,18.5 Z"/></g>
<g><path style="opacity:1" fill="#4552bc" d="M 2.5,542.5 C 2.83333,542.5 3.16667,542.5 3.5,542.5C 3.5,562.167 3.5,581.833 3.5,601.5C 225.5,601.5 447.5,601.5 669.5,601.5C 669.5,581.833 669.5,562.167 669.5,542.5C 669.833,542.5 670.167,542.5 670.5,542.5C 670.821,580.543 670.488,618.543 669.5,656.5C 668.004,661.658 665.004,665.658 660.5,668.5C 445.511,669.492 230.511,669.825 15.5,669.5C 11.4272,669.092 8.42724,667.092 6.5,663.5C 5.83333,661.5 5.16667,659.5 4.5,657.5C 3.93957,655.199 3.43957,652.866 3,650.5C 2.50001,614.502 2.33335,578.502 2.5,542.5 Z"/></g>
<g><path style="opacity:0.987" fill="#131633" d="M 673.5,658.5 C 673.5,659.167 673.5,659.833 673.5,660.5C 670.5,666.833 665.833,671.5 659.5,674.5C 444.167,674.5 228.833,674.5 13.5,674.5C 8.24946,672.252 4.24946,668.585 1.5,663.5C 5.68994,666.177 10.0233,668.677 14.5,671C 228.833,671.667 443.167,671.667 657.5,671C 658.737,670.768 659.737,670.268 660.5,669.5C 665.107,666.232 669.441,662.565 673.5,658.5 Z"/></g>
<g><path style="opacity:1" fill="#3d46a2" d="M 660.5,668.5 C 660.5,668.833 660.5,669.167 660.5,669.5C 445.354,670.83 230.354,670.83 15.5,669.5C 230.511,669.825 445.511,669.492 660.5,668.5 Z"/></g>
<g><path style="opacity:1" fill="#29306f" d="M -0.5,655.5 C 1.83333,658.167 4.16667,660.833 6.5,663.5C 8.42724,667.092 11.4272,669.092 15.5,669.5C 230.354,670.83 445.354,670.83 660.5,669.5C 659.737,670.268 658.737,670.768 657.5,671C 443.167,671.667 228.833,671.667 14.5,671C 10.0233,668.677 5.68994,666.177 1.5,663.5C 1.06795,662.29 0.40128,661.29 -0.5,660.5C -0.5,658.833 -0.5,657.167 -0.5,655.5 Z"/></g>
</svg>
