<?xml version="1.0" encoding="UTF-8"?>
<!DOCTYPE svg PUBLIC "-//W3C//DTD SVG 1.1//EN" "http://www.w3.org/Graphics/SVG/1.1/DTD/svg11.dtd">
<svg xmlns="http://www.w3.org/2000/svg" version="1.1" width="673px" height="673px" style="shape-rendering:geometricPrecision; text-rendering:geometricPrecision; image-rendering:optimizeQuality; fill-rule:evenodd; clip-rule:evenodd" xmlns:xlink="http://www.w3.org/1999/xlink">
<g><path style="opacity:1" fill="#787bcb" d="M 13.5,-0.5 C 228.5,-0.5 443.5,-0.5 658.5,-0.5C 659.965,0.736849 661.632,1.73685 663.5,2.5C 661.052,3.47307 658.385,3.8064 655.5,3.5C 440.5,2.83333 225.5,2.16667 10.5,1.5C 11.7095,1.06795 12.7095,0.40128 13.5,-0.5 Z"/></g>
<g><path style="opacity:1" fill="#6569c4" d="M 10.5,1.5 C 225.5,2.16667 440.5,2.83333 655.5,3.5C 442.5,3.33333 229.5,3.5 16.5,4C 11.745,5.57843 7.74498,8.2451 4.5,12C 3.25057,12.7401 2.25057,12.5735 1.5,11.5C 3.0823,6.91639 6.0823,3.58306 10.5,1.5 Z"/></g>
<g><path style="opacity:1" fill="#5559be" d="M 663.5,2.5 C 667.635,5.29577 670.635,8.96243 672.5,13.5C 672.5,13.8333 672.5,14.1667 672.5,14.5C 671.102,16.1088 669.435,16.9421 667.5,17C 665.438,14.9324 664.272,12.4324 664,9.5C 662.68,7.34558 660.847,5.84558 658.5,5C 445.167,4.33333 231.833,4.33333 18.5,5C 11.9554,6.88259 7.28872,10.8826 4.5,17C 2.89253,16.9813 1.22586,16.8146 -0.5,16.5C -0.5,15.5 -0.5,14.5 -0.5,13.5C 0.166667,12.8333 0.833333,12.1667 1.5,11.5C 2.25057,12.5735 3.25057,12.7401 4.5,12C 7.74498,8.2451 11.745,5.57843 16.5,4C 229.5,3.5 442.5,3.33333 655.5,3.5C 658.385,3.8064 661.052,3.47307 663.5,2.5 Z"/></g>
<g><path style="opacity:1" fill="#4e4eba" d="M 672.5,14.5 C 672.5,15.1667 672.5,15.8333 672.5,16.5C 671.21,17.0577 670.377,18.0577 670,19.5C 669.5,78.8324 669.333,138.166 669.5,197.5C 669.167,197.5 668.833,197.5 668.5,197.5C 668.5,179.833 668.5,162.167 668.5,144.5C 446.833,144.5 225.167,144.5 3.5,144.5C 3.5,162.167 3.5,179.833 3.5,197.5C 3.16667,197.5 2.83333,197.5 2.5,197.5C 2.66666,138.166 2.49999,78.8324 2,19.5C 1.2917,18.6195 0.458367,17.9528 -0.5,17.5C -0.5,17.1667 -0.5,16.8333 -0.5,16.5C 1.22586,16.8146 2.89253,16.9813 4.5,17C 7.28872,10.8826 11.9554,6.88259 18.5,5C 231.833,4.33333 445.167,4.33333 658.5,5C 660.847,5.84558 662.68,7.34558 664,9.5C 664.272,12.4324 665.438,14.9324 667.5,17C 669.435,16.9421 671.102,16.1088 672.5,14.5 Z"/></g>
<g><path style="opacity:1" fill="#544cb8" d="M 668.5,197.5 C 668.5,216.167 668.5,234.833 668.5,253.5C 591.167,253.5 513.833,253.5 436.5,253.5C 432.856,244.876 428.19,236.876 422.5,229.5C 405.892,205.186 383.892,187.52 356.5,176.5C 297.314,154.38 244.314,164.546 197.5,207C 184.208,220.775 173.541,236.275 165.5,253.5C 111.5,253.5 57.5,253.5 3.5,253.5C 3.5,234.833 3.5,216.167 3.5,197.5C 3.5,179.833 3.5,162.167 3.5,144.5C 225.167,144.5 446.833,144.5 668.5,144.5C 668.5,162.167 668.5,179.833 668.5,197.5 Z"/></g>
<g><path style="opacity:1" fill="#d2d2d4" d="M 356.5,176.5 C 354.856,176.286 353.356,176.62 352,177.5C 351.3,175.968 350.134,174.968 348.5,174.5C 348.678,175.956 347.844,177.289 346,178.5C 345.667,177.167 345.333,175.833 345,174.5C 344.411,178.07 343.077,178.404 341,175.5C 340.055,175.905 339.388,176.572 339,177.5C 336.978,176.214 334.811,175.214 332.5,174.5C 331.833,175.167 331.167,175.833 330.5,176.5C 329.264,175.754 327.93,175.421 326.5,175.5C 326.649,176.552 326.483,177.552 326,178.5C 323.807,177.227 321.64,176.894 319.5,177.5C 318.468,175.96 317.135,175.46 315.5,176C 316.167,176.333 316.833,176.667 317.5,177C 315.324,177.163 313.491,177.996 312,179.5C 311.667,178.5 311.333,177.5 311,176.5C 308.796,179.238 306.129,179.905 303,178.5C 301.328,179.505 299.995,180.839 299,182.5C 297.247,181.373 295.413,180.373 293.5,179.5C 291.541,180.748 290.041,182.415 289,184.5C 288.667,183.833 288.333,183.167 288,182.5C 287.716,184.886 286.716,185.552 285,184.5C 283.667,185.167 282.667,186.167 282,187.5C 281.692,186.692 281.192,186.025 280.5,185.5C 279.28,186.711 278.113,186.711 277,185.5C 276.395,187.481 275.395,187.815 274,186.5C 273.581,187.672 272.915,188.672 272,189.5C 270.56,186.665 268.727,186.165 266.5,188C 268.968,189.588 269.134,191.422 267,193.5C 265.197,189.488 264.197,189.822 264,194.5C 263.517,193.552 263.351,192.552 263.5,191.5C 260.203,191.329 259.869,191.995 262.5,193.5C 260.245,196.988 257.245,198.155 253.5,197C 253.833,197.333 254.167,197.667 254.5,198C 250.722,199.303 247.556,201.47 245,204.5C 244.667,203.5 244.333,202.5 244,201.5C 242.37,202.72 241.37,204.72 241,207.5C 240.29,206.027 239.124,205.36 237.5,205.5C 237.649,206.552 237.483,207.552 237,208.5C 235.391,209.147 233.891,209.98 232.5,211C 233.34,212.666 232.84,212.833 231,211.5C 230.558,213.679 229.558,214.345 228,213.5C 228.148,214.825 227.982,215.992 227.5,217C 226.234,217.309 225.067,217.809 224,218.5C 223.667,218.167 223.333,217.833 223,217.5C 222.893,221.145 222.06,223.145 220.5,223.5C 219.448,223.351 218.448,223.517 217.5,224C 218.956,224.423 219.456,225.256 219,226.5C 218.667,226.167 218.333,225.833 218,225.5C 217.005,227.161 215.672,228.495 214,229.5C 210.243,226.795 209.743,227.295 212.5,231C 209.761,230.829 207.761,232.329 206.5,235.5C 206.709,236.086 207.043,236.586 207.5,237C 206.069,237.465 204.903,238.299 204,239.5C 203.342,237.892 203.842,236.725 205.5,236C 204.552,235.517 203.552,235.351 202.5,235.5C 202.079,237.91 200.746,239.743 198.5,241C 202.456,242.114 202.456,242.947 198.5,243.5C 198.672,245.492 198.005,247.158 196.5,248.5C 196.709,249.086 197.043,249.586 197.5,250C 196.151,250.772 195.318,251.939 195,253.5C 194.195,251.099 193.362,251.266 192.5,254C 193.167,254.333 193.833,254.667 194.5,255C 192.817,257.014 190.817,258.68 188.5,260C 188.673,262.407 188.673,264.74 188.5,267C 187.874,267.75 187.374,268.584 187,269.5C 186.667,269.167 186.333,268.833 186,268.5C 185.667,269.833 185.333,271.167 185,272.5C 184.346,271.304 183.846,271.304 183.5,272.5C 184.052,274.003 184.052,275.669 183.5,277.5C 182.5,277.5 181.5,277.5 180.5,277.5C 179.862,279.46 179.862,281.293 180.5,283C 178.226,283.47 176.226,284.47 174.5,286C 175.471,287.204 176.471,287.704 177.5,287.5C 176.675,288.386 175.675,288.719 174.5,288.5C 174.137,290.911 175.137,292.411 177.5,293C 174.046,293.293 173.712,294.626 176.5,297C 175.251,298.824 174.085,298.657 173,296.5C 172.25,297.126 171.416,297.626 170.5,298C 171.833,299 171.833,300 170.5,301C 172.878,301.974 172.544,302.641 169.5,303C 170.428,303.388 171.095,304.055 171.5,305C 170.813,306.162 170.647,307.328 171,308.5C 171.654,307.304 172.154,307.304 172.5,308.5C 172.089,310.503 170.755,312.336 168.5,314C 169.5,314.333 170.5,314.667 171.5,315C 169.901,316.066 168.901,317.566 168.5,319.5C 167.761,321.6 167.761,323.933 168.5,326.5C 168.062,327.506 167.396,327.506 166.5,326.5C 165.554,330.273 166.221,333.773 168.5,337C 168.06,339.559 168.06,342.392 168.5,345.5C 167.727,349.096 166.727,352.596 165.5,356C 167.815,357.607 168.481,359.607 167.5,362C 168.35,363.904 169.35,365.904 170.5,368C 167.833,370 167.833,372 170.5,374C 169.584,374.278 168.918,374.778 168.5,375.5C 164.429,368.679 161.429,361.346 159.5,353.5C 152.984,329.46 151.984,305.126 156.5,280.5C 158.871,271.386 161.871,262.386 165.5,253.5C 173.541,236.275 184.208,220.775 197.5,207C 244.314,164.546 297.314,154.38 356.5,176.5 Z"/></g>
<g><path style="opacity:1" fill="#d6d6d8" d="M 356.5,176.5 C 383.892,187.52 405.892,205.186 422.5,229.5C 421.504,229.414 420.671,229.748 420,230.5C 418.359,229.389 417.025,227.389 416,224.5C 415.282,225.451 414.449,225.617 413.5,225C 414.451,224.282 414.617,223.449 414,222.5C 413.282,223.451 412.449,223.617 411.5,223C 411.324,221.308 410.824,219.808 410,218.5C 409.085,219.328 408.419,220.328 408,221.5C 407.333,220.167 406.667,218.833 406,217.5C 405.692,218.308 405.192,218.975 404.5,219.5C 401.434,216.008 397.768,214.508 393.5,215C 393.833,214.667 394.167,214.333 394.5,214C 392.729,211.887 391.229,212.053 390,214.5C 389.003,212.834 387.503,211.334 385.5,210C 385.833,209.667 386.167,209.333 386.5,209C 382.959,208.638 379.459,207.805 376,206.5C 375.127,206.735 374.293,207.069 373.5,207.5C 371.889,205.465 370.056,204.798 368,205.5C 367.409,202.855 366.075,202.189 364,203.5C 362.715,203.05 361.548,202.383 360.5,201.5C 359.808,202.025 359.308,202.692 359,203.5C 358.751,202.376 358.251,201.376 357.5,200.5C 358.061,202.066 357.394,203.399 355.5,204.5C 353.868,203.703 352.368,202.703 351,201.5C 348.668,202.882 347.001,202.216 346,199.5C 345.511,201.604 344.345,201.938 342.5,200.5C 339.947,202.627 337.78,201.96 336,198.5C 335,199.833 334,201.167 333,202.5C 330.28,199.681 327.947,200.014 326,203.5C 325.21,201.21 323.876,200.877 322,202.5C 318.868,199.58 316.201,199.913 314,203.5C 311.641,203.214 309.308,202.88 307,202.5C 304.099,204.035 301.265,205.701 298.5,207.5C 294.672,204.985 291.339,205.652 288.5,209.5C 287.035,208.391 286.035,208.891 285.5,211C 286.167,211.333 286.833,211.667 287.5,212C 279.527,212.826 279.527,213.326 287.5,213.5C 248.918,220.408 222.251,242.075 207.5,278.5C 199.84,300.218 199.506,322.218 206.5,344.5C 204.075,343.286 202.575,341.286 202,338.5C 200.555,340.612 200.722,342.778 202.5,345C 202.167,345.333 201.833,345.667 201.5,346C 203.158,346.725 203.658,347.892 203,349.5C 202.549,347.071 201.715,346.904 200.5,349C 201.878,350.713 203.545,352.047 205.5,353C 201.169,352.859 200.502,354.192 203.5,357C 202.167,357.667 202.167,358.333 203.5,359C 202.833,359.333 202.167,359.667 201.5,360C 202.623,361.044 203.956,361.71 205.5,362C 203.819,363.945 203.152,365.945 203.5,368C 205.394,369.079 205.727,370.413 204.5,372C 205.328,372.915 206.328,373.581 207.5,374C 206.663,375.011 206.33,376.178 206.5,377.5C 207.675,377.281 208.675,377.614 209.5,378.5C 209.062,379.506 208.396,379.506 207.5,378.5C 206.167,379.5 206.167,380.5 207.5,381.5C 208.086,381.291 208.586,380.957 209,380.5C 209.5,381.667 210.333,382.5 211.5,383C 209.641,383.684 207.974,384.684 206.5,386C 208.959,386.724 209.959,388.057 209.5,390C 210.5,390.333 211.5,390.667 212.5,391C 210.893,392.049 210.227,393.549 210.5,395.5C 212.592,395.561 214.092,396.561 215,398.5C 215.333,398.167 215.667,397.833 216,397.5C 216.311,398.742 215.811,399.742 214.5,400.5C 216.385,401.197 216.718,402.197 215.5,403.5C 216.609,405.385 217.443,407.385 218,409.5C 218.974,407.122 219.641,407.456 220,410.5C 220.914,409.346 221.747,409.513 222.5,411C 221.833,411.333 221.167,411.667 220.5,412C 222.158,413.624 223.825,415.291 225.5,417C 222.833,417.667 222.833,418.333 225.5,419C 225.167,419.333 224.833,419.667 224.5,420C 225.744,420.456 226.577,419.956 227,418.5C 227.317,420.301 227.984,420.634 229,419.5C 229.72,421.112 229.554,422.612 228.5,424C 229.744,424.456 230.577,423.956 231,422.5C 231.195,424.207 231.195,425.874 231,427.5C 233.532,428.006 235.698,429.173 237.5,431C 233.506,431.43 232.84,432.93 235.5,435.5C 235.833,435.833 236.167,436.167 236.5,436.5C 237.591,434.985 238.924,434.152 240.5,434C 240.888,435.525 240.888,437.192 240.5,439C 241.833,438.667 243.167,438.333 244.5,438C 243.269,439.183 243.269,440.349 244.5,441.5C 245.451,440.674 246.451,440.508 247.5,441C 246.013,444.499 247.013,445.833 250.5,445C 249.167,446.84 249.334,447.34 251,446.5C 253.188,446.879 255.355,448.046 257.5,450C 258.386,451.615 259.386,453.115 260.5,454.5C 258.883,453.962 257.216,453.629 255.5,453.5C 218.409,440.527 190.243,416.86 171,382.5C 169.864,380.257 169.03,377.924 168.5,375.5C 168.918,374.778 169.584,374.278 170.5,374C 167.833,372 167.833,370 170.5,368C 169.35,365.904 168.35,363.904 167.5,362C 168.481,359.607 167.815,357.607 165.5,356C 166.727,352.596 167.727,349.096 168.5,345.5C 168.06,342.392 168.06,339.559 168.5,337C 166.221,333.773 165.554,330.273 166.5,326.5C 167.396,327.506 168.062,327.506 168.5,326.5C 167.761,323.933 167.761,321.6 168.5,319.5C 168.901,317.566 169.901,316.066 171.5,315C 170.5,314.667 169.5,314.333 168.5,314C 170.755,312.336 172.089,310.503 172.5,308.5C 172.154,307.304 171.654,307.304 171,308.5C 170.647,307.328 170.813,306.162 171.5,305C 171.095,304.055 170.428,303.388 169.5,303C 172.544,302.641 172.878,301.974 170.5,301C 171.833,300 171.833,299 170.5,298C 171.416,297.626 172.25,297.126 173,296.5C 174.085,298.657 175.251,298.824 176.5,297C 173.712,294.626 174.046,293.293 177.5,293C 175.137,292.411 174.137,290.911 174.5,288.5C 175.675,288.719 176.675,288.386 177.5,287.5C 176.471,287.704 175.471,287.204 174.5,286C 176.226,284.47 178.226,283.47 180.5,283C 179.862,281.293 179.862,279.46 180.5,277.5C 181.5,277.5 182.5,277.5 183.5,277.5C 184.052,275.669 184.052,274.003 183.5,272.5C 183.846,271.304 184.346,271.304 185,272.5C 185.333,271.167 185.667,269.833 186,268.5C 186.333,268.833 186.667,269.167 187,269.5C 187.374,268.584 187.874,267.75 188.5,267C 188.673,264.74 188.673,262.407 188.5,260C 190.817,258.68 192.817,257.014 194.5,255C 193.833,254.667 193.167,254.333 192.5,254C 193.362,251.266 194.195,251.099 195,253.5C 195.318,251.939 196.151,250.772 197.5,250C 197.043,249.586 196.709,249.086 196.5,248.5C 198.005,247.158 198.672,245.492 198.5,243.5C 202.456,242.947 202.456,242.114 198.5,241C 200.746,239.743 202.079,237.91 202.5,235.5C 203.552,235.351 204.552,235.517 205.5,236C 203.842,236.725 203.342,237.892 204,239.5C 204.903,238.299 206.069,237.465 207.5,237C 207.043,236.586 206.709,236.086 206.5,235.5C 207.761,232.329 209.761,230.829 212.5,231C 209.743,227.295 210.243,226.795 214,229.5C 215.672,228.495 217.005,227.161 218,225.5C 218.333,225.833 218.667,226.167 219,226.5C 219.456,225.256 218.956,224.423 217.5,224C 218.448,223.517 219.448,223.351 220.5,223.5C 222.06,223.145 222.893,221.145 223,217.5C 223.333,217.833 223.667,218.167 224,218.5C 225.067,217.809 226.234,217.309 227.5,217C 227.982,215.992 228.148,214.825 228,213.5C 229.558,214.345 230.558,213.679 231,211.5C 232.84,212.833 233.34,212.666 232.5,211C 233.891,209.98 235.391,209.147 237,208.5C 237.483,207.552 237.649,206.552 237.5,205.5C 239.124,205.36 240.29,206.027 241,207.5C 241.37,204.72 242.37,202.72 244,201.5C 244.333,202.5 244.667,203.5 245,204.5C 247.556,201.47 250.722,199.303 254.5,198C 254.167,197.667 253.833,197.333 253.5,197C 257.245,198.155 260.245,196.988 262.5,193.5C 259.869,191.995 260.203,191.329 263.5,191.5C 263.351,192.552 263.517,193.552 264,194.5C 264.197,189.822 265.197,189.488 267,193.5C 269.134,191.422 268.968,189.588 266.5,188C 268.727,186.165 270.56,186.665 272,189.5C 272.915,188.672 273.581,187.672 274,186.5C 275.395,187.815 276.395,187.481 277,185.5C 278.113,186.711 279.28,186.711 280.5,185.5C 281.192,186.025 281.692,186.692 282,187.5C 282.667,186.167 283.667,185.167 285,184.5C 286.716,185.552 287.716,184.886 288,182.5C 288.333,183.167 288.667,183.833 289,184.5C 290.041,182.415 291.541,180.748 293.5,179.5C 295.413,180.373 297.247,181.373 299,182.5C 299.995,180.839 301.328,179.505 303,178.5C 306.129,179.905 308.796,179.238 311,176.5C 311.333,177.5 311.667,178.5 312,179.5C 313.491,177.996 315.324,177.163 317.5,177C 316.833,176.667 316.167,176.333 315.5,176C 317.135,175.46 318.468,175.96 319.5,177.5C 321.64,176.894 323.807,177.227 326,178.5C 326.483,177.552 326.649,176.552 326.5,175.5C 327.93,175.421 329.264,175.754 330.5,176.5C 331.167,175.833 331.833,175.167 332.5,174.5C 334.811,175.214 336.978,176.214 339,177.5C 339.388,176.572 340.055,175.905 341,175.5C 343.077,178.404 344.411,178.07 345,174.5C 345.333,175.833 345.667,177.167 346,178.5C 347.844,177.289 348.678,175.956 348.5,174.5C 350.134,174.968 351.3,175.968 352,177.5C 353.356,176.62 354.856,176.286 356.5,176.5 Z"/></g>
<g><path style="opacity:1" fill="#49419e" d="M -0.5,17.5 C 0.458367,17.9528 1.2917,18.6195 2,19.5C 2.49999,78.8324 2.66666,138.166 2.5,197.5C 2.5,221.833 2.5,246.167 2.5,270.5C 1.83333,298.833 1.16667,327.167 0.5,355.5C 0.823497,348.978 0.490164,342.645 -0.5,336.5C -0.5,230.167 -0.5,123.833 -0.5,17.5 Z"/></g>
<g><path style="opacity:1" fill="#49419e" d="M 672.5,16.5 C 672.5,123.167 672.5,229.833 672.5,336.5C 671.51,342.645 671.177,348.978 671.5,355.5C 670.833,327.167 670.167,298.833 669.5,270.5C 669.5,246.167 669.5,221.833 669.5,197.5C 669.333,138.166 669.5,78.8324 670,19.5C 670.377,18.0577 671.21,17.0577 672.5,16.5 Z"/></g>
<g><path style="opacity:1" fill="#dcdcdf" d="M 422.5,229.5 C 428.19,236.876 432.856,244.876 436.5,253.5C 439.926,262.113 442.926,270.78 445.5,279.5C 449.885,303.988 449.219,328.322 443.5,352.5C 438.978,365.555 433.311,378.222 426.5,390.5C 436.521,400.854 446.521,411.187 456.5,421.5C 455.911,423.398 455.744,425.398 456,427.5C 455.333,426.833 454.667,426.167 454,425.5C 453.546,427.771 452.879,430.104 452,432.5C 451.333,431.833 450.667,431.167 450,430.5C 449.879,432.727 449.046,434.56 447.5,436C 450.028,436.669 450.028,437.502 447.5,438.5C 446.284,437.998 445.117,437.665 444,437.5C 442,438.5 442,439.5 444,440.5C 445.049,439.483 446.216,439.316 447.5,440C 443.998,441.501 440.998,443.667 438.5,446.5C 439.855,447.675 439.688,448.675 438,449.5C 437.086,445.815 436.419,446.148 436,450.5C 435.692,449.692 435.192,449.025 434.5,448.5C 432.214,451.139 430.214,453.973 428.5,457C 427.551,457.617 426.718,457.451 426,456.5C 425.716,458.886 424.716,459.552 423,458.5C 421.269,461.068 419.102,463.068 416.5,464.5C 405.868,454.369 395.368,444.035 385,433.5C 346.691,458.802 305.191,465.802 260.5,454.5C 259.386,453.115 258.386,451.615 257.5,450C 255.355,448.046 253.188,446.879 251,446.5C 249.334,447.34 249.167,446.84 250.5,445C 247.013,445.833 246.013,444.499 247.5,441C 246.451,440.508 245.451,440.674 244.5,441.5C 243.269,440.349 243.269,439.183 244.5,438C 243.167,438.333 241.833,438.667 240.5,439C 240.888,437.192 240.888,435.525 240.5,434C 238.924,434.152 237.591,434.985 236.5,436.5C 236.167,436.167 235.833,435.833 235.5,435.5C 232.84,432.93 233.506,431.43 237.5,431C 235.698,429.173 233.532,428.006 231,427.5C 231.195,425.874 231.195,424.207 231,422.5C 230.577,423.956 229.744,424.456 228.5,424C 229.554,422.612 229.72,421.112 229,419.5C 227.984,420.634 227.317,420.301 227,418.5C 226.577,419.956 225.744,420.456 224.5,420C 224.833,419.667 225.167,419.333 225.5,419C 222.833,418.333 222.833,417.667 225.5,417C 223.825,415.291 222.158,413.624 220.5,412C 221.167,411.667 221.833,411.333 222.5,411C 221.747,409.513 220.914,409.346 220,410.5C 219.641,407.456 218.974,407.122 218,409.5C 217.443,407.385 216.609,405.385 215.5,403.5C 216.718,402.197 216.385,401.197 214.5,400.5C 215.811,399.742 216.311,398.742 216,397.5C 215.667,397.833 215.333,398.167 215,398.5C 214.092,396.561 212.592,395.561 210.5,395.5C 210.227,393.549 210.893,392.049 212.5,391C 211.5,390.667 210.5,390.333 209.5,390C 209.959,388.057 208.959,386.724 206.5,386C 207.974,384.684 209.641,383.684 211.5,383C 210.333,382.5 209.5,381.667 209,380.5C 208.586,380.957 208.086,381.291 207.5,381.5C 206.167,380.5 206.167,379.5 207.5,378.5C 208.396,379.506 209.062,379.506 209.5,378.5C 208.675,377.614 207.675,377.281 206.5,377.5C 206.33,376.178 206.663,375.011 207.5,374C 206.328,373.581 205.328,372.915 204.5,372C 205.727,370.413 205.394,369.079 203.5,368C 203.152,365.945 203.819,363.945 205.5,362C 203.956,361.71 202.623,361.044 201.5,360C 202.167,359.667 202.833,359.333 203.5,359C 202.167,358.333 202.167,357.667 203.5,357C 200.502,354.192 201.169,352.859 205.5,353C 203.545,352.047 201.878,350.713 200.5,349C 201.715,346.904 202.549,347.071 203,349.5C 203.658,347.892 203.158,346.725 201.5,346C 201.833,345.667 202.167,345.333 202.5,345C 200.722,342.778 200.555,340.612 202,338.5C 202.575,341.286 204.075,343.286 206.5,344.5C 207.641,347.254 208.975,349.921 210.5,352.5C 218.701,371.706 231.701,386.873 249.5,398C 255.925,401.213 262.259,404.379 268.5,407.5C 267.711,407.783 267.044,408.283 266.5,409C 268.434,410.562 270.101,412.395 271.5,414.5C 270.54,415.812 270.706,417.146 272,418.5C 274.072,418.258 276.239,418.591 278.5,419.5C 278.579,420.93 278.246,422.264 277.5,423.5C 279.353,424.76 281.186,424.76 283,423.5C 283.333,424.5 283.667,425.5 284,426.5C 286.854,428.598 289.521,430.931 292,433.5C 293.16,431.203 294.16,431.536 295,434.5C 296.147,433.542 297.147,433.875 298,435.5C 298.308,434.692 298.808,434.025 299.5,433.5C 301.149,434.706 302.649,436.039 304,437.5C 305.68,436.397 307.18,436.73 308.5,438.5C 309.914,437.376 311.414,436.376 313,435.5C 313.463,438.857 315.13,440.19 318,439.5C 318.934,442.965 320.434,443.298 322.5,440.5C 323.197,442.385 324.197,442.718 325.5,441.5C 326.478,441.977 327.311,442.643 328,443.5C 328.667,442.167 329.333,442.167 330,443.5C 330.333,442.833 330.667,442.167 331,441.5C 333.415,441.071 335.748,441.738 338,443.5C 339.763,443.025 341.43,442.358 343,441.5C 343.308,442.308 343.808,442.975 344.5,443.5C 345.855,441.071 347.522,439.738 349.5,439.5C 351.735,440.752 354.069,441.252 356.5,441C 355.396,439.869 355.729,439.035 357.5,438.5C 357.109,439.891 357.942,440.891 360,441.5C 361.03,438.743 362.697,437.409 365,437.5C 365.333,438.167 365.667,438.833 366,439.5C 366.708,436.732 368.208,435.899 370.5,437C 369.007,435.844 369.174,435.01 371,434.5C 372.162,435.187 373.328,435.353 374.5,435C 377.909,431.49 381.076,428.657 384,426.5C 385.204,427.471 385.704,428.471 385.5,429.5C 389.258,424.244 394.258,420.744 400.5,419C 398,418.167 397.833,417 400,415.5C 400.414,415.957 400.914,416.291 401.5,416.5C 402.345,414.238 403.678,413.571 405.5,414.5C 407.017,412.815 408.684,411.315 410.5,410C 410.167,409.667 409.833,409.333 409.5,409C 410.716,407.406 412.049,405.906 413.5,404.5C 413.054,402.632 412.721,400.799 412.5,399C 414.167,397.667 415.833,396.333 417.5,395C 416.549,394.282 416.383,393.449 417,392.5C 418.991,390.543 420.991,388.543 423,386.5C 423.893,387.711 424.726,387.711 425.5,386.5C 424.687,385.186 423.687,384.019 422.5,383C 424.301,382.683 424.634,382.016 423.5,381C 424.357,380.311 425.023,379.478 425.5,378.5C 424.061,376.657 424.228,374.99 426,373.5C 426.71,374.973 427.876,375.64 429.5,375.5C 430.625,373.179 430.792,370.846 430,368.5C 430.805,370.901 431.638,370.734 432.5,368C 431.601,365.808 430.601,363.642 429.5,361.5C 430.737,359.221 432.07,357.055 433.5,355C 432.833,354.667 432.167,354.333 431.5,354C 432.641,353.259 432.641,352.425 431.5,351.5C 435.662,347.792 435.329,344.459 430.5,341.5C 431.529,341.704 432.529,341.204 433.5,340C 431.789,338.867 431.289,337.367 432,335.5C 433.666,336.34 433.833,335.84 432.5,334C 434.957,332.488 434.957,331.154 432.5,330C 432.957,329.586 433.291,329.086 433.5,328.5C 431.983,326.815 430.316,325.315 428.5,324C 429.471,322.796 430.471,322.296 431.5,322.5C 430.284,320.696 429.284,319.029 428.5,317.5C 428.977,316.522 429.643,315.689 430.5,315C 429.5,314 428.5,313 427.5,312C 428.115,309.532 427.282,307.366 425,305.5C 424.282,306.451 423.449,306.617 422.5,306C 421.167,305.333 421.167,304.667 422.5,304C 421.5,303.667 420.5,303.333 419.5,303C 419.833,302.667 420.167,302.333 420.5,302C 416.68,299.738 415.68,296.571 417.5,292.5C 417.154,291.304 416.654,291.304 416,292.5C 414.632,291.007 414.465,289.507 415.5,288C 414.451,287.508 413.451,287.674 412.5,288.5C 412.413,284.621 410.746,281.788 407.5,280C 408.654,279.086 408.487,278.253 407,277.5C 405.284,278.552 404.284,277.886 404,275.5C 401.552,273.369 399.052,271.369 396.5,269.5C 394.829,269.668 393.496,270.335 392.5,271.5C 370.325,229.568 335.325,210.234 287.5,213.5C 279.527,213.326 279.527,212.826 287.5,212C 286.833,211.667 286.167,211.333 285.5,211C 286.035,208.891 287.035,208.391 288.5,209.5C 291.339,205.652 294.672,204.985 298.5,207.5C 301.265,205.701 304.099,204.035 307,202.5C 309.308,202.88 311.641,203.214 314,203.5C 316.201,199.913 318.868,199.58 322,202.5C 323.876,200.877 325.21,201.21 326,203.5C 327.947,200.014 330.28,199.681 333,202.5C 334,201.167 335,199.833 336,198.5C 337.78,201.96 339.947,202.627 342.5,200.5C 344.345,201.938 345.511,201.604 346,199.5C 347.001,202.216 348.668,202.882 351,201.5C 352.368,202.703 353.868,203.703 355.5,204.5C 357.394,203.399 358.061,202.066 357.5,200.5C 358.251,201.376 358.751,202.376 359,203.5C 359.308,202.692 359.808,202.025 360.5,201.5C 361.548,202.383 362.715,203.05 364,203.5C 366.075,202.189 367.409,202.855 368,205.5C 370.056,204.798 371.889,205.465 373.5,207.5C 374.293,207.069 375.127,206.735 376,206.5C 379.459,207.805 382.959,208.638 386.5,209C 386.167,209.333 385.833,209.667 385.5,210C 387.503,211.334 389.003,212.834 390,214.5C 391.229,212.053 392.729,211.887 394.5,214C 394.167,214.333 393.833,214.667 393.5,215C 397.768,214.508 401.434,216.008 404.5,219.5C 405.192,218.975 405.692,218.308 406,217.5C 406.667,218.833 407.333,220.167 408,221.5C 408.419,220.328 409.085,219.328 410,218.5C 410.824,219.808 411.324,221.308 411.5,223C 412.449,223.617 413.282,223.451 414,222.5C 414.617,223.449 414.451,224.282 413.5,225C 414.449,225.617 415.282,225.451 416,224.5C 417.025,227.389 418.359,229.389 420,230.5C 420.671,229.748 421.504,229.414 422.5,229.5 Z"/></g>
<g><path style="opacity:1" fill="#584bb6" d="M 2.5,197.5 C 2.83333,197.5 3.16667,197.5 3.5,197.5C 3.5,216.167 3.5,234.833 3.5,253.5C 57.5,253.5 111.5,253.5 165.5,253.5C 161.871,262.386 158.871,271.386 156.5,280.5C 105.844,278.504 54.8443,277.838 3.5,278.5C 3.82605,287.017 3.49272,295.35 2.5,303.5C 2.5,292.5 2.5,281.5 2.5,270.5C 2.5,246.167 2.5,221.833 2.5,197.5 Z"/></g>
<g><path style="opacity:1" fill="#584bb7" d="M 287.5,213.5 C 335.325,210.234 370.325,229.568 392.5,271.5C 393.167,273.833 393.833,276.167 394.5,278.5C 332.167,278.5 269.833,278.5 207.5,278.5C 222.251,242.075 248.918,220.408 287.5,213.5 Z"/></g>
<g><path style="opacity:1" fill="#584bb6" d="M 668.5,197.5 C 668.833,197.5 669.167,197.5 669.5,197.5C 669.5,221.833 669.5,246.167 669.5,270.5C 669.5,281.5 669.5,292.5 669.5,303.5C 668.507,295.35 668.174,287.017 668.5,278.5C 593.998,278.167 519.665,278.501 445.5,279.5C 442.926,270.78 439.926,262.113 436.5,253.5C 513.833,253.5 591.167,253.5 668.5,253.5C 668.5,234.833 668.5,216.167 668.5,197.5 Z"/></g>
<g><path style="opacity:1" fill="#e2e2e4" d="M 268.5,407.5 C 309.548,418.641 345.048,409.308 375,379.5C 382.041,371.412 387.541,362.412 391.5,352.5C 400.28,333.786 402.78,314.119 399,293.5C 397.685,288.41 396.185,283.41 394.5,278.5C 393.833,276.167 393.167,273.833 392.5,271.5C 393.496,270.335 394.829,269.668 396.5,269.5C 399.052,271.369 401.552,273.369 404,275.5C 404.284,277.886 405.284,278.552 407,277.5C 408.487,278.253 408.654,279.086 407.5,280C 410.746,281.788 412.413,284.621 412.5,288.5C 413.451,287.674 414.451,287.508 415.5,288C 414.465,289.507 414.632,291.007 416,292.5C 416.654,291.304 417.154,291.304 417.5,292.5C 415.68,296.571 416.68,299.738 420.5,302C 420.167,302.333 419.833,302.667 419.5,303C 420.5,303.333 421.5,303.667 422.5,304C 421.167,304.667 421.167,305.333 422.5,306C 423.449,306.617 424.282,306.451 425,305.5C 427.282,307.366 428.115,309.532 427.5,312C 428.5,313 429.5,314 430.5,315C 429.643,315.689 428.977,316.522 428.5,317.5C 429.284,319.029 430.284,320.696 431.5,322.5C 430.471,322.296 429.471,322.796 428.5,324C 430.316,325.315 431.983,326.815 433.5,328.5C 433.291,329.086 432.957,329.586 432.5,330C 434.957,331.154 434.957,332.488 432.5,334C 433.833,335.84 433.666,336.34 432,335.5C 431.289,337.367 431.789,338.867 433.5,340C 432.529,341.204 431.529,341.704 430.5,341.5C 435.329,344.459 435.662,347.792 431.5,351.5C 432.641,352.425 432.641,353.259 431.5,354C 432.167,354.333 432.833,354.667 433.5,355C 432.07,357.055 430.737,359.221 429.5,361.5C 430.601,363.642 431.601,365.808 432.5,368C 431.638,370.734 430.805,370.901 430,368.5C 430.792,370.846 430.625,373.179 429.5,375.5C 427.876,375.64 426.71,374.973 426,373.5C 424.228,374.99 424.061,376.657 425.5,378.5C 425.023,379.478 424.357,380.311 423.5,381C 424.634,382.016 424.301,382.683 422.5,383C 423.687,384.019 424.687,385.186 425.5,386.5C 424.726,387.711 423.893,387.711 423,386.5C 420.991,388.543 418.991,390.543 417,392.5C 416.383,393.449 416.549,394.282 417.5,395C 415.833,396.333 414.167,397.667 412.5,399C 412.721,400.799 413.054,402.632 413.5,404.5C 412.049,405.906 410.716,407.406 409.5,409C 409.833,409.333 410.167,409.667 410.5,410C 408.684,411.315 407.017,412.815 405.5,414.5C 403.678,413.571 402.345,414.238 401.5,416.5C 400.914,416.291 400.414,415.957 400,415.5C 397.833,417 398,418.167 400.5,419C 394.258,420.744 389.258,424.244 385.5,429.5C 385.704,428.471 385.204,427.471 384,426.5C 381.076,428.657 377.909,431.49 374.5,435C 373.328,435.353 372.162,435.187 371,434.5C 369.174,435.01 369.007,435.844 370.5,437C 368.208,435.899 366.708,436.732 366,439.5C 365.667,438.833 365.333,438.167 365,437.5C 362.697,437.409 361.03,438.743 360,441.5C 357.942,440.891 357.109,439.891 357.5,438.5C 355.729,439.035 355.396,439.869 356.5,441C 354.069,441.252 351.735,440.752 349.5,439.5C 347.522,439.738 345.855,441.071 344.5,443.5C 343.808,442.975 343.308,442.308 343,441.5C 341.43,442.358 339.763,443.025 338,443.5C 335.748,441.738 333.415,441.071 331,441.5C 330.667,442.167 330.333,442.833 330,443.5C 329.333,442.167 328.667,442.167 328,443.5C 327.311,442.643 326.478,441.977 325.5,441.5C 324.197,442.718 323.197,442.385 322.5,440.5C 320.434,443.298 318.934,442.965 318,439.5C 315.13,440.19 313.463,438.857 313,435.5C 311.414,436.376 309.914,437.376 308.5,438.5C 307.18,436.73 305.68,436.397 304,437.5C 302.649,436.039 301.149,434.706 299.5,433.5C 298.808,434.025 298.308,434.692 298,435.5C 297.147,433.875 296.147,433.542 295,434.5C 294.16,431.536 293.16,431.203 292,433.5C 289.521,430.931 286.854,428.598 284,426.5C 283.667,425.5 283.333,424.5 283,423.5C 281.186,424.76 279.353,424.76 277.5,423.5C 278.246,422.264 278.579,420.93 278.5,419.5C 276.239,418.591 274.072,418.258 272,418.5C 270.706,417.146 270.54,415.812 271.5,414.5C 270.101,412.395 268.434,410.562 266.5,409C 267.044,408.283 267.711,407.783 268.5,407.5 Z"/></g>
<g><path style="opacity:1" fill="#5b49b5" d="M 156.5,280.5 C 151.984,305.126 152.984,329.46 159.5,353.5C 107.572,352.505 55.5717,352.171 3.5,352.5C 3.82793,363.679 3.4946,374.679 2.5,385.5C 2.5,358.167 2.5,330.833 2.5,303.5C 3.49272,295.35 3.82605,287.017 3.5,278.5C 54.8443,277.838 105.844,278.504 156.5,280.5 Z"/></g>
<g><path style="opacity:1" fill="#5b49b6" d="M 207.5,278.5 C 269.833,278.5 332.167,278.5 394.5,278.5C 396.185,283.41 397.685,288.41 399,293.5C 402.78,314.119 400.28,333.786 391.5,352.5C 331.167,352.5 270.833,352.5 210.5,352.5C 208.975,349.921 207.641,347.254 206.5,344.5C 199.506,322.218 199.84,300.218 207.5,278.5 Z"/></g>
<g><path style="opacity:1" fill="#5b49b5" d="M 669.5,303.5 C 669.5,330.833 669.5,358.167 669.5,385.5C 669.167,385.5 668.833,385.5 668.5,385.5C 668.5,374.5 668.5,363.5 668.5,352.5C 593.5,352.5 518.5,352.5 443.5,352.5C 449.219,328.322 449.885,303.988 445.5,279.5C 519.665,278.501 593.998,278.167 668.5,278.5C 668.174,287.017 668.507,295.35 669.5,303.5 Z"/></g>
<g><path style="opacity:1" fill="#6047b4" d="M 159.5,353.5 C 161.429,361.346 164.429,368.679 168.5,375.5C 169.03,377.924 169.864,380.257 171,382.5C 190.243,416.86 218.409,440.527 255.5,453.5C 171.5,453.5 87.5,453.5 3.5,453.5C 3.5,471.833 3.5,490.167 3.5,508.5C 3.16667,508.5 2.83333,508.5 2.5,508.5C 2.5,467.5 2.5,426.5 2.5,385.5C 3.4946,374.679 3.82793,363.679 3.5,352.5C 55.5717,352.171 107.572,352.505 159.5,353.5 Z"/></g>
<g><path style="opacity:1" fill="#5f48b4" d="M 210.5,352.5 C 270.833,352.5 331.167,352.5 391.5,352.5C 387.541,362.412 382.041,371.412 375,379.5C 345.048,409.308 309.548,418.641 268.5,407.5C 262.259,404.379 255.925,401.213 249.5,398C 231.701,386.873 218.701,371.706 210.5,352.5 Z"/></g>
<g><path style="opacity:1" fill="#6047b4" d="M 443.5,352.5 C 518.5,352.5 593.5,352.5 668.5,352.5C 668.5,363.5 668.5,374.5 668.5,385.5C 668.5,408.167 668.5,430.833 668.5,453.5C 608.833,453.5 549.167,453.5 489.5,453.5C 487.167,451.5 484.833,449.5 482.5,447.5C 474.167,438.5 465.5,429.833 456.5,421.5C 446.521,411.187 436.521,400.854 426.5,390.5C 433.311,378.222 438.978,365.555 443.5,352.5 Z"/></g>
<g><path style="opacity:1" fill="#d4d4d7" d="M 456.5,421.5 C 465.5,429.833 474.167,438.5 482.5,447.5C 481.862,449.46 481.862,451.293 482.5,453C 480.875,453.853 480.542,454.853 481.5,456C 480.551,456.617 479.718,456.451 479,455.5C 477.546,459.489 474.713,461.989 470.5,463C 474.361,463.569 474.361,464.402 470.5,465.5C 471.813,467.518 471.147,468.685 468.5,469C 469.167,469.333 469.833,469.667 470.5,470C 468.104,470.879 465.771,471.546 463.5,472C 463.957,472.414 464.291,472.914 464.5,473.5C 463.049,474.906 461.716,476.406 460.5,478C 460.833,478.333 461.167,478.667 461.5,479C 458.93,479.723 456.597,480.89 454.5,482.5C 453.914,482.291 453.414,481.957 453,481.5C 451.333,483.833 449.667,486.167 448,488.5C 447.586,488.043 447.086,487.709 446.5,487.5C 445.358,488.826 444.024,489.826 442.5,490.5C 433.5,482.167 424.833,473.5 416.5,464.5C 419.102,463.068 421.269,461.068 423,458.5C 424.716,459.552 425.716,458.886 426,456.5C 426.718,457.451 427.551,457.617 428.5,457C 430.214,453.973 432.214,451.139 434.5,448.5C 435.192,449.025 435.692,449.692 436,450.5C 436.419,446.148 437.086,445.815 438,449.5C 439.688,448.675 439.855,447.675 438.5,446.5C 440.998,443.667 443.998,441.501 447.5,440C 446.216,439.316 445.049,439.483 444,440.5C 442,439.5 442,438.5 444,437.5C 445.117,437.665 446.284,437.998 447.5,438.5C 450.028,437.502 450.028,436.669 447.5,436C 449.046,434.56 449.879,432.727 450,430.5C 450.667,431.167 451.333,431.833 452,432.5C 452.879,430.104 453.546,427.771 454,425.5C 454.667,426.167 455.333,426.833 456,427.5C 455.744,425.398 455.911,423.398 456.5,421.5 Z"/></g>
<g><path style="opacity:1" fill="#cecdd0" d="M 482.5,447.5 C 484.833,449.5 487.167,451.5 489.5,453.5C 496.131,460.632 502.964,467.632 510,474.5C 520.977,487.883 521.311,501.55 511,515.5C 508.809,516.833 506.976,518.5 505.5,520.5C 494.446,525.825 483.446,525.825 472.5,520.5C 462.194,510.86 452.194,500.86 442.5,490.5C 444.024,489.826 445.358,488.826 446.5,487.5C 447.086,487.709 447.586,488.043 448,488.5C 449.667,486.167 451.333,483.833 453,481.5C 453.414,481.957 453.914,482.291 454.5,482.5C 456.597,480.89 458.93,479.723 461.5,479C 461.167,478.667 460.833,478.333 460.5,478C 461.716,476.406 463.049,474.906 464.5,473.5C 464.291,472.914 463.957,472.414 463.5,472C 465.771,471.546 468.104,470.879 470.5,470C 469.833,469.667 469.167,469.333 468.5,469C 471.147,468.685 471.813,467.518 470.5,465.5C 474.361,464.402 474.361,463.569 470.5,463C 474.713,461.989 477.546,459.489 479,455.5C 479.718,456.451 480.551,456.617 481.5,456C 480.542,454.853 480.875,453.853 482.5,453C 481.862,451.293 481.862,449.46 482.5,447.5 Z"/></g>
<g><path style="opacity:1" fill="#6545b2" d="M 416.5,464.5 C 424.833,473.5 433.5,482.167 442.5,490.5C 452.194,500.86 462.194,510.86 472.5,520.5C 316.167,520.5 159.833,520.5 3.5,520.5C 3.5,516.5 3.5,512.5 3.5,508.5C 3.5,490.167 3.5,471.833 3.5,453.5C 87.5,453.5 171.5,453.5 255.5,453.5C 257.216,453.629 258.883,453.962 260.5,454.5C 305.191,465.802 346.691,458.802 385,433.5C 395.368,444.035 405.868,454.369 416.5,464.5 Z"/></g>
<g><path style="opacity:1" fill="#6545b2" d="M 668.5,385.5 C 668.833,385.5 669.167,385.5 669.5,385.5C 669.5,426.5 669.5,467.5 669.5,508.5C 668.517,512.298 668.183,516.298 668.5,520.5C 614.167,520.5 559.833,520.5 505.5,520.5C 506.976,518.5 508.809,516.833 511,515.5C 521.311,501.55 520.977,487.883 510,474.5C 502.964,467.632 496.131,460.632 489.5,453.5C 549.167,453.5 608.833,453.5 668.5,453.5C 668.5,430.833 668.5,408.167 668.5,385.5 Z"/></g>
<g><path style="opacity:1" fill="#593d9d" d="M 2.5,270.5 C 2.5,281.5 2.5,292.5 2.5,303.5C 2.5,330.833 2.5,358.167 2.5,385.5C 2.5,426.5 2.5,467.5 2.5,508.5C 2.16783,557.003 2.50117,605.336 3.5,653.5C 4.31863,655.772 4.9853,658.106 5.5,660.5C 3.17823,659.198 1.8449,657.198 1.5,654.5C 0.504627,554.874 0.171294,455.207 0.5,355.5C 1.16667,327.167 1.83333,298.833 2.5,270.5 Z"/></g>
<g><path style="opacity:1" fill="#5a3d9e" d="M 669.5,270.5 C 670.167,298.833 670.833,327.167 671.5,355.5C 671.667,453.834 671.5,552.167 671,650.5C 670.33,653.174 669.163,655.507 667.5,657.5C 667.993,655.194 668.326,652.861 668.5,650.5C 669.499,603.336 669.832,556.003 669.5,508.5C 669.5,467.5 669.5,426.5 669.5,385.5C 669.5,358.167 669.5,330.833 669.5,303.5C 669.5,292.5 669.5,281.5 669.5,270.5 Z"/></g>
<g><path style="opacity:1" fill="#6843b1" d="M 2.5,508.5 C 2.83333,508.5 3.16667,508.5 3.5,508.5C 3.5,512.5 3.5,516.5 3.5,520.5C 159.833,520.5 316.167,520.5 472.5,520.5C 483.446,525.825 494.446,525.825 505.5,520.5C 559.833,520.5 614.167,520.5 668.5,520.5C 668.183,516.298 668.517,512.298 669.5,508.5C 669.832,556.003 669.499,603.336 668.5,650.5C 668.5,632.167 668.5,613.833 668.5,595.5C 446.833,595.5 225.167,595.5 3.5,595.5C 3.5,614.833 3.5,634.167 3.5,653.5C 2.50117,605.336 2.16783,557.003 2.5,508.5 Z"/></g>
<g><path style="opacity:1" fill="#53378f" d="M -0.5,336.5 C 0.490164,342.645 0.823497,348.978 0.5,355.5C 0.171294,455.207 0.504627,554.874 1.5,654.5C 0.833333,654.167 0.166667,653.833 -0.5,653.5C -0.5,547.833 -0.5,442.167 -0.5,336.5 Z"/></g>
<g><path style="opacity:1" fill="#52368d" d="M 672.5,336.5 C 672.5,443.833 672.5,551.167 672.5,658.5C 672.167,658.5 671.833,658.5 671.5,658.5C 667.66,662.25 663.327,665.25 658.5,667.5C 662.219,664.782 665.219,661.449 667.5,657.5C 669.163,655.507 670.33,653.174 671,650.5C 671.5,552.167 671.667,453.834 671.5,355.5C 671.177,348.978 671.51,342.645 672.5,336.5 Z"/></g>
<g><path style="opacity:1" fill="#6b42b0" d="M 668.5,650.5 C 668.326,652.861 667.993,655.194 667.5,657.5C 665.219,661.449 662.219,664.782 658.5,667.5C 657.833,667.5 657.5,667.833 657.5,668.5C 443.5,668.667 229.5,668.5 15.5,668C 11.5225,666.197 8.18921,663.697 5.5,660.5C 4.9853,658.106 4.31863,655.772 3.5,653.5C 3.5,634.167 3.5,614.833 3.5,595.5C 225.167,595.5 446.833,595.5 668.5,595.5C 668.5,613.833 668.5,632.167 668.5,650.5 Z"/></g>
<g><path style="opacity:0.987" fill="#1d1230" d="M 671.5,658.5 C 669.223,665.109 664.89,669.776 658.5,672.5C 443.5,672.5 228.5,672.5 13.5,672.5C 7.528,669.861 3.19466,665.528 0.5,659.5C 3.92417,661.418 6.92417,663.918 9.5,667C 11.087,667.862 12.7536,668.529 14.5,669C 229,669.833 443.334,669.666 657.5,668.5C 657.5,667.833 657.833,667.5 658.5,667.5C 663.327,665.25 667.66,662.25 671.5,658.5 Z"/></g>
<g><path style="opacity:1" fill="#402668" d="M -0.5,653.5 C 0.166667,653.833 0.833333,654.167 1.5,654.5C 1.8449,657.198 3.17823,659.198 5.5,660.5C 8.18921,663.697 11.5225,666.197 15.5,668C 229.5,668.5 443.5,668.667 657.5,668.5C 443.334,669.666 229,669.833 14.5,669C 12.7536,668.529 11.087,667.862 9.5,667C 6.92417,663.918 3.92417,661.418 0.5,659.5C 0.5,658.833 0.166667,658.5 -0.5,658.5C -0.5,656.833 -0.5,655.167 -0.5,653.5 Z"/></g>
</svg>
