<?xml version="1.0" encoding="UTF-8"?>
<!DOCTYPE svg PUBLIC "-//W3C//DTD SVG 1.1//EN" "http://www.w3.org/Graphics/SVG/1.1/DTD/svg11.dtd">
<svg xmlns="http://www.w3.org/2000/svg" version="1.1" width="673px" height="673px" style="shape-rendering:geometricPrecision; text-rendering:geometricPrecision; image-rendering:optimizeQuality; fill-rule:evenodd; clip-rule:evenodd" xmlns:xlink="http://www.w3.org/1999/xlink">
<g><path style="opacity:0.989" fill="#9770c2" d="M 13.5,-0.5 C 228.5,-0.5 443.5,-0.5 658.5,-0.5C 661.009,0.921263 663.343,2.58793 665.5,4.5C 665.265,5.09674 664.765,5.43007 664,5.5C 660.557,4.43096 657.057,3.59763 653.5,3C 440.833,2.33333 228.167,2.33333 15.5,3C 12.4642,5.00628 9.1309,5.83961 5.5,5.5C 7.8089,3.01335 10.4756,1.01335 13.5,-0.5 Z"/></g>
<g><path style="opacity:1" fill="#8050b5" d="M 665.5,4.5 C 668.461,6.41206 670.461,9.07873 671.5,12.5C 670.262,13.4124 668.928,13.5791 667.5,13C 666.743,11.4878 665.743,10.1545 664.5,9C 661.389,8.55603 658.723,7.2227 656.5,5C 442.833,4.33333 229.167,4.33333 15.5,5C 11.1394,8.02726 7.47272,11.6939 4.5,16C 2.81069,15.8657 1.14402,15.3657 -0.5,14.5C -0.5,14.1667 -0.5,13.8333 -0.5,13.5C 1.01335,10.4756 3.01335,7.8089 5.5,5.5C 9.1309,5.83961 12.4642,5.00628 15.5,3C 228.167,2.33333 440.833,2.33333 653.5,3C 657.057,3.59763 660.557,4.43096 664,5.5C 664.765,5.43007 665.265,5.09674 665.5,4.5 Z"/></g>
<g><path style="opacity:1" fill="#7541af" d="M 671.5,12.5 C 671.5,13.1667 671.833,13.5 672.5,13.5C 672.5,14.5 672.5,15.5 672.5,16.5C 671.272,17.3065 670.272,18.3065 669.5,19.5C 668.732,20.2625 668.232,21.2625 668,22.5C 667.5,29.4921 667.334,36.4921 667.5,43.5C 446.5,43.5 225.5,43.5 4.5,43.5C 4.66629,36.4921 4.49962,29.4921 4,22.5C 3.76791,21.2625 3.26791,20.2625 2.5,19.5C 1.77765,18.4489 0.777652,17.7822 -0.5,17.5C -0.5,16.5 -0.5,15.5 -0.5,14.5C 1.14402,15.3657 2.81069,15.8657 4.5,16C 7.47272,11.6939 11.1394,8.02726 15.5,5C 229.167,4.33333 442.833,4.33333 656.5,5C 658.723,7.2227 661.389,8.55603 664.5,9C 665.743,10.1545 666.743,11.4878 667.5,13C 668.928,13.5791 670.262,13.4124 671.5,12.5 Z"/></g>
<g><path style="opacity:1" fill="#6e3a9d" d="M -0.5,17.5 C 0.777652,17.7822 1.77765,18.4489 2.5,19.5C 2.5,49.1667 2.5,78.8333 2.5,108.5C 2.5,146.833 2.5,185.167 2.5,223.5C 1.12445,155.505 0.124452,87.5049 -0.5,19.5C -0.5,18.8333 -0.5,18.1667 -0.5,17.5 Z"/></g>
<g><path style="opacity:1" fill="#6d3a9d" d="M 672.5,16.5 C 672.5,17.8333 672.5,19.1667 672.5,20.5C 671.873,88.1716 670.873,155.838 669.5,223.5C 669.5,185.167 669.5,146.833 669.5,108.5C 669.5,78.8333 669.5,49.1667 669.5,19.5C 670.272,18.3065 671.272,17.3065 672.5,16.5 Z"/></g>
<g><path style="opacity:1" fill="#7940ad" d="M 2.5,19.5 C 3.26791,20.2625 3.76791,21.2625 4,22.5C 4.49962,29.4921 4.66629,36.4921 4.5,43.5C 225.5,43.5 446.5,43.5 667.5,43.5C 667.334,36.4921 667.5,29.4921 668,22.5C 668.232,21.2625 668.732,20.2625 669.5,19.5C 669.5,49.1667 669.5,78.8333 669.5,108.5C 668.503,125.992 668.17,143.659 668.5,161.5C 446.833,161.5 225.167,161.5 3.5,161.5C 3.83005,143.659 3.49672,125.992 2.5,108.5C 2.5,78.8333 2.5,49.1667 2.5,19.5 Z"/></g>
<g><path style="opacity:1" fill="#7f41ab" d="M 2.5,108.5 C 3.49672,125.992 3.83005,143.659 3.5,161.5C 225.167,161.5 446.833,161.5 668.5,161.5C 668.17,143.659 668.503,125.992 669.5,108.5C 669.5,146.833 669.5,185.167 669.5,223.5C 668.668,242.329 668.168,261.329 668,280.5C 667.501,275.845 667.334,271.179 667.5,266.5C 597.5,266.5 527.5,266.5 457.5,266.5C 446.265,246.364 434.765,226.364 423,206.5C 413.967,194.892 402.133,187.725 387.5,185C 344.833,184.333 302.167,184.333 259.5,185C 245.329,187.996 233.829,195.163 225,206.5C 213.235,226.364 201.735,246.364 190.5,266.5C 128.5,266.5 66.5,266.5 4.5,266.5C 4.66582,271.179 4.49915,275.845 4,280.5C 3.83176,261.329 3.33176,242.329 2.5,223.5C 2.5,185.167 2.5,146.833 2.5,108.5 Z"/></g>
<g><path style="opacity:1" fill="#d2d1d4" d="M 457.5,266.5 C 467.241,282.977 476.741,299.643 486,316.5C 488.599,322.564 489.766,328.898 489.5,335.5C 488.979,339.481 488.646,343.481 488.5,347.5C 486.661,352.186 484.494,356.853 482,361.5C 467.902,385.364 454.069,409.364 440.5,433.5C 433.944,444.936 427.111,456.269 420,467.5C 410.975,476.597 400.142,482.431 387.5,485C 344.833,485.667 302.167,485.667 259.5,485C 247.316,482.159 236.816,476.326 228,467.5C 220.889,456.269 214.056,444.936 207.5,433.5C 193.931,409.364 180.098,385.364 166,361.5C 163.506,356.853 161.339,352.186 159.5,347.5C 159.354,343.481 159.021,339.481 158.5,335.5C 158.234,328.898 159.401,322.564 162,316.5C 171.259,299.643 180.759,282.977 190.5,266.5C 201.735,246.364 213.235,226.364 225,206.5C 233.829,195.163 245.329,187.996 259.5,185C 302.167,184.333 344.833,184.333 387.5,185C 402.133,187.725 413.967,194.892 423,206.5C 434.765,226.364 446.265,246.364 457.5,266.5 Z"/></g>
<g><path style="opacity:1" fill="#8141aa" d="M 431.5,264.5 C 396.006,265.833 360.173,266.5 324,266.5C 287.998,266.5 252.165,266.167 216.5,265.5C 224.722,250.06 233.222,234.727 242,219.5C 246.548,213.481 252.381,209.315 259.5,207C 302.5,206.333 345.5,206.333 388.5,207C 395.692,209.339 401.526,213.506 406,219.5C 414.512,234.527 423.012,249.527 431.5,264.5 Z"/></g>
<g><path style="opacity:1" fill="#733791" d="M -0.5,19.5 C 0.124452,87.5049 1.12445,155.505 2.5,223.5C 2.5,256.5 2.5,289.5 2.5,322.5C 2.5,327.5 2.5,332.5 2.5,337.5C 2.5,360.167 2.5,382.833 2.5,405.5C 2.5,410.167 2.5,414.833 2.5,419.5C 0.729957,438.969 0.0632899,458.636 0.5,478.5C 0.166667,478.5 -0.166667,478.5 -0.5,478.5C -0.5,325.5 -0.5,172.5 -0.5,19.5 Z"/></g>
<g><path style="opacity:1" fill="#733791" d="M 672.5,20.5 C 672.5,173.167 672.5,325.833 672.5,478.5C 671.833,463.833 671.167,449.167 670.5,434.5C 670.821,429.305 670.487,424.305 669.5,419.5C 669.5,414.833 669.5,410.167 669.5,405.5C 669.5,382.833 669.5,360.167 669.5,337.5C 669.5,332.5 669.5,327.5 669.5,322.5C 669.5,289.5 669.5,256.5 669.5,223.5C 670.873,155.838 671.873,88.1716 672.5,20.5 Z"/></g>
<g><path style="opacity:1" fill="#8541a9" d="M 2.5,223.5 C 3.33176,242.329 3.83176,261.329 4,280.5C 4.49915,275.845 4.66582,271.179 4.5,266.5C 66.5,266.5 128.5,266.5 190.5,266.5C 180.759,282.977 171.259,299.643 162,316.5C 159.401,322.564 158.234,328.898 158.5,335.5C 107.167,335.5 55.8333,335.5 4.5,335.5C 4.66657,321.829 4.4999,308.163 4,294.5C 3.82989,304.009 3.32989,313.342 2.5,322.5C 2.5,289.5 2.5,256.5 2.5,223.5 Z"/></g>
<g><path style="opacity:1" fill="#8641a9" d="M 431.5,264.5 C 443.559,284.941 455.392,305.608 467,326.5C 467.667,331.833 467.667,337.167 467,342.5C 466.33,345.174 465.163,347.507 463.5,349.5C 437.661,349.831 411.995,349.498 386.5,348.5C 390.671,316.007 378.338,292.173 349.5,277C 316.934,265.598 290.434,273.765 270,301.5C 260.953,316.026 258.119,331.693 261.5,348.5C 236.005,349.498 210.339,349.831 184.5,349.5C 182.837,347.507 181.67,345.174 181,342.5C 180.13,336.083 180.464,329.749 182,323.5C 193.274,303.938 204.774,284.605 216.5,265.5C 252.165,266.167 287.998,266.5 324,266.5C 360.173,266.5 396.006,265.833 431.5,264.5 Z"/></g>
<g><path style="opacity:1" fill="#8541a9" d="M 669.5,223.5 C 669.5,256.5 669.5,289.5 669.5,322.5C 668.67,313.342 668.17,304.009 668,294.5C 667.5,308.163 667.333,321.829 667.5,335.5C 608.167,335.5 548.833,335.5 489.5,335.5C 489.766,328.898 488.599,322.564 486,316.5C 476.741,299.643 467.241,282.977 457.5,266.5C 527.5,266.5 597.5,266.5 667.5,266.5C 667.334,271.179 667.501,275.845 668,280.5C 668.168,261.329 668.668,242.329 669.5,223.5 Z"/></g>
<g><path style="opacity:1" fill="#e3e2e6" d="M 386.5,348.5 C 375.18,383.849 350.846,400.349 313.5,398C 286.503,391.5 269.17,375 261.5,348.5C 258.119,331.693 260.953,316.026 270,301.5C 290.434,273.765 316.934,265.598 349.5,277C 378.338,292.173 390.671,316.007 386.5,348.5 Z"/></g>
<g><path style="opacity:1" fill="#8840a7" d="M 158.5,335.5 C 159.021,339.481 159.354,343.481 159.5,347.5C 108.177,349.496 56.5108,350.162 4.5,349.5C 4.66582,354.179 4.49915,358.845 4,363.5C 3.82959,354.657 3.32959,345.99 2.5,337.5C 2.5,332.5 2.5,327.5 2.5,322.5C 3.32989,313.342 3.82989,304.009 4,294.5C 4.4999,308.163 4.66657,321.829 4.5,335.5C 55.8333,335.5 107.167,335.5 158.5,335.5 Z"/></g>
<g><path style="opacity:1" fill="#8840a7" d="M 669.5,322.5 C 669.5,327.5 669.5,332.5 669.5,337.5C 668.67,345.99 668.17,354.657 668,363.5C 667.501,358.845 667.334,354.179 667.5,349.5C 607.491,350.163 547.824,349.496 488.5,347.5C 488.646,343.481 488.979,339.481 489.5,335.5C 548.833,335.5 608.167,335.5 667.5,335.5C 667.333,321.829 667.5,308.163 668,294.5C 668.17,304.009 668.67,313.342 669.5,322.5 Z"/></g>
<g><path style="opacity:1" fill="#8c40a7" d="M 2.5,337.5 C 3.32959,345.99 3.82959,354.657 4,363.5C 4.49915,358.845 4.66582,354.179 4.5,349.5C 56.5108,350.162 108.177,349.496 159.5,347.5C 161.339,352.186 163.506,356.853 166,361.5C 180.098,385.364 193.931,409.364 207.5,433.5C 140.002,434.499 72.3354,434.833 4.5,434.5C 4.66582,439.179 4.49915,443.845 4,448.5C 3.8312,433.994 3.3312,419.661 2.5,405.5C 2.5,382.833 2.5,360.167 2.5,337.5 Z"/></g>
<g><path style="opacity:1" fill="#8c40a7" d="M 669.5,337.5 C 669.5,360.167 669.5,382.833 669.5,405.5C 668.669,419.661 668.169,433.994 668,448.5C 667.501,443.845 667.334,439.179 667.5,434.5C 591.665,434.833 515.998,434.499 440.5,433.5C 454.069,409.364 467.902,385.364 482,361.5C 484.494,356.853 486.661,352.186 488.5,347.5C 547.824,349.496 607.491,350.163 667.5,349.5C 667.334,354.179 667.501,358.845 668,363.5C 668.17,354.657 668.67,345.99 669.5,337.5 Z"/></g>
<g><path style="opacity:1" fill="#8c40a7" d="M 261.5,348.5 C 269.17,375 286.503,391.5 313.5,398C 350.846,400.349 375.18,383.849 386.5,348.5C 411.995,349.498 437.661,349.831 463.5,349.5C 447.558,378.097 431.225,406.43 414.5,434.5C 354.167,434.5 293.833,434.5 233.5,434.5C 216.775,406.43 200.442,378.097 184.5,349.5C 210.339,349.831 236.005,349.498 261.5,348.5 Z"/></g>
<g><path style="opacity:1" fill="#8941a8" d="M 313.5,293.5 C 338.933,290.454 356.1,300.788 365,324.5C 367.167,361 350,378.167 313.5,376C 289.633,367.116 279.466,349.95 283,324.5C 288.017,308.984 298.184,298.65 313.5,293.5 Z"/></g>
<g><path style="opacity:1" fill="#9240a5" d="M 2.5,405.5 C 3.3312,419.661 3.8312,433.994 4,448.5C 4.49915,443.845 4.66582,439.179 4.5,434.5C 72.3354,434.833 140.002,434.499 207.5,433.5C 214.056,444.936 220.889,456.269 228,467.5C 236.816,476.326 247.316,482.159 259.5,485C 302.167,485.667 344.833,485.667 387.5,485C 400.142,482.431 410.975,476.597 420,467.5C 427.111,456.269 433.944,444.936 440.5,433.5C 515.998,434.499 591.665,434.833 667.5,434.5C 667.334,439.179 667.501,443.845 668,448.5C 668.169,433.994 668.669,419.661 669.5,405.5C 669.5,410.167 669.5,414.833 669.5,419.5C 669.5,449.833 669.5,480.167 669.5,510.5C 668.669,521.993 668.169,533.659 668,545.5C 667.501,539.509 667.334,533.509 667.5,527.5C 446.5,527.5 225.5,527.5 4.5,527.5C 4.66615,533.509 4.49949,539.509 4,545.5C 3.83066,533.659 3.33066,521.993 2.5,510.5C 2.5,480.167 2.5,449.833 2.5,419.5C 2.5,414.833 2.5,410.167 2.5,405.5 Z"/></g>
<g><path style="opacity:1" fill="#9040a6" d="M 233.5,434.5 C 293.833,434.5 354.167,434.5 414.5,434.5C 410.794,443.402 405.461,451.235 398.5,458C 395.167,459.667 391.833,461.333 388.5,463C 345.5,463.667 302.5,463.667 259.5,463C 253.853,460.852 248.853,457.685 244.5,453.5C 240.557,447.275 236.891,440.942 233.5,434.5 Z"/></g>
<g><path style="opacity:1" fill="#7f358a" d="M 670.5,434.5 C 671.167,449.167 671.833,463.833 672.5,478.5C 672.5,537.167 672.5,595.833 672.5,654.5C 670.5,656.833 668.5,659.167 666.5,661.5C 666.875,659.302 667.542,657.302 668.5,655.5C 669.222,655.082 669.722,654.416 670,653.5C 670.5,580.501 670.667,507.501 670.5,434.5 Z"/></g>
<g><path style="opacity:1" fill="#76327f" d="M -0.5,478.5 C -0.166667,478.5 0.166667,478.5 0.5,478.5C 0.333339,535.834 0.500006,593.168 1,650.5C 1.04958,652.744 1.88291,654.411 3.5,655.5C 4.78947,659.044 6.45614,662.377 8.5,665.5C 6.14014,663.147 3.47347,661.147 0.5,659.5C 0.5,658.833 0.166667,658.5 -0.5,658.5C -0.5,598.5 -0.5,538.5 -0.5,478.5 Z"/></g>
<g><path style="opacity:1" fill="#873993" d="M 2.5,419.5 C 2.5,449.833 2.5,480.167 2.5,510.5C 2.16785,558.336 2.50118,606.003 3.5,653.5C 3.5,654.167 3.5,654.833 3.5,655.5C 1.88291,654.411 1.04958,652.744 1,650.5C 0.500006,593.168 0.333339,535.834 0.5,478.5C 0.0632899,458.636 0.729957,438.969 2.5,419.5 Z"/></g>
<g><path style="opacity:1" fill="#983fa3" d="M 2.5,510.5 C 3.33066,521.993 3.83066,533.659 4,545.5C 4.49949,539.509 4.66615,533.509 4.5,527.5C 225.5,527.5 446.5,527.5 667.5,527.5C 667.334,533.509 667.501,539.509 668,545.5C 668.169,533.659 668.669,521.993 669.5,510.5C 669.832,558.003 669.499,605.336 668.5,652.5C 668.667,622.831 668.5,593.165 668,563.5C 667.5,585.164 667.333,606.831 667.5,628.5C 446.5,628.5 225.5,628.5 4.5,628.5C 4.66663,606.831 4.49996,585.164 4,563.5C 3.50002,593.498 3.33335,623.498 3.5,653.5C 2.50118,606.003 2.16785,558.336 2.5,510.5 Z"/></g>
<g><path style="opacity:1" fill="#8a3a96" d="M 669.5,419.5 C 670.487,424.305 670.821,429.305 670.5,434.5C 670.667,507.501 670.5,580.501 670,653.5C 669.722,654.416 669.222,655.082 668.5,655.5C 668.5,654.5 668.5,653.5 668.5,652.5C 669.499,605.336 669.832,558.003 669.5,510.5C 669.5,480.167 669.5,449.833 669.5,419.5 Z"/></g>
<g><path style="opacity:1" fill="#9a3fa1" d="M 668.5,652.5 C 668.5,653.5 668.5,654.5 668.5,655.5C 667.542,657.302 666.875,659.302 666.5,661.5C 665.5,662.833 664.5,664.167 663.5,665.5C 660.659,666.669 657.659,667.669 654.5,668.5C 441.5,668.667 228.5,668.5 15.5,668C 13.559,666.097 11.2257,665.264 8.5,665.5C 6.45614,662.377 4.78947,659.044 3.5,655.5C 3.5,654.833 3.5,654.167 3.5,653.5C 3.33335,623.498 3.50002,593.498 4,563.5C 4.49996,585.164 4.66663,606.831 4.5,628.5C 225.5,628.5 446.5,628.5 667.5,628.5C 667.333,606.831 667.5,585.164 668,563.5C 668.5,593.165 668.667,622.831 668.5,652.5 Z"/></g>
<g><path style="opacity:1" fill="#491e4c" d="M 672.5,654.5 C 672.5,655.833 672.5,657.167 672.5,658.5C 671.167,660.5 669.833,662.5 668.5,664.5C 668.44,663.957 668.107,663.624 667.5,663.5C 666.378,664.63 665.044,665.297 663.5,665.5C 664.5,664.167 665.5,662.833 666.5,661.5C 668.5,659.167 670.5,656.833 672.5,654.5 Z"/></g>
<g><path style="opacity:0.988" fill="#2a112c" d="M 0.5,659.5 C 3.47347,661.147 6.14014,663.147 8.5,665.5C 10.0904,667.234 12.0904,668.4 14.5,669C 228,669.833 441.334,669.666 654.5,668.5C 657.659,667.669 660.659,666.669 663.5,665.5C 665.044,665.297 666.378,664.63 667.5,663.5C 668.107,663.624 668.44,663.957 668.5,664.5C 665.896,668.128 662.563,670.795 658.5,672.5C 443.5,672.5 228.5,672.5 13.5,672.5C 7.528,669.861 3.19466,665.528 0.5,659.5 Z"/></g>
<g><path style="opacity:1" fill="#5c2560" d="M 8.5,665.5 C 11.2257,665.264 13.559,666.097 15.5,668C 228.5,668.5 441.5,668.667 654.5,668.5C 441.334,669.666 228,669.833 14.5,669C 12.0904,668.4 10.0904,667.234 8.5,665.5 Z"/></g>
</svg>
