<?xml version="1.0" encoding="UTF-8"?>
<!DOCTYPE svg PUBLIC "-//W3C//DTD SVG 1.1//EN" "http://www.w3.org/Graphics/SVG/1.1/DTD/svg11.dtd">
<svg xmlns="http://www.w3.org/2000/svg" version="1.1" width="674px" height="673px" style="shape-rendering:geometricPrecision; text-rendering:geometricPrecision; image-rendering:optimizeQuality; fill-rule:evenodd; clip-rule:evenodd" xmlns:xlink="http://www.w3.org/1999/xlink">
<g><path style="opacity:1" fill="#b86fb8" d="M 13.5,-0.5 C 228.833,-0.5 444.167,-0.5 659.5,-0.5C 660.965,0.736849 662.632,1.73685 664.5,2.5C 445.824,2.50204 227.157,2.50204 8.5,2.5C 10.3684,1.73685 12.0351,0.736849 13.5,-0.5 Z"/></g>
<g><path style="opacity:1" fill="#aa50a9" d="M 8.5,2.5 C 227.157,2.50204 445.824,2.50204 664.5,2.5C 667.973,4.6367 670.306,7.6367 671.5,11.5C 670.127,11.6567 668.793,11.49 667.5,11C 666.295,9.62439 664.962,8.45773 663.5,7.5C 661.076,6.96952 658.743,6.13619 656.5,5C 443.167,4.33333 229.833,4.33333 16.5,5C 10.4839,6.20145 6.48393,9.70145 4.5,15.5C 4.44001,16.0431 4.10667,16.3764 3.5,16.5C 2.37765,15.3698 1.04432,14.7031 -0.5,14.5C -0.5,14.1667 -0.5,13.8333 -0.5,13.5C 1.36483,8.96243 4.36483,5.29577 8.5,2.5 Z"/></g>
<g><path style="opacity:1" fill="#a240a1" d="M 663.5,7.5 C 664.919,10.1004 666.585,12.6004 668.5,15C 668.043,15.414 667.709,15.914 667.5,16.5C 557.167,16.8333 446.833,17.1667 336.5,17.5C 225.625,17.498 114.959,16.8313 4.5,15.5C 6.48393,9.70145 10.4839,6.20145 16.5,5C 229.833,4.33333 443.167,4.33333 656.5,5C 658.743,6.13619 661.076,6.96952 663.5,7.5 Z"/></g>
<g><path style="opacity:1" fill="#a5409f" d="M 663.5,7.5 C 664.962,8.45773 666.295,9.62439 667.5,11C 668.793,11.49 670.127,11.6567 671.5,11.5C 672.167,12.1667 672.833,12.8333 673.5,13.5C 673.5,14.5 673.5,15.5 673.5,16.5C 672.542,16.9528 671.708,17.6195 671,18.5C 670.5,59.1653 670.333,99.832 670.5,140.5C 669.669,152.993 669.169,165.66 669,178.5C 668.501,172.509 668.334,166.509 668.5,160.5C 447.167,160.5 225.833,160.5 4.5,160.5C 4.66615,166.509 4.49949,172.509 4,178.5C 3.83089,165.66 3.33089,152.993 2.5,140.5C 2.66665,101.165 2.49999,61.8319 2,22.5C 1.90054,20.3474 1.0672,18.6808 -0.5,17.5C -0.5,16.5 -0.5,15.5 -0.5,14.5C 1.04432,14.7031 2.37765,15.3698 3.5,16.5C 4.10667,16.3764 4.44001,16.0431 4.5,15.5C 114.959,16.8313 225.625,17.498 336.5,17.5C 446.833,17.1667 557.167,16.8333 667.5,16.5C 667.709,15.914 668.043,15.414 668.5,15C 666.585,12.6004 664.919,10.1004 663.5,7.5 Z"/></g>
<g><path style="opacity:1" fill="#973b90" d="M -0.5,17.5 C 1.0672,18.6808 1.90054,20.3474 2,22.5C 2.49999,61.8319 2.66665,101.165 2.5,140.5C 2.5,176.167 2.5,211.833 2.5,247.5C 2.5,249.833 2.5,252.167 2.5,254.5C 2.16667,254.5 1.83333,254.5 1.5,254.5C 0.909362,176.336 0.242695,98.3364 -0.5,20.5C -0.5,19.5 -0.5,18.5 -0.5,17.5 Z"/></g>
<g><path style="opacity:1" fill="#973b90" d="M 673.5,16.5 C 673.5,17.8333 673.5,19.1667 673.5,20.5C 672.757,98.3364 672.091,176.336 671.5,254.5C 671.167,254.5 670.833,254.5 670.5,254.5C 670.5,252.167 670.5,249.833 670.5,247.5C 670.5,211.833 670.5,176.167 670.5,140.5C 670.333,99.832 670.5,59.1653 671,18.5C 671.708,17.6195 672.542,16.9528 673.5,16.5 Z"/></g>
<g><path style="opacity:1" fill="#ab429e" d="M 2.5,140.5 C 3.33089,152.993 3.83089,165.66 4,178.5C 4.49949,172.509 4.66615,166.509 4.5,160.5C 225.833,160.5 447.167,160.5 668.5,160.5C 668.334,166.509 668.501,172.509 669,178.5C 669.169,165.66 669.669,152.993 670.5,140.5C 670.5,176.167 670.5,211.833 670.5,247.5C 669.677,244.023 669.177,240.356 669,236.5C 668.5,245.827 668.334,255.161 668.5,264.5C 591.5,264.5 514.5,264.5 437.5,264.5C 412.426,242.933 387.759,220.766 363.5,198C 341.779,182.898 320.112,182.898 298.5,198C 274.241,220.766 249.574,242.933 224.5,264.5C 151.167,264.5 77.8333,264.5 4.5,264.5C 4.66645,255.161 4.49979,245.827 4,236.5C 3.8227,240.356 3.3227,244.023 2.5,247.5C 2.5,211.833 2.5,176.167 2.5,140.5 Z"/></g>
<g><path style="opacity:1" fill="#d5d5d7" d="M 437.5,264.5 C 448.17,275.335 459.336,285.668 471,295.5C 474.341,299.52 477.175,303.853 479.5,308.5C 481.843,312.863 483.176,317.53 483.5,322.5C 483.5,339.833 483.5,357.167 483.5,374.5C 482.163,375.315 481.163,376.482 480.5,378C 480.847,379.569 481.014,381.402 481,383.5C 477.281,385.033 476.448,387.199 478.5,390C 477.117,392.123 475.45,393.123 473.5,393C 476.167,394 476.167,395 473.5,396C 476.167,396.667 476.167,397.333 473.5,398C 473.835,399.503 473.835,400.836 473.5,402C 470.456,402.359 470.122,403.026 472.5,404C 471.672,404.915 470.672,405.581 469.5,406C 470.167,406.333 470.833,406.667 471.5,407C 466.917,410.686 463.584,414.852 461.5,419.5C 462.471,420.962 462.138,422.295 460.5,423.5C 461.811,424.258 462.311,425.258 462,426.5C 461.667,426.167 461.333,425.833 461,425.5C 460.809,427.651 459.642,429.651 457.5,431.5C 457.167,430.833 456.833,430.167 456.5,429.5C 454.784,430.549 453.451,431.882 452.5,433.5C 452.832,397.996 452.498,362.663 451.5,327.5C 451.567,326.041 451.234,324.708 450.5,323.5C 453.352,322.206 453.686,320.706 451.5,319C 452.167,318.667 452.833,318.333 453.5,318C 452.809,316.933 452.309,315.766 452,314.5C 451.667,314.833 451.333,315.167 451,315.5C 450.349,313.765 450.515,312.098 451.5,310.5C 450.01,309.174 448.676,307.674 447.5,306C 450.033,303.679 449.699,301.679 446.5,300C 446.815,297.902 446.815,295.902 446.5,294C 444.905,294.617 443.572,294.284 442.5,293C 443.022,292.439 443.355,291.772 443.5,291C 441.698,287.897 440.032,284.73 438.5,281.5C 438.709,280.914 439.043,280.414 439.5,280C 437.76,278.306 435.76,277.139 433.5,276.5C 433.822,274.278 433.155,272.444 431.5,271C 431.833,270.667 432.167,270.333 432.5,270C 430.898,268.065 429.731,265.899 429,263.5C 428.911,266.849 427.744,267.349 425.5,265C 426.167,264.667 426.833,264.333 427.5,264C 426.458,262.082 425.292,260.249 424,258.5C 423,259.167 422,259.833 421,260.5C 420.451,257.94 419.284,255.273 417.5,252.5C 415.471,253.629 415.137,253.129 416.5,251C 414.153,250.154 412.32,248.654 411,246.5C 409.927,247.28 408.76,247.113 407.5,246C 408.167,245.667 408.833,245.333 409.5,245C 404.422,242.579 399.922,239.412 396,235.5C 395.667,235.833 395.333,236.167 395,236.5C 392.462,232.772 389.129,231.439 385,232.5C 384.667,231.167 384.333,229.833 384,228.5C 382.984,229.634 382.317,229.301 382,227.5C 379.679,228.361 378.513,227.361 378.5,224.5C 376.856,224.286 375.356,224.62 374,225.5C 373,222.833 372,222.833 371,225.5C 369.676,223.5 368.009,221.833 366,220.5C 363.667,223.5 362,223.167 361,219.5C 358.216,222.284 356.549,221.617 356,217.5C 355.692,218.308 355.192,218.975 354.5,219.5C 353.304,219.154 353.304,218.654 354.5,218C 353.056,217.219 351.723,217.386 350.5,218.5C 351.506,219.396 351.506,220.062 350.5,220.5C 349.571,217.999 348.071,217.333 346,218.5C 345.055,218.095 344.388,217.428 344,216.5C 341.791,216.989 339.958,217.989 338.5,219.5C 333.5,218.167 328.5,218.167 323.5,219.5C 323.389,218.883 323.056,218.383 322.5,218C 320.479,217.86 318.645,217.693 317,217.5C 315.561,219.014 314.061,219.347 312.5,218.5C 311.808,219.025 311.308,219.692 311,220.5C 308.993,219.672 306.993,218.672 305,217.5C 303.333,219.167 301.667,220.833 300,222.5C 298.062,221.14 296.396,221.473 295,223.5C 294.223,221.299 293.056,221.299 291.5,223.5C 292.506,224.396 292.506,225.062 291.5,225.5C 290.575,224.359 289.741,224.359 289,225.5C 287.203,222.904 285.869,223.237 285,226.5C 283.16,225.167 282.66,225.334 283.5,227C 281.481,227.45 279.648,228.283 278,229.5C 273.208,231.006 268.875,234.006 265,238.5C 263.442,237.655 262.442,238.321 262,240.5C 261.333,239.833 260.667,239.167 260,238.5C 260,239.833 260,241.167 260,242.5C 257.942,241.891 257.109,240.891 257.5,239.5C 256.573,241.113 255.739,242.779 255,244.5C 254.107,243.289 253.274,243.289 252.5,244.5C 253.504,246.677 252.838,247.011 250.5,245.5C 249.41,246.727 248.076,247.56 246.5,248C 248.968,249.588 249.134,251.422 247,253.5C 245.318,255.599 243.652,256.932 242,257.5C 241.751,256.376 241.251,255.376 240.5,254.5C 240.167,254.667 239.833,254.833 239.5,255C 240.451,255.718 240.617,256.551 240,257.5C 238.581,258.46 237.081,259.293 235.5,260C 236.167,260.333 236.833,260.667 237.5,261C 235.422,263.636 233.089,266.136 230.5,268.5C 230.709,269.086 231.043,269.586 231.5,270C 230.069,270.465 228.903,271.299 228,272.5C 227.544,273.744 228.044,274.577 229.5,275C 229,275.5 228.5,276 228,276.5C 226.951,275.483 225.784,275.316 224.5,276C 224.833,276.333 225.167,276.667 225.5,277C 223.11,279.95 220.776,282.95 218.5,286C 219.614,287.449 220.614,288.783 221.5,290C 220.251,291.824 219.085,291.657 218,289.5C 217.727,291.329 216.893,292.829 215.5,294C 216.167,294.333 216.833,294.667 217.5,295C 215.475,296.194 215.141,297.694 216.5,299.5C 215.846,301.115 215.346,302.782 215,304.5C 213.736,304.36 212.569,304.36 211.5,304.5C 212.025,305.192 212.692,305.692 213.5,306C 210.751,307.346 210.417,308.68 212.5,310C 211.5,310.833 210.5,311.667 209.5,312.5C 209.423,314.542 210.09,316.542 211.5,318.5C 209.647,321.208 208.647,324.208 208.5,327.5C 207.667,362.664 207.167,397.998 207,433.5C 205.833,431.667 204.667,429.833 203.5,428C 203.833,427.667 204.167,427.333 204.5,427C 203.107,424.822 201.44,423.822 199.5,424C 200.167,423.667 200.833,423.333 201.5,423C 199.996,421.509 199.163,419.676 199,417.5C 198.667,418.167 198.333,418.833 198,419.5C 197.196,416.243 195.363,413.743 192.5,412C 193.516,411.481 194.182,410.647 194.5,409.5C 194.101,407.803 193.601,406.137 193,404.5C 190.356,407.33 189.522,406.996 190.5,403.5C 189.833,403.167 189.167,402.833 188.5,402.5C 191.028,401.483 191.028,400.316 188.5,399C 190.657,397.915 190.824,396.749 189,395.5C 188.667,396.167 188.333,396.833 188,397.5C 187.167,396 186,394.833 184.5,394C 185.711,392.887 185.711,391.72 184.5,390.5C 185.025,389.808 185.692,389.308 186.5,389C 184.913,388.138 183.246,387.471 181.5,387C 182.357,386.311 183.023,385.478 183.5,384.5C 182.559,384.511 181.892,384.011 181.5,383C 182.167,381.333 182.833,379.667 183.5,378C 183.167,377.5 182.833,377 182.5,376.5C 178.633,377.487 178.633,376.987 182.5,375C 180.807,373.75 179.473,372.25 178.5,370.5C 178.5,354.5 178.5,338.5 178.5,322.5C 178.824,317.53 180.157,312.863 182.5,308.5C 183.735,305.699 185.235,303.032 187,300.5C 199.699,288.633 212.199,276.633 224.5,264.5C 249.574,242.933 274.241,220.766 298.5,198C 320.112,182.898 341.779,182.898 363.5,198C 387.759,220.766 412.426,242.933 437.5,264.5 Z"/></g>
<g><path style="opacity:1" fill="#dad9dc" d="M 323.5,219.5 C 320.91,220.128 318.577,221.295 316.5,223C 293.304,244.033 270.304,265.199 247.5,286.5C 239.174,293.493 231.174,300.826 223.5,308.5C 219.208,311.457 215.208,314.79 211.5,318.5C 210.09,316.542 209.423,314.542 209.5,312.5C 210.5,311.667 211.5,310.833 212.5,310C 210.417,308.68 210.751,307.346 213.5,306C 212.692,305.692 212.025,305.192 211.5,304.5C 212.569,304.36 213.736,304.36 215,304.5C 215.346,302.782 215.846,301.115 216.5,299.5C 215.141,297.694 215.475,296.194 217.5,295C 216.833,294.667 216.167,294.333 215.5,294C 216.893,292.829 217.727,291.329 218,289.5C 219.085,291.657 220.251,291.824 221.5,290C 220.614,288.783 219.614,287.449 218.5,286C 220.776,282.95 223.11,279.95 225.5,277C 225.167,276.667 224.833,276.333 224.5,276C 225.784,275.316 226.951,275.483 228,276.5C 228.5,276 229,275.5 229.5,275C 228.044,274.577 227.544,273.744 228,272.5C 228.903,271.299 230.069,270.465 231.5,270C 231.043,269.586 230.709,269.086 230.5,268.5C 233.089,266.136 235.422,263.636 237.5,261C 236.833,260.667 236.167,260.333 235.5,260C 237.081,259.293 238.581,258.46 240,257.5C 240.617,256.551 240.451,255.718 239.5,255C 239.833,254.833 240.167,254.667 240.5,254.5C 241.251,255.376 241.751,256.376 242,257.5C 243.652,256.932 245.318,255.599 247,253.5C 249.134,251.422 248.968,249.588 246.5,248C 248.076,247.56 249.41,246.727 250.5,245.5C 252.838,247.011 253.504,246.677 252.5,244.5C 253.274,243.289 254.107,243.289 255,244.5C 255.739,242.779 256.573,241.113 257.5,239.5C 257.109,240.891 257.942,241.891 260,242.5C 260,241.167 260,239.833 260,238.5C 260.667,239.167 261.333,239.833 262,240.5C 262.442,238.321 263.442,237.655 265,238.5C 268.875,234.006 273.208,231.006 278,229.5C 279.648,228.283 281.481,227.45 283.5,227C 282.66,225.334 283.16,225.167 285,226.5C 285.869,223.237 287.203,222.904 289,225.5C 289.741,224.359 290.575,224.359 291.5,225.5C 292.506,225.062 292.506,224.396 291.5,223.5C 293.056,221.299 294.223,221.299 295,223.5C 296.396,221.473 298.062,221.14 300,222.5C 301.667,220.833 303.333,219.167 305,217.5C 306.993,218.672 308.993,219.672 311,220.5C 311.308,219.692 311.808,219.025 312.5,218.5C 314.061,219.347 315.561,219.014 317,217.5C 318.645,217.693 320.479,217.86 322.5,218C 323.056,218.383 323.389,218.883 323.5,219.5 Z"/></g>
<g><path style="opacity:1" fill="#dadadc" d="M 450.5,323.5 C 446.952,317.279 442.285,311.945 436.5,307.5C 428.826,299.826 420.826,292.493 412.5,285.5C 388.131,263.129 363.464,241.129 338.5,219.5C 339.958,217.989 341.791,216.989 344,216.5C 344.388,217.428 345.055,218.095 346,218.5C 348.071,217.333 349.571,217.999 350.5,220.5C 351.506,220.062 351.506,219.396 350.5,218.5C 351.723,217.386 353.056,217.219 354.5,218C 353.304,218.654 353.304,219.154 354.5,219.5C 355.192,218.975 355.692,218.308 356,217.5C 356.549,221.617 358.216,222.284 361,219.5C 362,223.167 363.667,223.5 366,220.5C 368.009,221.833 369.676,223.5 371,225.5C 372,222.833 373,222.833 374,225.5C 375.356,224.62 376.856,224.286 378.5,224.5C 378.513,227.361 379.679,228.361 382,227.5C 382.317,229.301 382.984,229.634 384,228.5C 384.333,229.833 384.667,231.167 385,232.5C 389.129,231.439 392.462,232.772 395,236.5C 395.333,236.167 395.667,235.833 396,235.5C 399.922,239.412 404.422,242.579 409.5,245C 408.833,245.333 408.167,245.667 407.5,246C 408.76,247.113 409.927,247.28 411,246.5C 412.32,248.654 414.153,250.154 416.5,251C 415.137,253.129 415.471,253.629 417.5,252.5C 419.284,255.273 420.451,257.94 421,260.5C 422,259.833 423,259.167 424,258.5C 425.292,260.249 426.458,262.082 427.5,264C 426.833,264.333 426.167,264.667 425.5,265C 427.744,267.349 428.911,266.849 429,263.5C 429.731,265.899 430.898,268.065 432.5,270C 432.167,270.333 431.833,270.667 431.5,271C 433.155,272.444 433.822,274.278 433.5,276.5C 435.76,277.139 437.76,278.306 439.5,280C 439.043,280.414 438.709,280.914 438.5,281.5C 440.032,284.73 441.698,287.897 443.5,291C 443.355,291.772 443.022,292.439 442.5,293C 443.572,294.284 444.905,294.617 446.5,294C 446.815,295.902 446.815,297.902 446.5,300C 449.699,301.679 450.033,303.679 447.5,306C 448.676,307.674 450.01,309.174 451.5,310.5C 450.515,312.098 450.349,313.765 451,315.5C 451.333,315.167 451.667,314.833 452,314.5C 452.309,315.766 452.809,316.933 453.5,318C 452.833,318.333 452.167,318.667 451.5,319C 453.686,320.706 453.352,322.206 450.5,323.5 Z"/></g>
<g><path style="opacity:1" fill="#ae449d" d="M 338.5,219.5 C 363.464,241.129 388.131,263.129 412.5,285.5C 357.669,286.499 302.669,286.832 247.5,286.5C 270.304,265.199 293.304,244.033 316.5,223C 318.577,221.295 320.91,220.128 323.5,219.5C 328.5,218.167 333.5,218.167 338.5,219.5 Z"/></g>
<g><path style="opacity:1" fill="#b0449c" d="M 224.5,264.5 C 212.199,276.633 199.699,288.633 187,300.5C 185.235,303.032 183.735,305.699 182.5,308.5C 122.833,308.5 63.1667,308.5 3.5,308.5C 3.5,325.5 3.5,342.5 3.5,359.5C 2.50162,324.671 2.16829,289.671 2.5,254.5C 2.5,252.167 2.5,249.833 2.5,247.5C 3.3227,244.023 3.8227,240.356 4,236.5C 4.49979,245.827 4.66645,255.161 4.5,264.5C 77.8333,264.5 151.167,264.5 224.5,264.5 Z"/></g>
<g><path style="opacity:1" fill="#b0449c" d="M 670.5,247.5 C 670.5,249.833 670.5,252.167 670.5,254.5C 670.5,289.5 670.5,324.5 670.5,359.5C 670.167,359.5 669.833,359.5 669.5,359.5C 669.5,342.5 669.5,325.5 669.5,308.5C 606.167,308.5 542.833,308.5 479.5,308.5C 477.175,303.853 474.341,299.52 471,295.5C 459.336,285.668 448.17,275.335 437.5,264.5C 514.5,264.5 591.5,264.5 668.5,264.5C 668.334,255.161 668.5,245.827 669,236.5C 669.177,240.356 669.677,244.023 670.5,247.5 Z"/></g>
<g><path style="opacity:1" fill="#b0449c" d="M 412.5,285.5 C 420.826,292.493 428.826,299.826 436.5,307.5C 365.669,308.499 294.669,308.833 223.5,308.5C 231.174,300.826 239.174,293.493 247.5,286.5C 302.669,286.832 357.669,286.499 412.5,285.5 Z"/></g>
<g><path style="opacity:1" fill="#b3459b" d="M 182.5,308.5 C 180.157,312.863 178.824,317.53 178.5,322.5C 177.503,339.992 177.17,357.659 177.5,375.5C 119.833,375.5 62.1667,375.5 4.5,375.5C 4.66602,380.844 4.49935,386.177 4,391.5C 3.50016,380.839 3.3335,370.172 3.5,359.5C 3.5,342.5 3.5,325.5 3.5,308.5C 63.1667,308.5 122.833,308.5 182.5,308.5 Z"/></g>
<g><path style="opacity:1" fill="#b3459b" d="M 436.5,307.5 C 442.285,311.945 446.952,317.279 450.5,323.5C 451.234,324.708 451.567,326.041 451.5,327.5C 451.5,343.5 451.5,359.5 451.5,375.5C 370.5,375.5 289.5,375.5 208.5,375.5C 208.5,359.5 208.5,343.5 208.5,327.5C 208.647,324.208 209.647,321.208 211.5,318.5C 215.208,314.79 219.208,311.457 223.5,308.5C 294.669,308.833 365.669,308.499 436.5,307.5 Z"/></g>
<g><path style="opacity:1" fill="#b3459b" d="M 479.5,308.5 C 542.833,308.5 606.167,308.5 669.5,308.5C 669.5,325.5 669.5,342.5 669.5,359.5C 669.667,370.172 669.5,380.839 669,391.5C 668.501,386.177 668.334,380.844 668.5,375.5C 607.167,375.5 545.833,375.5 484.5,375.5C 484.83,357.659 484.497,339.992 483.5,322.5C 483.176,317.53 481.843,312.863 479.5,308.5 Z"/></g>
<g><path style="opacity:1" fill="#953982" d="M -0.5,20.5 C 0.242695,98.3364 0.909362,176.336 1.5,254.5C 1.5,328.167 1.5,401.833 1.5,475.5C 0.833333,464.167 0.166667,452.833 -0.5,441.5C -0.5,301.167 -0.5,160.833 -0.5,20.5 Z"/></g>
<g><path style="opacity:1" fill="#953982" d="M 673.5,20.5 C 673.5,160.833 673.5,301.167 673.5,441.5C 672.505,452.654 672.172,463.988 672.5,475.5C 671.501,402.002 671.167,328.335 671.5,254.5C 672.091,176.336 672.757,98.3364 673.5,20.5 Z"/></g>
<g><path style="opacity:1" fill="#b84699" d="M 1.5,254.5 C 1.83333,254.5 2.16667,254.5 2.5,254.5C 2.16829,289.671 2.50162,324.671 3.5,359.5C 3.3335,370.172 3.50016,380.839 4,391.5C 4.49935,386.177 4.66602,380.844 4.5,375.5C 62.1667,375.5 119.833,375.5 177.5,375.5C 177.333,400.502 177.5,425.502 178,450.5C 180.062,459.208 183.562,467.208 188.5,474.5C 127.336,475.499 66.0023,475.832 4.5,475.5C 4.33253,499.491 3.83253,499.491 3,475.5C 2.50012,487.829 2.33346,500.162 2.5,512.5C 1.50478,500.345 1.17145,488.011 1.5,475.5C 1.5,401.833 1.5,328.167 1.5,254.5 Z"/></g>
<g><path style="opacity:1" fill="#b84699" d="M 669.5,359.5 C 669.833,359.5 670.167,359.5 670.5,359.5C 670.5,398.167 670.5,436.833 670.5,475.5C 669.672,481.319 669.172,487.319 669,493.5C 668.501,487.509 668.334,481.509 668.5,475.5C 603.331,475.832 538.331,475.499 473.5,474.5C 479.461,465.789 482.961,456.122 484,445.5C 484.5,422.169 484.667,398.836 484.5,375.5C 545.833,375.5 607.167,375.5 668.5,375.5C 668.334,380.844 668.501,386.177 669,391.5C 669.5,380.839 669.667,370.172 669.5,359.5 Z"/></g>
<g><path style="opacity:1" fill="#cdcbce" d="M 178.5,322.5 C 178.5,338.5 178.5,354.5 178.5,370.5C 178.333,390.836 178.5,411.169 179,431.5C 179.772,432.849 180.939,433.682 182.5,434C 180.744,438.05 182.411,440.717 187.5,442C 186.833,442.333 186.167,442.667 185.5,443C 187.726,444.227 189.226,446.061 190,448.5C 190.654,447.304 191.154,447.304 191.5,448.5C 189.252,449.324 189.086,450.324 191,451.5C 191.333,451.167 191.667,450.833 192,450.5C 193.999,452.493 195.499,454.827 196.5,457.5C 197.651,458.731 198.817,458.731 200,457.5C 200.667,459.5 201.333,461.5 202,463.5C 202.741,464.641 203.575,464.641 204.5,463.5C 205.23,464.934 206.23,466.1 207.5,467C 207.043,467.414 206.709,467.914 206.5,468.5C 209.549,471.716 213.216,473.883 217.5,475C 216.549,475.718 216.383,476.551 217,477.5C 218.84,476.167 219.34,476.334 218.5,478C 219.646,478.645 220.646,479.478 221.5,480.5C 223.123,479.524 224.457,480.024 225.5,482C 224.833,482.333 224.167,482.667 223.5,483C 224.667,483.5 225.5,484.333 226,485.5C 228.537,484.823 230.537,485.823 232,488.5C 232.414,488.043 232.914,487.709 233.5,487.5C 235.234,489.234 237.234,490.568 239.5,491.5C 301.167,492.833 362.833,492.833 424.5,491.5C 427.569,490.456 429.736,488.456 431,485.5C 432,485.833 433,486.167 434,486.5C 435.726,484.772 437.059,482.772 438,480.5C 438.333,481.167 438.667,481.833 439,482.5C 439.615,480.884 440.615,479.551 442,478.5C 442.333,479.167 442.667,479.833 443,480.5C 443.559,478.14 444.892,475.807 447,473.5C 447.333,474.167 447.667,474.833 448,475.5C 449.901,471.409 452.901,469.409 457,469.5C 457.986,467.222 458.82,464.889 459.5,462.5C 460.689,461.571 462.022,461.238 463.5,461.5C 463.343,460.127 463.51,458.793 464,457.5C 464.333,457.833 464.667,458.167 465,458.5C 465.667,457.167 466.333,455.833 467,454.5C 467.333,454.833 467.667,455.167 468,455.5C 468.973,453.608 469.64,451.608 470,449.5C 472.956,447.488 474.789,444.821 475.5,441.5C 479.599,441.316 480.599,439.816 478.5,437C 480.883,436.935 481.55,436.102 480.5,434.5C 480.833,433.5 481.5,432.833 482.5,432.5C 483.5,413.178 483.833,393.845 483.5,374.5C 483.5,357.167 483.5,339.833 483.5,322.5C 484.497,339.992 484.83,357.659 484.5,375.5C 484.667,398.836 484.5,422.169 484,445.5C 482.961,456.122 479.461,465.789 473.5,474.5C 466.228,482.928 457.228,488.761 446.5,492C 407.191,493.142 367.858,493.642 328.5,493.5C 291.833,493.333 255.167,493.167 218.5,493C 206.728,489.619 196.728,483.452 188.5,474.5C 183.562,467.208 180.062,459.208 178,450.5C 177.5,425.502 177.333,400.502 177.5,375.5C 177.17,357.659 177.503,339.992 178.5,322.5 Z"/></g>
<g><path style="opacity:1" fill="#b8479a" d="M 451.5,327.5 C 452.498,362.663 452.832,397.996 452.5,433.5C 454.571,443.85 451.904,452.684 444.5,460C 441.326,461.725 437.993,463.058 434.5,464C 422.838,464.5 411.171,464.667 399.5,464.5C 353.833,464.5 308.167,464.5 262.5,464.5C 249.829,464.667 237.162,464.5 224.5,464C 216.667,461.5 211.5,456.333 209,448.5C 208.5,424.169 208.333,399.836 208.5,375.5C 289.5,375.5 370.5,375.5 451.5,375.5C 451.5,359.5 451.5,343.5 451.5,327.5 Z"/></g>
<g><path style="opacity:1" fill="#993a79" d="M 673.5,441.5 C 673.5,513.167 673.5,584.833 673.5,656.5C 669.743,659.284 666.41,662.617 663.5,666.5C 662.508,666.328 661.842,666.662 661.5,667.5C 660.833,667.5 660.167,667.5 659.5,667.5C 665.092,663.908 668.759,658.908 670.5,652.5C 671.117,652.389 671.617,652.056 672,651.5C 672.5,592.834 672.667,534.168 672.5,475.5C 672.172,463.988 672.505,452.654 673.5,441.5 Z"/></g>
<g><path style="opacity:1" fill="#d1d1d3" d="M 208.5,327.5 C 208.5,343.5 208.5,359.5 208.5,375.5C 208.333,399.836 208.5,424.169 209,448.5C 211.5,456.333 216.667,461.5 224.5,464C 237.162,464.5 249.829,464.667 262.5,464.5C 263.475,466.193 264.808,467.693 266.5,469C 265.112,469.889 265.278,470.389 267,470.5C 267.945,470.095 268.612,469.428 269,468.5C 270.067,469.191 271.234,469.691 272.5,470C 271.833,470.333 271.167,470.667 270.5,471C 271.667,471.5 272.5,472.333 273,473.5C 273.308,472.692 273.808,472.025 274.5,471.5C 276.789,472.077 277.955,473.077 278,474.5C 279.465,473.67 280.965,473.504 282.5,474C 281.378,475.613 281.878,476.78 284,477.5C 284.689,476.643 285.522,475.977 286.5,475.5C 287.874,476.711 289.374,477.711 291,478.5C 292.876,476.877 294.21,477.21 295,479.5C 297.333,479.5 299.667,479.5 302,479.5C 302.333,480.167 302.667,480.833 303,481.5C 304.667,481.5 306.333,481.5 308,481.5C 308.333,482.5 308.667,483.5 309,484.5C 312.597,479.311 315.263,479.978 317,486.5C 318.738,484.759 320.738,483.426 323,482.5C 324.235,483.615 325.402,483.615 326.5,482.5C 327.696,482.846 327.696,483.346 326.5,484C 329.386,485.83 332.219,485.664 335,483.5C 335.772,483.645 336.439,483.978 337,484.5C 338.333,480.5 339.667,480.5 341,484.5C 343.273,482.108 345.44,482.108 347.5,484.5C 348.541,482.009 349.374,482.009 350,484.5C 351.071,480.959 352.737,480.292 355,482.5C 355.424,478.81 356.258,478.643 357.5,482C 358.167,482.667 358.833,482.667 359.5,482C 358.304,481.346 358.304,480.846 359.5,480.5C 360.883,483.076 361.717,482.742 362,479.5C 362.333,479.833 362.667,480.167 363,480.5C 364.441,479.13 366.108,478.13 368,477.5C 368.333,478.167 368.667,478.833 369,479.5C 370.067,478.809 371.234,478.309 372.5,478C 371.549,477.282 371.383,476.449 372,475.5C 372.915,476.328 373.581,477.328 374,478.5C 375,476.833 376.333,475.5 378,474.5C 378.667,475.167 379.333,475.833 380,476.5C 380.953,474.408 382.286,474.075 384,475.5C 385.378,472.892 387.545,471.392 390.5,471C 390.167,470.667 389.833,470.333 389.5,470C 390.784,469.316 391.951,469.483 393,470.5C 393.582,467.332 394.582,466.999 396,469.5C 396.945,466.948 398.112,465.281 399.5,464.5C 411.171,464.667 422.838,464.5 434.5,464C 437.993,463.058 441.326,461.725 444.5,460C 451.904,452.684 454.571,443.85 452.5,433.5C 453.451,431.882 454.784,430.549 456.5,429.5C 456.833,430.167 457.167,430.833 457.5,431.5C 459.642,429.651 460.809,427.651 461,425.5C 461.333,425.833 461.667,426.167 462,426.5C 462.311,425.258 461.811,424.258 460.5,423.5C 462.138,422.295 462.471,420.962 461.5,419.5C 463.584,414.852 466.917,410.686 471.5,407C 470.833,406.667 470.167,406.333 469.5,406C 470.672,405.581 471.672,404.915 472.5,404C 470.122,403.026 470.456,402.359 473.5,402C 473.835,400.836 473.835,399.503 473.5,398C 476.167,397.333 476.167,396.667 473.5,396C 476.167,395 476.167,394 473.5,393C 475.45,393.123 477.117,392.123 478.5,390C 476.448,387.199 477.281,385.033 481,383.5C 481.014,381.402 480.847,379.569 480.5,378C 481.163,376.482 482.163,375.315 483.5,374.5C 483.833,393.845 483.5,413.178 482.5,432.5C 481.5,432.833 480.833,433.5 480.5,434.5C 481.55,436.102 480.883,436.935 478.5,437C 480.599,439.816 479.599,441.316 475.5,441.5C 474.789,444.821 472.956,447.488 470,449.5C 469.64,451.608 468.973,453.608 468,455.5C 467.667,455.167 467.333,454.833 467,454.5C 466.333,455.833 465.667,457.167 465,458.5C 464.667,458.167 464.333,457.833 464,457.5C 463.51,458.793 463.343,460.127 463.5,461.5C 462.022,461.238 460.689,461.571 459.5,462.5C 458.82,464.889 457.986,467.222 457,469.5C 452.901,469.409 449.901,471.409 448,475.5C 447.667,474.833 447.333,474.167 447,473.5C 444.892,475.807 443.559,478.14 443,480.5C 442.667,479.833 442.333,479.167 442,478.5C 440.615,479.551 439.615,480.884 439,482.5C 438.667,481.833 438.333,481.167 438,480.5C 437.059,482.772 435.726,484.772 434,486.5C 433,486.167 432,485.833 431,485.5C 429.736,488.456 427.569,490.456 424.5,491.5C 362.833,492.833 301.167,492.833 239.5,491.5C 237.234,490.568 235.234,489.234 233.5,487.5C 232.914,487.709 232.414,488.043 232,488.5C 230.537,485.823 228.537,484.823 226,485.5C 225.5,484.333 224.667,483.5 223.5,483C 224.167,482.667 224.833,482.333 225.5,482C 224.457,480.024 223.123,479.524 221.5,480.5C 220.646,479.478 219.646,478.645 218.5,478C 219.34,476.334 218.84,476.167 217,477.5C 216.383,476.551 216.549,475.718 217.5,475C 213.216,473.883 209.549,471.716 206.5,468.5C 206.709,467.914 207.043,467.414 207.5,467C 206.23,466.1 205.23,464.934 204.5,463.5C 203.575,464.641 202.741,464.641 202,463.5C 201.333,461.5 200.667,459.5 200,457.5C 198.817,458.731 197.651,458.731 196.5,457.5C 195.499,454.827 193.999,452.493 192,450.5C 191.667,450.833 191.333,451.167 191,451.5C 189.086,450.324 189.252,449.324 191.5,448.5C 191.154,447.304 190.654,447.304 190,448.5C 189.226,446.061 187.726,444.227 185.5,443C 186.167,442.667 186.833,442.333 187.5,442C 182.411,440.717 180.744,438.05 182.5,434C 180.939,433.682 179.772,432.849 179,431.5C 178.5,411.169 178.333,390.836 178.5,370.5C 179.473,372.25 180.807,373.75 182.5,375C 178.633,376.987 178.633,377.487 182.5,376.5C 182.833,377 183.167,377.5 183.5,378C 182.833,379.667 182.167,381.333 181.5,383C 181.892,384.011 182.559,384.511 183.5,384.5C 183.023,385.478 182.357,386.311 181.5,387C 183.246,387.471 184.913,388.138 186.5,389C 185.692,389.308 185.025,389.808 184.5,390.5C 185.711,391.72 185.711,392.887 184.5,394C 186,394.833 187.167,396 188,397.5C 188.333,396.833 188.667,396.167 189,395.5C 190.824,396.749 190.657,397.915 188.5,399C 191.028,400.316 191.028,401.483 188.5,402.5C 189.167,402.833 189.833,403.167 190.5,403.5C 189.522,406.996 190.356,407.33 193,404.5C 193.601,406.137 194.101,407.803 194.5,409.5C 194.182,410.647 193.516,411.481 192.5,412C 195.363,413.743 197.196,416.243 198,419.5C 198.333,418.833 198.667,418.167 199,417.5C 199.163,419.676 199.996,421.509 201.5,423C 200.833,423.333 200.167,423.667 199.5,424C 201.44,423.822 203.107,424.822 204.5,427C 204.167,427.333 203.833,427.667 203.5,428C 204.667,429.833 205.833,431.667 207,433.5C 207.167,397.998 207.667,362.664 208.5,327.5 Z"/></g>
<g><path style="opacity:1" fill="#d6d6d7" d="M 262.5,464.5 C 308.167,464.5 353.833,464.5 399.5,464.5C 398.112,465.281 396.945,466.948 396,469.5C 394.582,466.999 393.582,467.332 393,470.5C 391.951,469.483 390.784,469.316 389.5,470C 389.833,470.333 390.167,470.667 390.5,471C 387.545,471.392 385.378,472.892 384,475.5C 382.286,474.075 380.953,474.408 380,476.5C 379.333,475.833 378.667,475.167 378,474.5C 376.333,475.5 375,476.833 374,478.5C 373.581,477.328 372.915,476.328 372,475.5C 371.383,476.449 371.549,477.282 372.5,478C 371.234,478.309 370.067,478.809 369,479.5C 368.667,478.833 368.333,478.167 368,477.5C 366.108,478.13 364.441,479.13 363,480.5C 362.667,480.167 362.333,479.833 362,479.5C 361.717,482.742 360.883,483.076 359.5,480.5C 358.304,480.846 358.304,481.346 359.5,482C 358.833,482.667 358.167,482.667 357.5,482C 356.258,478.643 355.424,478.81 355,482.5C 352.737,480.292 351.071,480.959 350,484.5C 349.374,482.009 348.541,482.009 347.5,484.5C 345.44,482.108 343.273,482.108 341,484.5C 339.667,480.5 338.333,480.5 337,484.5C 336.439,483.978 335.772,483.645 335,483.5C 332.219,485.664 329.386,485.83 326.5,484C 327.696,483.346 327.696,482.846 326.5,482.5C 325.402,483.615 324.235,483.615 323,482.5C 320.738,483.426 318.738,484.759 317,486.5C 315.263,479.978 312.597,479.311 309,484.5C 308.667,483.5 308.333,482.5 308,481.5C 306.333,481.5 304.667,481.5 303,481.5C 302.667,480.833 302.333,480.167 302,479.5C 299.667,479.5 297.333,479.5 295,479.5C 294.21,477.21 292.876,476.877 291,478.5C 289.374,477.711 287.874,476.711 286.5,475.5C 285.522,475.977 284.689,476.643 284,477.5C 281.878,476.78 281.378,475.613 282.5,474C 280.965,473.504 279.465,473.67 278,474.5C 277.955,473.077 276.789,472.077 274.5,471.5C 273.808,472.025 273.308,472.692 273,473.5C 272.5,472.333 271.667,471.5 270.5,471C 271.167,470.667 271.833,470.333 272.5,470C 271.234,469.691 270.067,469.191 269,468.5C 268.612,469.428 267.945,470.095 267,470.5C 265.278,470.389 265.112,469.889 266.5,469C 264.808,467.693 263.475,466.193 262.5,464.5 Z"/></g>
<g><path style="opacity:1" fill="#be4897" d="M 188.5,474.5 C 196.728,483.452 206.728,489.619 218.5,493C 255.167,493.167 291.833,493.333 328.5,493.5C 367.858,493.642 407.191,493.142 446.5,492C 457.228,488.761 466.228,482.928 473.5,474.5C 538.331,475.499 603.331,475.832 668.5,475.5C 668.334,481.509 668.501,487.509 669,493.5C 669.172,487.319 669.672,481.319 670.5,475.5C 670.5,516.167 670.5,556.833 670.5,597.5C 669.671,605.657 669.171,613.99 669,622.5C 668.5,614.173 668.334,605.84 668.5,597.5C 447.167,597.5 225.833,597.5 4.5,597.5C 4.49973,610.507 4.16639,623.507 3.5,636.5C 3.34683,643.359 4.0135,650.025 5.5,656.5C 3.95496,655.77 3.12162,654.437 3,652.5C 2.50001,605.835 2.33334,559.168 2.5,512.5C 2.33346,500.162 2.50012,487.829 3,475.5C 3.83253,499.491 4.33253,499.491 4.5,475.5C 66.0023,475.832 127.336,475.499 188.5,474.5 Z"/></g>
<g><path style="opacity:1" fill="#a53e82" d="M -0.5,441.5 C 0.166667,452.833 0.833333,464.167 1.5,475.5C 1.17145,488.011 1.50478,500.345 2.5,512.5C 2.33334,559.168 2.50001,605.835 3,652.5C 3.12162,654.437 3.95496,655.77 5.5,656.5C 7.41145,660.087 9.74478,663.42 12.5,666.5C 6.38027,663.047 2.04693,658.047 -0.5,651.5C -0.5,581.5 -0.5,511.5 -0.5,441.5 Z"/></g>
<g><path style="opacity:1" fill="#a94088" d="M 670.5,254.5 C 670.833,254.5 671.167,254.5 671.5,254.5C 671.167,328.335 671.501,402.002 672.5,475.5C 672.667,534.168 672.5,592.834 672,651.5C 671.617,652.056 671.117,652.389 670.5,652.5C 670.5,634.167 670.5,615.833 670.5,597.5C 670.5,556.833 670.5,516.167 670.5,475.5C 670.5,436.833 670.5,398.167 670.5,359.5C 670.5,324.5 670.5,289.5 670.5,254.5 Z"/></g>
<g><path style="opacity:1" fill="#c24996" d="M 670.5,597.5 C 670.5,615.833 670.5,634.167 670.5,652.5C 668.759,658.908 665.092,663.908 659.5,667.5C 444.861,668.663 230.194,668.83 15.5,668C 14.4734,667.487 13.4734,666.987 12.5,666.5C 9.74478,663.42 7.41145,660.087 5.5,656.5C 4.0135,650.025 3.34683,643.359 3.5,636.5C 4.16639,623.507 4.49973,610.507 4.5,597.5C 225.833,597.5 447.167,597.5 668.5,597.5C 668.334,605.84 668.5,614.173 669,622.5C 669.171,613.99 669.671,605.657 670.5,597.5 Z"/></g>
<g><path style="opacity:1" fill="#5b2245" d="M 673.5,656.5 C 673.5,657.167 673.5,657.833 673.5,658.5C 672.5,659.833 671.5,661.167 670.5,662.5C 668.167,663.833 665.833,665.167 663.5,666.5C 666.41,662.617 669.743,659.284 673.5,656.5 Z"/></g>
<g><path style="opacity:0.987" fill="#351429" d="M 1.5,660.5 C 4.58212,662.075 7.24878,664.242 9.5,667C 11.087,667.862 12.7536,668.529 14.5,669C 229.167,669.667 443.833,669.667 658.5,669C 659.737,668.768 660.737,668.268 661.5,667.5C 661.842,666.662 662.508,666.328 663.5,666.5C 665.833,665.167 668.167,663.833 670.5,662.5C 668.102,667.232 664.435,670.565 659.5,672.5C 444.167,672.5 228.833,672.5 13.5,672.5C 7.83964,670.173 3.83964,666.173 1.5,660.5 Z"/></g>
<g><path style="opacity:1" fill="#742b58" d="M -0.5,651.5 C 2.04693,658.047 6.38027,663.047 12.5,666.5C 13.4734,666.987 14.4734,667.487 15.5,668C 230.194,668.83 444.861,668.663 659.5,667.5C 660.167,667.5 660.833,667.5 661.5,667.5C 660.737,668.268 659.737,668.768 658.5,669C 443.833,669.667 229.167,669.667 14.5,669C 12.7536,668.529 11.087,667.862 9.5,667C 7.24878,664.242 4.58212,662.075 1.5,660.5C 0.833333,659.833 0.166667,659.167 -0.5,658.5C -0.5,656.167 -0.5,653.833 -0.5,651.5 Z"/></g>
</svg>
